<svg xmlns="http://www.w3.org/2000/svg" xmlns:xlink="http://www.w3.org/1999/xlink" width="500" zoomAndPan="magnify" viewBox="0 0 375 374.999991" height="500" preserveAspectRatio="xMidYMid meet" version="1.0"><defs><clipPath id="7ab9fabcd1"><path d="M 84 97.132812 L 290.929688 97.132812 L 290.929688 277.882812 L 84 277.882812 Z M 84 97.132812 " clip-rule="nonzero"/></clipPath></defs><g clip-path="url(#7ab9fabcd1)"><path fill="#ffffff" d="M 109.207031 277.859375 C 105.292969 277.859375 101.496094 277.230469 97.917969 275.992188 L 89.761719 273.167969 L 96.027344 267.238281 C 104.320312 259.382812 106.414062 250.328125 106.550781 243.542969 C 92.21875 227.652344 84.347656 207.828125 84.347656 187.496094 C 84.347656 137.671875 130.5625 97.132812 187.367188 97.132812 C 244.175781 97.132812 290.394531 137.671875 290.394531 187.496094 C 290.394531 237.320312 244.175781 277.855469 187.367188 277.855469 C 170.457031 277.855469 153.769531 274.191406 138.902344 267.230469 C 133.300781 271.195312 121.980469 277.859375 109.207031 277.859375 Z M 137.671875 254.925781 L 140.679688 256.449219 C 154.816406 263.597656 170.960938 267.378906 187.367188 267.378906 C 238.394531 267.378906 279.914062 231.542969 279.914062 187.496094 C 279.914062 143.449219 238.394531 107.609375 187.367188 107.609375 C 136.335938 107.609375 94.820312 143.449219 94.820312 187.496094 C 94.820312 205.804688 102.191406 223.699219 115.578125 237.890625 L 116.941406 239.332031 L 117.003906 241.316406 C 117.234375 248.4375 115.953125 258.09375 109.625 267.378906 C 121.757812 267.183594 132.910156 258.742188 135.042969 257.035156 Z M 137.671875 254.925781 " fill-opacity="1" fill-rule="nonzero"/></g><path fill="#ffffff" d="M 137.398438 212.210938 C 133.554688 212.210938 130.4375 211.910156 128.027344 211.304688 C 125.621094 210.707031 123.960938 210.089844 123.046875 209.460938 C 122.816406 209.230469 122.726562 208.703125 122.785156 207.871094 C 122.839844 207.042969 122.96875 206.179688 123.171875 205.296875 C 123.371094 204.410156 123.628906 203.613281 123.945312 202.933594 C 124.257812 202.25 124.554688 201.929688 124.847656 201.988281 C 126.335938 202.503906 127.957031 203.007812 129.703125 203.492188 C 131.449219 203.976562 133.671875 204.222656 136.363281 204.222656 C 139.117188 204.222656 141.449219 203.824219 143.375 203.019531 C 145.289062 202.214844 146.253906 200.78125 146.253906 198.722656 C 146.253906 196.9375 145.621094 195.492188 144.359375 194.378906 C 143.101562 193.261719 140.835938 192.070312 137.570312 190.816406 C 135.789062 190.121094 134.117188 189.363281 132.539062 188.53125 C 130.960938 187.703125 129.574219 186.726562 128.371094 185.609375 C 127.164062 184.492188 126.222656 183.160156 125.535156 181.613281 C 124.84375 180.070312 124.5 178.234375 124.5 176.113281 C 124.5 174.394531 124.832031 172.757812 125.488281 171.210938 C 126.144531 169.664062 127.164062 168.328125 128.539062 167.214844 C 129.914062 166.097656 131.679688 165.207031 133.828125 164.550781 C 135.980469 163.890625 138.542969 163.558594 141.523438 163.558594 C 143.46875 163.558594 145.089844 163.605469 146.378906 163.6875 C 147.667969 163.773438 148.726562 163.890625 149.5625 164.035156 C 150.390625 164.179688 151.066406 164.335938 151.582031 164.507812 C 152.097656 164.679688 152.585938 164.824219 153.042969 164.9375 C 153.445312 165.109375 153.644531 165.609375 153.644531 166.441406 C 153.644531 167.273438 153.527344 168.160156 153.300781 169.109375 C 153.070312 170.050781 152.753906 170.882812 152.355469 171.597656 C 151.953125 172.316406 151.554688 172.617188 151.152344 172.503906 C 150.179688 172.21875 148.84375 171.902344 147.15625 171.558594 C 145.464844 171.214844 143.816406 171.042969 142.210938 171.042969 C 138.945312 171.042969 136.695312 171.503906 135.464844 172.417969 C 134.230469 173.335938 133.617188 174.566406 133.617188 176.113281 C 133.617188 177.777344 134.304688 179.109375 135.679688 180.109375 C 137.054688 181.113281 139.207031 182.128906 142.125 183.164062 C 146.769531 184.996094 150.195312 187.101562 152.398438 189.480469 C 154.605469 191.859375 155.710938 194.851562 155.710938 198.464844 C 155.710938 201.160156 155.195312 203.394531 154.164062 205.175781 C 153.128906 206.949219 151.753906 208.355469 150.035156 209.382812 C 148.316406 210.417969 146.355469 211.148438 144.148438 211.574219 C 141.941406 211.996094 139.691406 212.210938 137.398438 212.210938 Z M 137.398438 212.210938 " fill-opacity="1" fill-rule="nonzero"/><path fill="#ffffff" d="M 199.378906 211.78125 C 198.175781 211.78125 197.386719 211.582031 197.015625 211.179688 C 196.640625 210.78125 196.460938 210.007812 196.460938 208.855469 L 196.460938 178.769531 C 194.167969 182.496094 192.398438 185.375 191.167969 187.410156 C 189.929688 189.445312 189.035156 190.9375 188.460938 191.882812 C 187.886719 192.824219 187.542969 193.386719 187.421875 193.554688 C 187.3125 193.730469 187.257812 193.847656 187.257812 193.902344 C 186.746094 194.761719 186.382812 195.320312 186.183594 195.582031 C 185.980469 195.84375 185.5625 195.964844 184.933594 195.964844 L 183.558594 195.964844 C 182.816406 195.964844 182.328125 195.835938 182.097656 195.582031 C 181.871094 195.320312 181.523438 194.761719 181.066406 193.902344 L 172.296875 178.949219 L 172.296875 209.382812 C 172.296875 210.128906 172.167969 210.71875 171.910156 211.144531 C 171.652344 211.574219 170.980469 211.789062 169.890625 211.789062 L 166.285156 211.789062 C 165.480469 211.789062 164.78125 211.664062 164.175781 211.402344 C 163.574219 211.144531 163.269531 210.304688 163.269531 208.863281 L 163.269531 167.597656 C 163.269531 166.449219 163.484375 165.691406 163.914062 165.316406 C 164.34375 164.945312 164.960938 164.761719 165.765625 164.761719 L 170.0625 164.761719 C 170.691406 164.761719 171.222656 164.84375 171.652344 165.015625 C 172.082031 165.191406 172.523438 165.617188 172.984375 166.304688 L 184.417969 184.53125 L 195.847656 166.476562 C 196.195312 165.847656 196.605469 165.40625 197.101562 165.144531 C 197.589844 164.886719 198.058594 164.761719 198.519531 164.761719 L 203.25 164.761719 C 204.339844 164.761719 204.964844 164.988281 205.140625 165.445312 C 205.316406 165.90625 205.398438 166.652344 205.398438 167.683594 L 205.398438 209.285156 C 205.398438 210.144531 205.285156 210.777344 205.054688 211.179688 C 204.824219 211.582031 204.164062 211.78125 203.082031 211.78125 Z M 199.378906 211.78125 " fill-opacity="1" fill-rule="nonzero"/><path fill="#ffffff" d="M 228.007812 212.210938 C 224.164062 212.210938 221.046875 211.910156 218.636719 211.304688 C 216.230469 210.707031 214.566406 210.089844 213.65625 209.460938 C 213.425781 209.230469 213.335938 208.703125 213.394531 207.871094 C 213.449219 207.042969 213.574219 206.179688 213.777344 205.296875 C 213.976562 204.410156 214.234375 203.613281 214.550781 202.933594 C 214.863281 202.246094 215.160156 201.929688 215.453125 201.988281 C 216.945312 202.503906 218.566406 203.007812 220.308594 203.492188 C 222.054688 203.980469 224.277344 204.222656 226.972656 204.222656 C 229.722656 204.222656 232.050781 203.824219 233.980469 203.019531 C 235.894531 202.214844 236.863281 200.78125 236.863281 198.722656 C 236.863281 196.9375 236.230469 195.492188 234.96875 194.378906 C 233.703125 193.261719 231.441406 192.070312 228.171875 190.816406 C 226.394531 190.121094 224.722656 189.363281 223.144531 188.53125 C 221.566406 187.703125 220.179688 186.726562 218.972656 185.609375 C 217.769531 184.492188 216.828125 183.160156 216.136719 181.613281 C 215.445312 180.066406 215.101562 178.234375 215.101562 176.113281 C 215.101562 174.394531 215.4375 172.757812 216.089844 171.210938 C 216.75 169.664062 217.769531 168.328125 219.144531 167.214844 C 220.519531 166.097656 222.28125 165.207031 224.429688 164.550781 C 226.582031 163.890625 229.148438 163.558594 232.125 163.558594 C 234.074219 163.558594 235.695312 163.605469 236.980469 163.6875 C 238.269531 163.773438 239.328125 163.890625 240.167969 164.035156 C 240.992188 164.179688 241.667969 164.335938 242.1875 164.507812 C 242.699219 164.679688 243.1875 164.824219 243.648438 164.9375 C 244.046875 165.109375 244.25 165.609375 244.25 166.441406 C 244.25 167.273438 244.132812 168.160156 243.902344 169.109375 C 243.675781 170.050781 243.359375 170.882812 242.964844 171.597656 C 242.558594 172.316406 242.15625 172.617188 241.757812 172.503906 C 240.785156 172.21875 239.445312 171.902344 237.761719 171.558594 C 236.070312 171.214844 234.421875 171.042969 232.820312 171.042969 C 229.550781 171.042969 227.300781 171.503906 226.074219 172.417969 C 224.839844 173.335938 224.222656 174.566406 224.222656 176.113281 C 224.222656 177.777344 224.914062 179.109375 226.289062 180.109375 C 227.660156 181.113281 229.8125 182.128906 232.734375 183.164062 C 237.371094 184.996094 240.800781 187.101562 243.003906 189.480469 C 245.210938 191.859375 246.316406 194.851562 246.316406 198.464844 C 246.316406 201.160156 245.800781 203.394531 244.769531 205.175781 C 243.738281 206.949219 242.363281 208.355469 240.644531 209.382812 C 238.925781 210.417969 236.960938 211.148438 234.753906 211.574219 C 232.542969 211.996094 230.300781 212.210938 228.007812 212.210938 Z M 228.007812 212.210938 " fill-opacity="1" fill-rule="nonzero"/></svg>