<svg xmlns="http://www.w3.org/2000/svg" xmlns:xlink="http://www.w3.org/1999/xlink" width="500" zoomAndPan="magnify" viewBox="0 0 375 374.999991" height="500" preserveAspectRatio="xMidYMid meet" version="1.0"><defs><clipPath id="393d463c36"><path d="M 90 203 L 297 203 L 297 267.265625 L 90 267.265625 Z M 90 203 " clip-rule="nonzero"/></clipPath><clipPath id="e9dc523077"><path d="M 78.035156 129 L 156 129 L 156 258 L 78.035156 258 Z M 78.035156 129 " clip-rule="nonzero"/></clipPath><clipPath id="b5a9f34310"><path d="M 90 119.515625 L 297 119.515625 L 297 206 L 90 206 Z M 90 119.515625 " clip-rule="nonzero"/></clipPath><clipPath id="464dccbe62"><path d="M 231 129 L 308.285156 129 L 308.285156 258 L 231 258 Z M 231 129 " clip-rule="nonzero"/></clipPath></defs><g clip-path="url(#393d463c36)"><path fill="#ffffff" d="M 295.578125 264.582031 L 223.316406 204.539062 C 221.207031 202.785156 218.144531 202.785156 216.03125 204.539062 L 196.5625 220.714844 C 194.605469 222.34375 191.765625 222.34375 189.804688 220.714844 L 170.339844 204.539062 C 168.226562 202.785156 165.164062 202.785156 163.050781 204.539062 L 90.789062 264.582031 C 89.796875 265.410156 90.378906 267.027344 91.675781 267.027344 L 294.695312 267.027344 C 295.988281 267.027344 296.570312 265.410156 295.578125 264.582031 " fill-opacity="1" fill-rule="nonzero"/></g><g clip-path="url(#e9dc523077)"><path fill="#ffffff" d="M 154.023438 190.984375 L 80.328125 129.75 C 79.429688 129.003906 78.066406 129.644531 78.066406 130.8125 L 78.066406 255.953125 C 78.066406 257.125 79.429688 257.765625 80.328125 257.019531 L 154.023438 195.785156 C 155.527344 194.535156 155.527344 192.230469 154.023438 190.984375 " fill-opacity="1" fill-rule="nonzero"/></g><g clip-path="url(#b5a9f34310)"><path fill="#ffffff" d="M 90.792969 122.1875 L 190.417969 204.96875 C 192.023438 206.300781 194.347656 206.300781 195.949219 204.96875 L 295.578125 122.1875 C 296.570312 121.359375 295.988281 119.742188 294.695312 119.742188 L 91.675781 119.742188 C 90.378906 119.742188 89.796875 121.359375 90.792969 122.1875 " fill-opacity="1" fill-rule="nonzero"/></g><g clip-path="url(#464dccbe62)"><path fill="#ffffff" d="M 306.042969 129.75 L 232.34375 190.984375 C 230.84375 192.230469 230.84375 194.535156 232.34375 195.785156 L 306.042969 257.019531 C 306.941406 257.765625 308.300781 257.128906 308.300781 255.957031 L 308.300781 130.8125 C 308.300781 129.644531 306.941406 129.003906 306.042969 129.75 " fill-opacity="1" fill-rule="nonzero"/></g></svg>