<svg xmlns="http://www.w3.org/2000/svg" xmlns:xlink="http://www.w3.org/1999/xlink" width="500" zoomAndPan="magnify" viewBox="0 0 375 374.999991" height="500" preserveAspectRatio="xMidYMid meet" version="1.0"><defs><clipPath id="585e34ed4f"><path d="M 166 109 L 199 109 L 199 141 L 166 141 Z M 166 109 " clip-rule="nonzero"/></clipPath><clipPath id="ad29cb8f15"><path d="M 118.222656 90.023438 L 240.070312 80.113281 L 256.726562 284.9375 L 134.878906 294.847656 Z M 118.222656 90.023438 " clip-rule="nonzero"/></clipPath><clipPath id="580ddd6454"><path d="M 118.222656 90.023438 L 240.070312 80.113281 L 256.726562 284.9375 L 134.878906 294.847656 Z M 118.222656 90.023438 " clip-rule="nonzero"/></clipPath><clipPath id="b373d29b6d"><path d="M 119 81 L 247 81 L 247 164 L 119 164 Z M 119 81 " clip-rule="nonzero"/></clipPath><clipPath id="7aea5d3038"><path d="M 118.222656 90.023438 L 240.070312 80.113281 L 256.726562 284.9375 L 134.878906 294.847656 Z M 118.222656 90.023438 " clip-rule="nonzero"/></clipPath><clipPath id="fb57985e12"><path d="M 118.222656 90.023438 L 240.070312 80.113281 L 256.726562 284.9375 L 134.878906 294.847656 Z M 118.222656 90.023438 " clip-rule="nonzero"/></clipPath><clipPath id="ed5c3ea35b"><path d="M 124 160 L 255 160 L 255 281 L 124 281 Z M 124 160 " clip-rule="nonzero"/></clipPath><clipPath id="3a34d1be70"><path d="M 118.222656 90.023438 L 240.070312 80.113281 L 256.726562 284.9375 L 134.878906 294.847656 Z M 118.222656 90.023438 " clip-rule="nonzero"/></clipPath><clipPath id="45018bb460"><path d="M 118.222656 90.023438 L 240.070312 80.113281 L 256.726562 284.9375 L 134.878906 294.847656 Z M 118.222656 90.023438 " clip-rule="nonzero"/></clipPath><clipPath id="3a50a2ecd9"><path d="M 148 279 L 243 279 L 243 294 L 148 294 Z M 148 279 " clip-rule="nonzero"/></clipPath><clipPath id="9967de7de0"><path d="M 118.222656 90.023438 L 240.070312 80.113281 L 256.726562 284.9375 L 134.878906 294.847656 Z M 118.222656 90.023438 " clip-rule="nonzero"/></clipPath><clipPath id="20c0b5c6f6"><path d="M 118.222656 90.023438 L 240.070312 80.113281 L 256.726562 284.9375 L 134.878906 294.847656 Z M 118.222656 90.023438 " clip-rule="nonzero"/></clipPath></defs><g clip-path="url(#585e34ed4f)"><g clip-path="url(#ad29cb8f15)"><g clip-path="url(#580ddd6454)"><path fill="#ffffff" d="M 198.089844 123.667969 C 198.175781 124.699219 198.15625 125.726562 198.039062 126.75 C 197.917969 127.777344 197.703125 128.78125 197.386719 129.765625 C 197.066406 130.75 196.660156 131.691406 196.15625 132.59375 C 195.652344 133.496094 195.070312 134.339844 194.398438 135.128906 C 193.730469 135.914062 192.992188 136.628906 192.183594 137.269531 C 191.375 137.914062 190.507812 138.46875 189.589844 138.941406 C 188.671875 139.410156 187.714844 139.789062 186.722656 140.070312 C 185.726562 140.355469 184.714844 140.539062 183.6875 140.621094 C 182.65625 140.707031 181.628906 140.6875 180.605469 140.570312 C 179.578125 140.449219 178.574219 140.234375 177.589844 139.917969 C 176.605469 139.601562 175.664062 139.191406 174.761719 138.6875 C 173.859375 138.1875 173.015625 137.601562 172.226562 136.929688 C 171.441406 136.261719 170.726562 135.523438 170.085938 134.714844 C 169.441406 133.90625 168.886719 133.039062 168.414062 132.121094 C 167.945312 131.203125 167.566406 130.246094 167.285156 129.253906 C 167 128.257812 166.816406 127.25 166.734375 126.21875 C 166.648438 125.1875 166.667969 124.160156 166.785156 123.136719 C 166.90625 122.109375 167.121094 121.105469 167.441406 120.121094 C 167.757812 119.140625 168.164062 118.195312 168.667969 117.292969 C 169.171875 116.390625 169.753906 115.546875 170.425781 114.757812 C 171.09375 113.972656 171.832031 113.257812 172.640625 112.617188 C 173.449219 111.972656 174.316406 111.417969 175.234375 110.945312 C 176.152344 110.476562 177.109375 110.097656 178.101562 109.816406 C 179.097656 109.53125 180.109375 109.347656 181.136719 109.265625 C 182.167969 109.183594 183.195312 109.199219 184.21875 109.316406 C 185.246094 109.4375 186.25 109.65625 187.234375 109.972656 C 188.21875 110.289062 189.160156 110.695312 190.0625 111.199219 C 190.964844 111.703125 191.808594 112.289062 192.597656 112.957031 C 193.382812 113.625 194.097656 114.363281 194.738281 115.171875 C 195.382812 115.984375 195.9375 116.847656 196.410156 117.765625 C 196.878906 118.683594 197.257812 119.640625 197.539062 120.632812 C 197.824219 121.628906 198.007812 122.640625 198.089844 123.667969 Z M 198.089844 123.667969 " fill-opacity="1" fill-rule="nonzero"/></g></g></g><g clip-path="url(#b373d29b6d)"><g clip-path="url(#7aea5d3038)"><g clip-path="url(#fb57985e12)"><path fill="#ffffff" d="M 246.003906 153.746094 L 241.601562 99.621094 C 240.726562 88.859375 231.257812 80.816406 220.496094 81.691406 L 137.839844 88.414062 C 127.078125 89.289062 119.035156 98.753906 119.910156 109.519531 L 124.3125 163.644531 Z M 180.613281 102.8125 C 192.816406 101.820312 203.550781 110.941406 204.542969 123.144531 C 205.535156 135.347656 196.414062 146.082031 184.210938 147.074219 C 172.007812 148.066406 161.273438 138.945312 160.28125 126.742188 C 159.289062 114.539062 168.410156 103.804688 180.613281 102.8125 Z M 180.613281 102.8125 " fill-opacity="1" fill-rule="nonzero"/></g></g></g><g clip-path="url(#ed5c3ea35b)"><g clip-path="url(#3a34d1be70)"><g clip-path="url(#45018bb460)"><path fill="#ffffff" d="M 124.835938 170.09375 L 132.371094 262.769531 C 133.25 273.53125 142.714844 281.574219 153.476562 280.699219 L 236.132812 273.976562 C 246.894531 273.101562 254.9375 263.636719 254.0625 252.871094 L 246.527344 160.199219 Z M 159.03125 244.15625 C 159.175781 245.9375 157.847656 247.5 156.066406 247.644531 C 154.285156 247.789062 152.722656 246.464844 152.578125 244.683594 L 152.421875 242.785156 C 152.277344 241.003906 153.605469 239.441406 155.386719 239.296875 C 157.167969 239.152344 158.730469 240.480469 158.875 242.261719 Z M 156.585938 214.128906 C 156.734375 215.914062 155.40625 217.472656 153.625 217.617188 C 151.84375 217.765625 150.28125 216.4375 150.136719 214.65625 L 149.980469 212.757812 C 149.835938 210.976562 151.164062 209.414062 152.945312 209.269531 C 154.726562 209.125 156.289062 210.453125 156.433594 212.234375 Z M 154.144531 184.101562 C 154.289062 185.886719 152.964844 187.445312 151.183594 187.59375 C 149.402344 187.738281 147.839844 186.410156 147.695312 184.628906 L 147.539062 182.730469 C 147.394531 180.949219 148.722656 179.386719 150.503906 179.242188 C 152.285156 179.097656 153.847656 180.425781 153.992188 182.207031 Z M 169.273438 258.4375 C 169.417969 260.21875 168.089844 261.78125 166.308594 261.925781 C 164.527344 262.070312 162.964844 260.742188 162.820312 258.960938 L 162.664062 257.066406 C 162.519531 255.285156 163.847656 253.722656 165.628906 253.578125 C 167.410156 253.433594 168.972656 254.757812 169.117188 256.539062 Z M 166.832031 228.410156 C 166.976562 230.191406 165.648438 231.753906 163.867188 231.898438 C 162.085938 232.042969 160.523438 230.714844 160.378906 228.933594 L 160.222656 227.039062 C 160.078125 225.257812 161.40625 223.695312 163.1875 223.550781 C 164.96875 223.40625 166.53125 224.730469 166.675781 226.515625 Z M 164.386719 198.382812 C 164.53125 200.164062 163.207031 201.726562 161.425781 201.871094 C 159.644531 202.015625 158.082031 200.691406 157.9375 198.90625 L 157.78125 197.011719 C 157.636719 195.230469 158.964844 193.667969 160.746094 193.523438 C 162.527344 193.378906 164.089844 194.703125 164.234375 196.488281 Z M 177.074219 242.691406 C 177.21875 244.472656 175.890625 246.035156 174.109375 246.179688 C 172.328125 246.324219 170.765625 244.996094 170.621094 243.214844 L 170.464844 241.316406 C 170.320312 239.535156 171.648438 237.976562 173.429688 237.828125 C 175.210938 237.683594 176.773438 239.011719 176.917969 240.792969 Z M 174.628906 212.664062 C 174.777344 214.445312 173.449219 216.007812 171.667969 216.152344 C 169.886719 216.296875 168.324219 214.96875 168.179688 213.1875 L 168.023438 211.292969 C 167.878906 209.507812 169.207031 207.949219 170.988281 207.804688 C 172.769531 207.65625 174.332031 208.984375 174.476562 210.765625 Z M 172.1875 182.636719 C 172.332031 184.417969 171.007812 185.980469 169.226562 186.125 C 167.445312 186.269531 165.882812 184.941406 165.738281 183.160156 L 165.582031 181.265625 C 165.4375 179.484375 166.765625 177.921875 168.546875 177.777344 C 170.328125 177.632812 171.890625 178.957031 172.035156 180.738281 Z M 187.316406 256.96875 C 187.460938 258.75 186.132812 260.3125 184.351562 260.457031 C 182.570312 260.601562 181.007812 259.277344 180.863281 257.496094 L 180.710938 255.597656 C 180.5625 253.816406 181.890625 252.253906 183.671875 252.109375 C 185.453125 251.964844 187.015625 253.292969 187.160156 255.074219 Z M 184.875 226.941406 C 185.019531 228.722656 183.691406 230.285156 181.910156 230.429688 C 180.128906 230.574219 178.566406 229.25 178.421875 227.46875 L 178.265625 225.570312 C 178.121094 223.789062 179.449219 222.226562 181.230469 222.082031 C 183.011719 221.9375 184.574219 223.265625 184.71875 225.046875 Z M 182.429688 196.914062 C 182.578125 198.699219 181.25 200.257812 179.46875 200.40625 C 177.6875 200.550781 176.125 199.222656 175.980469 197.441406 L 175.824219 195.542969 C 175.679688 193.761719 177.007812 192.199219 178.789062 192.054688 C 180.570312 191.910156 182.132812 193.238281 182.277344 195.019531 Z M 195.117188 241.222656 C 195.261719 243.003906 193.933594 244.566406 192.152344 244.710938 C 190.371094 244.855469 188.808594 243.527344 188.664062 241.746094 L 188.507812 239.851562 C 188.363281 238.070312 189.691406 236.507812 191.472656 236.363281 C 193.253906 236.21875 194.816406 237.542969 194.960938 239.328125 Z M 192.675781 211.195312 C 192.820312 212.976562 191.492188 214.539062 189.710938 214.683594 C 187.929688 214.828125 186.367188 213.503906 186.222656 211.71875 L 186.066406 209.824219 C 185.921875 208.042969 187.25 206.480469 189.03125 206.335938 C 190.8125 206.191406 192.375 207.515625 192.519531 209.300781 Z M 190.230469 181.167969 C 190.378906 182.949219 189.050781 184.511719 187.269531 184.65625 C 185.488281 184.800781 183.925781 183.476562 183.78125 181.695312 L 183.625 179.796875 C 183.480469 178.015625 184.808594 176.453125 186.589844 176.308594 C 188.371094 176.164062 189.933594 177.492188 190.078125 179.273438 Z M 205.359375 255.503906 C 205.503906 257.285156 204.175781 258.847656 202.394531 258.992188 C 200.613281 259.136719 199.050781 257.808594 198.90625 256.027344 L 198.753906 254.128906 C 198.605469 252.347656 199.933594 250.785156 201.714844 250.640625 C 203.496094 250.496094 205.058594 251.824219 205.203125 253.605469 Z M 202.917969 225.476562 C 203.0625 227.257812 201.734375 228.820312 199.953125 228.964844 C 198.171875 229.109375 196.609375 227.78125 196.464844 226 L 196.308594 224.105469 C 196.164062 222.320312 197.492188 220.761719 199.273438 220.613281 C 201.054688 220.46875 202.617188 221.796875 202.761719 223.578125 Z M 200.472656 195.449219 C 200.621094 197.230469 199.292969 198.792969 197.511719 198.9375 C 195.730469 199.082031 194.167969 197.753906 194.023438 195.972656 L 193.867188 194.078125 C 193.722656 192.296875 195.050781 190.734375 196.832031 190.589844 C 198.613281 190.445312 200.175781 191.769531 200.320312 193.550781 Z M 213.160156 239.753906 C 213.304688 241.535156 211.976562 243.097656 210.195312 243.242188 C 208.414062 243.386719 206.851562 242.0625 206.707031 240.28125 L 206.554688 238.382812 C 206.40625 236.601562 207.734375 235.039062 209.515625 234.894531 C 211.296875 234.75 212.859375 236.078125 213.003906 237.859375 Z M 210.71875 209.726562 C 210.863281 211.511719 209.535156 213.070312 207.753906 213.21875 C 205.972656 213.363281 204.410156 212.035156 204.265625 210.253906 L 204.109375 208.355469 C 203.964844 206.574219 205.292969 205.011719 207.074219 204.867188 C 208.855469 204.722656 210.417969 206.050781 210.5625 207.832031 Z M 208.277344 179.703125 C 208.421875 181.484375 207.09375 183.046875 205.3125 183.191406 C 203.53125 183.335938 201.96875 182.007812 201.824219 180.226562 L 201.667969 178.328125 C 201.523438 176.546875 202.851562 174.984375 204.632812 174.839844 C 206.414062 174.695312 207.976562 176.023438 208.121094 177.804688 Z M 223.402344 254.035156 C 223.546875 255.816406 222.21875 257.378906 220.4375 257.523438 C 218.65625 257.667969 217.09375 256.339844 216.949219 254.558594 L 216.796875 252.664062 C 216.652344 250.882812 217.976562 249.320312 219.757812 249.175781 C 221.539062 249.03125 223.101562 250.355469 223.246094 252.136719 Z M 220.960938 224.007812 C 221.105469 225.789062 219.777344 227.351562 217.996094 227.496094 C 216.214844 227.640625 214.652344 226.316406 214.507812 224.53125 L 214.351562 222.636719 C 214.207031 220.855469 215.535156 219.292969 217.316406 219.148438 C 219.097656 219.003906 220.660156 220.328125 220.804688 222.113281 Z M 218.519531 193.980469 C 218.664062 195.761719 217.335938 197.324219 215.554688 197.46875 C 213.773438 197.613281 212.210938 196.289062 212.066406 194.503906 L 211.910156 192.609375 C 211.765625 190.828125 213.09375 189.265625 214.875 189.121094 C 216.65625 188.976562 218.21875 190.304688 218.363281 192.085938 Z M 231.203125 238.289062 C 231.347656 240.070312 230.019531 241.632812 228.238281 241.777344 C 226.457031 241.921875 224.894531 240.59375 224.75 238.8125 L 224.597656 236.917969 C 224.449219 235.132812 225.777344 233.574219 227.558594 233.425781 C 229.339844 233.28125 230.902344 234.609375 231.046875 236.390625 Z M 228.761719 208.261719 C 228.90625 210.042969 227.578125 211.605469 225.796875 211.75 C 224.015625 211.894531 222.453125 210.566406 222.308594 208.785156 L 222.152344 206.890625 C 222.007812 205.109375 223.335938 203.546875 225.117188 203.402344 C 226.898438 203.257812 228.460938 204.582031 228.605469 206.363281 Z M 226.320312 178.234375 C 226.464844 180.015625 225.136719 181.578125 223.355469 181.722656 C 221.574219 181.867188 220.011719 180.539062 219.867188 178.757812 L 219.710938 176.863281 C 219.566406 175.082031 220.894531 173.519531 222.675781 173.375 C 224.457031 173.230469 226.019531 174.554688 226.164062 176.335938 Z M 226.320312 178.234375 " fill-opacity="1" fill-rule="nonzero"/></g></g></g><g clip-path="url(#3a50a2ecd9)"><g clip-path="url(#9967de7de0)"><g clip-path="url(#20c0b5c6f6)"><path fill="#ffffff" d="M 236.660156 280.429688 L 154.003906 287.152344 C 151.976562 287.316406 149.988281 287.234375 148.058594 286.949219 L 148.289062 287.507812 C 149.785156 291.136719 153.421875 293.359375 157.335938 293.042969 L 234.320312 286.78125 C 238.234375 286.460938 241.460938 283.679688 242.355469 279.855469 L 242.492188 279.269531 C 240.632812 279.863281 238.683594 280.265625 236.660156 280.429688 Z M 236.660156 280.429688 " fill-opacity="1" fill-rule="nonzero"/></g></g></g></svg>