<svg xmlns="http://www.w3.org/2000/svg" xmlns:xlink="http://www.w3.org/1999/xlink" width="500" zoomAndPan="magnify" viewBox="0 0 375 374.999991" height="500" preserveAspectRatio="xMidYMid meet" version="1.0"><defs><clipPath id="1deb6c3b19"><path d="M 113.164062 129.347656 L 266.632812 129.347656 L 266.632812 274.53125 L 113.164062 274.53125 Z M 113.164062 129.347656 " clip-rule="nonzero"/></clipPath></defs><g clip-path="url(#1deb6c3b19)"><path fill="#ffffff" d="M 265.632812 194.917969 L 193.1875 130.921875 C 191.308594 129.261719 188.488281 129.261719 186.609375 130.921875 L 114.160156 194.917969 C 113.628906 195.386719 113.324219 196.066406 113.324219 196.777344 L 113.324219 272.050781 C 113.324219 273.421875 114.433594 274.53125 115.804688 274.53125 L 166.734375 274.53125 C 168.101562 274.53125 169.214844 273.421875 169.214844 272.050781 L 169.214844 223.972656 C 169.214844 218.492188 173.660156 214.042969 179.144531 214.042969 L 200.648438 214.042969 C 206.136719 214.042969 210.582031 218.492188 210.582031 223.972656 L 210.582031 272.050781 C 210.582031 273.421875 211.691406 274.53125 213.0625 274.53125 L 263.992188 274.53125 C 265.359375 274.53125 266.472656 273.421875 266.472656 272.050781 L 266.472656 196.777344 C 266.472656 196.066406 266.167969 195.386719 265.632812 194.917969 " fill-opacity="1" fill-rule="nonzero"/></g><path fill="#ffffff" d="M 285.59375 170.085938 L 203.007812 97.503906 C 195.507812 90.914062 184.285156 90.914062 176.785156 97.503906 L 94.203125 170.085938 C 90.128906 173.664062 89.929688 179.9375 93.761719 183.769531 C 97.265625 187.269531 102.882812 187.449219 106.597656 184.175781 L 183.335938 116.589844 C 187.085938 113.285156 192.710938 113.285156 196.460938 116.589844 L 273.199219 184.175781 C 276.914062 187.449219 282.53125 187.269531 286.035156 183.769531 C 289.867188 179.9375 289.664062 173.664062 285.59375 170.085938 " fill-opacity="1" fill-rule="nonzero"/></svg>