<svg xmlns="http://www.w3.org/2000/svg" xmlns:xlink="http://www.w3.org/1999/xlink" width="500" zoomAndPan="magnify" viewBox="0 0 375 374.999991" height="500" preserveAspectRatio="xMidYMid meet" version="1.0"><defs><clipPath id="056d254b94"><path d="M 109 86.214844 L 301.742188 86.214844 L 301.742188 282.714844 L 109 282.714844 Z M 109 86.214844 " clip-rule="nonzero"/></clipPath></defs><g clip-path="url(#056d254b94)"><path fill="#ffffff" d="M 170.550781 86.222656 C 170.128906 86.226562 169.710938 86.269531 169.296875 86.355469 C 168.886719 86.441406 168.484375 86.5625 168.097656 86.726562 C 167.707031 86.890625 167.339844 87.089844 166.988281 87.324219 C 166.636719 87.558594 166.3125 87.824219 166.015625 88.125 C 165.71875 88.421875 165.453125 88.746094 165.214844 89.09375 C 164.980469 89.445312 164.78125 89.816406 164.621094 90.203125 C 164.457031 90.59375 164.332031 90.992188 164.246094 91.40625 C 164.164062 91.820312 164.117188 92.234375 164.113281 92.65625 L 164.140625 99.042969 L 115.859375 99.078125 C 115.4375 99.082031 115.019531 99.128906 114.605469 99.210938 C 114.195312 99.296875 113.792969 99.421875 113.40625 99.585938 C 113.015625 99.746094 112.648438 99.945312 112.296875 100.179688 C 111.945312 100.417969 111.621094 100.683594 111.324219 100.980469 C 111.027344 101.277344 110.761719 101.601562 110.527344 101.953125 C 110.289062 102.300781 110.089844 102.671875 109.929688 103.058594 C 109.765625 103.449219 109.640625 103.851562 109.554688 104.261719 C 109.472656 104.675781 109.425781 105.09375 109.421875 105.515625 L 109.421875 276.039062 C 109.425781 276.460938 109.472656 276.878906 109.554688 277.292969 C 109.640625 277.703125 109.765625 278.105469 109.929688 278.492188 C 110.089844 278.882812 110.289062 279.25 110.527344 279.601562 C 110.761719 279.953125 111.027344 280.273438 111.324219 280.574219 C 111.621094 280.871094 111.945312 281.136719 112.296875 281.371094 C 112.648438 281.609375 113.015625 281.808594 113.40625 281.96875 C 113.792969 282.132812 114.195312 282.257812 114.605469 282.339844 C 115.019531 282.425781 115.4375 282.472656 115.859375 282.476562 L 244.558594 282.476562 C 244.980469 282.472656 245.394531 282.425781 245.808594 282.339844 C 246.222656 282.257812 246.621094 282.132812 247.011719 281.96875 C 247.398438 281.808594 247.769531 281.609375 248.117188 281.371094 C 248.46875 281.136719 248.792969 280.871094 249.089844 280.574219 C 249.390625 280.273438 249.65625 279.953125 249.890625 279.601562 C 250.125 279.25 250.324219 278.882812 250.488281 278.492188 C 250.648438 278.105469 250.773438 277.703125 250.859375 277.292969 C 250.945312 276.878906 250.988281 276.460938 250.992188 276.039062 L 250.992188 176.34375 L 299.730469 111.34375 C 300.308594 110.683594 300.730469 109.933594 300.992188 109.09375 C 301.257812 108.257812 301.34375 107.398438 301.253906 106.527344 C 301.082031 105.671875 300.753906 104.882812 300.261719 104.160156 C 299.769531 103.441406 299.160156 102.84375 298.425781 102.371094 L 282.992188 90.734375 C 282.289062 90.171875 281.503906 89.773438 280.636719 89.535156 C 279.769531 89.300781 278.890625 89.246094 278 89.375 C 277.171875 89.5625 276.402344 89.894531 275.699219 90.371094 C 274.996094 90.847656 274.398438 91.433594 273.917969 92.136719 L 250.992188 122.699219 L 250.992188 105.515625 C 250.988281 105.09375 250.945312 104.675781 250.859375 104.261719 C 250.773438 103.851562 250.648438 103.449219 250.488281 103.058594 C 250.324219 102.671875 250.125 102.300781 249.890625 101.953125 C 249.65625 101.601562 249.390625 101.277344 249.089844 100.980469 C 248.792969 100.683594 248.46875 100.417969 248.117188 100.179688 C 247.769531 99.945312 247.398438 99.746094 247.011719 99.585938 C 246.621094 99.421875 246.222656 99.296875 245.808594 99.210938 C 245.394531 99.128906 244.980469 99.082031 244.558594 99.078125 C 228.480469 99.058594 212.398438 99.117188 196.320312 99.042969 L 196.296875 92.632812 C 196.289062 92.210938 196.246094 91.796875 196.160156 91.382812 C 196.074219 90.972656 195.949219 90.570312 195.785156 90.183594 C 195.621094 89.796875 195.421875 89.429688 195.1875 89.082031 C 194.953125 88.730469 194.683594 88.410156 194.386719 88.113281 C 194.089844 87.816406 193.765625 87.550781 193.414062 87.316406 C 193.066406 87.082031 192.699219 86.882812 192.308594 86.722656 C 191.921875 86.558594 191.519531 86.4375 191.109375 86.351562 C 190.695312 86.269531 190.28125 86.226562 189.859375 86.222656 Z M 170.550781 92.65625 L 189.859375 92.65625 L 189.886719 102.253906 C 189.886719 102.675781 189.96875 103.085938 190.132812 103.476562 C 190.296875 103.871094 190.527344 104.214844 190.828125 104.515625 C 191.128906 104.816406 191.472656 105.046875 191.867188 105.210938 C 192.257812 105.375 192.667969 105.457031 193.089844 105.457031 L 202.722656 105.507812 L 202.738281 121.609375 L 157.679688 121.609375 L 157.691406 105.507812 L 167.371094 105.457031 C 167.796875 105.457031 168.207031 105.371094 168.601562 105.207031 C 168.992188 105.042969 169.339844 104.808594 169.640625 104.507812 C 169.941406 104.203125 170.171875 103.855469 170.335938 103.460938 C 170.496094 103.066406 170.578125 102.65625 170.574219 102.226562 Z M 279.09375 95.9375 L 294.566406 107.5 L 290.167969 113.386719 L 290.160156 113.382812 L 290.136719 113.367188 L 274.695312 101.835938 Z M 115.859375 105.515625 L 151.246094 105.515625 L 151.246094 111.9375 L 128.726562 111.949219 C 128.308594 111.953125 127.890625 111.996094 127.476562 112.082031 C 127.0625 112.167969 126.664062 112.292969 126.273438 112.453125 C 125.886719 112.617188 125.515625 112.816406 125.167969 113.050781 C 124.816406 113.285156 124.492188 113.554688 124.195312 113.851562 C 123.898438 114.148438 123.632812 114.472656 123.394531 114.824219 C 123.160156 115.171875 122.960938 115.542969 122.800781 115.929688 C 122.636719 116.320312 122.511719 116.71875 122.425781 117.132812 C 122.34375 117.546875 122.296875 117.960938 122.292969 118.382812 L 122.292969 263.171875 C 122.296875 263.589844 122.339844 264.007812 122.425781 264.421875 C 122.511719 264.835938 122.636719 265.234375 122.796875 265.625 C 122.960938 266.011719 123.160156 266.382812 123.394531 266.730469 C 123.628906 267.082031 123.898438 267.40625 124.195312 267.703125 C 124.492188 268 124.816406 268.269531 125.167969 268.503906 C 125.515625 268.738281 125.886719 268.9375 126.273438 269.101562 C 126.664062 269.261719 127.0625 269.386719 127.476562 269.472656 C 127.890625 269.558594 128.308594 269.601562 128.726562 269.605469 L 231.6875 269.605469 C 232.109375 269.601562 232.527344 269.558594 232.9375 269.472656 C 233.351562 269.386719 233.753906 269.261719 234.140625 269.101562 C 234.53125 268.9375 234.898438 268.738281 235.25 268.503906 C 235.597656 268.269531 235.921875 268 236.222656 267.703125 C 236.519531 267.40625 236.785156 267.082031 237.019531 266.730469 C 237.253906 266.382812 237.453125 266.011719 237.617188 265.625 C 237.78125 265.234375 237.902344 264.835938 237.988281 264.421875 C 238.074219 264.007812 238.117188 263.589844 238.121094 263.171875 L 238.121094 184.671875 L 244.558594 180.71875 L 244.558594 276.039062 L 115.859375 276.039062 Z M 209.171875 105.515625 L 244.558594 105.515625 L 244.558594 131.285156 L 238.121094 139.863281 L 238.121094 118.382812 C 238.117188 117.960938 238.074219 117.546875 237.988281 117.132812 C 237.902344 116.71875 237.777344 116.316406 237.617188 115.929688 C 237.453125 115.539062 237.253906 115.171875 237.019531 114.820312 C 236.78125 114.472656 236.515625 114.148438 236.21875 113.847656 C 235.917969 113.550781 235.59375 113.285156 235.246094 113.050781 C 234.894531 112.816406 234.523438 112.617188 234.136719 112.453125 C 233.746094 112.289062 233.347656 112.167969 232.933594 112.082031 C 232.519531 111.996094 232.101562 111.953125 231.679688 111.949219 L 209.171875 111.980469 Z M 270.832031 106.992188 L 286.296875 118.527344 L 247.503906 170.273438 L 232.046875 158.710938 Z M 151.246094 118.371094 L 151.246094 121.609375 C 151.25 122.027344 151.292969 122.445312 151.378906 122.859375 C 151.460938 123.273438 151.585938 123.671875 151.75 124.0625 C 151.914062 124.449219 152.113281 124.820312 152.347656 125.167969 C 152.582031 125.519531 152.847656 125.84375 153.144531 126.140625 C 153.445312 126.4375 153.769531 126.707031 154.117188 126.941406 C 154.46875 127.175781 154.835938 127.375 155.226562 127.539062 C 155.613281 127.699219 156.015625 127.824219 156.429688 127.910156 C 156.839844 127.996094 157.257812 128.039062 157.679688 128.042969 L 202.738281 128.042969 C 203.160156 128.039062 203.574219 127.996094 203.988281 127.910156 C 204.402344 127.824219 204.800781 127.699219 205.191406 127.539062 C 205.578125 127.375 205.949219 127.175781 206.296875 126.941406 C 206.648438 126.707031 206.972656 126.4375 207.269531 126.140625 C 207.566406 125.84375 207.835938 125.519531 208.070312 125.167969 C 208.304688 124.820312 208.503906 124.449219 208.667969 124.0625 C 208.828125 123.671875 208.953125 123.273438 209.039062 122.859375 C 209.125 122.445312 209.167969 122.027344 209.171875 121.609375 L 209.171875 118.414062 L 231.6875 118.382812 L 231.6875 148.445312 L 224.9375 157.445312 C 224.683594 157.773438 224.503906 158.140625 224.390625 158.539062 L 215.300781 192.148438 C 215.125 192.785156 215.144531 193.417969 215.359375 194.042969 C 215.574219 194.667969 215.945312 195.179688 216.472656 195.574219 C 217.003906 195.96875 217.597656 196.183594 218.257812 196.210938 C 218.917969 196.242188 219.53125 196.082031 220.09375 195.734375 L 231.6875 188.617188 L 231.6875 263.171875 L 128.726562 263.171875 L 128.726562 118.382812 Z M 272.28125 118.429688 C 271.78125 118.4375 271.308594 118.558594 270.863281 118.785156 C 270.414062 119.015625 270.039062 119.328125 269.738281 119.730469 L 246.839844 149.796875 C 246.570312 150.136719 246.378906 150.515625 246.261719 150.933594 C 246.144531 151.347656 246.113281 151.773438 246.167969 152.203125 C 246.222656 152.628906 246.359375 153.03125 246.574219 153.40625 C 246.789062 153.78125 247.070312 154.101562 247.414062 154.363281 C 247.757812 154.625 248.140625 154.808594 248.558594 154.917969 C 248.980469 155.023438 249.402344 155.046875 249.832031 154.984375 C 250.257812 154.921875 250.660156 154.777344 251.027344 154.554688 C 251.398438 154.332031 251.710938 154.042969 251.964844 153.695312 L 274.867188 123.625 C 275.242188 123.136719 275.460938 122.585938 275.519531 121.96875 C 275.578125 121.355469 275.472656 120.773438 275.195312 120.21875 C 274.921875 119.667969 274.523438 119.230469 273.996094 118.90625 C 273.472656 118.582031 272.898438 118.421875 272.28125 118.429688 Z M 141.433594 158.613281 C 141.007812 158.625 140.601562 158.71875 140.210938 158.890625 C 139.820312 159.0625 139.476562 159.304688 139.183594 159.613281 C 138.890625 159.921875 138.667969 160.277344 138.511719 160.675781 C 138.359375 161.074219 138.289062 161.488281 138.300781 161.914062 C 138.308594 162.339844 138.402344 162.75 138.574219 163.136719 C 138.75 163.527344 138.988281 163.871094 139.300781 164.164062 C 139.609375 164.457031 139.960938 164.683594 140.359375 164.835938 C 140.757812 164.988281 141.171875 165.058594 141.597656 165.050781 L 205.941406 165.050781 C 206.367188 165.050781 206.777344 164.96875 207.171875 164.804688 C 207.566406 164.640625 207.914062 164.410156 208.21875 164.105469 C 208.519531 163.804688 208.75 163.457031 208.914062 163.0625 C 209.078125 162.667969 209.160156 162.257812 209.160156 161.832031 C 209.160156 161.40625 209.078125 160.996094 208.914062 160.601562 C 208.75 160.207031 208.519531 159.859375 208.21875 159.554688 C 207.914062 159.253906 207.566406 159.023438 207.171875 158.859375 C 206.777344 158.695312 206.367188 158.613281 205.941406 158.613281 Z M 229.382812 164.785156 L 242.378906 174.503906 L 233.660156 179.84375 L 226.761719 174.445312 Z M 141.597656 177.894531 C 141.171875 177.894531 140.761719 177.976562 140.367188 178.140625 C 139.972656 178.304688 139.621094 178.535156 139.320312 178.835938 C 139.019531 179.140625 138.785156 179.488281 138.621094 179.882812 C 138.460938 180.277344 138.378906 180.6875 138.378906 181.117188 C 138.378906 181.542969 138.460938 181.953125 138.621094 182.347656 C 138.785156 182.742188 139.019531 183.089844 139.320312 183.394531 C 139.621094 183.695312 139.972656 183.925781 140.367188 184.089844 C 140.761719 184.253906 141.171875 184.335938 141.597656 184.335938 L 205.941406 184.335938 C 206.367188 184.335938 206.78125 184.253906 207.175781 184.089844 C 207.570312 183.925781 207.917969 183.695312 208.21875 183.394531 C 208.519531 183.089844 208.753906 182.742188 208.917969 182.347656 C 209.082031 181.953125 209.164062 181.542969 209.164062 181.117188 C 209.164062 180.6875 209.082031 180.277344 208.917969 179.882812 C 208.753906 179.488281 208.519531 179.140625 208.21875 178.835938 C 207.917969 178.535156 207.570312 178.304688 207.175781 178.140625 C 206.78125 177.976562 206.367188 177.894531 205.941406 177.894531 Z M 224.9375 181.179688 L 227.808594 183.429688 L 223.632812 185.996094 Z M 141.597656 197.207031 C 141.171875 197.207031 140.761719 197.289062 140.367188 197.449219 C 139.972656 197.613281 139.625 197.847656 139.324219 198.148438 C 139.019531 198.449219 138.789062 198.796875 138.625 199.191406 C 138.460938 199.585938 138.378906 199.996094 138.378906 200.421875 C 138.378906 200.851562 138.460938 201.261719 138.625 201.65625 C 138.789062 202.046875 139.019531 202.398438 139.324219 202.699219 C 139.625 203 139.972656 203.234375 140.367188 203.394531 C 140.761719 203.558594 141.171875 203.640625 141.597656 203.640625 L 205.941406 203.640625 C 206.367188 203.640625 206.777344 203.558594 207.171875 203.394531 C 207.566406 203.234375 207.914062 203 208.21875 202.699219 C 208.519531 202.398438 208.75 202.046875 208.914062 201.65625 C 209.078125 201.261719 209.160156 200.851562 209.160156 200.421875 C 209.160156 199.996094 209.078125 199.585938 208.914062 199.191406 C 208.75 198.796875 208.519531 198.449219 208.21875 198.148438 C 207.914062 197.847656 207.566406 197.613281 207.171875 197.449219 C 206.777344 197.289062 206.367188 197.207031 205.941406 197.207031 Z M 141.433594 216.515625 C 141.007812 216.527344 140.601562 216.621094 140.210938 216.792969 C 139.820312 216.964844 139.476562 217.207031 139.183594 217.515625 C 138.890625 217.828125 138.664062 218.179688 138.511719 218.578125 C 138.359375 218.976562 138.289062 219.390625 138.300781 219.816406 C 138.308594 220.242188 138.402344 220.652344 138.574219 221.039062 C 138.75 221.429688 138.988281 221.773438 139.300781 222.066406 C 139.609375 222.359375 139.960938 222.585938 140.359375 222.738281 C 140.757812 222.890625 141.171875 222.960938 141.597656 222.953125 L 218.8125 222.953125 C 219.238281 222.953125 219.648438 222.871094 220.042969 222.707031 C 220.4375 222.542969 220.785156 222.3125 221.085938 222.007812 C 221.386719 221.707031 221.621094 221.359375 221.785156 220.964844 C 221.949219 220.570312 222.027344 220.160156 222.027344 219.734375 C 222.027344 219.308594 221.949219 218.898438 221.785156 218.503906 C 221.621094 218.109375 221.386719 217.761719 221.085938 217.460938 C 220.785156 217.15625 220.4375 216.925781 220.042969 216.761719 C 219.648438 216.597656 219.238281 216.515625 218.8125 216.515625 Z M 141.433594 235.828125 C 141.007812 235.839844 140.601562 235.929688 140.210938 236.105469 C 139.820312 236.277344 139.476562 236.519531 139.183594 236.828125 C 138.890625 237.136719 138.664062 237.492188 138.511719 237.890625 C 138.359375 238.289062 138.289062 238.699219 138.300781 239.128906 C 138.308594 239.554688 138.402344 239.960938 138.574219 240.351562 C 138.75 240.742188 138.988281 241.085938 139.300781 241.378906 C 139.609375 241.671875 139.960938 241.894531 140.359375 242.050781 C 140.757812 242.203125 141.171875 242.273438 141.597656 242.261719 L 218.8125 242.261719 C 219.238281 242.261719 219.648438 242.179688 220.042969 242.019531 C 220.4375 241.855469 220.785156 241.621094 221.085938 241.320312 C 221.386719 241.019531 221.621094 240.671875 221.785156 240.277344 C 221.949219 239.882812 222.027344 239.472656 222.027344 239.046875 C 222.027344 238.617188 221.949219 238.207031 221.785156 237.8125 C 221.621094 237.421875 221.386719 237.070312 221.085938 236.769531 C 220.785156 236.46875 220.4375 236.234375 220.042969 236.074219 C 219.648438 235.910156 219.238281 235.828125 218.8125 235.828125 Z M 141.433594 235.828125 " fill-opacity="1" fill-rule="nonzero"/></g></svg>