<svg xmlns="http://www.w3.org/2000/svg" xmlns:xlink="http://www.w3.org/1999/xlink" width="500" zoomAndPan="magnify" viewBox="0 0 375 374.999991" height="500" preserveAspectRatio="xMidYMid meet" version="1.0"><defs><clipPath id="3035acf2b1"><path d="M 7.5 7.5 L 365.25 7.5 L 365.25 365.25 L 7.5 365.25 Z M 7.5 7.5 " clip-rule="nonzero"/></clipPath></defs><g clip-path="url(#3035acf2b1)"><path fill="#0e0e0e" d="M 79.109375 7.5 C 89.164062 9.46875 96.167969 16.292969 102.71875 23.414062 C 120.769531 43.101562 135.800781 64.875 147.808594 88.730469 C 150.277344 93.714844 152.3125 98.867188 153.910156 104.195312 C 156.722656 113.285156 153.910156 120.996094 147.003906 127.269531 C 141.277344 132.40625 134.3125 135.375 127.507812 138.445312 C 123.296875 140.414062 119.144531 142.378906 114.9375 144.347656 C 113.363281 145.054688 112.96875 145.921875 113.695312 147.59375 C 116.558594 154.59375 120.113281 161.226562 124.359375 167.484375 C 134.328125 183.324219 145.871094 197.921875 158.984375 211.277344 C 167.683594 219.808594 176.863281 227.78125 186.527344 235.199219 C 195.007812 241.808594 204.234375 247.59375 213.242188 253.398438 C 217.210938 255.648438 221.296875 257.660156 225.5 259.4375 C 225.628906 259.523438 225.765625 259.59375 225.910156 259.648438 C 226.054688 259.703125 226.203125 259.742188 226.355469 259.761719 C 226.507812 259.78125 226.660156 259.78125 226.816406 259.765625 C 226.96875 259.75 227.117188 259.714844 227.265625 259.664062 C 227.410156 259.613281 227.546875 259.542969 227.675781 259.460938 C 227.808594 259.375 227.925781 259.277344 228.03125 259.164062 C 228.136719 259.054688 228.230469 258.929688 228.308594 258.796875 C 228.386719 258.664062 228.445312 258.523438 228.492188 258.375 C 231.453125 251.960938 234.445312 245.554688 237.460938 239.152344 C 239.957031 233.050781 243.625 227.757812 248.457031 223.277344 C 255.503906 217.277344 263.410156 217 271.773438 219.894531 C 280.808594 223.210938 289.425781 227.394531 297.621094 232.445312 C 316.242188 243.125 333.488281 255.691406 349.363281 270.140625 C 354.492188 274.535156 358.769531 279.640625 362.191406 285.464844 C 363.496094 288.21875 364.617188 291.042969 365.554688 293.945312 L 365.554688 298.3125 C 365.339844 299.195312 365.101562 300.082031 364.886719 300.96875 C 363.035156 308.304688 358.808594 314.285156 353.96875 319.875 C 348.226562 326.355469 341.976562 332.296875 335.214844 337.707031 C 328.453125 343.113281 321.28125 347.902344 313.695312 352.078125 C 304.644531 357.457031 295.003906 361.390625 284.777344 363.882812 C 281.492188 364.609375 278.164062 365.042969 274.839844 365.613281 L 266.5 365.613281 C 266.0625 365.457031 265.617188 365.339844 265.160156 365.257812 C 257.433594 364.457031 249.921875 362.703125 242.636719 360.007812 C 228.523438 354.863281 215.066406 348.363281 202.265625 340.511719 C 169.925781 320.871094 140.238281 297.8125 113.203125 271.339844 C 94.011719 252.808594 76.359375 232.914062 60.246094 211.648438 C 45.566406 192.800781 32.832031 172.722656 22.039062 151.410156 C 16.277344 140.320312 11.988281 128.6875 9.171875 116.511719 C 8.464844 113.222656 8.050781 109.800781 7.5 106.554688 L 7.5 98.214844 C 7.65625 97.777344 7.773438 97.332031 7.855469 96.875 C 8.59375 89.121094 10.515625 81.671875 13.617188 74.527344 C 17.28125 65.734375 21.726562 57.355469 26.957031 49.394531 C 32.183594 41.433594 38.105469 34.027344 44.722656 27.171875 C 53.179688 18.320312 62.132812 10.078125 74.742188 7.5 Z M 269.941406 344.484375 C 277.289062 344.296875 284.3125 342.699219 291.011719 339.683594 C 298.40625 336.546875 305.457031 332.769531 312.167969 328.355469 C 318.878906 323.941406 325.136719 318.964844 330.949219 313.421875 C 335.921875 309.066406 340.097656 304.046875 343.480469 298.371094 C 343.695312 298.097656 343.851562 297.792969 343.953125 297.460938 C 344.054688 297.128906 344.089844 296.789062 344.066406 296.441406 C 344.042969 296.097656 343.960938 295.765625 343.816406 295.449219 C 343.667969 295.136719 343.472656 294.855469 343.226562 294.613281 C 339.960938 291.128906 336.949219 287.414062 333.390625 284.1875 C 321.160156 273.148438 307.992188 263.375 293.882812 254.871094 C 284.96875 248.96875 275.535156 244.070312 265.574219 240.175781 C 262.171875 238.9375 261.757812 238.9375 260.046875 242.144531 C 257.488281 246.90625 255.324219 251.980469 252.847656 256.703125 C 250.238281 262.265625 247.316406 267.65625 244.070312 272.875 C 238.839844 280.566406 231.046875 282.90625 222.078125 280.488281 C 216.066406 278.769531 210.367188 276.320312 204.980469 273.148438 C 183.5 260.800781 163.929688 245.933594 146.277344 228.550781 C 131.300781 213.605469 118.132812 197.210938 106.773438 179.367188 C 101.355469 171.542969 96.964844 163.179688 93.589844 154.28125 C 91.625 148.972656 90.660156 143.582031 92.863281 138.03125 C 93.859375 135.582031 95.253906 133.382812 97.050781 131.4375 C 98.84375 129.496094 100.925781 127.929688 103.289062 126.738281 C 109.507812 123.394531 116.039062 120.621094 122.351562 117.472656 C 125.933594 115.703125 129.257812 113.734375 132.640625 111.769531 C 132.882812 111.652344 133.089844 111.492188 133.261719 111.289062 C 133.4375 111.085938 133.566406 110.859375 133.648438 110.605469 C 133.730469 110.351562 133.757812 110.089844 133.734375 109.824219 C 133.710938 109.558594 133.632812 109.308594 133.507812 109.074219 C 132.328125 106.0625 131.324219 102.953125 129.886719 100.0625 C 119.507812 79.222656 106.679688 60.015625 91.40625 42.441406 C 87.828125 38.429688 84.015625 34.652344 79.976562 31.109375 C 76.867188 28.273438 76.652344 28.394531 73.148438 30.636719 C 71.511719 31.632812 69.957031 32.746094 68.488281 33.980469 C 64.382812 37.492188 60.515625 41.25 56.886719 45.253906 C 53.257812 49.253906 49.894531 53.472656 46.800781 57.898438 C 43.707031 62.328125 40.902344 66.933594 38.394531 71.71875 C 35.882812 76.503906 33.683594 81.425781 31.796875 86.488281 C 29.402344 92.335938 28.382812 98.414062 28.746094 104.726562 C 29.523438 112.074219 31.285156 119.175781 34.039062 126.03125 C 41.417969 145.46875 52.039062 163.15625 63.6875 180.230469 C 77.96875 201.023438 93.765625 220.59375 111.082031 238.9375 C 134.875 264.382812 161.03125 287.105469 189.558594 307.105469 C 206.730469 319.105469 224.554688 330.023438 244.070312 337.894531 C 252.335938 341.535156 260.964844 343.734375 269.960938 344.484375 Z M 269.941406 344.484375 " fill-opacity="1" fill-rule="nonzero"/></g></svg>