<svg xmlns="http://www.w3.org/2000/svg" xmlns:xlink="http://www.w3.org/1999/xlink" width="500" zoomAndPan="magnify" viewBox="0 0 375 374.999991" height="500" preserveAspectRatio="xMidYMid meet" version="1.0"><defs><clipPath id="73a5b89d40"><path d="M 19.109375 3.964844 L 355.859375 3.964844 L 355.859375 370.714844 L 19.109375 370.714844 Z M 19.109375 3.964844 " clip-rule="nonzero"/></clipPath></defs><g clip-path="url(#73a5b89d40)"><path fill="#000000" d="M 57.488281 3.964844 C 56.316406 3.964844 55.148438 4.234375 54.070312 4.773438 L 42.195312 10.710938 L 30.324219 4.773438 C 27.953125 3.59375 25.148438 3.710938 22.886719 5.101562 C 20.636719 6.5 19.253906 8.957031 19.253906 11.605469 L 19.253906 347.792969 C 19.253906 352.019531 22.679688 355.433594 26.902344 355.433594 L 210.992188 355.433594 C 206.777344 350.742188 203.03125 345.640625 199.847656 340.152344 L 34.550781 340.152344 L 34.550781 23.964844 L 38.777344 26.082031 C 40.925781 27.160156 43.460938 27.160156 45.617188 26.082031 L 57.488281 20.144531 L 69.363281 26.082031 C 71.511719 27.160156 74.046875 27.160156 76.203125 26.082031 L 88.074219 20.144531 L 99.949219 26.082031 C 102.097656 27.160156 104.632812 27.160156 106.789062 26.082031 L 118.664062 20.144531 L 130.535156 26.082031 C 132.683594 27.160156 135.21875 27.160156 137.375 26.082031 L 149.25 20.144531 L 161.121094 26.082031 C 163.269531 27.160156 165.804688 27.160156 167.960938 26.082031 L 179.835938 20.144531 L 191.710938 26.082031 C 193.859375 27.160156 196.394531 27.160156 198.550781 26.082031 L 210.421875 20.144531 L 222.296875 26.082031 C 224.445312 27.160156 226.980469 27.160156 229.136719 26.082031 L 241.007812 20.144531 L 252.882812 26.082031 C 255.03125 27.160156 257.566406 27.160156 259.722656 26.082031 L 271.597656 20.144531 L 283.46875 26.082031 C 285.617188 27.160156 288.152344 27.160156 290.308594 26.082031 L 294.535156 23.964844 L 294.535156 203.996094 C 299.804688 204.882812 304.90625 206.207031 309.828125 207.949219 L 309.828125 11.605469 C 309.828125 8.957031 308.449219 6.5 306.199219 5.101562 C 303.9375 3.703125 301.125 3.59375 298.761719 4.773438 L 286.890625 10.710938 L 275.015625 4.773438 C 272.867188 3.695312 270.332031 3.695312 268.175781 4.773438 L 256.304688 10.710938 L 244.429688 4.773438 C 242.28125 3.695312 239.746094 3.695312 237.589844 4.773438 L 225.714844 10.710938 L 213.84375 4.773438 C 211.695312 3.695312 209.160156 3.695312 207.003906 4.773438 L 195.128906 10.710938 L 183.257812 4.773438 C 181.109375 3.695312 178.574219 3.695312 176.414062 4.773438 L 164.542969 10.710938 L 152.667969 4.773438 C 150.519531 3.695312 147.984375 3.695312 145.828125 4.773438 L 133.957031 10.710938 L 122.082031 4.773438 C 119.933594 3.695312 117.398438 3.695312 115.242188 4.773438 L 103.371094 10.710938 L 91.496094 4.773438 C 89.347656 3.695312 86.8125 3.695312 84.65625 4.773438 L 72.78125 10.710938 L 60.910156 4.773438 C 59.835938 4.234375 58.660156 3.964844 57.488281 3.964844 Z M 72.78125 72.730469 C 72.277344 72.726562 71.773438 72.765625 71.273438 72.859375 C 70.777344 72.953125 70.292969 73.09375 69.824219 73.28125 C 69.351562 73.472656 68.90625 73.703125 68.480469 73.980469 C 68.058594 74.257812 67.667969 74.574219 67.304688 74.929688 C 66.945312 75.285156 66.621094 75.675781 66.339844 76.09375 C 66.054688 76.511719 65.816406 76.957031 65.621094 77.421875 C 65.425781 77.890625 65.277344 78.371094 65.175781 78.867188 C 65.078125 79.363281 65.027344 79.867188 65.027344 80.371094 C 65.027344 80.878906 65.078125 81.378906 65.175781 81.875 C 65.277344 82.371094 65.425781 82.855469 65.621094 83.320312 C 65.816406 83.789062 66.054688 84.230469 66.339844 84.652344 C 66.621094 85.070312 66.945312 85.457031 67.304688 85.8125 C 67.667969 86.167969 68.058594 86.484375 68.480469 86.761719 C 68.90625 87.039062 69.351562 87.273438 69.824219 87.460938 C 70.292969 87.652344 70.777344 87.792969 71.273438 87.886719 C 71.773438 87.976562 72.277344 88.019531 72.78125 88.011719 L 187.484375 88.011719 C 187.988281 88.019531 188.492188 87.976562 188.988281 87.886719 C 189.488281 87.792969 189.972656 87.652344 190.441406 87.460938 C 190.914062 87.273438 191.359375 87.039062 191.78125 86.761719 C 192.207031 86.484375 192.597656 86.167969 192.960938 85.8125 C 193.320312 85.457031 193.644531 85.070312 193.925781 84.652344 C 194.210938 84.230469 194.449219 83.789062 194.644531 83.320312 C 194.839844 82.855469 194.988281 82.371094 195.089844 81.875 C 195.1875 81.378906 195.238281 80.878906 195.238281 80.371094 C 195.238281 79.867188 195.1875 79.363281 195.089844 78.867188 C 194.988281 78.371094 194.839844 77.890625 194.644531 77.421875 C 194.449219 76.957031 194.210938 76.511719 193.925781 76.09375 C 193.644531 75.675781 193.320312 75.285156 192.960938 74.929688 C 192.597656 74.574219 192.207031 74.257812 191.78125 73.980469 C 191.359375 73.703125 190.914062 73.472656 190.441406 73.28125 C 189.972656 73.09375 189.488281 72.953125 188.988281 72.859375 C 188.492188 72.765625 187.988281 72.726562 187.484375 72.730469 Z M 233.363281 72.730469 C 232.855469 72.726562 232.355469 72.765625 231.855469 72.859375 C 231.359375 72.953125 230.875 73.09375 230.402344 73.28125 C 229.933594 73.472656 229.484375 73.703125 229.0625 73.980469 C 228.640625 74.257812 228.246094 74.574219 227.886719 74.929688 C 227.523438 75.285156 227.203125 75.675781 226.917969 76.09375 C 226.636719 76.511719 226.394531 76.957031 226.199219 77.421875 C 226.003906 77.890625 225.855469 78.371094 225.757812 78.867188 C 225.65625 79.363281 225.609375 79.867188 225.609375 80.371094 C 225.609375 80.878906 225.65625 81.378906 225.757812 81.875 C 225.855469 82.371094 226.003906 82.855469 226.199219 83.320312 C 226.394531 83.789062 226.636719 84.230469 226.917969 84.652344 C 227.203125 85.070312 227.523438 85.457031 227.886719 85.8125 C 228.246094 86.167969 228.640625 86.484375 229.0625 86.761719 C 229.484375 87.039062 229.933594 87.273438 230.402344 87.460938 C 230.875 87.652344 231.359375 87.792969 231.855469 87.886719 C 232.355469 87.976562 232.855469 88.019531 233.363281 88.011719 L 256.304688 88.011719 C 256.808594 88.019531 257.3125 87.976562 257.808594 87.886719 C 258.308594 87.792969 258.792969 87.652344 259.261719 87.460938 C 259.734375 87.273438 260.179688 87.039062 260.601562 86.761719 C 261.027344 86.484375 261.417969 86.167969 261.78125 85.8125 C 262.140625 85.457031 262.464844 85.070312 262.746094 84.652344 C 263.03125 84.230469 263.269531 83.789062 263.464844 83.320312 C 263.660156 82.855469 263.808594 82.371094 263.910156 81.875 C 264.007812 81.378906 264.058594 80.878906 264.058594 80.371094 C 264.058594 79.867188 264.007812 79.363281 263.910156 78.867188 C 263.808594 78.371094 263.660156 77.890625 263.464844 77.421875 C 263.269531 76.957031 263.03125 76.511719 262.746094 76.09375 C 262.464844 75.675781 262.140625 75.285156 261.78125 74.929688 C 261.417969 74.574219 261.027344 74.257812 260.601562 73.980469 C 260.179688 73.703125 259.734375 73.472656 259.261719 73.28125 C 258.792969 73.09375 258.308594 72.953125 257.808594 72.859375 C 257.3125 72.765625 256.808594 72.726562 256.304688 72.730469 Z M 72.78125 118.574219 C 72.277344 118.570312 71.773438 118.609375 71.273438 118.703125 C 70.777344 118.796875 70.292969 118.9375 69.824219 119.125 C 69.351562 119.316406 68.90625 119.546875 68.480469 119.824219 C 68.058594 120.101562 67.664062 120.417969 67.304688 120.773438 C 66.945312 121.128906 66.621094 121.519531 66.339844 121.9375 C 66.054688 122.355469 65.816406 122.800781 65.621094 123.265625 C 65.421875 123.734375 65.277344 124.214844 65.175781 124.710938 C 65.078125 125.207031 65.027344 125.710938 65.027344 126.214844 C 65.027344 126.722656 65.078125 127.222656 65.175781 127.71875 C 65.277344 128.214844 65.421875 128.699219 65.621094 129.164062 C 65.816406 129.632812 66.054688 130.074219 66.339844 130.496094 C 66.621094 130.914062 66.945312 131.300781 67.304688 131.65625 C 67.664062 132.011719 68.058594 132.328125 68.480469 132.605469 C 68.90625 132.882812 69.351562 133.117188 69.824219 133.304688 C 70.292969 133.496094 70.777344 133.636719 71.273438 133.730469 C 71.773438 133.820312 72.277344 133.863281 72.78125 133.855469 L 156.894531 133.855469 C 157.402344 133.863281 157.90625 133.820312 158.402344 133.730469 C 158.902344 133.636719 159.386719 133.496094 159.855469 133.304688 C 160.324219 133.117188 160.773438 132.882812 161.195312 132.605469 C 161.621094 132.328125 162.011719 132.011719 162.375 131.65625 C 162.734375 131.300781 163.054688 130.914062 163.339844 130.496094 C 163.625 130.074219 163.863281 129.632812 164.058594 129.164062 C 164.253906 128.699219 164.402344 128.214844 164.503906 127.71875 C 164.601562 127.222656 164.652344 126.722656 164.652344 126.214844 C 164.652344 125.710938 164.601562 125.207031 164.503906 124.710938 C 164.402344 124.214844 164.253906 123.734375 164.058594 123.265625 C 163.863281 122.800781 163.625 122.355469 163.339844 121.9375 C 163.054688 121.519531 162.734375 121.128906 162.375 120.773438 C 162.011719 120.417969 161.621094 120.101562 161.195312 119.824219 C 160.773438 119.546875 160.324219 119.316406 159.855469 119.125 C 159.386719 118.9375 158.902344 118.796875 158.402344 118.703125 C 157.90625 118.609375 157.402344 118.570312 156.894531 118.574219 Z M 233.363281 118.574219 C 232.855469 118.570312 232.355469 118.609375 231.855469 118.703125 C 231.359375 118.796875 230.875 118.9375 230.402344 119.125 C 229.933594 119.316406 229.484375 119.546875 229.0625 119.824219 C 228.636719 120.101562 228.246094 120.417969 227.886719 120.773438 C 227.523438 121.128906 227.203125 121.519531 226.917969 121.9375 C 226.636719 122.355469 226.394531 122.800781 226.199219 123.265625 C 226.003906 123.734375 225.855469 124.214844 225.757812 124.710938 C 225.65625 125.207031 225.605469 125.710938 225.605469 126.214844 C 225.605469 126.722656 225.65625 127.222656 225.757812 127.71875 C 225.855469 128.214844 226.003906 128.699219 226.199219 129.164062 C 226.394531 129.632812 226.636719 130.074219 226.917969 130.496094 C 227.203125 130.914062 227.523438 131.300781 227.886719 131.65625 C 228.246094 132.011719 228.636719 132.328125 229.0625 132.605469 C 229.484375 132.882812 229.933594 133.117188 230.402344 133.304688 C 230.875 133.496094 231.359375 133.636719 231.855469 133.730469 C 232.355469 133.820312 232.855469 133.863281 233.363281 133.855469 L 256.304688 133.855469 C 256.808594 133.863281 257.3125 133.820312 257.808594 133.730469 C 258.308594 133.636719 258.792969 133.496094 259.261719 133.304688 C 259.734375 133.117188 260.179688 132.882812 260.601562 132.605469 C 261.027344 132.328125 261.417969 132.011719 261.78125 131.65625 C 262.140625 131.300781 262.464844 130.914062 262.746094 130.496094 C 263.03125 130.074219 263.269531 129.632812 263.464844 129.164062 C 263.660156 128.699219 263.808594 128.214844 263.910156 127.71875 C 264.007812 127.222656 264.058594 126.722656 264.058594 126.214844 C 264.058594 125.710938 264.007812 125.207031 263.910156 124.710938 C 263.808594 124.214844 263.660156 123.734375 263.464844 123.265625 C 263.269531 122.800781 263.03125 122.355469 262.746094 121.9375 C 262.464844 121.519531 262.140625 121.128906 261.78125 120.773438 C 261.417969 120.417969 261.027344 120.101562 260.601562 119.824219 C 260.179688 119.546875 259.734375 119.316406 259.261719 119.125 C 258.792969 118.9375 258.308594 118.796875 257.808594 118.703125 C 257.3125 118.609375 256.808594 118.570312 256.304688 118.574219 Z M 72.78125 164.417969 C 72.277344 164.414062 71.773438 164.453125 71.273438 164.546875 C 70.777344 164.640625 70.292969 164.78125 69.824219 164.96875 C 69.351562 165.160156 68.90625 165.390625 68.480469 165.667969 C 68.058594 165.945312 67.664062 166.261719 67.304688 166.617188 C 66.945312 166.972656 66.621094 167.363281 66.339844 167.78125 C 66.054688 168.199219 65.816406 168.644531 65.621094 169.109375 C 65.421875 169.578125 65.277344 170.058594 65.175781 170.554688 C 65.078125 171.050781 65.027344 171.554688 65.027344 172.058594 C 65.027344 172.566406 65.078125 173.066406 65.175781 173.5625 C 65.277344 174.058594 65.421875 174.542969 65.621094 175.007812 C 65.816406 175.476562 66.054688 175.917969 66.339844 176.339844 C 66.621094 176.757812 66.945312 177.144531 67.304688 177.5 C 67.664062 177.855469 68.058594 178.171875 68.480469 178.449219 C 68.90625 178.726562 69.351562 178.960938 69.824219 179.148438 C 70.292969 179.339844 70.777344 179.480469 71.273438 179.574219 C 71.773438 179.664062 72.277344 179.707031 72.78125 179.699219 L 187.484375 179.699219 C 187.988281 179.707031 188.492188 179.664062 188.988281 179.574219 C 189.488281 179.480469 189.972656 179.339844 190.441406 179.148438 C 190.914062 178.960938 191.359375 178.726562 191.785156 178.449219 C 192.207031 178.171875 192.597656 177.855469 192.960938 177.5 C 193.320312 177.144531 193.644531 176.757812 193.925781 176.339844 C 194.210938 175.917969 194.449219 175.476562 194.644531 175.007812 C 194.839844 174.542969 194.988281 174.058594 195.089844 173.5625 C 195.1875 173.066406 195.238281 172.566406 195.238281 172.058594 C 195.238281 171.554688 195.1875 171.050781 195.089844 170.554688 C 194.988281 170.058594 194.839844 169.578125 194.644531 169.109375 C 194.449219 168.644531 194.210938 168.199219 193.925781 167.78125 C 193.644531 167.363281 193.320312 166.972656 192.960938 166.617188 C 192.597656 166.261719 192.207031 165.945312 191.785156 165.667969 C 191.359375 165.390625 190.914062 165.160156 190.441406 164.96875 C 189.972656 164.78125 189.488281 164.640625 188.988281 164.546875 C 188.492188 164.453125 187.988281 164.414062 187.484375 164.417969 Z M 233.363281 164.417969 C 232.855469 164.414062 232.355469 164.453125 231.855469 164.546875 C 231.359375 164.640625 230.875 164.78125 230.402344 164.96875 C 229.933594 165.160156 229.484375 165.390625 229.0625 165.667969 C 228.636719 165.945312 228.246094 166.261719 227.886719 166.617188 C 227.523438 166.972656 227.203125 167.363281 226.917969 167.78125 C 226.636719 168.199219 226.394531 168.644531 226.199219 169.109375 C 226.003906 169.578125 225.855469 170.058594 225.757812 170.554688 C 225.65625 171.050781 225.605469 171.554688 225.605469 172.058594 C 225.605469 172.566406 225.65625 173.066406 225.757812 173.5625 C 225.855469 174.058594 226.003906 174.542969 226.199219 175.007812 C 226.394531 175.476562 226.636719 175.917969 226.917969 176.339844 C 227.203125 176.757812 227.523438 177.144531 227.886719 177.5 C 228.246094 177.855469 228.636719 178.171875 229.0625 178.449219 C 229.484375 178.726562 229.933594 178.960938 230.402344 179.148438 C 230.875 179.339844 231.359375 179.480469 231.855469 179.574219 C 232.355469 179.664062 232.855469 179.707031 233.363281 179.699219 L 256.304688 179.699219 C 256.808594 179.707031 257.3125 179.664062 257.808594 179.574219 C 258.308594 179.480469 258.792969 179.339844 259.261719 179.148438 C 259.734375 178.960938 260.179688 178.726562 260.601562 178.449219 C 261.027344 178.171875 261.417969 177.855469 261.78125 177.5 C 262.140625 177.144531 262.464844 176.757812 262.746094 176.339844 C 263.03125 175.917969 263.269531 175.476562 263.464844 175.007812 C 263.660156 174.542969 263.808594 174.058594 263.910156 173.5625 C 264.007812 173.066406 264.058594 172.566406 264.058594 172.058594 C 264.058594 171.554688 264.007812 171.050781 263.910156 170.554688 C 263.808594 170.058594 263.660156 169.578125 263.464844 169.109375 C 263.269531 168.644531 263.03125 168.199219 262.746094 167.78125 C 262.464844 167.363281 262.140625 166.972656 261.78125 166.617188 C 261.417969 166.261719 261.027344 165.945312 260.601562 165.667969 C 260.179688 165.390625 259.734375 165.160156 259.261719 164.96875 C 258.792969 164.78125 258.308594 164.640625 257.808594 164.546875 C 257.3125 164.453125 256.808594 164.414062 256.304688 164.417969 Z M 72.78125 210.261719 C 72.277344 210.257812 71.773438 210.296875 71.273438 210.390625 C 70.777344 210.484375 70.292969 210.625 69.824219 210.8125 C 69.351562 211.003906 68.90625 211.234375 68.480469 211.511719 C 68.058594 211.789062 67.664062 212.105469 67.304688 212.460938 C 66.945312 212.816406 66.621094 213.207031 66.339844 213.625 C 66.054688 214.042969 65.816406 214.488281 65.621094 214.953125 C 65.421875 215.421875 65.277344 215.902344 65.175781 216.398438 C 65.078125 216.894531 65.027344 217.398438 65.027344 217.902344 C 65.027344 218.410156 65.078125 218.910156 65.175781 219.40625 C 65.277344 219.902344 65.421875 220.386719 65.621094 220.851562 C 65.816406 221.320312 66.054688 221.761719 66.339844 222.183594 C 66.621094 222.601562 66.945312 222.988281 67.304688 223.34375 C 67.664062 223.699219 68.058594 224.015625 68.480469 224.292969 C 68.90625 224.570312 69.351562 224.804688 69.824219 224.992188 C 70.292969 225.183594 70.777344 225.324219 71.273438 225.417969 C 71.773438 225.507812 72.277344 225.550781 72.78125 225.542969 L 156.894531 225.542969 C 157.402344 225.550781 157.90625 225.507812 158.402344 225.417969 C 158.902344 225.324219 159.386719 225.183594 159.855469 224.992188 C 160.324219 224.804688 160.773438 224.570312 161.195312 224.292969 C 161.621094 224.015625 162.011719 223.699219 162.375 223.34375 C 162.734375 222.988281 163.054688 222.601562 163.339844 222.183594 C 163.625 221.761719 163.863281 221.320312 164.058594 220.851562 C 164.253906 220.386719 164.402344 219.902344 164.503906 219.40625 C 164.601562 218.910156 164.652344 218.410156 164.652344 217.902344 C 164.652344 217.398438 164.601562 216.894531 164.503906 216.398438 C 164.402344 215.902344 164.253906 215.421875 164.058594 214.953125 C 163.863281 214.488281 163.625 214.042969 163.339844 213.625 C 163.054688 213.207031 162.734375 212.816406 162.375 212.460938 C 162.011719 212.105469 161.621094 211.789062 161.195312 211.511719 C 160.773438 211.234375 160.324219 211.003906 159.855469 210.8125 C 159.386719 210.625 158.902344 210.484375 158.402344 210.390625 C 157.90625 210.296875 157.402344 210.257812 156.894531 210.261719 Z M 279.242188 217.902344 C 237.1875 217.902344 202.777344 252.285156 202.777344 294.308594 C 202.777344 336.332031 237.1875 370.714844 279.242188 370.714844 C 321.300781 370.714844 355.710938 336.332031 355.710938 294.308594 C 355.710938 252.285156 321.300781 217.902344 279.242188 217.902344 Z M 279.242188 233.183594 C 312.886719 233.183594 340.417969 260.691406 340.417969 294.308594 C 340.417969 327.929688 312.886719 355.433594 279.242188 355.433594 C 245.597656 355.433594 218.070312 327.929688 218.070312 294.308594 C 218.070312 260.691406 245.597656 233.183594 279.242188 233.183594 Z M 72.78125 256.105469 C 72.28125 256.105469 71.78125 256.15625 71.289062 256.253906 C 70.796875 256.351562 70.320312 256.496094 69.855469 256.6875 C 69.390625 256.878906 68.953125 257.117188 68.535156 257.394531 C 68.117188 257.671875 67.730469 257.988281 67.375 258.34375 C 67.019531 258.699219 66.703125 259.085938 66.425781 259.503906 C 66.144531 259.917969 65.910156 260.359375 65.71875 260.824219 C 65.527344 261.285156 65.378906 261.765625 65.28125 262.257812 C 65.183594 262.75 65.136719 263.246094 65.136719 263.746094 C 65.136719 264.25 65.183594 264.746094 65.28125 265.238281 C 65.378906 265.730469 65.527344 266.207031 65.71875 266.671875 C 65.910156 267.136719 66.144531 267.574219 66.425781 267.992188 C 66.703125 268.410156 67.019531 268.796875 67.375 269.148438 C 67.730469 269.503906 68.117188 269.820312 68.535156 270.101562 C 68.953125 270.378906 69.390625 270.613281 69.855469 270.804688 C 70.320312 271 70.796875 271.144531 71.289062 271.242188 C 71.78125 271.339844 72.28125 271.386719 72.78125 271.386719 C 73.285156 271.386719 73.78125 271.339844 74.273438 271.242188 C 74.765625 271.144531 75.246094 271 75.707031 270.804688 C 76.171875 270.613281 76.613281 270.378906 77.03125 270.101562 C 77.449219 269.820312 77.835938 269.503906 78.191406 269.148438 C 78.542969 268.796875 78.863281 268.410156 79.140625 267.992188 C 79.417969 267.574219 79.65625 267.136719 79.847656 266.671875 C 80.039062 266.207031 80.183594 265.730469 80.28125 265.238281 C 80.378906 264.746094 80.429688 264.25 80.429688 263.746094 C 80.429688 263.246094 80.378906 262.75 80.28125 262.257812 C 80.183594 261.765625 80.039062 261.285156 79.847656 260.824219 C 79.65625 260.359375 79.417969 259.917969 79.140625 259.503906 C 78.863281 259.085938 78.542969 258.699219 78.191406 258.34375 C 77.835938 257.988281 77.449219 257.671875 77.03125 257.394531 C 76.613281 257.117188 76.171875 256.878906 75.707031 256.6875 C 75.246094 256.496094 74.765625 256.351562 74.273438 256.253906 C 73.78125 256.15625 73.285156 256.105469 72.78125 256.105469 Z M 95.722656 256.105469 C 95.21875 256.105469 94.722656 256.15625 94.230469 256.253906 C 93.738281 256.351562 93.261719 256.496094 92.796875 256.6875 C 92.332031 256.878906 91.890625 257.117188 91.472656 257.394531 C 91.058594 257.671875 90.671875 257.988281 90.316406 258.34375 C 89.960938 258.699219 89.644531 259.085938 89.363281 259.503906 C 89.085938 259.917969 88.851562 260.359375 88.65625 260.824219 C 88.464844 261.285156 88.320312 261.765625 88.222656 262.257812 C 88.125 262.75 88.074219 263.246094 88.074219 263.746094 C 88.074219 264.25 88.125 264.746094 88.222656 265.238281 C 88.320312 265.730469 88.464844 266.207031 88.65625 266.671875 C 88.851562 267.136719 89.085938 267.574219 89.363281 267.992188 C 89.644531 268.410156 89.960938 268.796875 90.316406 269.148438 C 90.671875 269.503906 91.058594 269.820312 91.472656 270.101562 C 91.890625 270.378906 92.332031 270.613281 92.796875 270.804688 C 93.261719 271 93.738281 271.144531 94.230469 271.242188 C 94.722656 271.339844 95.21875 271.386719 95.722656 271.386719 C 96.226562 271.386719 96.722656 271.339844 97.214844 271.242188 C 97.707031 271.144531 98.183594 271 98.648438 270.804688 C 99.113281 270.613281 99.554688 270.378906 99.972656 270.101562 C 100.386719 269.820312 100.773438 269.503906 101.128906 269.148438 C 101.484375 268.796875 101.800781 268.410156 102.082031 267.992188 C 102.359375 267.574219 102.59375 267.136719 102.789062 266.671875 C 102.980469 266.207031 103.125 265.730469 103.222656 265.238281 C 103.320312 264.746094 103.371094 264.25 103.371094 263.746094 C 103.371094 263.246094 103.320312 262.75 103.222656 262.257812 C 103.125 261.765625 102.980469 261.285156 102.789062 260.824219 C 102.59375 260.359375 102.359375 259.917969 102.082031 259.503906 C 101.800781 259.085938 101.484375 258.699219 101.128906 258.34375 C 100.773438 257.988281 100.386719 257.671875 99.972656 257.394531 C 99.554688 257.117188 99.113281 256.878906 98.648438 256.6875 C 98.183594 256.496094 97.707031 256.351562 97.214844 256.253906 C 96.722656 256.15625 96.226562 256.105469 95.722656 256.105469 Z M 118.664062 256.105469 C 118.160156 256.105469 117.664062 256.15625 117.171875 256.253906 C 116.679688 256.351562 116.199219 256.496094 115.734375 256.6875 C 115.273438 256.878906 114.832031 257.117188 114.414062 257.394531 C 113.996094 257.671875 113.609375 257.988281 113.253906 258.34375 C 112.902344 258.699219 112.582031 259.085938 112.304688 259.503906 C 112.027344 259.917969 111.789062 260.359375 111.597656 260.824219 C 111.40625 261.285156 111.261719 261.765625 111.164062 262.257812 C 111.066406 262.75 111.015625 263.246094 111.015625 263.746094 C 111.015625 264.25 111.066406 264.746094 111.164062 265.238281 C 111.261719 265.730469 111.40625 266.207031 111.597656 266.671875 C 111.789062 267.136719 112.027344 267.574219 112.304688 267.992188 C 112.582031 268.410156 112.902344 268.796875 113.253906 269.148438 C 113.609375 269.503906 113.996094 269.820312 114.414062 270.101562 C 114.832031 270.378906 115.273438 270.613281 115.734375 270.804688 C 116.199219 271 116.679688 271.144531 117.171875 271.242188 C 117.664062 271.339844 118.160156 271.386719 118.664062 271.386719 C 119.164062 271.386719 119.660156 271.339844 120.15625 271.242188 C 120.648438 271.144531 121.125 271 121.589844 270.804688 C 122.050781 270.613281 122.492188 270.378906 122.910156 270.101562 C 123.328125 269.820312 123.714844 269.503906 124.070312 269.148438 C 124.425781 268.796875 124.742188 268.410156 125.019531 267.992188 C 125.300781 267.574219 125.535156 267.136719 125.726562 266.671875 C 125.917969 266.207031 126.0625 265.730469 126.164062 265.238281 C 126.261719 264.746094 126.308594 264.25 126.308594 263.746094 C 126.308594 263.246094 126.261719 262.75 126.164062 262.257812 C 126.0625 261.765625 125.917969 261.285156 125.726562 260.824219 C 125.535156 260.359375 125.300781 259.917969 125.019531 259.503906 C 124.742188 259.085938 124.425781 258.699219 124.070312 258.34375 C 123.714844 257.988281 123.328125 257.671875 122.910156 257.394531 C 122.492188 257.117188 122.050781 256.878906 121.589844 256.6875 C 121.125 256.496094 120.648438 256.351562 120.15625 256.253906 C 119.660156 256.15625 119.164062 256.105469 118.664062 256.105469 Z M 141.601562 256.105469 C 141.101562 256.105469 140.601562 256.15625 140.109375 256.253906 C 139.617188 256.351562 139.140625 256.496094 138.675781 256.6875 C 138.210938 256.878906 137.773438 257.117188 137.355469 257.394531 C 136.9375 257.671875 136.550781 257.988281 136.195312 258.34375 C 135.839844 258.699219 135.523438 259.085938 135.246094 259.503906 C 134.964844 259.917969 134.730469 260.359375 134.539062 260.824219 C 134.347656 261.285156 134.199219 261.765625 134.101562 262.257812 C 134.003906 262.75 133.957031 263.246094 133.957031 263.746094 C 133.957031 264.25 134.003906 264.746094 134.101562 265.238281 C 134.199219 265.730469 134.347656 266.207031 134.539062 266.671875 C 134.730469 267.136719 134.964844 267.574219 135.246094 267.992188 C 135.523438 268.410156 135.839844 268.796875 136.195312 269.148438 C 136.550781 269.503906 136.9375 269.820312 137.355469 270.101562 C 137.773438 270.378906 138.210938 270.613281 138.675781 270.804688 C 139.140625 271 139.617188 271.144531 140.109375 271.242188 C 140.601562 271.339844 141.101562 271.386719 141.601562 271.386719 C 142.105469 271.386719 142.601562 271.339844 143.09375 271.242188 C 143.585938 271.144531 144.066406 271 144.527344 270.804688 C 144.992188 270.613281 145.433594 270.378906 145.851562 270.101562 C 146.269531 269.820312 146.65625 269.503906 147.007812 269.148438 C 147.363281 268.796875 147.683594 268.410156 147.960938 267.992188 C 148.238281 267.574219 148.476562 267.136719 148.667969 266.671875 C 148.859375 266.207031 149.003906 265.730469 149.101562 265.238281 C 149.199219 264.746094 149.25 264.25 149.25 263.746094 C 149.25 263.246094 149.199219 262.75 149.101562 262.257812 C 149.003906 261.765625 148.859375 261.285156 148.667969 260.824219 C 148.476562 260.359375 148.238281 259.917969 147.960938 259.503906 C 147.683594 259.085938 147.363281 258.699219 147.007812 258.34375 C 146.65625 257.988281 146.269531 257.671875 145.851562 257.394531 C 145.433594 257.117188 144.992188 256.878906 144.527344 256.6875 C 144.066406 256.496094 143.585938 256.351562 143.09375 256.253906 C 142.601562 256.15625 142.105469 256.105469 141.601562 256.105469 Z M 164.542969 256.105469 C 164.039062 256.105469 163.542969 256.15625 163.050781 256.253906 C 162.558594 256.351562 162.082031 256.496094 161.617188 256.6875 C 161.152344 256.878906 160.710938 257.117188 160.292969 257.394531 C 159.875 257.671875 159.492188 257.988281 159.136719 258.34375 C 158.78125 258.699219 158.464844 259.085938 158.183594 259.503906 C 157.90625 259.917969 157.671875 260.359375 157.476562 260.824219 C 157.285156 261.285156 157.140625 261.765625 157.042969 262.257812 C 156.945312 262.75 156.894531 263.246094 156.894531 263.746094 C 156.894531 264.25 156.945312 264.746094 157.042969 265.238281 C 157.140625 265.730469 157.285156 266.207031 157.476562 266.671875 C 157.671875 267.136719 157.90625 267.574219 158.183594 267.992188 C 158.464844 268.410156 158.78125 268.796875 159.136719 269.148438 C 159.492188 269.503906 159.875 269.820312 160.292969 270.101562 C 160.710938 270.378906 161.152344 270.613281 161.617188 270.804688 C 162.082031 271 162.558594 271.144531 163.050781 271.242188 C 163.542969 271.339844 164.039062 271.386719 164.542969 271.386719 C 165.042969 271.386719 165.542969 271.339844 166.035156 271.242188 C 166.527344 271.144531 167.003906 271 167.46875 270.804688 C 167.933594 270.613281 168.375 270.378906 168.789062 270.101562 C 169.207031 269.820312 169.59375 269.503906 169.949219 269.148438 C 170.304688 268.796875 170.621094 268.410156 170.902344 267.992188 C 171.179688 267.574219 171.414062 267.136719 171.605469 266.671875 C 171.800781 266.207031 171.945312 265.730469 172.042969 265.238281 C 172.140625 264.746094 172.1875 264.25 172.1875 263.746094 C 172.1875 263.246094 172.140625 262.75 172.042969 262.257812 C 171.945312 261.765625 171.800781 261.285156 171.605469 260.824219 C 171.414062 260.359375 171.179688 259.917969 170.902344 259.503906 C 170.621094 259.085938 170.304688 258.699219 169.949219 258.34375 C 169.59375 257.988281 169.207031 257.671875 168.789062 257.394531 C 168.375 257.117188 167.933594 256.878906 167.46875 256.6875 C 167.003906 256.496094 166.527344 256.351562 166.035156 256.253906 C 165.542969 256.15625 165.042969 256.105469 164.542969 256.105469 Z M 187.484375 256.105469 C 186.980469 256.105469 186.484375 256.15625 185.992188 256.253906 C 185.5 256.351562 185.019531 256.496094 184.554688 256.6875 C 184.09375 256.878906 183.652344 257.117188 183.234375 257.394531 C 182.816406 257.671875 182.429688 257.988281 182.074219 258.34375 C 181.71875 258.699219 181.402344 259.085938 181.125 259.503906 C 180.847656 259.917969 180.609375 260.359375 180.417969 260.824219 C 180.226562 261.285156 180.082031 261.765625 179.984375 262.257812 C 179.886719 262.75 179.835938 263.246094 179.835938 263.746094 C 179.835938 264.25 179.886719 264.746094 179.984375 265.238281 C 180.082031 265.730469 180.226562 266.207031 180.417969 266.671875 C 180.609375 267.136719 180.847656 267.574219 181.125 267.992188 C 181.402344 268.410156 181.71875 268.796875 182.074219 269.148438 C 182.429688 269.503906 182.816406 269.820312 183.234375 270.101562 C 183.652344 270.378906 184.09375 270.613281 184.554688 270.804688 C 185.019531 271 185.5 271.144531 185.992188 271.242188 C 186.484375 271.339844 186.980469 271.386719 187.484375 271.386719 C 187.984375 271.386719 188.480469 271.339844 188.972656 271.242188 C 189.46875 271.144531 189.945312 271 190.410156 270.804688 C 190.871094 270.613281 191.3125 270.378906 191.730469 270.101562 C 192.148438 269.820312 192.535156 269.503906 192.890625 269.148438 C 193.246094 268.796875 193.5625 268.410156 193.839844 267.992188 C 194.121094 267.574219 194.355469 267.136719 194.546875 266.671875 C 194.738281 266.207031 194.882812 265.730469 194.984375 265.238281 C 195.082031 264.746094 195.128906 264.25 195.128906 263.746094 C 195.128906 263.246094 195.082031 262.75 194.984375 262.257812 C 194.882812 261.765625 194.738281 261.285156 194.546875 260.824219 C 194.355469 260.359375 194.121094 259.917969 193.839844 259.503906 C 193.5625 259.085938 193.246094 258.699219 192.890625 258.34375 C 192.535156 257.988281 192.148438 257.671875 191.730469 257.394531 C 191.3125 257.117188 190.871094 256.878906 190.410156 256.6875 C 189.945312 256.496094 189.46875 256.351562 188.972656 256.253906 C 188.480469 256.15625 187.984375 256.105469 187.484375 256.105469 Z M 312.128906 259.167969 L 270.835938 307.292969 L 245.59375 288.191406 L 236.425781 300.429688 L 272.359375 327.933594 L 323.601562 269.089844 Z M 312.128906 259.167969 " fill-opacity="1" fill-rule="nonzero"/></g></svg>