<svg xmlns="http://www.w3.org/2000/svg" xmlns:xlink="http://www.w3.org/1999/xlink" width="500" zoomAndPan="magnify" viewBox="0 0 375 374.999991" height="500" preserveAspectRatio="xMidYMid meet" version="1.0"><defs><clipPath id="f384e16e94"><path d="M 8.257812 8.257812 L 63 8.257812 L 63 63 L 8.257812 63 Z M 8.257812 8.257812 " clip-rule="nonzero"/></clipPath><clipPath id="3af235d5f4"><path d="M 312 8.257812 L 366.757812 8.257812 L 366.757812 63 L 312 63 Z M 312 8.257812 " clip-rule="nonzero"/></clipPath><clipPath id="b265221e81"><path d="M 312 312 L 366.757812 312 L 366.757812 366.757812 L 312 366.757812 Z M 312 312 " clip-rule="nonzero"/></clipPath><clipPath id="0b56153ef6"><path d="M 8.257812 312 L 63 312 L 63 366.757812 L 8.257812 366.757812 Z M 8.257812 312 " clip-rule="nonzero"/></clipPath></defs><path fill="#000000" d="M 115.808594 62.035156 L 68.007812 62.035156 C 64.722656 62.035156 62.035156 64.722656 62.035156 68.007812 L 62.035156 115.808594 C 62.035156 119.09375 64.722656 121.785156 68.007812 121.785156 L 115.808594 121.785156 C 119.09375 121.785156 121.785156 119.09375 121.785156 115.808594 L 121.785156 68.007812 C 121.785156 64.722656 119.09375 62.035156 115.808594 62.035156 Z M 109.832031 109.832031 L 73.984375 109.832031 L 73.984375 73.984375 L 109.832031 73.984375 Z M 109.832031 109.832031 " fill-opacity="1" fill-rule="nonzero"/><path fill="#000000" d="M 307.007812 62.035156 L 259.207031 62.035156 C 255.921875 62.035156 253.234375 64.722656 253.234375 68.007812 L 253.234375 115.808594 C 253.234375 119.09375 255.921875 121.785156 259.207031 121.785156 L 307.007812 121.785156 C 310.292969 121.785156 312.984375 119.09375 312.984375 115.808594 L 312.984375 68.007812 C 312.984375 64.722656 310.292969 62.035156 307.007812 62.035156 Z M 301.035156 109.832031 L 265.183594 109.832031 L 265.183594 73.984375 L 301.035156 73.984375 Z M 301.035156 109.832031 " fill-opacity="1" fill-rule="nonzero"/><path fill="#000000" d="M 115.808594 253.234375 L 68.007812 253.234375 C 64.722656 253.234375 62.035156 255.921875 62.035156 259.207031 L 62.035156 307.007812 C 62.035156 310.292969 64.722656 312.984375 68.007812 312.984375 L 115.808594 312.984375 C 119.09375 312.984375 121.785156 310.292969 121.785156 307.007812 L 121.785156 259.207031 C 121.785156 255.921875 119.09375 253.234375 115.808594 253.234375 Z M 109.832031 301.035156 L 73.984375 301.035156 L 73.984375 265.183594 L 109.832031 265.183594 Z M 109.832031 301.035156 " fill-opacity="1" fill-rule="nonzero"/><path fill="#000000" d="M 73.984375 163.609375 L 38.132812 163.609375 C 34.847656 163.609375 32.160156 166.296875 32.160156 169.582031 L 32.160156 187.507812 L 44.109375 187.507812 L 44.109375 175.558594 L 73.984375 175.558594 Z M 73.984375 163.609375 " fill-opacity="1" fill-rule="nonzero"/><path fill="#000000" d="M 56.058594 199.457031 L 56.058594 211.410156 L 68.007812 211.410156 C 71.292969 211.410156 73.984375 208.71875 73.984375 205.433594 L 73.984375 187.507812 L 62.035156 187.507812 L 62.035156 199.457031 Z M 56.058594 199.457031 " fill-opacity="1" fill-rule="nonzero"/><path fill="#000000" d="M 85.933594 163.609375 L 97.882812 163.609375 L 97.882812 175.558594 L 85.933594 175.558594 Z M 85.933594 163.609375 " fill-opacity="1" fill-rule="nonzero"/><path fill="#000000" d="M 85.933594 199.457031 L 97.882812 199.457031 L 97.882812 211.410156 L 85.933594 211.410156 Z M 85.933594 199.457031 " fill-opacity="1" fill-rule="nonzero"/><path fill="#000000" d="M 181.535156 79.957031 L 193.484375 79.957031 L 193.484375 44.109375 L 211.410156 44.109375 L 211.410156 32.160156 L 163.609375 32.160156 L 163.609375 44.109375 L 181.535156 44.109375 Z M 181.535156 79.957031 " fill-opacity="1" fill-rule="nonzero"/><path fill="#000000" d="M 199.457031 68.007812 L 211.410156 68.007812 L 211.410156 79.957031 L 199.457031 79.957031 Z M 199.457031 68.007812 " fill-opacity="1" fill-rule="nonzero"/><path fill="#000000" d="M 163.609375 68.007812 L 175.558594 68.007812 L 175.558594 79.957031 L 163.609375 79.957031 Z M 163.609375 68.007812 " fill-opacity="1" fill-rule="nonzero"/><path fill="#000000" d="M 32.160156 38.132812 L 32.160156 145.683594 C 32.160156 148.96875 34.847656 151.660156 38.132812 151.660156 L 145.683594 151.660156 C 148.96875 151.660156 151.660156 148.96875 151.660156 145.683594 L 151.660156 38.132812 C 151.660156 34.847656 148.96875 32.160156 145.683594 32.160156 L 38.132812 32.160156 C 34.847656 32.160156 32.160156 34.847656 32.160156 38.132812 Z M 44.109375 44.109375 L 139.707031 44.109375 L 139.707031 139.707031 L 44.109375 139.707031 Z M 44.109375 44.109375 " fill-opacity="1" fill-rule="nonzero"/><path fill="#000000" d="M 229.332031 151.660156 L 336.882812 151.660156 C 340.167969 151.660156 342.859375 148.96875 342.859375 145.683594 L 342.859375 38.132812 C 342.859375 34.847656 340.167969 32.160156 336.882812 32.160156 L 229.332031 32.160156 C 226.046875 32.160156 223.359375 34.847656 223.359375 38.132812 L 223.359375 145.683594 C 223.359375 148.96875 226.046875 151.660156 229.332031 151.660156 Z M 235.308594 44.109375 L 330.910156 44.109375 L 330.910156 139.707031 L 235.308594 139.707031 Z M 235.308594 44.109375 " fill-opacity="1" fill-rule="nonzero"/><path fill="#000000" d="M 32.160156 336.882812 C 32.160156 340.167969 34.847656 342.859375 38.132812 342.859375 L 145.683594 342.859375 C 148.96875 342.859375 151.660156 340.167969 151.660156 336.882812 L 151.660156 229.332031 C 151.660156 226.046875 148.96875 223.359375 145.683594 223.359375 L 38.132812 223.359375 C 34.847656 223.359375 32.160156 226.046875 32.160156 229.332031 Z M 44.109375 235.308594 L 139.707031 235.308594 L 139.707031 330.910156 L 44.109375 330.910156 Z M 44.109375 235.308594 " fill-opacity="1" fill-rule="nonzero"/><path fill="#000000" d="M 229.332031 271.160156 L 265.183594 271.160156 C 268.46875 271.160156 271.160156 268.46875 271.160156 265.183594 L 271.160156 229.332031 C 271.160156 226.046875 268.46875 223.359375 265.183594 223.359375 L 229.332031 223.359375 C 226.046875 223.359375 223.359375 226.046875 223.359375 229.332031 L 223.359375 265.183594 C 223.359375 268.46875 226.046875 271.160156 229.332031 271.160156 Z M 235.308594 235.308594 L 259.207031 235.308594 L 259.207031 259.207031 L 235.308594 259.207031 Z M 235.308594 235.308594 " fill-opacity="1" fill-rule="nonzero"/><path fill="#000000" d="M 301.035156 342.859375 L 336.882812 342.859375 C 340.167969 342.859375 342.859375 340.167969 342.859375 336.882812 L 342.859375 301.035156 C 342.859375 297.746094 340.167969 295.058594 336.882812 295.058594 L 301.035156 295.058594 C 297.746094 295.058594 295.058594 297.746094 295.058594 301.035156 L 295.058594 336.882812 C 295.058594 340.167969 297.746094 342.859375 301.035156 342.859375 Z M 307.007812 307.007812 L 330.910156 307.007812 L 330.910156 330.910156 L 307.007812 330.910156 Z M 307.007812 307.007812 " fill-opacity="1" fill-rule="nonzero"/><path fill="#000000" d="M 235.308594 295.058594 L 271.160156 295.058594 L 271.160156 283.109375 L 229.332031 283.109375 C 226.046875 283.109375 223.359375 285.796875 223.359375 289.082031 L 223.359375 342.859375 L 235.308594 342.859375 Z M 235.308594 295.058594 " fill-opacity="1" fill-rule="nonzero"/><path fill="#000000" d="M 247.257812 342.859375 L 277.132812 342.859375 C 280.417969 342.859375 283.109375 340.167969 283.109375 336.882812 L 283.109375 307.007812 L 271.160156 307.007812 L 271.160156 330.910156 L 247.257812 330.910156 Z M 247.257812 342.859375 " fill-opacity="1" fill-rule="nonzero"/><path fill="#000000" d="M 85.933594 193.484375 L 115.808594 193.484375 L 115.808594 211.410156 L 127.757812 211.410156 L 127.757812 187.507812 C 127.757812 184.222656 125.070312 181.535156 121.785156 181.535156 L 85.933594 181.535156 Z M 85.933594 193.484375 " fill-opacity="1" fill-rule="nonzero"/><path fill="#000000" d="M 109.832031 163.609375 L 127.757812 163.609375 L 127.757812 175.558594 L 109.832031 175.558594 Z M 109.832031 163.609375 " fill-opacity="1" fill-rule="nonzero"/><path fill="#000000" d="M 139.707031 163.609375 L 151.660156 163.609375 L 151.660156 187.507812 L 139.707031 187.507812 Z M 139.707031 163.609375 " fill-opacity="1" fill-rule="nonzero"/><path fill="#000000" d="M 139.707031 199.457031 L 151.660156 199.457031 L 151.660156 211.410156 L 139.707031 211.410156 Z M 139.707031 199.457031 " fill-opacity="1" fill-rule="nonzero"/><path fill="#000000" d="M 342.859375 187.507812 L 330.910156 187.507812 L 330.910156 199.457031 L 301.035156 199.457031 L 301.035156 211.410156 L 336.882812 211.410156 C 340.167969 211.410156 342.859375 208.71875 342.859375 205.433594 Z M 342.859375 187.507812 " fill-opacity="1" fill-rule="nonzero"/><path fill="#000000" d="M 318.957031 175.558594 L 318.957031 163.609375 L 307.007812 163.609375 C 303.722656 163.609375 301.035156 166.296875 301.035156 169.582031 L 301.035156 187.507812 L 312.984375 187.507812 L 312.984375 175.558594 Z M 318.957031 175.558594 " fill-opacity="1" fill-rule="nonzero"/><path fill="#000000" d="M 277.132812 199.457031 L 289.082031 199.457031 L 289.082031 211.410156 L 277.132812 211.410156 Z M 277.132812 199.457031 " fill-opacity="1" fill-rule="nonzero"/><path fill="#000000" d="M 277.132812 163.609375 L 289.082031 163.609375 L 289.082031 175.558594 L 277.132812 175.558594 Z M 277.132812 163.609375 " fill-opacity="1" fill-rule="nonzero"/><path fill="#000000" d="M 289.082031 181.535156 L 259.207031 181.535156 L 259.207031 163.609375 L 247.257812 163.609375 L 247.257812 187.507812 C 247.257812 190.792969 249.945312 193.484375 253.234375 193.484375 L 289.082031 193.484375 Z M 289.082031 181.535156 " fill-opacity="1" fill-rule="nonzero"/><path fill="#000000" d="M 247.257812 199.457031 L 265.183594 199.457031 L 265.183594 211.410156 L 247.257812 211.410156 Z M 247.257812 199.457031 " fill-opacity="1" fill-rule="nonzero"/><path fill="#000000" d="M 223.359375 187.507812 L 235.308594 187.507812 L 235.308594 211.410156 L 223.359375 211.410156 Z M 223.359375 187.507812 " fill-opacity="1" fill-rule="nonzero"/><path fill="#000000" d="M 223.359375 163.609375 L 235.308594 163.609375 L 235.308594 175.558594 L 223.359375 175.558594 Z M 223.359375 163.609375 " fill-opacity="1" fill-rule="nonzero"/><path fill="#000000" d="M 199.457031 127.757812 L 211.410156 127.757812 L 211.410156 97.882812 C 211.410156 94.597656 208.71875 91.910156 205.433594 91.910156 L 163.609375 91.910156 L 163.609375 103.859375 L 199.457031 103.859375 Z M 199.457031 127.757812 " fill-opacity="1" fill-rule="nonzero"/><path fill="#000000" d="M 163.609375 115.808594 L 187.507812 115.808594 L 187.507812 127.757812 L 163.609375 127.757812 Z M 163.609375 115.808594 " fill-opacity="1" fill-rule="nonzero"/><path fill="#000000" d="M 163.609375 139.707031 L 175.558594 139.707031 L 175.558594 151.660156 L 163.609375 151.660156 Z M 163.609375 139.707031 " fill-opacity="1" fill-rule="nonzero"/><path fill="#000000" d="M 187.507812 139.707031 L 211.410156 139.707031 L 211.410156 151.660156 L 187.507812 151.660156 Z M 187.507812 139.707031 " fill-opacity="1" fill-rule="nonzero"/><path fill="#000000" d="M 211.410156 330.910156 L 193.484375 330.910156 L 193.484375 295.058594 L 181.535156 295.058594 L 181.535156 330.910156 L 163.609375 330.910156 L 163.609375 342.859375 L 211.410156 342.859375 Z M 211.410156 330.910156 " fill-opacity="1" fill-rule="nonzero"/><path fill="#000000" d="M 163.609375 295.058594 L 175.558594 295.058594 L 175.558594 307.007812 L 163.609375 307.007812 Z M 163.609375 295.058594 " fill-opacity="1" fill-rule="nonzero"/><path fill="#000000" d="M 199.457031 295.058594 L 211.410156 295.058594 L 211.410156 307.007812 L 199.457031 307.007812 Z M 199.457031 295.058594 " fill-opacity="1" fill-rule="nonzero"/><path fill="#000000" d="M 169.582031 283.109375 L 211.410156 283.109375 L 211.410156 271.160156 L 175.558594 271.160156 L 175.558594 247.257812 L 163.609375 247.257812 L 163.609375 277.132812 C 163.609375 280.417969 166.296875 283.109375 169.582031 283.109375 Z M 169.582031 283.109375 " fill-opacity="1" fill-rule="nonzero"/><path fill="#000000" d="M 187.507812 247.257812 L 211.410156 247.257812 L 211.410156 259.207031 L 187.507812 259.207031 Z M 187.507812 247.257812 " fill-opacity="1" fill-rule="nonzero"/><path fill="#000000" d="M 199.457031 223.359375 L 211.410156 223.359375 L 211.410156 235.308594 L 199.457031 235.308594 Z M 199.457031 223.359375 " fill-opacity="1" fill-rule="nonzero"/><path fill="#000000" d="M 163.609375 223.359375 L 187.507812 223.359375 L 187.507812 235.308594 L 163.609375 235.308594 Z M 163.609375 223.359375 " fill-opacity="1" fill-rule="nonzero"/><path fill="#000000" d="M 32.160156 199.457031 L 44.109375 199.457031 L 44.109375 211.410156 L 32.160156 211.410156 Z M 32.160156 199.457031 " fill-opacity="1" fill-rule="nonzero"/><path fill="#000000" d="M 330.910156 163.609375 L 342.859375 163.609375 L 342.859375 175.558594 L 330.910156 175.558594 Z M 330.910156 163.609375 " fill-opacity="1" fill-rule="nonzero"/><path fill="#000000" d="M 199.457031 187.507812 L 211.410156 187.507812 L 211.410156 169.582031 C 211.410156 166.296875 208.71875 163.609375 205.433594 163.609375 L 163.609375 163.609375 L 163.609375 175.558594 L 199.457031 175.558594 Z M 199.457031 187.507812 " fill-opacity="1" fill-rule="nonzero"/><path fill="#000000" d="M 169.582031 211.410156 L 211.410156 211.410156 L 211.410156 199.457031 L 175.558594 199.457031 L 175.558594 187.507812 L 163.609375 187.507812 L 163.609375 205.433594 C 163.609375 208.71875 166.296875 211.410156 169.582031 211.410156 Z M 169.582031 211.410156 " fill-opacity="1" fill-rule="nonzero"/><path fill="#000000" d="M 247.257812 307.007812 L 259.207031 307.007812 L 259.207031 318.957031 L 247.257812 318.957031 Z M 247.257812 307.007812 " fill-opacity="1" fill-rule="nonzero"/><path fill="#000000" d="M 342.859375 229.332031 C 342.859375 226.046875 340.167969 223.359375 336.882812 223.359375 L 295.058594 223.359375 L 295.058594 235.308594 L 330.910156 235.308594 L 330.910156 283.109375 L 342.859375 283.109375 Z M 342.859375 229.332031 " fill-opacity="1" fill-rule="nonzero"/><path fill="#000000" d="M 318.957031 271.160156 L 295.058594 271.160156 L 295.058594 247.257812 L 283.109375 247.257812 L 283.109375 277.132812 C 283.109375 280.417969 285.796875 283.109375 289.082031 283.109375 L 318.957031 283.109375 Z M 318.957031 271.160156 " fill-opacity="1" fill-rule="nonzero"/><path fill="#000000" d="M 307.007812 247.257812 L 318.957031 247.257812 L 318.957031 259.207031 L 307.007812 259.207031 Z M 307.007812 247.257812 " fill-opacity="1" fill-rule="nonzero"/><g clip-path="url(#f384e16e94)"><path fill="#000000" d="M 20.207031 20.207031 L 62.035156 20.207031 L 62.035156 8.257812 L 14.234375 8.257812 C 10.945312 8.257812 8.257812 10.945312 8.257812 14.234375 L 8.257812 62.035156 L 20.207031 62.035156 Z M 20.207031 20.207031 " fill-opacity="1" fill-rule="nonzero"/></g><g clip-path="url(#3af235d5f4)"><path fill="#000000" d="M 360.785156 8.257812 L 312.984375 8.257812 L 312.984375 20.207031 L 354.808594 20.207031 L 354.808594 62.035156 L 366.757812 62.035156 L 366.757812 14.234375 C 366.757812 10.945312 364.070312 8.257812 360.785156 8.257812 Z M 360.785156 8.257812 " fill-opacity="1" fill-rule="nonzero"/></g><g clip-path="url(#b265221e81)"><path fill="#000000" d="M 354.808594 354.808594 L 312.984375 354.808594 L 312.984375 366.757812 L 360.785156 366.757812 C 364.070312 366.757812 366.757812 364.070312 366.757812 360.785156 L 366.757812 312.984375 L 354.808594 312.984375 Z M 354.808594 354.808594 " fill-opacity="1" fill-rule="nonzero"/></g><g clip-path="url(#0b56153ef6)"><path fill="#000000" d="M 14.234375 366.757812 L 62.035156 366.757812 L 62.035156 354.808594 L 20.207031 354.808594 L 20.207031 312.984375 L 8.257812 312.984375 L 8.257812 360.785156 C 8.257812 364.070312 10.945312 366.757812 14.234375 366.757812 Z M 14.234375 366.757812 " fill-opacity="1" fill-rule="nonzero"/></g></svg>