<svg xmlns="http://www.w3.org/2000/svg" xmlns:xlink="http://www.w3.org/1999/xlink" width="500" zoomAndPan="magnify" viewBox="0 0 375 374.999991" height="500" preserveAspectRatio="xMidYMid meet" version="1.0"><defs><clipPath id="ce9aedc4b1"><path d="M 93 6.496094 L 293 6.496094 L 293 205 L 93 205 Z M 93 6.496094 " clip-rule="nonzero"/></clipPath><clipPath id="17e75b1f65"><path d="M 33.058594 212 L 353 212 L 353 375 L 33.058594 375 Z M 33.058594 212 " clip-rule="nonzero"/></clipPath></defs><g clip-path="url(#ce9aedc4b1)"><path fill="#000000" d="M 192.691406 5.632812 C 247.554688 5.632812 292.082031 50.113281 292.082031 104.921875 C 292.082031 159.726562 247.554688 204.210938 192.691406 204.210938 C 137.828125 204.210938 93.304688 159.726562 93.304688 104.921875 C 93.304688 50.113281 137.828125 5.632812 192.691406 5.632812 Z M 192.691406 31.535156 C 152.140625 31.535156 119.230469 64.410156 119.230469 104.921875 C 119.230469 145.429688 152.140625 178.308594 192.691406 178.308594 C 233.242188 178.308594 266.15625 145.429688 266.15625 104.921875 C 266.15625 64.410156 233.242188 31.535156 192.691406 31.535156 Z M 192.691406 31.535156 " fill-opacity="1" fill-rule="evenodd"/></g><g clip-path="url(#17e75b1f65)"><path fill="#000000" d="M 352.582031 346.664062 C 352.582031 363.347656 339.046875 376.882812 322.332031 376.882812 L 63.054688 376.882812 C 46.339844 376.882812 32.804688 363.347656 32.804688 346.664062 C 32.804688 272.761719 92.785156 212.84375 166.765625 212.84375 L 218.621094 212.84375 C 292.601562 212.84375 352.582031 272.761719 352.582031 346.664062 Z M 339.980469 359.253906 C 339.753906 359.339844 339.617188 359.441406 339.617188 359.617188 Z M 58.734375 346.664062 C 58.734375 349.046875 60.667969 350.980469 63.054688 350.980469 L 322.332031 350.980469 C 324.699219 350.980469 326.617188 349.082031 326.652344 346.664062 C 326.652344 287.058594 278.289062 238.742188 218.621094 238.742188 L 166.765625 238.742188 C 107.097656 238.742188 58.734375 287.058594 58.734375 346.664062 Z M 58.734375 346.664062 " fill-opacity="1" fill-rule="evenodd"/></g></svg>