<svg xmlns="http://www.w3.org/2000/svg" xmlns:xlink="http://www.w3.org/1999/xlink" width="500" zoomAndPan="magnify" viewBox="0 0 375 374.999991" height="500" preserveAspectRatio="xMidYMid meet" version="1.0"><defs><clipPath id="a98222b368"><path d="M 26.519531 30.542969 L 348 30.542969 L 348 344 L 26.519531 344 Z M 26.519531 30.542969 " clip-rule="nonzero"/></clipPath></defs><g clip-path="url(#a98222b368)"><path fill="#000000" d="M 263.007812 174.777344 C 216.433594 174.777344 178.546875 212.726562 178.546875 259.378906 C 178.546875 306.035156 216.433594 343.984375 263.007812 343.984375 C 309.578125 343.984375 347.464844 306.035156 347.464844 259.378906 C 347.464844 212.726562 309.578125 174.777344 263.007812 174.777344 Z M 263.007812 305.710938 C 256.347656 305.710938 250.941406 300.296875 250.941406 293.625 C 250.941406 286.953125 256.347656 281.539062 263.007812 281.539062 C 269.667969 281.539062 275.070312 286.953125 275.070312 293.625 C 275.070312 300.296875 269.667969 305.710938 263.007812 305.710938 Z M 275.070312 261.394531 C 275.070312 268.066406 269.667969 273.480469 263.007812 273.480469 C 256.347656 273.480469 250.941406 268.066406 250.941406 261.394531 L 250.941406 229.164062 C 250.941406 222.492188 256.347656 217.078125 263.007812 217.078125 C 269.667969 217.078125 275.070312 222.492188 275.070312 229.164062 Z M 258.984375 150.765625 L 258.984375 74.058594 C 258.984375 49.566406 239.195312 29.742188 214.742188 29.742188 L 69.957031 29.742188 C 45.503906 29.742188 25.714844 49.566406 25.714844 74.058594 L 25.714844 283.554688 C 25.714844 308.046875 45.503906 327.867188 69.957031 327.867188 L 178.707031 327.867188 C 163.585938 309.175781 154.414062 285.324219 154.414062 259.378906 C 154.414062 200.722656 200.910156 152.859375 258.984375 150.765625 Z M 86.042969 94.203125 L 198.65625 94.203125 C 205.253906 94.203125 210.722656 99.683594 210.722656 106.289062 C 210.722656 112.894531 205.253906 118.375 198.65625 118.375 L 86.042969 118.375 C 79.449219 118.375 73.976562 112.894531 73.976562 106.289062 C 73.976562 99.683594 79.449219 94.203125 86.042969 94.203125 Z M 86.042969 142.546875 L 198.65625 142.546875 C 205.253906 142.546875 210.722656 148.027344 210.722656 154.632812 C 210.722656 161.242188 205.253906 166.71875 198.65625 166.71875 L 86.042969 166.71875 C 79.449219 166.71875 73.976562 161.242188 73.976562 154.632812 C 73.976562 148.027344 79.449219 142.546875 86.042969 142.546875 Z M 134.304688 215.066406 L 86.042969 215.066406 C 79.449219 215.066406 73.976562 209.585938 73.976562 202.980469 C 73.976562 196.371094 79.449219 190.890625 86.042969 190.890625 L 134.304688 190.890625 C 140.902344 190.890625 146.371094 196.371094 146.371094 202.980469 C 146.371094 209.585938 140.902344 215.066406 134.304688 215.066406 Z M 134.304688 215.066406 " fill-opacity="1" fill-rule="nonzero"/></g></svg>