<svg xmlns="http://www.w3.org/2000/svg" xmlns:xlink="http://www.w3.org/1999/xlink" width="500" zoomAndPan="magnify" viewBox="0 0 375 374.999991" height="500" preserveAspectRatio="xMidYMid meet" version="1.0"><defs><clipPath id="7f1b93c584"><path d="M 38 235 L 337 235 L 337 369.09375 L 38 369.09375 Z M 38 235 " clip-rule="nonzero"/></clipPath></defs><path fill="#100f0d" d="M 296.222656 107.363281 C 295.386719 104.351562 293.34375 101.871094 290.464844 100.355469 C 291.089844 93.558594 290.164062 85.226562 288.574219 78.371094 C 287.230469 72.730469 285.109375 66.421875 281.871094 59.851562 C 278.445312 53.355469 274.222656 46.445312 268.296875 40.082031 C 262.675781 33.492188 255.421875 27.488281 247.246094 22.207031 C 175.890625 -23.070312 77.371094 30.480469 85.019531 100.375 C 82.160156 101.890625 80.132812 104.351562 79.300781 107.34375 C 62.414062 107.648438 48.839844 120.203125 48.839844 135.710938 C 48.839844 151.21875 62.414062 163.792969 79.300781 164.097656 C 80.644531 168.980469 85.265625 172.691406 91.039062 172.691406 C 97.875 172.691406 103.382812 167.636719 103.382812 161.386719 L 103.382812 110.070312 C 103.382812 106.511719 101.488281 103.460938 98.707031 101.398438 C 101.792969 83.730469 110.972656 65.058594 123.847656 53.46875 C 142.742188 35.046875 175.53125 24.402344 211.578125 32.433594 C 225.453125 36.558594 239.105469 43.511719 250.480469 54.644531 C 263.148438 66.023438 273.425781 83.085938 276.777344 101.398438 C 269.488281 106.8125 272.101562 111.492188 272.101562 161.386719 C 272.101562 165.289062 274.410156 168.566406 277.6875 170.589844 L 277.6875 174.945312 C 277.6875 177.691406 276.910156 180.398438 275.414062 182.730469 C 259.285156 207.875 258.226562 210.433594 233.859375 218.234375 C 226.191406 220.679688 217.539062 221.738281 208.792969 223.878906 C 200.730469 215.90625 186.511719 221.152344 186.511719 231.8125 C 186.511719 245.277344 207.527344 248.363281 211.597656 234.898438 C 217.503906 233.460938 223.582031 232.609375 229.296875 230.867188 C 260.722656 221.300781 271.003906 215.621094 287.644531 183.867188 C 289.214844 180.855469 290.050781 177.523438 290.050781 174.132812 L 290.050781 171.328125 C 293.152344 169.851562 295.351562 167.257812 296.222656 164.078125 C 313.089844 163.773438 326.644531 151.21875 326.644531 135.710938 C 326.644531 120.222656 313.089844 107.683594 296.222656 107.363281 " fill-opacity="1" fill-rule="nonzero"/><g clip-path="url(#7f1b93c584)"><path fill="#100f0d" d="M 187.78125 290.816406 C 197.871094 276.652344 206.65625 264.476562 215.269531 252.1875 C 225.359375 237.777344 235.527344 233.117188 251.464844 238.496094 C 271.722656 245.332031 291.773438 252.984375 311.386719 261.523438 C 328.214844 268.851562 337.664062 281.957031 336.621094 301.382812 C 336.089844 310.945312 336.621094 320.546875 336.488281 330.128906 C 336.148438 356.527344 324.125 368.816406 297.980469 368.949219 C 264.226562 369.15625 230.472656 369.023438 196.714844 369.023438 C 157.488281 369.023438 118.242188 369.121094 79.035156 368.96875 C 50.980469 368.835938 39.148438 356.847656 38.996094 328.9375 C 38.9375 319.808594 39.449219 310.664062 38.882812 301.574219 C 37.632812 281.347656 48.046875 268.359375 65.214844 260.9375 C 84.847656 252.453125 104.992188 245.085938 125.285156 238.363281 C 142.589844 232.609375 147.949219 235.183594 158.664062 250.199219 C 167.882812 263.132812 177.179688 276.027344 187.78125 290.816406 " fill-opacity="1" fill-rule="nonzero"/></g><path fill="#100f0d" d="M 259.285156 122.324219 C 257.429688 146.144531 249.914062 176.574219 224.941406 200.019531 C 203.777344 219.882812 171.480469 220.375 150.65625 200.039062 C 121.804688 171.839844 112.695312 135.996094 117.164062 97.289062 C 119.492188 77.046875 131.835938 61.101562 152.566406 54.324219 C 183.386719 44.230469 213.242188 43.226562 240.371094 64.792969 C 256.21875 77.367188 259.835938 94.636719 259.285156 122.324219 " fill-opacity="1" fill-rule="nonzero"/></svg>