<svg xmlns="http://www.w3.org/2000/svg" xmlns:xlink="http://www.w3.org/1999/xlink" width="500" zoomAndPan="magnify" viewBox="0 0 375 374.999991" height="500" preserveAspectRatio="xMidYMid meet" version="1.0"><defs><clipPath id="bd245a267f"><path d="M 100.628906 126 L 249 126 L 249 274.628906 L 100.628906 274.628906 Z M 100.628906 126 " clip-rule="nonzero"/></clipPath></defs><path fill="#efefef" d="M 234.789062 103.863281 C 238.003906 100.648438 243.21875 100.648438 246.433594 103.863281 L 271.136719 128.566406 C 274.351562 131.78125 274.351562 136.996094 271.136719 140.210938 L 197.027344 214.320312 C 195.765625 215.578125 194.132812 216.398438 192.367188 216.648438 L 163.550781 220.765625 C 160.984375 221.132812 158.394531 220.269531 156.5625 218.4375 C 154.730469 216.601562 153.867188 214.015625 154.234375 211.449219 L 158.351562 182.628906 C 158.601562 180.867188 159.417969 179.230469 160.679688 177.972656 Z M 174.265625 187.675781 L 172.089844 202.910156 L 187.324219 200.734375 L 253.667969 134.386719 L 240.609375 121.332031 Z M 174.265625 187.675781 " fill-opacity="1" fill-rule="evenodd"/><g clip-path="url(#bd245a267f)"><path fill="#efefef" d="M 129.449219 142.621094 C 122.625 142.621094 117.097656 148.152344 117.097656 154.972656 L 117.097656 245.550781 C 117.097656 252.371094 122.625 257.902344 129.449219 257.902344 L 220.023438 257.902344 C 226.847656 257.902344 232.375 252.371094 232.375 245.550781 L 232.375 183.792969 L 248.84375 183.792969 L 248.84375 245.550781 C 248.84375 261.46875 235.941406 274.371094 220.023438 274.371094 L 129.449219 274.371094 C 113.53125 274.371094 100.628906 261.46875 100.628906 245.550781 L 100.628906 154.972656 C 100.628906 139.058594 113.53125 126.15625 129.449219 126.15625 L 191.203125 126.15625 L 191.203125 142.621094 Z M 129.449219 142.621094 " fill-opacity="1" fill-rule="evenodd"/></g></svg>