<svg xmlns="http://www.w3.org/2000/svg" xmlns:xlink="http://www.w3.org/1999/xlink" width="720" zoomAndPan="magnify" viewBox="0 0 540 348.749987" height="465" preserveAspectRatio="xMidYMid meet" version="1.0"><defs><clipPath id="0199f02a28"><path d="M 346.722656 103.597656 L 539.539062 103.597656 L 539.539062 232.8125 L 346.722656 232.8125 Z M 346.722656 103.597656 " clip-rule="nonzero"/></clipPath><clipPath id="729ef6c113"><path d="M 442.972656 103.597656 C 389.816406 103.597656 346.722656 132.523438 346.722656 168.203125 C 346.722656 203.886719 389.816406 232.8125 442.972656 232.8125 C 496.128906 232.8125 539.222656 203.886719 539.222656 168.203125 C 539.222656 132.523438 496.128906 103.597656 442.972656 103.597656 Z M 442.972656 103.597656 " clip-rule="nonzero"/></clipPath><clipPath id="0e169cb449"><path d="M 0.195312 0 L 539.804688 0 L 539.804688 339 L 0.195312 339 Z M 0.195312 0 " clip-rule="nonzero"/></clipPath><clipPath id="7dcd176285"><path d="M 166.117188 -345.792969 L 711.007812 -36.96875 L 373.96875 557.707031 L -170.921875 248.882812 Z M 166.117188 -345.792969 " clip-rule="nonzero"/></clipPath><clipPath id="ff40ec0425"><path d="M -426.890625 -681.882812 L 762.460938 -7.808594 L 425.421875 586.867188 L -763.925781 -87.210938 Z M -426.890625 -681.882812 " clip-rule="nonzero"/></clipPath><clipPath id="0b557eb837"><path d="M 337 0 L 539.804688 0 L 539.804688 55 L 337 55 Z M 337 0 " clip-rule="nonzero"/></clipPath><clipPath id="d11d7a24f9"><path d="M 445.25 128.621094 L 337.546875 -24.582031 L 490.75 -132.285156 L 598.453125 20.917969 Z M 445.25 128.621094 " clip-rule="nonzero"/></clipPath><clipPath id="738a1bce71"><path d="M 445.25 128.621094 L 337.546875 -24.582031 L 490.75 -132.285156 L 598.453125 20.917969 Z M 445.25 128.621094 " clip-rule="nonzero"/></clipPath></defs><g clip-path="url(#0199f02a28)"><g clip-path="url(#729ef6c113)"><path fill="#ff3131" d="M 346.722656 103.597656 L 539.035156 103.597656 L 539.035156 232.8125 L 346.722656 232.8125 Z M 346.722656 103.597656 " fill-opacity="1" fill-rule="nonzero"/></g></g><g clip-path="url(#0e169cb449)"><g clip-path="url(#7dcd176285)"><g clip-path="url(#ff40ec0425)"><path fill="#ff3131" d="M -169.3125 249.597656 C 159.042969 435.695312 576.089844 320.378906 762.183594 -7.964844 L -426.882812 -681.878906 C -612.976562 -353.535156 -497.652344 63.503906 -169.3125 249.597656 Z M -169.3125 249.597656 " fill-opacity="1" fill-rule="nonzero"/></g></g></g><g clip-path="url(#0b557eb837)"><g clip-path="url(#d11d7a24f9)"><g clip-path="url(#738a1bce71)"><path fill="#efefef" d="M 337.324219 -24.898438 C 396.929688 59.886719 513.984375 80.300781 598.769531 20.695312 L 490.84375 -132.828125 Z M 337.324219 -24.898438 " fill-opacity="1" fill-rule="nonzero"/></g></g></g></svg>