<svg xmlns="http://www.w3.org/2000/svg" xmlns:xlink="http://www.w3.org/1999/xlink" width="500" zoomAndPan="magnify" viewBox="0 0 375 374.999991" height="500" preserveAspectRatio="xMidYMid meet" version="1.0"><path fill="#4d4c4c" d="M 194.839844 91.542969 C 132.574219 91.542969 75.269531 119.929688 37.625 169.414062 C 31.753906 177.121094 31.753906 187.882812 37.621094 195.578125 C 75.269531 245.074219 132.574219 273.460938 194.839844 273.460938 C 257.105469 273.460938 314.410156 245.074219 352.058594 195.589844 C 357.929688 187.882812 357.929688 177.128906 352.0625 169.421875 C 314.410156 119.929688 257.105469 91.542969 194.839844 91.542969 Z M 334.914062 182.535156 C 301.371094 226.625 250.316406 251.910156 194.839844 251.910156 C 139.367188 251.910156 88.3125 226.625 54.769531 182.46875 C 88.3125 138.378906 139.367188 113.09375 194.839844 113.09375 C 250.316406 113.09375 301.371094 138.378906 334.914062 182.46875 C 334.914062 182.476562 334.914062 182.527344 334.914062 182.535156 Z M 334.914062 182.535156 " fill-opacity="1" fill-rule="nonzero"/><path fill="#4d4c4c" d="M 194.839844 119.429688 C 160.0625 119.429688 131.769531 147.722656 131.769531 182.5 C 131.769531 217.28125 160.0625 245.570312 194.839844 245.570312 C 229.621094 245.570312 257.910156 217.28125 257.910156 182.5 C 257.910156 147.722656 229.621094 119.429688 194.839844 119.429688 Z M 194.839844 224.023438 C 171.945312 224.023438 153.320312 205.394531 153.320312 182.5 C 153.320312 159.605469 171.945312 140.980469 194.839844 140.980469 C 217.734375 140.980469 236.363281 159.605469 236.363281 182.5 C 236.363281 205.394531 217.734375 224.023438 194.839844 224.023438 Z M 194.839844 224.023438 " fill-opacity="1" fill-rule="nonzero"/></svg>