<?xml version="1.0" encoding="UTF-8" standalone="no"?>
<svg xmlns:xlink="http://www.w3.org/1999/xlink" height="29.3px" width="29.3px" xmlns="http://www.w3.org/2000/svg">
  <g transform="matrix(1.0, 0.0, 0.0, 1.0, 14.65, 14.65)">
    <use height="29.3" transform="matrix(1.0, 0.0, 0.0, 1.0, -14.65, -14.65)" width="29.3" xlink:href="#shape0"/>
  </g>
  <defs>
    <g id="shape0" transform="matrix(1.0, 0.0, 0.0, 1.0, 14.65, 14.65)">
      <path d="M-14.65 0.0 Q-14.65 -6.05 -10.35 -10.3 L-10.3 -10.35 Q-6.05 -14.65 0.0 -14.65 6.05 -14.65 10.35 -10.35 L10.35 -10.3 Q14.65 -6.05 14.65 0.0 14.65 6.1 10.35 10.4 6.2 14.55 0.35 14.65 -0.25 14.65 -0.65 14.25 -1.1 13.85 -1.1 13.3 -1.1 12.7 -0.7 12.3 -0.3 11.85 0.3 11.85 5.0 11.75 8.35 8.4 11.85 4.9 11.85 0.0 11.85 -4.9 8.4 -8.35 L8.35 -8.35 Q4.9 -11.85 0.0 -11.85 -4.9 -11.85 -8.35 -8.35 -11.85 -4.9 -11.85 0.0 -11.85 4.2 -9.3 7.35 L-9.3 5.45 Q-9.3 4.85 -8.9 4.45 -8.5 4.05 -7.9 4.05 -7.3 4.05 -6.9 4.45 -6.5 4.85 -6.5 5.45 L-6.5 10.55 -6.6 11.25 -6.9 11.7 Q-7.25 12.05 -7.75 12.1 L-8.05 12.1 -13.15 12.1 Q-13.75 12.1 -14.15 11.7 -14.55 11.3 -14.55 10.7 -14.55 10.1 -14.15 9.7 -13.75 9.3 -13.15 9.3 L-11.35 9.3 Q-14.65 5.35 -14.65 0.0" fill="#24c0b5" fill-rule="evenodd" stroke="none"/>
    </g>
  </defs>
</svg>
