<?xml version="1.0" encoding="UTF-8" standalone="no"?>
<svg xmlns:xlink="http://www.w3.org/1999/xlink" height="241.9px" width="241.9px" xmlns="http://www.w3.org/2000/svg">
  <g transform="matrix(1.0, 0.0, 0.0, 1.0, 120.95, 120.95)">
    <use height="241.9" transform="matrix(1.0, 0.0, 0.0, 1.0, -120.95, -120.95)" width="241.9" xlink:href="#shape0"/>
  </g>
  <defs>
    <g id="shape0" transform="matrix(1.0, 0.0, 0.0, 1.0, 120.95, 120.95)">
      <path d="M-113.25 -120.95 L113.25 -120.95 Q120.95 -120.95 120.95 -113.25 L120.95 113.3 Q120.95 120.95 113.25 120.95 L-113.25 120.95 Q-120.95 120.95 -120.95 113.3 L-120.95 -113.25 Q-120.95 -120.95 -113.25 -120.95" fill="#ffffff" fill-opacity="0.0" fill-rule="evenodd" stroke="none"/>
      <path d="M-59.45 37.35 L-59.45 40.65 -59.45 43.75 Q-59.45 49.1 -67.35 52.85 -75.25 56.6 -86.45 56.6 -97.6 56.6 -105.5 52.85 -113.45 49.1 -113.45 43.75 L-113.45 40.95 -113.45 37.35 Q-113.45 32.0 -105.5 28.25 -97.6 24.5 -86.45 24.5 -75.25 24.5 -67.35 28.25 -59.45 32.0 -59.45 37.35" fill="#fcd137" fill-rule="evenodd" stroke="none"/>
      <path d="M-59.45 35.95 Q-59.45 41.3 -67.35 45.05 -75.25 48.8 -86.45 48.8 -97.6 48.8 -105.5 45.05 -113.45 41.3 -113.45 35.95 L-113.45 31.7 -113.45 27.4 Q-113.45 22.05 -105.5 18.3 -97.6 14.55 -86.45 14.55 -75.25 14.55 -67.35 18.3 -59.45 22.05 -59.45 27.4 L-59.45 31.7 -59.45 35.95" fill="#faee99" fill-rule="evenodd" stroke="none"/>
      <path d="M-59.45 21.35 L-59.45 24.65 -59.45 27.75 Q-59.45 33.1 -67.35 36.85 -75.25 40.6 -86.45 40.6 -97.6 40.6 -105.5 36.85 -113.45 33.1 -113.45 27.75 L-113.45 24.95 -113.45 21.35 Q-113.45 16.0 -105.5 12.25 -97.6 8.5 -86.45 8.5 -75.25 8.5 -67.35 12.25 -59.45 16.0 -59.45 21.35" fill="#fcd137" fill-rule="evenodd" stroke="none"/>
      <path d="M-63.1 20.55 Q-63.1 24.8 -69.95 27.75 -76.75 30.7 -86.45 30.7 -96.05 30.7 -102.9 27.75 -109.75 24.8 -109.75 20.55 -109.75 16.35 -102.9 13.35 -96.05 10.4 -86.45 10.4 -76.75 10.4 -69.95 13.35 -63.1 16.35 -63.1 20.55" fill="#faee99" fill-rule="evenodd" stroke="none"/>
      <path d="M-84.05 25.15 L-84.05 27.35 -88.6 27.35 -88.6 25.2 -92.15 25.0 -96.05 24.45 -94.9 22.7 -93.4 22.9 -92.35 23.05 -90.2 23.3 -88.85 23.35 -87.45 23.4 -84.0 23.1 Q-82.85 22.85 -82.85 22.35 L-83.1 21.95 -84.0 21.6 -84.65 21.45 -85.1 21.35 -85.85 21.2 -86.9 21.0 -88.05 20.8 -88.9 20.7 -92.35 19.9 Q-93.7 19.5 -94.4 19.0 -95.1 18.5 -95.1 17.85 -95.1 16.8 -93.4 16.05 -91.75 15.35 -88.6 15.1 L-88.6 12.85 -84.05 12.85 -84.05 15.0 -81.05 15.2 -78.15 15.6 -79.3 17.35 -82.4 16.95 -85.2 16.85 -88.35 17.05 Q-89.4 17.25 -89.4 17.65 L-88.75 18.15 -87.15 18.6 -86.15 18.8 -84.95 19.05 -84.3 19.15 -83.8 19.25 -80.75 19.85 Q-79.45 20.2 -78.7 20.5 -77.95 20.85 -77.55 21.25 -77.15 21.7 -77.15 22.25 -77.2 23.4 -78.95 24.15 -80.7 24.9 -84.05 25.15" fill="#fcd137" fill-rule="evenodd" stroke="none"/>
      <path d="M-24.65 55.95 L-24.65 59.25 -24.65 62.35 Q-24.65 67.7 -32.55 71.45 -40.45 75.2 -51.65 75.2 -62.8 75.2 -70.7 71.45 -78.65 67.7 -78.65 62.35 L-78.65 59.55 -78.65 55.95 Q-78.65 50.6 -70.7 46.85 -62.8 43.1 -51.65 43.1 -40.45 43.1 -32.55 46.85 -24.65 50.6 -24.65 55.95" fill="#fcd137" fill-rule="evenodd" stroke="none"/>
      <path d="M-24.65 54.55 Q-24.65 59.9 -32.55 63.65 -40.45 67.4 -51.65 67.4 -62.8 67.4 -70.7 63.65 -78.65 59.9 -78.65 54.55 L-78.65 50.3 -78.65 46.0 Q-78.65 40.65 -70.7 36.9 -62.8 33.15 -51.65 33.15 -40.45 33.15 -32.55 36.9 -24.65 40.65 -24.65 46.0 L-24.65 50.3 -24.65 54.55" fill="#faee99" fill-rule="evenodd" stroke="none"/>
      <path d="M-24.65 39.95 L-24.65 43.25 -24.65 46.35 Q-24.65 51.7 -32.55 55.45 -40.45 59.2 -51.65 59.2 -62.8 59.2 -70.7 55.45 -78.65 51.7 -78.65 46.35 L-78.65 43.55 -78.65 39.95 Q-78.65 34.6 -70.7 30.85 -62.8 27.1 -51.65 27.1 -40.45 27.1 -32.55 30.85 -24.65 34.6 -24.65 39.95" fill="#fcd137" fill-rule="evenodd" stroke="none"/>
      <path d="M-28.3 39.15 Q-28.3 43.4 -35.15 46.35 -41.95 49.3 -51.65 49.3 -61.25 49.3 -68.1 46.35 -74.95 43.4 -74.95 39.15 -74.95 34.95 -68.1 31.95 -61.25 29.0 -51.65 29.0 -41.95 29.0 -35.15 31.95 -28.3 34.95 -28.3 39.15" fill="#faee99" fill-rule="evenodd" stroke="none"/>
      <path d="M-49.25 43.75 L-49.25 45.95 -53.8 45.95 -53.8 43.8 -57.35 43.6 -61.25 43.05 -60.1 41.3 -58.6 41.5 -57.55 41.65 -55.4 41.9 -54.05 41.95 -52.65 42.0 -49.2 41.7 Q-48.05 41.45 -48.05 40.95 L-48.3 40.55 Q-48.55 40.4 -49.2 40.2 L-49.85 40.05 -50.3 39.95 -51.05 39.8 -52.1 39.6 -53.25 39.4 -54.1 39.3 -57.55 38.5 Q-58.9 38.1 -59.6 37.6 -60.3 37.1 -60.3 36.45 -60.3 35.4 -58.6 34.65 -56.95 33.95 -53.8 33.7 L-53.8 31.45 -49.25 31.45 -49.25 33.6 -46.25 33.8 -43.35 34.2 -44.5 35.95 -47.6 35.55 -50.4 35.45 -53.55 35.65 Q-54.6 35.85 -54.6 36.25 L-53.95 36.75 -52.35 37.2 -51.35 37.4 -50.15 37.65 -49.5 37.75 -49.0 37.85 -45.95 38.45 -43.9 39.1 -42.75 39.85 Q-42.35 40.3 -42.35 40.85 -42.4 42.0 -44.15 42.75 -45.9 43.5 -49.25 43.75" fill="#fcd137" fill-rule="evenodd" stroke="none"/>
      <path d="M-66.95 71.55 L-66.95 74.85 -66.95 77.95 Q-66.95 83.3 -74.85 87.05 -82.75 90.8 -93.95 90.8 -105.1 90.8 -113.0 87.05 -120.95 83.3 -120.95 77.95 L-120.95 75.15 -120.95 71.55 Q-120.95 66.2 -113.0 62.45 -105.1 58.7 -93.95 58.7 -82.75 58.7 -74.85 62.45 -66.95 66.2 -66.95 71.55" fill="#fcd137" fill-rule="evenodd" stroke="none"/>
      <path d="M-66.95 70.15 Q-66.95 75.5 -74.85 79.25 -82.75 83.0 -93.95 83.0 -105.1 83.0 -113.0 79.25 -120.95 75.5 -120.95 70.15 L-120.95 65.9 -120.95 61.6 Q-120.95 56.25 -113.0 52.5 -105.1 48.75 -93.95 48.75 -82.75 48.75 -74.85 52.5 -66.95 56.25 -66.95 61.6 L-66.95 65.9 -66.95 70.15" fill="#faee99" fill-rule="evenodd" stroke="none"/>
      <path d="M-66.95 55.55 L-66.95 58.85 -66.95 61.95 Q-66.95 67.3 -74.85 71.05 -82.75 74.8 -93.95 74.8 -105.1 74.8 -113.0 71.05 -120.95 67.3 -120.95 61.95 L-120.95 59.15 -120.95 55.55 Q-120.95 50.2 -113.0 46.45 -105.1 42.7 -93.95 42.7 -82.75 42.7 -74.85 46.45 -66.95 50.2 -66.95 55.55" fill="#fcd137" fill-rule="evenodd" stroke="none"/>
      <path d="M-70.6 54.75 Q-70.6 59.0 -77.45 61.95 -84.25 64.9 -93.95 64.9 -103.55 64.9 -110.4 61.95 -117.25 59.0 -117.25 54.75 -117.25 50.55 -110.4 47.55 -103.55 44.6 -93.95 44.6 -84.25 44.6 -77.45 47.55 -70.6 50.55 -70.6 54.75" fill="#faee99" fill-rule="evenodd" stroke="none"/>
      <path d="M-91.55 59.35 L-91.55 61.55 -96.1 61.55 -96.1 59.4 -99.65 59.2 -103.55 58.65 -102.4 56.9 -100.9 57.1 -99.85 57.25 -97.7 57.5 -96.35 57.55 -94.95 57.6 -91.5 57.3 Q-90.35 57.05 -90.35 56.55 L-90.6 56.15 -91.5 55.8 -92.15 55.65 -92.6 55.55 -93.35 55.4 -94.4 55.2 -95.55 55.0 -96.4 54.9 -99.85 54.1 -101.9 53.2 Q-102.6 52.7 -102.6 52.05 -102.6 51.0 -100.9 50.25 -99.25 49.55 -96.1 49.3 L-96.1 47.05 -91.55 47.05 -91.55 49.2 -88.55 49.4 -85.65 49.8 -86.8 51.55 -89.9 51.15 -92.7 51.05 -95.85 51.25 Q-96.9 51.45 -96.9 51.85 L-96.25 52.35 -94.65 52.8 -93.65 53.0 -92.45 53.25 -91.8 53.35 -91.3 53.45 -88.25 54.05 Q-86.95 54.4 -86.2 54.7 -85.45 55.05 -85.05 55.45 -84.65 55.9 -84.65 56.45 -84.7 57.6 -86.45 58.35 -88.2 59.1 -91.55 59.35" fill="#fcd137" fill-rule="evenodd" stroke="none"/>
      <path d="M-20.6 -110.3 L48.0 -110.3 Q68.0 -110.3 68.0 -90.3 L68.0 74.7 Q68.0 94.7 48.0 94.7 L-20.6 94.7 Q-40.6 94.7 -40.6 74.7 L-40.6 -90.3 Q-40.6 -110.3 -20.6 -110.3" fill="#333333" fill-rule="evenodd" stroke="none"/>
      <path d="M24.15 -102.4 Q24.65 -102.4 25.05 -102.0 L25.4 -101.15 Q25.4 -100.65 25.05 -100.25 24.65 -99.9 24.15 -99.9 L2.4 -99.9 Q1.9 -99.9 1.55 -100.25 1.15 -100.65 1.15 -101.15 1.15 -101.65 1.55 -102.0 1.9 -102.4 2.4 -102.4 L24.15 -102.4 M-19.1 -103.85 L-13.85 -103.85 -13.7 -102.1 Q-12.6 -95.2 -1.95 -95.2 L28.85 -95.2 Q39.55 -95.2 40.7 -102.1 L40.8 -103.85 46.45 -103.85 Q61.45 -103.85 61.45 -88.85 L61.45 73.5 Q61.45 88.5 46.45 88.5 L-19.1 88.5 Q-34.1 88.5 -34.1 73.5 L-34.1 -88.85 Q-34.1 -103.85 -19.1 -103.85 M-4.05 -101.1 L-4.0 -101.15 -4.05 -101.2 -4.1 -101.2 -4.1 -101.15 -4.05 -101.1 M-2.4 -99.4 Q-3.1 -98.7 -4.05 -98.7 -5.05 -98.7 -5.8 -99.45 -6.5 -100.15 -6.5 -101.15 -6.5 -102.1 -5.85 -102.85 L-5.75 -102.95 Q-5.0 -103.6 -4.05 -103.6 -3.05 -103.6 -2.35 -102.9 -1.6 -102.15 -1.6 -101.15 -1.6 -100.2 -2.3 -99.5 L-2.4 -99.4" fill="#f5f7fc" fill-rule="evenodd" stroke="none"/>
      <path d="M61.45 73.5 Q61.45 88.5 46.45 88.5 L-19.1 88.5 Q-34.1 88.5 -34.1 73.5 L-34.1 63.65 61.45 63.65 61.45 73.5" fill="#fdffff" fill-rule="evenodd" stroke="none"/>
      <path d="M4.8 -63.7 L8.6 -63.7 Q9.5 -61.2 9.5 -59.4 L9.5 19.25 Q9.5 21.05 8.3 23.5 L4.8 23.55 Q2.8 23.55 1.45 22.3 0.1 21.05 0.1 19.25 L0.1 -59.4 Q0.1 -61.2 1.45 -62.45 2.8 -63.7 4.8 -63.7" fill="#f59b9a" fill-rule="evenodd" stroke="none"/>
      <path d="M2.9 70.1 Q5.2 70.1 6.8 71.7 8.45 73.35 8.45 75.65 8.45 77.95 6.8 79.55 5.2 81.2 2.9 81.2 0.6 81.2 -1.05 79.55 -2.65 77.95 -2.65 75.65 -2.65 73.35 -1.05 71.7 0.6 70.1 2.9 70.1" fill="#e3e5e9" fill-rule="evenodd" stroke="none"/>
      <path d="M-19.4 70.1 Q-17.1 70.1 -15.5 71.7 -13.85 73.35 -13.85 75.65 -13.85 77.95 -15.5 79.55 -17.1 81.2 -19.4 81.2 -21.7 81.2 -23.35 79.55 -24.95 77.95 -24.95 75.65 -24.95 73.35 -23.35 71.7 -21.7 70.1 -19.4 70.1" fill="#ec131b" fill-rule="evenodd" stroke="none"/>
      <path d="M8.3 -63.7 Q10.25 -63.7 11.6 -62.45 13.0 -61.2 13.0 -59.4 L13.0 19.25 Q13.0 21.05 11.6 22.3 10.25 23.55 8.3 23.55 6.3 23.55 4.95 22.3 3.6 21.05 3.6 19.25 L3.6 -59.4 Q3.6 -61.2 4.95 -62.45 6.3 -63.7 8.3 -63.7" fill="#ab0e1f" fill-rule="evenodd" stroke="none"/>
      <path d="M-59.7 -57.6 L13.0 -57.6 13.0 16.85 -59.7 16.85 Q-71.7 16.85 -71.7 4.85 L-71.7 -45.6 Q-71.7 -57.6 -59.7 -57.6" fill="#ec131b" fill-rule="evenodd" stroke="none"/>
      <path d="M-48.65 -43.55 L-40.6 -43.55 Q-42.65 -38.75 -43.9 -38.9 L-49.4 -38.9 Q-52.35 -38.9 -54.5 -36.75 -55.95 -35.3 -56.65 -33.45 L-56.65 -36.85 Q-56.65 -39.6 -54.3 -41.55 -51.95 -43.55 -48.65 -43.55 M-44.25 -32.55 Q-44.25 -30.4 -45.8 -28.85 -47.35 -27.3 -49.5 -27.3 -51.65 -27.3 -53.2 -28.85 -54.75 -30.4 -54.75 -32.55 -54.75 -34.7 -53.2 -36.25 -51.65 -37.8 -49.5 -37.8 -47.35 -37.8 -45.8 -36.25 -44.25 -34.7 -44.25 -32.55 M-50.45 -21.65 L-58.5 -21.65 Q-56.6 -25.65 -55.2 -26.3 L-49.7 -26.3 Q-46.75 -26.3 -44.6 -28.45 -43.15 -29.9 -42.45 -31.75 L-42.45 -28.35 Q-42.45 -25.6 -44.8 -23.65 -47.15 -21.65 -50.45 -21.65" fill="#f5f7fc" fill-rule="evenodd" stroke="none"/>
      <path d="M10.6 -10.75 Q11.65 -10.75 12.4 -10.0 13.1 -9.3 13.1 -8.25 13.1 -7.2 12.4 -6.45 11.65 -5.75 10.6 -5.75 L2.45 -5.75 Q1.4 -5.75 0.7 -6.45 -0.05 -7.2 -0.05 -8.25 -0.05 -9.3 0.7 -10.0 1.4 -10.75 2.45 -10.75 L10.6 -10.75 M-22.7 -0.55 Q-21.65 -0.55 -20.9 0.2 -20.2 0.9 -20.2 1.95 -20.2 3.0 -20.9 3.75 -21.65 4.45 -22.7 4.45 L-55.8 4.45 Q-56.85 4.45 -57.55 3.75 -58.3 3.0 -58.3 1.95 -58.3 0.9 -57.55 0.2 -56.85 -0.55 -55.8 -0.55 L-22.7 -0.55 M-8.4 -10.75 Q-7.35 -10.75 -6.6 -10.0 -5.9 -9.3 -5.9 -8.25 -5.9 -7.2 -6.6 -6.45 -7.35 -5.75 -8.4 -5.75 L-17.25 -5.75 Q-18.3 -5.75 -19.0 -6.45 -19.75 -7.2 -19.75 -8.25 -19.75 -9.3 -19.0 -10.0 -18.3 -10.75 -17.25 -10.75 L-8.4 -10.75 M-28.4 -10.75 Q-27.35 -10.75 -26.6 -10.0 -25.9 -9.3 -25.9 -8.25 -25.9 -7.2 -26.6 -6.45 -27.35 -5.75 -28.4 -5.75 L-36.85 -5.75 Q-37.9 -5.75 -38.6 -6.45 -39.35 -7.2 -39.35 -8.25 -39.35 -9.3 -38.6 -10.0 -37.9 -10.75 -36.85 -10.75 L-28.4 -10.75 M-48.15 -10.75 Q-47.1 -10.75 -46.35 -10.0 -45.65 -9.3 -45.65 -8.25 -45.65 -7.2 -46.35 -6.45 -47.1 -5.75 -48.15 -5.75 L-55.8 -5.75 Q-56.85 -5.75 -57.55 -6.45 -58.3 -7.2 -58.3 -8.25 -58.3 -9.3 -57.55 -10.0 -56.85 -10.75 -55.8 -10.75 L-48.15 -10.75" fill="#ffffff" fill-rule="evenodd" stroke="none"/>
      <path d="M-22.15 91.1 L-22.15 94.4 -22.15 97.5 Q-22.15 102.85 -30.05 106.6 -37.95 110.35 -49.15 110.35 -60.3 110.35 -68.2 106.6 -76.15 102.85 -76.15 97.5 L-76.15 94.7 -76.15 91.1 Q-76.15 85.75 -68.2 82.0 -60.3 78.25 -49.15 78.25 -37.95 78.25 -30.05 82.0 -22.15 85.75 -22.15 91.1" fill="#fcd137" fill-rule="evenodd" stroke="none"/>
      <path d="M-22.15 89.7 Q-22.15 95.05 -30.05 98.8 -37.95 102.55 -49.15 102.55 -60.3 102.55 -68.2 98.8 -76.15 95.05 -76.15 89.7 L-76.15 85.45 -76.15 82.2 Q-47.7 73.25 -22.15 82.2 L-22.15 85.45 -22.15 89.7" fill="#faee99" fill-rule="evenodd" stroke="none"/>
      <path d="M-30.05 91.3 Q-37.95 95.05 -49.15 95.05 -60.3 95.05 -68.2 91.3 -75.9 87.65 -76.15 82.55 L-76.15 82.25 -76.15 82.1 Q-76.1 76.8 -68.2 73.05 -60.3 69.3 -49.15 69.3 -37.95 69.3 -30.05 73.05 -22.2 76.8 -22.15 82.1 L-22.15 82.2 -22.15 82.55 Q-22.4 87.65 -30.05 91.3" fill="#fcd137" fill-rule="evenodd" stroke="none"/>
      <path d="M-25.8 81.35 Q-25.8 85.6 -32.65 88.55 -39.45 91.5 -49.15 91.5 -58.75 91.5 -65.6 88.55 -72.45 85.6 -72.45 81.35 -72.45 77.15 -65.6 74.15 -58.75 71.2 -49.15 71.2 -39.45 71.2 -32.65 74.15 -25.8 77.15 -25.8 81.35" fill="#faee99" fill-rule="evenodd" stroke="none"/>
      <path d="M-46.75 85.95 L-46.75 88.15 -51.3 88.15 -51.3 86.0 -54.85 85.8 -58.75 85.25 -57.6 83.5 -56.1 83.7 -55.05 83.85 -52.9 84.1 -51.55 84.15 -50.15 84.2 -46.7 83.9 Q-45.55 83.65 -45.55 83.15 L-45.8 82.75 -46.7 82.4 -47.35 82.25 -47.8 82.15 -48.55 82.0 -49.6 81.8 -50.75 81.6 -51.6 81.5 -55.05 80.7 Q-56.4 80.3 -57.1 79.8 -57.8 79.3 -57.8 78.65 -57.8 77.6 -56.1 76.85 -54.45 76.15 -51.3 75.9 L-51.3 73.65 -46.75 73.65 -46.75 75.8 -43.75 76.0 -40.85 76.4 -42.0 78.15 -45.1 77.75 -47.9 77.65 -51.05 77.85 Q-52.1 78.05 -52.1 78.45 L-51.45 78.95 -49.85 79.4 -48.85 79.6 -47.65 79.85 -47.0 79.95 -46.5 80.05 -43.45 80.65 Q-42.15 81.0 -41.4 81.3 -40.65 81.65 -40.25 82.05 -39.85 82.5 -39.85 83.05 -39.9 84.2 -41.65 84.95 -43.4 85.7 -46.75 85.95" fill="#fcd137" fill-rule="evenodd" stroke="none"/>
      <path d="M39.65 31.95 Q75.35 4.15 120.95 31.25 L114.45 85.7 Q112.1 104.65 106.1 105.25 L97.2 105.0 Q94.25 104.15 93.7 102.55 L93.7 92.0 Q77.35 96.55 61.65 92.0 57.65 104.25 55.4 105.55 49.95 107.5 39.6 104.0 L39.6 83.95 Q18.1 81.6 7.55 75.7 -4.95 68.75 -1.3 57.4 L8.15 54.0 Q16.2 43.25 20.05 41.9 30.45 39.1 39.65 31.95" fill="#fe979b" fill-rule="evenodd" stroke="none"/>
      <path d="M37.15 38.5 Q38.1 44.15 35.9 48.45 33.65 52.7 30.45 52.8 27.25 52.9 24.5 48.9 21.7 44.9 20.2 38.7 18.65 32.5 18.75 29.55 18.8 26.6 21.95 26.9 25.05 27.2 30.65 30.05 36.2 32.85 37.15 38.5" fill="#e81415" fill-rule="evenodd" stroke="none"/>
      <path d="M86.5 22.9 L87.3 23.4 Q87.6 23.85 87.5 24.35 87.4 24.85 86.95 25.15 L86.0 25.35 Q74.45 23.0 64.9 26.2 L63.95 26.15 Q63.5 25.9 63.35 25.4 63.15 24.9 63.4 24.45 63.6 24.0 64.1 23.85 74.25 20.4 86.5 22.9" fill="#ffffff" fill-rule="evenodd" stroke="none"/>
    </g>
  </defs>
</svg>
