<?xml version="1.0" encoding="UTF-8" standalone="no"?>
<svg xmlns:xlink="http://www.w3.org/1999/xlink" height="59.35px" width="57.8px" xmlns="http://www.w3.org/2000/svg">
  <g transform="matrix(1.0, 0.0, 0.0, 1.0, 28.9, 29.65)">
    <use height="59.35" transform="matrix(1.0, 0.0, 0.0, 1.0, -28.9, -29.65)" width="57.8" xlink:href="#shape0"/>
  </g>
  <defs>
    <g id="shape0" transform="matrix(1.0, 0.0, 0.0, 1.0, 28.9, 29.65)">
      <path d="M8.85 8.55 Q5.35 12.1 0.3 12.1 -4.75 12.1 -8.3 8.55 -11.85 5.0 -11.85 -0.05 -11.85 -5.1 -8.35 -8.65 L-8.3 -8.7 Q-4.75 -12.2 0.3 -12.2 5.35 -12.2 8.9 -8.65 12.45 -5.1 12.45 -0.05 12.45 5.0 8.9 8.5 L8.85 8.55 M5.45 -0.05 Q5.45 -2.2 3.95 -3.7 2.45 -5.2 0.3 -5.2 -1.85 -5.2 -3.35 -3.75 L-3.4 -3.7 Q-4.85 -2.2 -4.85 -0.05 -4.85 2.1 -3.35 3.6 -1.85 5.1 0.3 5.1 2.45 5.1 3.9 3.6 L3.95 3.55 Q5.45 2.1 5.45 -0.05 M-17.2 3.6 Q-17.15 4.4 -17.55 5.15 L-18.65 6.3 -22.1 8.3 Q-20.7 12.4 -17.9 15.6 L-14.45 13.6 -13.05 13.2 Q-12.3 13.2 -11.6 13.55 L-5.5 16.75 Q-4.75 17.15 -4.3 17.85 -3.9 18.55 -3.9 19.4 L-3.9 23.4 Q0.2 24.1 4.5 23.25 L4.5 19.4 Q4.5 18.55 4.95 17.8 5.4 17.05 6.2 16.7 L12.2 13.75 13.6 13.45 15.0 13.85 17.9 15.55 20.4 11.9 20.45 11.8 22.2 8.3 19.25 6.6 Q18.55 6.2 18.15 5.45 17.7 4.7 17.75 3.9 L18.0 -3.55 Q18.05 -4.35 18.45 -5.0 L19.5 -6.05 22.4 -7.65 Q20.95 -11.85 18.3 -15.05 L15.3 -13.35 13.75 -12.95 Q12.95 -12.95 12.25 -13.4 L5.95 -17.35 Q5.25 -17.75 4.9 -18.45 4.5 -19.15 4.5 -19.9 L4.5 -23.2 Q0.4 -24.0 -3.9 -23.25 L-3.9 -19.9 Q-3.9 -19.15 -4.25 -18.5 L-5.2 -17.4 -11.55 -13.15 Q-12.25 -12.7 -13.1 -12.65 -13.95 -12.6 -14.7 -13.0 L-18.15 -14.95 -20.45 -11.7 -22.3 -7.65 -18.95 -5.7 Q-18.3 -5.35 -17.9 -4.65 -17.55 -4.0 -17.5 -3.25 L-17.2 3.6 M-28.65 6.85 Q-28.65 6.05 -28.25 5.4 L-27.15 4.3 -23.25 2.05 -23.4 -1.4 -27.4 -3.7 Q-28.3 -4.25 -28.65 -5.15 -29.05 -6.1 -28.8 -7.05 -27.75 -10.9 -25.65 -14.7 L-25.6 -14.8 Q-23.55 -18.25 -20.95 -20.9 -20.25 -21.65 -19.2 -21.75 -18.2 -21.9 -17.3 -21.4 L-13.35 -19.15 -9.9 -21.5 -9.9 -25.65 Q-9.9 -26.9 -9.0 -27.75 L-8.95 -27.8 Q-8.4 -28.4 -7.6 -28.6 0.65 -30.75 8.4 -28.4 9.3 -28.15 9.9 -27.3 10.5 -26.55 10.5 -25.55 L10.5 -21.55 13.85 -19.45 17.35 -21.45 19.25 -21.8 Q20.2 -21.7 20.95 -21.0 26.45 -15.65 28.6 -7.8 L28.65 -7.6 28.85 -6.75 Q29.0 -5.85 28.6 -4.95 28.2 -4.1 27.4 -3.65 L23.95 -1.65 23.85 2.35 27.3 4.35 Q28.2 4.85 28.6 5.85 28.95 6.75 28.7 7.75 27.7 11.4 25.6 14.9 L25.6 14.85 Q23.45 18.7 20.55 21.5 19.8 22.15 18.8 22.3 17.8 22.4 16.95 21.9 L13.4 19.85 10.5 21.3 10.5 25.6 Q10.5 26.7 9.8 27.55 9.1 28.35 8.0 28.55 L7.85 28.6 7.7 28.65 Q-0.3 30.75 -7.7 28.7 -8.65 28.45 -9.25 27.65 -9.9 26.8 -9.9 25.8 L-9.9 21.2 -12.9 19.65 -16.95 22.0 -18.8 22.35 Q-19.8 22.2 -20.5 21.55 -26.45 15.95 -28.55 7.65 L-28.65 6.9 -28.65 6.85" fill="#ffffff" fill-rule="evenodd" stroke="none"/>
    </g>
  </defs>
</svg>
