<?xml version="1.0" encoding="UTF-8" standalone="no"?>
<svg xmlns:xlink="http://www.w3.org/1999/xlink" height="34.0px" width="34.0px" xmlns="http://www.w3.org/2000/svg">
  <g transform="matrix(1.0, 0.0, 0.0, 1.0, 17.0, 17.0)">
    <use height="34.0" transform="matrix(1.0, 0.0, 0.0, 1.0, -17.0, -17.0)" width="34.0" xlink:href="#shape0"/>
  </g>
  <defs>
    <g id="shape0" transform="matrix(1.0, 0.0, 0.0, 1.0, 17.0, 17.0)">
      <path d="M-17.0 -17.0 L17.0 -17.0 17.0 17.0 -17.0 17.0 -17.0 -17.0" fill="#ffffff" fill-opacity="0.0" fill-rule="evenodd" stroke="none"/>
      <path d="M-6.5 16.45 Q-7.05 16.95 -7.75 16.95 -8.5 16.95 -9.0 16.45 -9.5 15.9 -9.5 15.2 -9.5 14.45 -8.95 13.95 L5.3 0.0 -8.95 -13.95 Q-9.5 -14.45 -9.5 -15.15 -9.5 -15.9 -9.0 -16.4 -8.5 -16.95 -7.75 -16.95 -7.05 -16.95 -6.5 -16.45 L9.05 -1.25 9.5 -0.45 9.5 0.45 9.05 1.25 -6.5 16.45" fill="#1f738f" fill-rule="evenodd" stroke="none"/>
    </g>
  </defs>
</svg>
