<?xml version="1.0" encoding="UTF-8" standalone="no"?>
<svg xmlns:xlink="http://www.w3.org/1999/xlink" height="65.1px" width="49.75px" xmlns="http://www.w3.org/2000/svg">
  <g transform="matrix(1.0, 0.0, 0.0, 1.0, 24.85, 32.55)">
    <use height="65.1" transform="matrix(1.0, 0.0, 0.0, 1.0, -24.85, -32.55)" width="49.75" xlink:href="#shape0"/>
  </g>
  <defs>
    <g id="shape0" transform="matrix(1.0, 0.0, 0.0, 1.0, 24.85, 32.55)">
      <path d="M-15.15 -32.55 L-14.85 -32.55 19.9 -32.55 Q24.9 -32.55 24.9 -27.55 L24.9 19.9 -15.15 19.9 -15.15 -32.55" fill="#8632dd" fill-rule="evenodd" stroke="none"/>
      <path d="M24.9 19.9 L24.9 27.55 Q24.9 32.55 19.9 32.55 L-14.85 32.55 Q-24.85 32.55 -24.85 22.55 L-24.85 -22.55 Q-24.85 -32.4 -15.15 -32.55 L-15.15 19.9 24.9 19.9" fill="#6a14d5" fill-rule="evenodd" stroke="none"/>
      <path d="M-16.15 14.7 L24.9 14.7 24.8 25.25 23.15 28.2 Q21.3 29.85 18.95 29.85 L-16.3 29.85 Q-19.05 29.85 -20.95 27.65 -22.9 25.4 -22.85 22.3 L-22.85 22.25 Q-22.85 19.15 -20.85 16.95 -18.9 14.7 -16.15 14.7" fill="#a86bed" fill-rule="evenodd" stroke="none"/>
      <path d="M-15.1 -32.55 L-4.8 -32.55 -4.8 -14.75 -9.85 -19.05 -15.1 -14.75 -15.1 -32.55" fill="#f7bf2a" fill-rule="evenodd" stroke="none"/>
      <path d="M-14.5 16.5 L24.9 16.55 24.9 28.4 Q23.1 29.85 20.75 29.85 L-14.5 29.85 Q-17.25 29.85 -19.2 27.9 -21.15 25.95 -21.15 23.2 L-21.15 23.15 Q-21.15 20.4 -19.2 18.45 -17.25 16.5 -14.5 16.5" fill="#f0dbfd" fill-rule="evenodd" stroke="none"/>
      <path d="M2.5 -8.85 L20.45 -2.7 16.55 1.3 21.8 5.95 17.85 10.15 12.85 5.1 9.0 9.45 2.5 -8.85" fill="#22c3dd" fill-rule="evenodd" stroke="none"/>
    </g>
  </defs>
</svg>
