<?xml version="1.0" encoding="UTF-8" standalone="no"?>
<svg xmlns:xlink="http://www.w3.org/1999/xlink" height="52.4px" width="52.4px" xmlns="http://www.w3.org/2000/svg">
  <g transform="matrix(1.0, 0.0, 0.0, 1.0, 26.2, 26.2)">
    <use height="52.4" transform="matrix(1.0, 0.0, 0.0, 1.0, -26.2, -26.2)" width="52.4" xlink:href="#shape0"/>
  </g>
  <defs>
    <g id="shape0" transform="matrix(1.0, 0.0, 0.0, 1.0, 26.2, 26.2)">
      <path d="M-26.2 -26.2 L26.2 -26.2 26.2 26.2 -26.2 26.2 -26.2 -26.2" fill="#ffffff" fill-opacity="0.0" fill-rule="evenodd" stroke="none"/>
      <path d="M3.45 20.7 Q4.8 19.35 4.9 17.5 L-4.95 17.5 Q-4.85 19.35 -3.55 20.7 -2.05 22.15 0.0 22.15 2.0 22.15 3.45 20.7 M-10.0 -1.1 L-10.05 -0.55 -10.0 -0.05 -10.0 3.3 -10.25 4.3 -15.45 13.5 -6.15 13.5 -5.85 13.5 15.5 13.5 10.25 4.3 10.0 3.3 10.0 -0.05 10.05 -0.55 10.0 -1.1 10.0 -8.55 Q10.0 -12.65 7.05 -15.6 4.1 -18.55 0.0 -18.55 -4.1 -18.55 -7.05 -15.65 L-7.1 -15.6 Q-10.0 -12.65 -10.0 -8.55 L-10.0 -1.1 M-14.0 -8.55 Q-14.0 -14.3 -9.9 -18.45 -5.75 -22.55 0.0 -22.55 5.8 -22.55 9.9 -18.45 14.0 -14.35 14.0 -8.55 L14.0 -1.1 13.95 -0.55 14.0 -0.05 14.0 2.8 20.65 14.55 Q21.0 15.15 20.9 15.85 20.75 16.55 20.2 17.05 L18.9 17.5 7.9 17.5 Q7.8 20.6 5.6 22.8 L5.55 22.85 Q3.25 25.15 0.0 25.15 -3.25 25.15 -5.65 22.85 L-5.65 22.8 Q-7.85 20.6 -7.95 17.5 L-18.9 17.5 Q-19.6 17.5 -20.15 17.05 -20.75 16.55 -20.85 15.85 -21.0 15.15 -20.65 14.55 L-14.0 2.8 -14.0 -0.05 -13.95 -0.55 -14.0 -1.1 -14.0 -8.55" fill="#333333" fill-rule="evenodd" stroke="none"/>
    </g>
  </defs>
</svg>
