<?xml version="1.0" encoding="UTF-8" standalone="no"?>
<svg xmlns:xlink="http://www.w3.org/1999/xlink" height="53.0px" width="53.0px" xmlns="http://www.w3.org/2000/svg">
  <g transform="matrix(1.0, 0.0, 0.0, 1.0, 26.5, 26.5)">
    <use height="53.0" transform="matrix(1.0, 0.0, 0.0, 1.0, -26.5, -26.5)" width="53.0" xlink:href="#shape0"/>
  </g>
  <defs>
    <g id="shape0" transform="matrix(1.0, 0.0, 0.0, 1.0, 26.5, 26.5)">
      <path d="M-26.5 -26.5 L26.5 -26.5 26.5 26.5 -26.5 26.5 -26.5 -26.5" fill="#ffffff" fill-opacity="0.0" fill-rule="evenodd" stroke="none"/>
      <path d="M-8.4 19.5 L-8.4 -1.5 -17.35 -1.5 -17.35 19.5 -8.4 19.5 M17.8 -5.5 L-0.1 -18.95 Q-8.95 -12.2 -17.85 -5.5 L17.8 -5.5 M4.4 -1.5 L-4.4 -1.5 -4.4 19.5 4.4 19.5 4.4 -1.5 M8.4 -1.5 L8.4 19.5 17.35 19.5 17.35 -1.5 8.4 -1.5 M-24.4 23.5 Q-25.25 23.5 -25.8 22.95 -26.4 22.35 -26.4 21.5 -26.4 20.65 -25.8 20.1 -25.25 19.5 -24.4 19.5 L-21.35 19.5 -21.35 -1.5 -23.8 -1.5 Q-24.45 -1.5 -24.95 -1.85 -25.5 -2.25 -25.7 -2.85 -25.9 -3.45 -25.7 -4.05 -25.55 -4.7 -25.0 -5.1 L-1.35 -23.1 Q-0.85 -23.5 -0.15 -23.5 0.5 -23.5 1.05 -23.1 L25.0 -5.1 25.7 -4.1 Q25.9 -3.5 25.7 -2.85 L25.0 -1.85 Q24.45 -1.5 23.8 -1.5 L21.35 -1.5 21.35 19.5 24.4 19.5 Q25.25 19.5 25.85 20.1 26.4 20.65 26.4 21.5 26.4 22.35 25.85 22.95 25.25 23.5 24.4 23.5 L-24.4 23.5" fill="#ffffff" fill-rule="evenodd" stroke="none"/>
    </g>
  </defs>
</svg>
