<?xml version="1.0" encoding="UTF-8" standalone="no"?>
<svg xmlns:xlink="http://www.w3.org/1999/xlink" height="18.75px" width="475.35px" xmlns="http://www.w3.org/2000/svg">
  <g transform="matrix(1.0, 0.0, 0.0, 1.0, 237.65, 8.85)">
    <use height="18.75" transform="matrix(1.0, 0.0, 0.0, 1.0, -237.65, -8.85)" width="475.35" xlink:href="#shape0"/>
  </g>
  <defs>
    <g id="shape0" transform="matrix(1.0, 0.0, 0.0, 1.0, 237.65, 8.85)">
      <path d="M227.85 9.9 L-227.8 9.9 -227.8 -6.4 227.85 -6.4 227.85 9.9" fill="#ffffff" fill-opacity="0.0" fill-rule="evenodd" stroke="none"/>
      <path d="M237.7 -8.85 L237.7 -0.5 Q230.3 9.9 223.5 3.1 222.3 2.0 221.0 2.05 219.7 2.0 218.5 3.1 215.6 5.95 213.0 5.95 209.7 5.95 206.8 3.1 205.6 2.0 204.3 2.05 L204.0 2.05 Q202.75 2.0 201.6 3.1 198.75 5.95 196.2 5.95 193.0 5.95 190.15 3.1 188.95 2.0 187.7 2.05 186.4 2.0 185.25 3.1 182.4 5.95 179.85 5.95 176.65 5.95 173.85 3.1 172.65 2.0 171.35 2.05 170.1 2.0 168.95 3.1 166.1 5.95 163.5 5.95 160.3 5.95 157.5 3.1 156.3 2.0 155.05 2.05 153.7 2.0 152.55 3.1 149.75 5.95 147.25 5.95 144.0 5.95 141.15 3.1 140.0 2.0 138.7 2.05 137.45 2.0 136.3 3.1 133.4 5.95 130.85 5.95 127.65 5.95 124.8 3.1 123.6 2.0 122.35 2.05 121.1 2.0 119.95 3.1 117.1 5.95 114.55 5.95 111.35 5.95 108.5 3.1 107.3 2.0 106.0 2.05 104.75 2.0 103.6 3.1 100.75 5.95 98.15 5.95 94.95 5.95 92.2 3.1 91.0 2.0 89.75 2.05 88.4 2.0 87.25 3.1 84.45 5.95 81.9 5.95 78.65 5.95 75.8 3.1 74.65 2.0 73.35 2.05 72.1 2.0 70.95 3.1 68.1 5.95 65.55 5.95 62.35 5.95 59.5 3.1 58.3 2.0 57.05 2.05 55.75 2.0 54.6 3.1 51.75 5.95 49.2 5.95 46.0 5.95 43.15 3.1 42.0 2.0 40.7 2.05 39.45 2.0 38.3 3.1 35.45 5.95 32.85 5.95 29.65 5.95 26.85 3.1 25.65 2.0 24.4 2.05 23.05 2.0 21.9 3.1 19.1 5.95 16.55 5.95 13.35 5.95 10.5 3.1 9.35 2.0 8.05 2.05 6.8 2.0 5.65 3.1 2.75 5.95 0.2 5.95 -3.0 5.95 -5.85 3.1 -7.05 2.0 -8.3 2.05 -9.6 2.0 -10.7 3.1 -13.55 5.95 -16.1 5.95 -19.3 5.95 -22.15 3.1 -23.35 2.0 -24.65 2.05 -25.9 2.0 -27.05 3.1 -29.9 5.95 -32.5 5.95 -35.7 5.95 -38.45 3.1 -39.65 2.0 -40.9 2.05 -42.25 2.0 -43.4 3.1 -46.2 5.95 -48.75 5.95 -52.0 5.95 -54.85 3.1 -56.0 2.0 -57.3 2.05 -58.55 2.0 -59.7 3.1 -62.6 5.95 -65.1 5.95 -68.3 5.95 -71.15 3.1 -72.35 2.0 -73.6 2.05 -74.9 2.0 -76.05 3.1 -78.9 5.95 -81.45 5.95 -84.65 5.95 -87.5 3.1 -88.7 2.0 -89.95 2.05 -91.2 2.0 -92.35 3.1 -95.2 5.95 -97.8 5.95 -101.0 5.95 -103.8 3.1 -105.0 2.0 -106.25 2.05 -107.6 2.0 -108.75 3.1 -111.55 5.95 -114.1 5.95 -117.3 5.95 -120.15 3.1 -121.3 2.0 -122.6 2.05 -123.85 2.0 -125.0 3.1 -127.9 5.95 -130.45 5.95 -133.65 5.95 -136.5 3.1 -137.7 2.0 -138.95 2.05 -140.25 2.0 -141.4 3.1 -144.2 5.95 -146.75 5.95 -149.95 5.95 -152.8 3.1 -154.0 2.0 -155.3 2.05 -156.55 2.0 -157.7 3.1 -160.55 5.95 -163.15 5.95 -166.35 5.95 -169.1 3.1 -170.3 2.0 -171.55 2.05 -172.9 2.0 -174.05 3.1 -176.85 5.95 -179.4 5.95 -182.65 5.95 -185.5 3.1 -186.65 2.0 -187.95 2.05 -189.2 2.0 -190.35 3.1 -193.25 5.95 -195.75 5.95 -198.95 5.95 -201.8 3.1 -203.0 2.0 -204.25 2.05 -205.55 2.0 -206.75 3.1 -209.65 5.95 -212.25 5.95 -215.55 5.95 -218.45 3.1 -219.6 2.05 -220.85 2.05 L-220.95 2.05 Q-222.2 2.0 -223.4 3.1 -230.25 9.9 -237.65 -0.5 L-237.65 -8.85 237.7 -8.85" fill="#ffffff" fill-rule="evenodd" stroke="none"/>
    </g>
  </defs>
</svg>
