<?xml version="1.0" encoding="UTF-8" standalone="no"?>
<svg xmlns:xlink="http://www.w3.org/1999/xlink" height="18.75px" width="475.35px" xmlns="http://www.w3.org/2000/svg">
  <g transform="matrix(1.0, 0.0, 0.0, 1.0, 237.65, 8.8)">
    <use height="18.75" transform="matrix(1.0, 0.0, 0.0, 1.0, -237.65, -8.8)" width="475.35" xlink:href="#shape0"/>
  </g>
  <defs>
    <g id="shape0" transform="matrix(1.0, 0.0, 0.0, 1.0, 237.65, 8.8)">
      <path d="M227.85 -8.8 L227.85 7.5 -227.8 7.5 -227.8 -8.8 227.85 -8.8" fill="#ffffff" fill-opacity="0.0" fill-rule="evenodd" stroke="none"/>
      <path d="M237.7 9.95 L-237.65 9.95 -237.65 1.6 Q-230.25 -8.8 -223.4 -2.0 -222.2 -0.9 -220.95 -0.95 L-220.85 -0.95 Q-219.6 -0.95 -218.45 -2.0 -215.55 -4.85 -212.25 -4.85 -209.65 -4.85 -206.75 -2.0 -205.55 -0.9 -204.25 -0.95 -203.0 -0.9 -201.8 -2.0 -198.95 -4.85 -195.75 -4.85 -193.25 -4.85 -190.35 -2.0 -189.2 -0.9 -187.95 -0.95 -186.65 -0.9 -185.5 -2.0 -182.65 -4.85 -179.4 -4.85 -176.85 -4.85 -174.05 -2.0 -172.9 -0.9 -171.55 -0.95 -170.3 -0.9 -169.1 -2.0 -166.35 -4.85 -163.15 -4.85 -160.55 -4.85 -157.7 -2.0 -156.55 -0.9 -155.3 -0.95 -154.0 -0.9 -152.8 -2.0 -149.95 -4.85 -146.75 -4.85 -144.2 -4.85 -141.4 -2.0 -140.25 -0.9 -138.95 -0.95 -137.7 -0.9 -136.5 -2.0 -133.65 -4.85 -130.45 -4.85 -127.9 -4.85 -125.0 -2.0 -123.85 -0.9 -122.6 -0.95 -121.3 -0.9 -120.15 -2.0 -117.3 -4.85 -114.1 -4.85 -111.55 -4.85 -108.75 -2.0 -107.6 -0.9 -106.25 -0.95 -105.0 -0.9 -103.8 -2.0 -101.0 -4.85 -97.8 -4.85 -95.2 -4.85 -92.35 -2.0 -91.2 -0.9 -89.95 -0.95 -88.7 -0.9 -87.5 -2.0 -84.65 -4.85 -81.45 -4.85 -78.9 -4.85 -76.05 -2.0 -74.9 -0.9 -73.6 -0.95 -72.35 -0.9 -71.15 -2.0 -68.3 -4.85 -65.1 -4.85 -62.6 -4.85 -59.7 -2.0 -58.55 -0.9 -57.3 -0.95 -56.0 -0.9 -54.85 -2.0 -52.0 -4.85 -48.75 -4.85 -46.2 -4.85 -43.4 -2.0 -42.25 -0.9 -40.9 -0.95 -39.65 -0.9 -38.45 -2.0 -35.7 -4.85 -32.5 -4.85 -29.9 -4.85 -27.05 -2.0 -25.9 -0.9 -24.65 -0.95 -23.35 -0.9 -22.15 -2.0 -19.3 -4.85 -16.1 -4.85 -13.55 -4.85 -10.7 -2.0 -9.6 -0.9 -8.3 -0.95 -7.05 -0.9 -5.85 -2.0 -3.0 -4.85 0.2 -4.85 2.75 -4.85 5.65 -2.0 6.8 -0.9 8.05 -0.95 9.35 -0.9 10.5 -2.0 13.35 -4.85 16.55 -4.85 19.1 -4.85 21.9 -2.0 23.05 -0.9 24.4 -0.95 25.65 -0.9 26.85 -2.0 29.65 -4.85 32.85 -4.85 35.45 -4.85 38.3 -2.0 39.45 -0.9 40.7 -0.95 42.0 -0.9 43.15 -2.0 46.0 -4.85 49.2 -4.85 51.75 -4.85 54.6 -2.0 55.75 -0.9 57.05 -0.95 58.3 -0.9 59.5 -2.0 62.35 -4.85 65.55 -4.85 68.1 -4.85 70.95 -2.0 72.1 -0.9 73.35 -0.95 74.65 -0.9 75.8 -2.0 78.65 -4.85 81.9 -4.85 84.45 -4.85 87.25 -2.0 88.4 -0.9 89.75 -0.95 91.0 -0.9 92.2 -2.0 94.95 -4.85 98.15 -4.85 100.75 -4.85 103.6 -2.0 104.75 -0.9 106.0 -0.95 107.3 -0.9 108.5 -2.0 111.35 -4.85 114.55 -4.85 117.1 -4.85 119.95 -2.0 121.1 -0.9 122.35 -0.95 123.6 -0.9 124.8 -2.0 127.65 -4.85 130.85 -4.85 133.4 -4.85 136.3 -2.0 137.45 -0.9 138.7 -0.95 140.0 -0.9 141.15 -2.0 144.0 -4.85 147.25 -4.85 149.75 -4.85 152.55 -2.0 153.7 -0.9 155.05 -0.95 156.3 -0.9 157.5 -2.0 160.3 -4.85 163.5 -4.85 166.1 -4.85 168.95 -2.0 170.1 -0.9 171.35 -0.95 172.65 -0.9 173.85 -2.0 176.65 -4.85 179.85 -4.85 182.4 -4.85 185.25 -2.0 186.4 -0.9 187.7 -0.95 188.95 -0.9 190.15 -2.0 193.0 -4.85 196.2 -4.85 198.75 -4.85 201.6 -2.0 202.75 -0.9 204.0 -0.95 L204.3 -0.95 Q205.6 -0.9 206.8 -2.0 209.7 -4.85 213.0 -4.85 215.6 -4.85 218.5 -2.0 219.7 -0.9 221.0 -0.95 222.3 -0.9 223.5 -2.0 230.3 -8.8 237.7 1.6 L237.7 9.95" fill="#ffffff" fill-rule="evenodd" stroke="none"/>
    </g>
  </defs>
</svg>
