<?xml version="1.0" encoding="UTF-8" standalone="no"?>
<svg xmlns:xlink="http://www.w3.org/1999/xlink" height="205.25px" width="334.95px" xmlns="http://www.w3.org/2000/svg">
  <g transform="matrix(1.0, 0.0, 0.0, 1.0, 167.45, 102.6)">
    <use height="205.25" transform="matrix(1.0, 0.0, 0.0, 1.0, -167.45, -102.6)" width="334.95" xlink:href="#shape0"/>
  </g>
  <defs>
    <g id="shape0" transform="matrix(1.0, 0.0, 0.0, 1.0, 167.45, 102.6)">
      <path d="M-55.5 11.6 L-28.05 -3.7 Q-23.3 -9.75 -18.6 -13.05 -12.85 2.6 -0.55 13.2 13.0 1.15 21.5 -11.7 26.2 -10.55 33.65 -4.5 L58.3 3.95 Q80.6 15.1 116.05 13.75 L92.95 -5.05 Q110.9 -13.15 112.3 -22.15 147.0 -5.25 160.6 10.6 175.0 27.35 159.4 40.35 143.8 53.25 98.15 55.1 65.8 55.9 64.85 62.55 L59.6 102.65 -55.5 102.65 -60.65 65.85 Q-62.8 56.5 -95.25 53.55 -140.35 50.3 -160.4 35.15 -173.95 25.0 -161.4 10.9 -146.2 -6.15 -108.9 -25.45 -95.4 -14.15 -91.45 -6.75 L-117.1 13.3 Q-76.6 18.0 -55.5 11.6" fill="#009fd6" fill-rule="evenodd" stroke="none"/>
      <path d="M-18.6 -13.05 L-18.6 -16.15 Q-25.75 -23.85 -30.15 -37.5 -46.3 -24.8 -66.6 -25.45 -80.0 -15.85 -91.1 -9.95 -96.9 -18.25 -105.6 -24.35 L-71.45 -44.05 Q-53.05 -63.85 -32.05 -70.2 -35.05 -81.25 -26.8 -91.25 -23.45 -95.35 -19.5 -97.3 -15.5 -99.3 -12.7 -98.25 -8.05 -102.2 -1.0 -102.55 6.0 -102.9 12.95 -99.55 20.3 -96.0 25.35 -89.3 30.9 -81.85 32.4 -71.9 57.2 -66.2 69.9 -44.5 L110.55 -22.5 Q107.95 -13.65 92.85 -7.15 80.0 -15.85 66.6 -25.45 46.3 -24.8 30.15 -37.5 25.75 -23.85 21.5 -19.2 L21.5 -11.7 Q13.0 1.15 -0.55 13.2 -12.85 2.6 -18.6 -13.05" fill="#fcbe8a" fill-rule="evenodd" stroke="none"/>
      <path d="M-55.5 11.6 L-28.05 -3.7 Q-23.3 -9.75 -18.6 -13.05 -12.85 2.6 -0.55 13.2 13.0 1.15 21.5 -11.7 26.2 -10.55 33.65 -4.5 L58.3 3.95 Q51.75 35.35 64.85 62.55 L59.6 102.65 -55.5 102.65 -60.65 65.85 Q-53.0 27.6 -55.5 11.6" fill="#90def7" fill-rule="evenodd" stroke="none"/>
      <path d="M-8.45 -53.55 Q-8.45 -48.35 -14.05 -44.7 -19.7 -41.05 -27.65 -41.05 -35.65 -41.05 -41.25 -44.7 -46.85 -48.35 -46.85 -53.55 -46.85 -58.75 -41.25 -62.4 -35.65 -66.05 -27.65 -66.05 -19.7 -66.05 -14.05 -62.4 L-12.0 -60.85 Q-0.35 -64.05 9.45 -60.85 L11.5 -62.4 Q17.1 -66.05 25.1 -66.05 33.05 -66.05 38.7 -62.4 44.3 -58.75 44.3 -53.55 44.3 -48.35 38.7 -44.7 33.05 -41.05 25.1 -41.05 17.1 -41.05 11.5 -44.7 5.9 -48.35 5.9 -53.55 5.9 -54.8 6.25 -55.95 -1.75 -55.5 -8.75 -55.95 -8.45 -54.8 -8.45 -53.55" fill="#4f4d49" fill-rule="evenodd" stroke="none"/>
      <path d="M38.95 -53.55 Q38.95 -48.45 35.4 -44.9 31.85 -41.35 26.75 -41.35 21.7 -41.35 18.15 -44.9 14.55 -48.45 14.55 -53.55 14.55 -58.6 18.15 -62.15 21.7 -65.75 26.75 -65.75 31.85 -65.75 35.4 -62.15 38.95 -58.6 38.95 -53.55 M5.4 -59.8 Q5.4 -57.25 3.55 -55.45 1.75 -53.6 -0.8 -53.6 -3.35 -53.6 -5.2 -55.45 -7.0 -57.25 -7.0 -59.8 -7.0 -62.35 -5.2 -64.2 -3.35 -66.0 -0.8 -66.0 1.75 -66.0 3.55 -64.2 5.4 -62.35 5.4 -59.8 M-32.05 -70.2 Q-35.05 -81.25 -26.8 -91.25 -23.45 -95.35 -19.5 -97.3 -15.5 -99.3 -12.7 -98.25 -8.05 -102.2 -1.0 -102.55 6.0 -102.9 12.95 -99.55 20.3 -96.0 25.35 -89.3 30.9 -81.85 32.4 -71.9 23.5 -71.9 16.95 -67.6 -0.8 -75.25 -13.3 -88.3 -17.35 -81.45 -23.1 -77.35 -27.8 -74.05 -27.9 -70.2 -29.9 -70.65 -32.05 -70.2 M-17.55 -53.55 Q-17.55 -48.45 -21.1 -44.9 -24.65 -41.35 -29.75 -41.35 -34.8 -41.35 -38.35 -44.9 -41.95 -48.45 -41.95 -53.55 -41.95 -58.6 -38.35 -62.15 -34.8 -65.75 -29.75 -65.75 -24.65 -65.75 -21.1 -62.15 -17.55 -58.6 -17.55 -53.55" fill="#333331" fill-rule="evenodd" stroke="none"/>
      <path d="M-31.55 21.0 Q-35.7 10.85 -28.05 -3.7 -23.3 -9.75 -18.6 -13.05 -12.85 2.6 -0.55 13.2 13.0 1.15 21.5 -11.7 26.2 -10.55 33.65 -4.5 L25.25 19.65 Q23.9 13.8 20.3 9.3 12.5 34.1 0.45 53.65 -11.3 36.45 -20.0 9.85 -27.4 12.1 -31.55 21.0" fill="#fcfefe" fill-rule="evenodd" stroke="none"/>
    </g>
  </defs>
</svg>
