<?xml version="1.0" encoding="UTF-8" standalone="no"?>
<svg xmlns:xlink="http://www.w3.org/1999/xlink" height="61.8px" width="61.55px" xmlns="http://www.w3.org/2000/svg">
  <g transform="matrix(1.0, 0.0, 0.0, 1.0, 30.75, 30.9)">
    <use height="61.8" transform="matrix(1.0, 0.0, 0.0, 1.0, -30.75, -30.9)" width="61.55" xlink:href="#shape0"/>
  </g>
  <defs>
    <g id="shape0" transform="matrix(1.0, 0.0, 0.0, 1.0, 30.75, 30.9)">
      <path d="M16.85 0.3 Q16.85 7.25 11.95 12.15 7.0 17.05 0.1 17.05 -6.85 17.05 -11.75 12.15 -16.65 7.25 -16.65 0.3 -16.65 -6.6 -11.75 -11.5 -6.85 -16.45 0.1 -16.45 7.0 -16.45 11.95 -11.5 16.85 -6.6 16.85 0.3" fill="#742399" fill-rule="evenodd" stroke="none"/>
      <path d="M-28.9 11.9 L-28.8 11.0 -28.15 10.35 -27.25 10.2 -15.7 11.85 Q-15.15 11.9 -14.75 12.35 -14.4 12.75 -14.4 13.35 -14.4 13.9 -14.8 14.35 L-17.55 17.3 -17.4 17.45 Q-10.15 24.7 0.05 24.7 10.25 24.7 17.5 17.45 23.8 11.15 24.65 2.65 24.75 1.4 25.75 0.6 26.7 -0.25 28.0 -0.1 29.25 0.0 30.1 1.0 30.9 1.95 30.8 3.25 29.8 13.95 21.9 21.85 12.85 30.9 0.05 30.9 -12.75 30.9 -21.8 21.85 L-24.4 24.65 Q-24.8 25.05 -25.35 25.1 -25.95 25.15 -26.4 24.8 L-26.95 23.85 -28.9 11.9 M29.1 -11.95 L28.95 -11.05 28.3 -10.4 27.4 -10.25 15.85 -11.9 Q15.25 -12.0 14.9 -12.4 14.55 -12.85 14.55 -13.4 14.55 -14.0 14.95 -14.4 L17.65 -17.3 17.5 -17.45 Q10.25 -24.7 0.05 -24.7 -10.15 -24.7 -17.4 -17.45 -23.95 -10.9 -24.55 -1.9 -24.65 -0.65 -25.6 0.25 -26.55 1.1 -27.85 1.0 -29.15 0.9 -29.95 -0.05 -30.85 -1.0 -30.75 -2.3 -30.05 -13.6 -21.8 -21.85 -12.75 -30.9 0.05 -30.9 12.85 -30.9 21.9 -21.85 L24.55 -24.7 Q24.95 -25.15 25.55 -25.2 L26.6 -24.85 27.15 -23.9 29.1 -11.95" fill="#742399" fill-rule="evenodd" stroke="none"/>
      <path d="M0.7 1.4 L0.7 6.1 Q1.9 5.95 2.6 5.35 3.2 4.75 3.25 3.8 L3.0 2.8 2.25 2.05 1.7 1.75 0.7 1.4 M-0.9 -2.55 L-0.9 -6.55 Q-2.0 -6.35 -2.55 -5.85 -3.05 -5.35 -3.05 -4.6 -3.1 -3.85 -2.6 -3.4 -2.1 -2.95 -0.9 -2.55 M0.7 -6.5 L0.7 -2.05 2.25 -1.55 3.25 -1.15 4.05 -0.75 Q5.3 0.0 5.95 1.05 6.55 2.1 6.55 3.5 6.5 5.8 4.95 7.2 3.4 8.65 0.7 8.85 L0.7 11.25 -0.9 11.25 -0.9 8.85 -3.05 8.4 Q-4.0 8.1 -4.65 7.55 -5.65 6.75 -6.2 5.6 L-6.3 5.3 Q-6.25 4.25 -3.2 4.35 L-2.85 4.95 Q-2.2 5.75 -0.9 6.05 L-0.9 0.85 -2.5 0.35 -3.5 -0.05 -4.2 -0.4 Q-5.25 -1.05 -5.8 -2.05 -6.3 -3.0 -6.3 -4.3 -6.3 -6.55 -4.9 -7.85 -3.5 -9.2 -0.9 -9.45 L-0.9 -11.4 0.7 -11.4 0.7 -9.35 Q2.3 -9.2 3.5 -8.45 4.7 -7.75 5.3 -6.6 L5.7 -5.75 Q4.3 -4.15 2.65 -4.75 L2.2 -5.65 Q1.65 -6.25 0.7 -6.5" fill="#1bc3a4" fill-rule="evenodd" stroke="none"/>
    </g>
  </defs>
</svg>
