<?xml version="1.0" encoding="UTF-8" standalone="no"?>
<svg xmlns:xlink="http://www.w3.org/1999/xlink" height="47.3px" width="47.3px" xmlns="http://www.w3.org/2000/svg">
  <g transform="matrix(1.0, 0.0, 0.0, 1.0, 23.65, 23.65)">
    <use height="47.3" transform="matrix(1.0, 0.0, 0.0, 1.0, -23.65, -23.65)" width="47.3" xlink:href="#shape0"/>
  </g>
  <defs>
    <g id="shape0" transform="matrix(1.0, 0.0, 0.0, 1.0, 23.65, 23.65)">
      <path d="M-23.65 -23.65 L23.65 -23.65 23.65 23.65 -23.65 23.65 -23.65 -23.65" fill="#ffffff" fill-opacity="0.003921569" fill-rule="evenodd" stroke="none"/>
      <path d="M2.6 6.5 L1.6 7.25 1.6 12.15 1.15 13.2 Q0.7 13.65 0.1 13.65 -0.5 13.65 -0.95 13.2 L-1.4 12.15 -1.4 7.25 -2.45 6.45 Q-3.5 5.4 -3.5 3.95 -3.5 2.5 -2.5 1.45 L-2.4 1.35 Q-1.35 0.35 0.1 0.35 1.55 0.35 2.6 1.4 3.7 2.5 3.7 3.95 3.7 5.4 2.65 6.45 L2.6 6.5 M-12.5 -4.05 Q-15.75 -4.05 -15.75 -0.8 L-15.75 16.9 Q-15.75 20.15 -12.5 20.15 L12.75 20.15 Q16.0 20.15 16.0 16.9 L16.0 -0.8 Q16.0 -4.05 12.75 -4.05 L-12.5 -4.05 M-11.6 -11.95 Q-11.6 -16.75 -8.2 -20.2 L-8.15 -20.25 Q-4.7 -23.65 0.1 -23.65 4.95 -23.65 8.35 -20.2 11.8 -16.75 11.8 -11.95 L11.8 -7.55 12.75 -7.55 Q19.5 -7.55 19.5 -0.8 L19.5 16.9 Q19.5 23.65 12.75 23.65 L-12.5 23.65 Q-19.25 23.65 -19.25 16.9 L-19.25 -0.8 Q-19.25 -7.55 -12.5 -7.55 L-11.6 -7.55 -11.6 -11.95 M-8.1 -11.95 L-8.1 -7.55 8.3 -7.55 8.3 -11.95 Q8.3 -15.3 5.9 -17.75 3.5 -20.15 0.1 -20.15 -3.25 -20.15 -5.7 -17.75 -8.1 -15.3 -8.1 -11.95" fill="#303030" fill-rule="evenodd" stroke="none"/>
    </g>
  </defs>
</svg>
