<?xml version="1.0" encoding="UTF-8" standalone="no"?>
<svg xmlns:xlink="http://www.w3.org/1999/xlink" height="50.75px" width="55.9px" xmlns="http://www.w3.org/2000/svg">
  <g transform="matrix(1.0, 0.0, 0.0, 1.0, 27.95, 25.35)">
    <use height="50.75" transform="matrix(1.0, 0.0, 0.0, 1.0, -27.95, -25.35)" width="55.9" xlink:href="#shape0"/>
  </g>
  <defs>
    <g id="shape0" transform="matrix(1.0, 0.0, 0.0, 1.0, 27.95, 25.35)">
      <path d="M16.95 13.05 Q16.35 13.65 15.55 13.7 14.7 13.75 14.1 13.2 13.5 12.6 13.45 11.8 13.4 10.95 14.0 10.35 L21.4 2.25 -9.6 2.25 Q-10.45 2.25 -11.0 1.7 -11.6 1.1 -11.6 0.25 -11.6 -0.6 -11.0 -1.15 -10.45 -1.75 -9.6 -1.75 L21.4 -1.75 14.0 -9.85 Q13.4 -10.45 13.45 -11.3 13.5 -12.1 14.1 -12.65 14.7 -13.25 15.55 -13.2 16.35 -13.15 16.95 -12.55 L27.25 -1.25 27.4 -1.15 27.9 -0.15 27.95 0.2 27.95 0.25 27.95 0.35 27.95 0.5 27.95 0.65 27.85 0.9 27.4 1.7 27.25 1.8 16.95 13.05 M4.55 18.4 Q4.55 25.4 -2.45 25.4 L-20.95 25.4 Q-27.95 25.4 -27.95 18.4 L-27.95 -18.35 Q-27.95 -25.35 -20.95 -25.35 L-2.45 -25.35 Q4.55 -25.35 4.55 -18.35 L4.55 -14.85 Q4.55 -14.0 4.0 -13.4 3.4 -12.85 2.55 -12.85 1.7 -12.85 1.15 -13.4 0.55 -14.0 0.55 -14.85 L0.55 -18.35 Q0.55 -21.35 -2.45 -21.35 L-20.95 -21.35 Q-23.95 -21.35 -23.95 -18.35 L-23.95 18.4 Q-23.95 21.4 -20.95 21.4 L-2.45 21.4 Q0.55 21.4 0.55 18.4 L0.55 15.35 Q0.55 14.5 1.15 13.95 1.7 13.35 2.55 13.35 3.4 13.35 4.0 13.95 4.55 14.5 4.55 15.35 L4.55 18.4" fill="#736a7c" fill-rule="evenodd" stroke="none"/>
    </g>
  </defs>
</svg>
