<?xml version="1.0" encoding="UTF-8" standalone="no"?>
<svg xmlns:xlink="http://www.w3.org/1999/xlink" height="32.2px" width="32.2px" xmlns="http://www.w3.org/2000/svg">
  <g transform="matrix(1.0, 0.0, 0.0, 1.0, 16.1, 16.1)">
    <use height="32.2" transform="matrix(1.0, 0.0, 0.0, 1.0, -16.1, -16.1)" width="32.2" xlink:href="#shape0"/>
  </g>
  <defs>
    <g id="shape0" transform="matrix(1.0, 0.0, 0.0, 1.0, 16.1, 16.1)">
      <path d="M-16.1 -16.1 L16.1 -16.1 16.1 16.1 -16.1 16.1 -16.1 -16.1" fill="#ffffff" fill-opacity="0.0" fill-rule="evenodd" stroke="none"/>
      <path d="M-15.35 2.25 Q-16.1 1.5 -16.1 0.5 -16.1 -0.55 -15.35 -1.25 -14.6 -2.0 -13.55 -2.0 -12.55 -2.0 -11.8 -1.25 L-4.1 6.6 11.7 -11.85 Q12.35 -12.65 13.4 -12.75 14.45 -12.85 15.25 -12.15 16.0 -11.5 16.1 -10.45 16.2 -9.4 15.5 -8.6 L-2.1 11.9 Q-2.55 12.4 -3.2 12.65 L-4.6 12.7 Q-5.3 12.5 -5.75 12.0 L-15.35 2.25" fill="#ffffff" fill-rule="evenodd" stroke="none"/>
    </g>
  </defs>
</svg>
