<?xml version="1.0" encoding="UTF-8" standalone="no"?>
<svg xmlns:xlink="http://www.w3.org/1999/xlink" height="70.75px" width="60.3px" xmlns="http://www.w3.org/2000/svg">
  <g transform="matrix(1.0, 0.0, 0.0, 1.0, 30.15, 35.35)">
    <use height="70.75" transform="matrix(1.0, 0.0, 0.0, 1.0, -30.15, -35.35)" width="60.3" xlink:href="#shape0"/>
  </g>
  <defs>
    <g id="shape0" transform="matrix(1.0, 0.0, 0.0, 1.0, 30.15, 35.35)">
      <path d="M-21.0 -35.35 L4.2 -35.35 Q13.35 -35.35 13.35 -26.2 L13.35 26.25 Q13.35 35.4 4.2 35.4 L-21.0 35.4 Q-30.15 35.4 -30.15 26.25 L-30.15 -26.2 Q-30.15 -35.35 -21.0 -35.35" fill="#791e99" fill-rule="evenodd" stroke="none"/>
      <path d="M2.9 -34.8 Q2.9 -32.4 1.25 -30.8 -0.4 -29.15 -2.7 -29.15 L-14.2 -29.15 Q-16.3 -29.15 -18.15 -30.8 -19.8 -32.4 -19.8 -34.8 L-19.7 -35.35 2.9 -35.35 2.9 -34.8 M-3.85 26.7 Q-3.85 28.8 -5.35 30.15 -6.7 31.55 -8.8 31.55 -10.75 31.55 -12.3 30.15 -13.65 28.8 -13.65 26.7 -13.65 24.6 -12.3 23.2 -10.9 21.95 -8.8 21.95 -6.6 21.95 -5.35 23.2 -3.85 24.6 -3.85 26.7" fill="#f8cef8" fill-rule="evenodd" stroke="none"/>
      <path d="M6.2 -28.8 L25.15 -28.8 Q30.15 -28.8 30.15 -23.8 L30.15 -12.25 Q30.15 -7.25 25.15 -7.25 L6.2 -7.25 Q1.2 -7.25 1.2 -12.25 L1.2 -23.8 Q1.2 -28.8 6.2 -28.8" fill="#0ed4bc" fill-rule="evenodd" stroke="none"/>
      <path d="M30.15 -23.75 L30.15 -19.4 1.2 -19.4 1.2 -23.75 30.15 -23.75 M6.45 -16.8 L13.05 -16.8 13.05 -12.2 6.45 -12.2 6.45 -16.8" fill="#009d8f" fill-rule="evenodd" stroke="none"/>
    </g>
  </defs>
</svg>
