<?xml version="1.0" encoding="UTF-8" standalone="no"?>
<svg xmlns:xlink="http://www.w3.org/1999/xlink" height="30.2px" width="30.2px" xmlns="http://www.w3.org/2000/svg">
  <g transform="matrix(1.0, 0.0, 0.0, 1.0, 15.1, 15.1)">
    <use height="30.2" transform="matrix(1.0, 0.0, 0.0, 1.0, -15.1, -15.1)" width="30.2" xlink:href="#shape0"/>
  </g>
  <defs>
    <g id="shape0" transform="matrix(1.0, 0.0, 0.0, 1.0, 15.1, 15.1)">
      <path d="M1.5 5.8 L1.05 6.85 0.0 7.3 -1.05 6.85 -1.5 5.8 -1.5 -1.5 -1.05 -2.55 0.0 -3.0 1.05 -2.55 1.5 -1.5 1.5 5.8 M12.1 0.0 Q12.1 -5.05 8.55 -8.6 5.05 -12.1 0.0 -12.1 -5.0 -12.1 -8.55 -8.6 L-8.6 -8.55 Q-12.1 -5.0 -12.1 0.0 -12.1 5.05 -8.6 8.55 -5.05 12.1 0.0 12.1 5.0 12.1 8.55 8.55 12.1 5.0 12.1 0.0 M10.65 10.7 Q6.25 15.1 0.0 15.1 -6.25 15.1 -10.7 10.65 -15.1 6.25 -15.1 0.0 -15.1 -6.25 -10.7 -10.7 -6.25 -15.1 0.0 -15.1 6.25 -15.1 10.65 -10.7 15.1 -6.25 15.1 0.0 15.1 6.25 10.7 10.65 L10.65 10.7 M1.5 -6.35 Q1.5 -5.75 1.05 -5.3 0.6 -4.85 0.0 -4.85 -0.6 -4.85 -1.05 -5.3 -1.5 -5.75 -1.5 -6.35 L-1.5 -6.7 -1.2 -7.45 -1.05 -7.65 0.0 -8.1 1.05 -7.65 1.25 -7.45 1.5 -6.7 1.5 -6.35" fill="#0fcbb3" fill-rule="evenodd" stroke="none"/>
    </g>
  </defs>
</svg>
