<?xml version="1.0" encoding="UTF-8" standalone="no"?>
<svg xmlns:xlink="http://www.w3.org/1999/xlink" height="39.8px" width="39.8px" xmlns="http://www.w3.org/2000/svg">
  <g transform="matrix(1.0, 0.0, 0.0, 1.0, 19.9, 19.9)">
    <use height="39.8" transform="matrix(1.0, 0.0, 0.0, 1.0, -19.9, -19.9)" width="39.8" xlink:href="#shape0"/>
  </g>
  <defs>
    <g id="shape0" transform="matrix(1.0, 0.0, 0.0, 1.0, 19.9, 19.9)">
      <path d="M-19.9 -19.9 L19.9 -19.9 19.9 19.9 -19.9 19.9 -19.9 -19.9" fill="#ffffff" fill-opacity="0.0" fill-rule="evenodd" stroke="none"/>
      <path d="M-9.35 -11.0 Q-9.35 -13.7 -7.45 -15.65 -5.5 -17.55 -2.8 -17.55 -0.1 -17.55 1.8 -15.65 3.75 -13.7 3.75 -11.0 L3.75 -5.4 Q3.75 -4.8 3.3 -4.35 2.85 -3.9 2.25 -3.9 1.65 -3.9 1.2 -4.35 0.75 -4.8 0.75 -5.4 L0.75 -11.0 Q0.75 -12.5 -0.3 -13.55 -1.3 -14.55 -2.8 -14.55 -4.25 -14.55 -5.3 -13.55 L-5.35 -13.5 Q-6.35 -12.45 -6.35 -11.0 L-6.35 -5.4 Q-6.35 -4.8 -6.8 -4.35 -7.25 -3.9 -7.85 -3.9 -8.45 -3.9 -8.9 -4.35 -9.35 -4.8 -9.35 -5.4 L-9.35 -11.0" fill="#cdbad1" fill-rule="evenodd" stroke="none"/>
      <path d="M-11.1 -7.0 L5.55 -7.0 Q10.55 -7.0 10.55 -2.0 L10.55 11.0 Q10.55 16.0 5.55 16.0 L-11.1 16.0 Q-16.1 16.0 -16.1 11.0 L-16.1 -2.0 Q-16.1 -7.0 -11.1 -7.0" fill="#791e99" fill-rule="evenodd" stroke="none"/>
      <path d="M-3.1 -1.25 L13.35 -1.25 Q16.35 -1.25 16.35 1.75 L16.35 6.65 Q16.35 9.65 13.35 9.65 L-3.1 9.65 Q-6.1 9.65 -6.1 6.65 L-6.1 1.75 Q-6.1 -1.25 -3.1 -1.25" fill="#0bd0aa" fill-rule="evenodd" stroke="none"/>
      <path d="M1.5 4.2 Q1.5 5.0 0.95 5.55 0.4 6.1 -0.4 6.1 -1.2 6.1 -1.75 5.55 -2.3 5.0 -2.3 4.2 -2.3 3.4 -1.75 2.85 -1.2 2.3 -0.4 2.3 0.4 2.3 0.95 2.85 1.5 3.4 1.5 4.2 M12.5 4.2 Q12.5 5.0 11.95 5.55 11.4 6.1 10.6 6.1 9.8 6.1 9.25 5.55 8.7 5.0 8.7 4.2 8.7 3.4 9.25 2.85 9.8 2.3 10.6 2.3 11.4 2.3 11.95 2.85 12.5 3.4 12.5 4.2 M6.9 4.2 Q6.9 5.0 6.35 5.55 5.8 6.1 5.0 6.1 4.2 6.1 3.65 5.55 3.1 5.0 3.1 4.2 3.1 3.4 3.65 2.85 4.2 2.3 5.0 2.3 5.8 2.3 6.35 2.85 6.9 3.4 6.9 4.2" fill="#791e99" fill-rule="evenodd" stroke="none"/>
    </g>
  </defs>
</svg>
