<?xml version="1.0" encoding="UTF-8" standalone="no"?>
<svg xmlns:xlink="http://www.w3.org/1999/xlink" height="41.3px" width="41.3px" xmlns="http://www.w3.org/2000/svg">
  <g transform="matrix(1.0, 0.0, 0.0, 1.0, 20.65, 20.65)">
    <use height="41.3" transform="matrix(1.0, 0.0, 0.0, 1.0, -20.65, -20.65)" width="41.3" xlink:href="#shape0"/>
  </g>
  <defs>
    <g id="shape0" transform="matrix(1.0, 0.0, 0.0, 1.0, 20.65, 20.65)">
      <path d="M7.95 12.3 Q7.95 14.1 9.25 15.4 10.5 16.65 12.3 16.65 14.1 16.65 15.4 15.4 16.65 14.1 16.65 12.3 16.65 10.5 15.4 9.25 14.1 7.95 12.3 7.95 10.5 7.95 9.25 9.25 8.65 9.8 8.35 10.5 L8.35 10.55 8.3 10.65 Q7.95 11.4 7.95 12.3 M-8.65 1.8 L-8.65 1.75 Q-8.25 0.95 -8.25 0.0 -8.25 -0.95 -8.65 -1.75 L-8.7 -1.9 -9.5 -2.95 Q-10.75 -4.2 -12.45 -4.2 -14.15 -4.2 -15.4 -3.0 L-15.45 -2.95 Q-16.65 -1.7 -16.65 0.0 -16.65 1.7 -15.4 2.95 -14.15 4.2 -12.45 4.2 -10.75 4.2 -9.5 2.95 L-8.65 1.8 M8.35 -10.5 Q8.65 -9.8 9.25 -9.2 10.5 -7.95 12.3 -7.95 14.1 -7.95 15.4 -9.2 16.65 -10.5 16.65 -12.3 16.65 -14.1 15.4 -15.35 14.1 -16.65 12.3 -16.65 10.5 -16.65 9.25 -15.35 7.95 -14.1 7.95 -12.3 7.95 -11.4 8.3 -10.6 L8.35 -10.5 M-6.65 5.8 L-6.65 5.75 Q-9.05 8.2 -12.45 8.2 -15.85 8.2 -18.25 5.8 -20.65 3.4 -20.65 0.0 -20.65 -3.35 -18.25 -5.8 -15.8 -8.2 -12.45 -8.2 -9.05 -8.2 -6.65 -5.8 L-6.15 -5.25 4.1 -10.7 Q3.95 -11.45 3.95 -12.3 3.95 -15.8 6.4 -18.2 8.8 -20.65 12.3 -20.65 15.8 -20.65 18.25 -18.2 20.65 -15.8 20.65 -12.3 20.65 -8.8 18.25 -6.35 15.8 -3.95 12.3 -3.95 8.8 -3.95 6.4 -6.35 L5.8 -7.05 -4.4 -1.65 -4.25 0.0 Q-4.25 0.85 -4.4 1.7 L5.8 7.05 6.4 6.4 Q8.8 3.95 12.3 3.95 15.8 3.95 18.25 6.4 20.65 8.8 20.65 12.3 20.65 15.8 18.25 18.25 15.8 20.65 12.3 20.65 8.8 20.65 6.4 18.25 3.95 15.8 3.95 12.3 3.95 11.45 4.1 10.7 L-6.2 5.25 -6.65 5.8" fill="#0fcbb3" fill-rule="evenodd" stroke="none"/>
    </g>
  </defs>
</svg>
