<?xml version="1.0" encoding="UTF-8" standalone="no"?>
<svg xmlns:xlink="http://www.w3.org/1999/xlink" height="76.0px" width="76.0px" xmlns="http://www.w3.org/2000/svg">
  <g transform="matrix(1.0, 0.0, 0.0, 1.0, 38.0, 38.0)">
    <use height="76.0" transform="matrix(1.0, 0.0, 0.0, 1.0, -38.0, -38.0)" width="76.0" xlink:href="#shape0"/>
  </g>
  <defs>
    <g id="shape0" transform="matrix(1.0, 0.0, 0.0, 1.0, 38.0, 38.0)">
      <path d="M-38.0 -38.0 L38.0 -38.0 38.0 38.0 -38.0 38.0 -38.0 -38.0" fill="#ffffff" fill-opacity="0.0" fill-rule="evenodd" stroke="none"/>
      <path d="M5.0 -6.35 L13.05 -15.2 11.9 -22.5 11.95 -23.15 12.25 -23.75 22.25 -34.5 22.45 -34.7 Q23.8 -35.7 24.8 -35.2 25.85 -35.05 26.3 -33.35 L26.35 -33.0 26.35 -27.35 31.45 -27.8 31.55 -27.8 Q33.25 -27.8 33.95 -26.9 34.9 -26.1 34.65 -24.4 L34.25 -23.6 23.4 -12.5 22.8 -12.1 22.1 -12.05 15.2 -13.15 7.1 -4.25 4.8 -1.7 1.1 2.3 Q0.7 2.75 0.1 2.8 -0.55 2.8 -1.0 2.4 -1.45 2.0 -1.5 1.4 -1.5 0.75 -1.1 0.3 L2.75 -3.9 5.0 -6.35 M21.75 -15.15 L31.15 -24.75 25.0 -24.2 24.2 -24.35 23.6 -24.9 23.35 -25.7 23.35 -31.3 14.95 -22.25 15.95 -16.05 21.75 -15.15" fill="#6d51a5" fill-rule="evenodd" stroke="none"/>
      <path d="M5.0 -6.35 L2.75 -3.9 Q1.4 -4.85 -0.35 -4.85 -2.75 -4.85 -4.45 -3.1 -6.15 -1.45 -6.15 0.9 -6.15 3.3 -4.45 5.0 -2.75 6.7 -0.35 6.7 2.0 6.7 3.7 5.0 5.4 3.3 5.4 0.9 5.4 -0.55 4.8 -1.7 L7.1 -4.25 Q8.7 -2.0 8.7 0.9 8.7 4.7 6.05 7.3 L6.0 7.35 Q3.35 10.0 -0.35 10.0 -4.15 10.0 -6.8 7.35 -9.45 4.7 -9.45 0.9 -9.45 -2.85 -6.8 -5.45 -4.15 -8.15 -0.35 -8.15 2.7 -8.15 5.0 -6.35 M22.35 0.9 Q22.35 10.3 15.7 16.95 L15.65 17.0 Q9.0 23.65 -0.35 23.65 -9.8 23.65 -16.45 17.0 -23.1 10.35 -23.1 0.9 -23.1 -8.45 -16.45 -15.15 -9.75 -21.8 -0.35 -21.8 4.85 -21.8 9.2 -19.75 L10.2 -19.25 Q10.75 -18.9 10.9 -18.2 11.05 -17.55 10.7 -16.95 10.35 -16.4 9.7 -16.25 L8.45 -16.45 Q8.15 -16.6 7.95 -16.7 L7.8 -16.75 Q4.05 -18.5 -0.35 -18.5 -8.4 -18.5 -14.1 -12.85 L-14.15 -12.8 Q-19.8 -7.1 -19.8 0.9 -19.8 8.95 -14.1 14.65 -8.4 20.35 -0.35 20.35 7.65 20.35 13.35 14.65 19.05 8.95 19.05 0.9 19.05 -4.4 16.6 -8.65 16.25 -9.25 16.4 -9.9 16.6 -10.6 17.2 -10.9 L18.45 -11.1 19.45 -10.3 Q22.35 -5.3 22.35 0.9 M34.05 1.0 Q34.05 15.3 24.0 25.35 13.95 35.4 -0.3 35.4 -14.55 35.4 -24.65 25.35 -34.7 15.3 -34.7 1.0 -34.7 -13.15 -24.65 -23.3 -14.5 -33.35 -0.3 -33.35 6.35 -33.35 12.15 -31.15 12.8 -30.9 13.05 -30.25 13.35 -29.65 13.1 -29.0 12.85 -28.35 12.25 -28.1 L10.95 -28.05 Q5.75 -30.05 -0.3 -30.05 -13.15 -30.05 -22.3 -21.0 L-22.35 -20.95 Q-31.4 -11.8 -31.4 1.0 -31.4 13.9 -22.3 23.0 -13.15 32.1 -0.3 32.1 12.55 32.1 21.65 23.0 30.75 13.9 30.75 1.0 30.75 -6.1 27.95 -12.1 27.65 -12.7 27.9 -13.35 28.15 -14.0 28.75 -14.3 L30.0 -14.35 30.95 -13.5 Q34.05 -6.9 34.05 1.0" fill="#069bda" fill-rule="evenodd" stroke="none"/>
    </g>
  </defs>
</svg>
