<?xml version="1.0" encoding="UTF-8" standalone="no"?>
<svg xmlns:xlink="http://www.w3.org/1999/xlink" height="39.8px" width="39.8px" xmlns="http://www.w3.org/2000/svg">
  <g transform="matrix(1.0, 0.0, 0.0, 1.0, 19.9, 19.9)">
    <use height="39.8" transform="matrix(1.0, 0.0, 0.0, 1.0, -19.9, -19.9)" width="39.8" xlink:href="#shape0"/>
  </g>
  <defs>
    <g id="shape0" transform="matrix(1.0, 0.0, 0.0, 1.0, 19.9, 19.9)">
      <path d="M-19.9 -19.9 L19.9 -19.9 19.9 19.9 -19.9 19.9 -19.9 -19.9" fill="#ffffff" fill-opacity="0.0" fill-rule="evenodd" stroke="none"/>
      <path d="M-14.9 -10.85 L9.6 -17.4 Q13.8 -18.55 14.95 -14.3 L19.15 1.4 Q20.3 5.65 16.1 6.8 L-8.4 13.35 Q-12.65 14.5 -13.8 10.25 L-18.0 -5.45 Q-19.15 -9.7 -14.9 -10.85" fill="#0bd0aa" fill-rule="evenodd" stroke="none"/>
      <path d="M-14.5 -10.95 L14.55 -10.95 Q19.55 -10.95 19.55 -5.95 L19.55 12.7 Q19.55 17.7 14.55 17.7 L-14.5 17.7 Q-19.5 17.7 -19.5 12.7 L-19.5 -5.95 Q-19.5 -10.95 -14.5 -10.95" fill="#791e99" fill-rule="evenodd" stroke="none"/>
      <path d="M14.55 -10.95 Q19.55 -10.95 19.55 -5.95 L19.55 -3.35 Q10.85 -2.5 11.3 -10.95 L14.55 -10.95 M-14.5 -10.95 L-11.25 -10.95 Q-10.8 -2.5 -19.5 -3.35 L-19.5 -5.95 Q-19.5 -10.95 -14.5 -10.95 M-14.5 17.7 Q-19.5 17.7 -19.5 12.7 L-19.5 10.1 Q-10.8 9.25 -11.25 17.7 L-14.5 17.7 M14.55 17.7 L11.3 17.7 Q10.85 9.25 19.55 10.1 L19.55 12.7 Q19.55 17.7 14.55 17.7" fill="#f8cef8" fill-rule="evenodd" stroke="none"/>
      <path d="M7.6 -1.7 L4.15 9.35 2.45 9.35 5.9 -1.7 7.6 -1.7 M-3.0 9.3 L-5.0 9.05 -6.6 8.5 -6.6 6.05 -4.7 7.0 Q-3.8 7.4 -2.95 7.4 L-2.4 7.35 -1.9 7.15 -1.4 6.85 -1.2 6.25 Q-1.2 5.9 -1.55 5.65 L-2.2 5.25 -3.3 5.0 -4.35 4.7 -6.0 3.55 Q-6.5 2.8 -6.5 1.75 -6.5 0.25 -5.35 -0.65 -4.2 -1.55 -2.4 -1.55 L-0.65 -1.4 0.9 -0.85 0.9 1.3 -0.65 0.6 -2.0 0.35 -2.85 0.4 -3.45 0.6 -3.8 0.9 -4.0 1.4 -3.7 2.05 -2.7 2.45 -1.75 2.7 -0.75 3.0 Q0.3 3.4 0.8 4.1 1.25 4.75 1.25 5.85 1.25 7.4 0.15 8.35 -1.05 9.3 -3.0 9.3" fill="#0bd0aa" fill-rule="evenodd" stroke="none"/>
    </g>
  </defs>
</svg>
