<?xml version="1.0" encoding="UTF-8" standalone="no"?>
<svg xmlns:xlink="http://www.w3.org/1999/xlink" height="76.0px" width="76.0px" xmlns="http://www.w3.org/2000/svg">
  <g transform="matrix(1.0, 0.0, 0.0, 1.0, 38.0, 38.0)">
    <use height="76.0" transform="matrix(1.0, 0.0, 0.0, 1.0, -38.0, -38.0)" width="76.0" xlink:href="#shape0"/>
  </g>
  <defs>
    <g id="shape0" transform="matrix(1.0, 0.0, 0.0, 1.0, 38.0, 38.0)">
      <path d="M-38.0 -38.0 L38.0 -38.0 38.0 38.0 -38.0 38.0 -38.0 -38.0" fill="#ffffff" fill-opacity="0.0" fill-rule="evenodd" stroke="none"/>
      <path d="M-6.05 -21.8 L-6.05 -10.3 -1.05 -10.3 Q-0.4 -10.3 0.05 -9.8 0.5 -9.35 0.5 -8.75 0.5 -8.15 0.05 -7.65 -0.4 -7.2 -1.05 -7.2 L-6.05 -7.2 -6.05 -1.95 Q-6.05 -1.35 -6.45 -0.85 -6.95 -0.45 -7.6 -0.45 -8.2 -0.45 -8.6 -0.85 -9.1 -1.35 -9.1 -1.95 L-9.1 -7.2 -21.15 -7.2 Q-20.75 -0.55 -17.65 5.6 L-13.95 5.6 Q-13.3 5.6 -12.85 6.1 -12.4 6.55 -12.4 7.15 -12.4 7.75 -12.85 8.25 -13.3 8.7 -13.95 8.7 L-15.95 8.7 Q-13.2 13.5 -9.55 18.8 -9.25 19.25 -9.3 19.9 -9.4 20.45 -9.85 20.85 -10.35 21.2 -10.95 21.15 -20.5 20.5 -28.05 12.85 -30.25 10.65 -31.9 8.2 L-32.05 8.0 Q-36.55 1.15 -36.55 -7.65 L-36.5 -8.95 Q-36.2 -17.45 -31.5 -24.1 L-31.45 -24.15 -31.45 -24.25 -28.15 -28.15 -28.05 -28.15 Q-19.7 -36.55 -7.8 -36.65 L-7.75 -36.65 -7.6 -36.65 -7.35 -36.65 Q4.55 -36.6 12.9 -28.15 14.8 -26.3 16.3 -24.25 L16.35 -24.15 16.35 -24.1 Q20.2 -18.65 21.15 -12.0 21.25 -11.4 20.85 -10.9 20.5 -10.4 19.9 -10.3 19.2 -10.2 18.7 -10.6 18.25 -10.95 18.15 -11.55 17.3 -17.15 14.25 -21.8 L6.75 -21.8 Q8.7 -17.15 9.05 -11.7 9.1 -11.1 8.7 -10.6 8.25 -10.15 7.65 -10.1 7.0 -10.05 6.55 -10.45 6.05 -10.9 6.0 -11.5 5.65 -17.15 3.35 -21.8 L-6.05 -21.8 M10.75 -26.0 Q5.2 -31.5 -1.95 -33.05 2.5 -29.35 5.2 -24.85 L11.85 -24.85 10.75 -26.0 M-14.05 17.6 L-19.5 8.7 -27.75 8.7 -25.9 10.7 Q-20.55 16.1 -14.05 17.6 M-9.1 -10.3 L-9.1 -21.8 -18.45 -21.8 Q-21.05 -16.6 -21.2 -10.3 L-9.1 -10.3 M-33.5 -7.2 Q-33.4 -0.05 -29.9 5.6 L-21.05 5.6 Q-23.85 -0.55 -24.2 -7.2 L-33.5 -7.2 M-29.35 -21.8 Q-32.85 -16.6 -33.3 -10.3 L-24.25 -10.3 Q-24.1 -16.5 -21.85 -21.8 L-29.35 -21.8 M-25.9 -26.0 L-27.05 -24.85 -20.3 -24.85 Q-17.65 -29.35 -13.2 -33.05 -20.4 -31.5 -25.9 -26.0 M-9.1 -24.85 L-9.1 -32.25 Q-13.8 -29.0 -16.7 -24.85 L-9.1 -24.85 M-6.05 -32.25 L-6.05 -24.85 1.55 -24.85 Q-1.35 -29.0 -6.05 -32.25" fill="#069bda" fill-rule="evenodd" stroke="none"/>
      <path d="M29.9 30.05 Q23.2 36.7 13.7 36.7 4.25 36.7 -2.45 30.05 -9.15 23.3 -9.15 13.8 -9.15 4.35 -2.45 -2.35 4.25 -9.05 13.7 -9.05 23.2 -9.05 29.9 -2.35 36.6 4.35 36.6 13.8 36.6 23.3 29.9 30.05 M33.55 13.8 Q33.55 5.55 27.8 -0.2 21.95 -6.0 13.7 -6.0 5.45 -6.0 -0.3 -0.2 -6.1 5.55 -6.1 13.8 -6.1 22.1 -0.3 27.9 5.45 33.65 13.7 33.65 21.95 33.65 27.8 27.9 33.55 22.1 33.55 13.8 M13.6 22.1 Q15.85 22.1 17.5 20.85 18.8 19.9 18.85 18.55 18.8 17.2 17.5 16.2 L17.55 16.2 Q15.85 15.05 13.6 15.05 L13.35 15.05 13.15 15.05 Q10.15 14.6 7.9 12.9 5.25 10.95 5.35 8.15 5.25 5.3 7.9 3.35 L7.95 3.35 Q9.65 2.1 11.8 1.75 L11.8 -0.5 Q11.8 -1.1 12.3 -1.55 12.75 -2.0 13.35 -2.0 L14.45 -1.55 Q14.85 -1.1 14.85 -0.5 L14.85 1.65 Q17.4 1.95 19.35 3.35 21.95 5.3 21.9 8.15 L21.9 8.75 Q21.9 9.35 21.5 9.85 21.0 10.25 20.4 10.25 19.75 10.25 19.35 9.85 18.85 9.35 18.85 8.75 L18.85 8.15 Q18.8 6.8 17.5 5.8 L17.55 5.8 Q15.85 4.65 13.6 4.65 L13.4 4.65 13.35 4.65 Q11.3 4.7 9.75 5.8 L9.75 5.85 Q8.45 6.8 8.4 8.15 8.45 9.5 9.75 10.45 11.3 11.6 13.35 12.0 L13.6 12.0 Q16.95 12.0 19.35 13.75 21.95 15.7 21.9 18.55 21.95 21.35 19.35 23.3 17.45 24.75 14.85 25.1 L14.85 26.8 Q14.85 27.4 14.45 27.9 13.95 28.3 13.35 28.3 12.75 28.3 12.3 27.9 11.8 27.4 11.8 26.8 L11.8 25.0 Q9.65 24.6 7.9 23.3 5.25 21.35 5.35 18.55 5.35 18.1 5.5 17.7 5.7 17.05 6.25 16.8 L7.4 16.75 8.35 17.5 Q8.55 18.0 8.4 18.55 8.45 19.9 9.75 20.85 11.3 22.0 13.35 22.1 L13.4 22.1 13.6 22.1" fill="#6d51a5" fill-rule="evenodd" stroke="none"/>
    </g>
  </defs>
</svg>
