<?xml version="1.0" encoding="UTF-8" standalone="no"?>
<svg xmlns:xlink="http://www.w3.org/1999/xlink" height="76.0px" width="76.0px" xmlns="http://www.w3.org/2000/svg">
  <g transform="matrix(1.0, 0.0, 0.0, 1.0, 38.0, 38.0)">
    <use height="76.0" transform="matrix(1.0, 0.0, 0.0, 1.0, -38.0, -38.0)" width="76.0" xlink:href="#shape0"/>
  </g>
  <defs>
    <g id="shape0" transform="matrix(1.0, 0.0, 0.0, 1.0, 38.0, 38.0)">
      <path d="M-38.0 -38.0 L38.0 -38.0 38.0 38.0 -38.0 38.0 -38.0 -38.0" fill="#ffffff" fill-opacity="0.0" fill-rule="evenodd" stroke="none"/>
      <path d="M-13.45 6.3 Q-12.8 6.3 -12.3 6.8 -11.9 7.2 -11.9 7.85 -11.9 8.45 -12.3 8.95 -12.8 9.4 -13.45 9.4 L-17.25 9.4 -18.3 8.95 Q-18.8 8.45 -18.8 7.85 -18.8 7.2 -18.3 6.8 -17.85 6.3 -17.25 6.3 L-13.45 6.3 M10.3 18.05 Q9.55 18.05 9.0 17.45 8.45 16.9 8.45 16.1 8.45 15.35 9.0 14.8 9.55 14.25 10.3 14.25 L29.95 14.25 24.45 8.75 Q23.9 8.2 23.9 7.45 23.9 6.7 24.45 6.15 25.05 5.6 25.75 5.6 26.5 5.6 27.1 6.15 L35.75 14.8 Q36.3 15.35 36.3 16.1 36.3 16.9 35.75 17.45 L35.3 17.85 26.95 26.15 Q26.4 26.65 25.65 26.65 24.85 26.65 24.35 26.1 23.8 25.55 23.8 24.8 23.8 24.0 24.35 23.5 L29.8 18.05 10.3 18.05 M22.35 -5.65 Q21.75 -5.65 21.3 -6.1 20.8 -6.6 20.8 -7.2 20.8 -7.85 21.3 -8.25 21.75 -8.75 22.35 -8.75 L25.95 -8.75 Q26.6 -8.75 27.1 -8.25 27.5 -7.85 27.5 -7.2 27.5 -6.6 27.1 -6.1 26.6 -5.65 25.95 -5.65 L22.35 -5.65 M36.55 -0.65 Q36.55 0.05 35.95 0.65 35.4 1.2 34.65 1.2 33.9 1.2 33.35 0.65 32.8 0.05 32.8 -0.65 L32.8 -14.2 -23.75 -14.2 -23.75 14.25 -5.75 14.25 Q-5.0 14.25 -4.45 14.8 -3.85 15.35 -3.85 16.1 -3.85 16.9 -4.45 17.45 -5.0 18.05 -5.75 18.05 L-25.6 18.05 Q-26.35 18.05 -26.95 17.45 -27.5 16.9 -27.5 16.1 L-27.5 -16.1 Q-27.5 -16.85 -26.95 -17.4 -26.35 -17.95 -25.6 -17.95 L34.65 -17.95 Q35.4 -17.95 35.95 -17.4 36.55 -16.85 36.55 -16.1 L36.55 -0.65 M5.75 7.4 L5.75 10.1 3.05 10.1 3.05 7.55 Q2.05 7.4 0.85 6.7 -0.35 6.05 -1.4 4.05 L1.0 2.75 1.95 3.9 Q2.45 4.3 2.9 4.5 L3.7 4.65 Q5.1 4.65 5.75 4.25 6.45 3.85 6.45 3.05 L6.35 2.3 5.75 1.8 5.4 1.55 5.1 1.4 4.65 1.2 4.05 0.9 3.35 0.55 2.85 0.3 0.8 -0.85 Q0.0 -1.5 -0.45 -2.3 -0.85 -3.05 -0.85 -4.1 -0.85 -5.75 0.15 -6.9 1.15 -8.05 3.05 -8.45 L3.05 -11.5 5.75 -11.5 5.75 -8.55 Q6.65 -8.65 8.15 -8.0 9.6 -7.45 10.1 -6.2 L8.7 -4.1 6.6 -5.4 5.0 -5.7 3.15 -5.4 Q2.55 -5.1 2.55 -4.45 2.6 -3.95 2.9 -3.6 L3.9 -2.9 4.45 -2.6 Q4.75 -2.5 5.2 -2.3 L5.6 -2.05 5.9 -1.9 7.7 -0.9 8.95 0.05 Q9.45 0.55 9.6 1.25 L9.85 2.8 Q9.85 4.75 8.8 5.85 7.7 7.05 5.75 7.4 M25.65 -26.65 Q26.4 -26.65 26.95 -26.1 27.5 -25.55 27.5 -24.8 27.5 -24.05 26.95 -23.45 26.4 -22.85 25.65 -22.85 L-32.75 -22.85 -32.75 7.45 Q-32.75 8.2 -33.35 8.75 -33.9 9.35 -34.65 9.35 -35.4 9.35 -36.0 8.75 -36.55 8.2 -36.55 7.45 L-36.55 -24.8 Q-36.55 -25.55 -36.0 -26.1 -35.4 -26.65 -34.65 -26.65 L25.65 -26.65" fill="#1f738f" fill-rule="evenodd" stroke="none"/>
    </g>
  </defs>
</svg>
