<?xml version="1.0" encoding="UTF-8" standalone="no"?>
<svg xmlns:xlink="http://www.w3.org/1999/xlink" height="44.1px" width="44.1px" xmlns="http://www.w3.org/2000/svg">
  <g transform="matrix(1.0, 0.0, 0.0, 1.0, 22.05, 22.05)">
    <use height="44.1" transform="matrix(1.0, 0.0, 0.0, 1.0, -22.05, -22.05)" width="44.1" xlink:href="#shape0"/>
  </g>
  <defs>
    <g id="shape0" transform="matrix(1.0, 0.0, 0.0, 1.0, 22.05, 22.05)">
      <path d="M-9.8 18.05 L10.05 -1.75 1.5 -10.15 -18.05 9.2 -18.05 18.05 -9.8 18.05 M8.65 -17.2 L4.35 -12.95 12.9 -4.55 17.2 -8.85 8.65 -17.2 M7.2 -21.45 Q7.75 -22.05 8.6 -22.05 9.4 -22.05 10.0 -21.45 L21.45 -10.25 Q22.05 -9.7 22.05 -8.85 22.05 -8.0 21.5 -7.4 L14.4 -0.3 14.2 -0.15 -7.55 21.5 Q-8.15 22.05 -9.0 22.05 L-20.05 22.05 Q-20.9 22.05 -21.45 21.5 -22.05 20.9 -22.05 20.05 L-22.05 8.35 Q-22.05 7.5 -21.45 6.95 L-0.05 -14.2 0.1 -14.35 7.2 -21.45" fill="#1f738f" fill-rule="evenodd" stroke="none"/>
    </g>
  </defs>
</svg>
