<?xml version="1.0" encoding="UTF-8" standalone="no"?>
<svg xmlns:xlink="http://www.w3.org/1999/xlink" height="39.8px" width="39.8px" xmlns="http://www.w3.org/2000/svg">
  <g transform="matrix(1.0, 0.0, 0.0, 1.0, 19.9, 19.9)">
    <use height="39.8" transform="matrix(1.0, 0.0, 0.0, 1.0, -19.9, -19.9)" width="39.8" xlink:href="#shape0"/>
  </g>
  <defs>
    <g id="shape0" transform="matrix(1.0, 0.0, 0.0, 1.0, 19.9, 19.9)">
      <path d="M-19.9 -19.9 L19.9 -19.9 19.9 19.9 -19.9 19.9 -19.9 -19.9" fill="#ffffff" fill-opacity="0.0" fill-rule="evenodd" stroke="none"/>
      <path d="M-7.7 -19.3 L-4.7 -19.3 Q-4.35 -18.25 -3.5 -17.4 -2.05 -15.9 0.0 -15.9 2.05 -15.9 3.5 -17.4 4.35 -18.25 4.7 -19.3 L7.7 -19.3 Q12.7 -19.3 12.7 -14.3 L12.7 14.35 Q12.7 19.35 7.7 19.35 L4.85 19.35 Q4.5 18.05 3.5 17.0 2.05 15.55 0.0 15.55 -2.05 15.55 -3.5 17.0 -4.5 18.05 -4.8 19.35 L-7.7 19.35 Q-12.7 19.35 -12.7 14.35 L-12.7 -14.3 Q-12.7 -19.3 -7.7 -19.3" fill="#791e99" fill-rule="evenodd" stroke="none"/>
      <path d="M1.85 9.0 Q1.85 9.8 1.25 10.3 0.75 10.85 0.0 10.85 -0.8 10.85 -1.35 10.3 -1.85 9.8 -1.85 9.0 -1.85 8.2 -1.35 7.65 -0.8 7.15 0.0 7.15 0.75 7.15 1.25 7.65 1.85 8.2 1.85 9.0 M8.7 9.0 Q8.7 9.8 8.1 10.3 7.6 10.85 6.85 10.85 6.05 10.85 5.5 10.3 5.0 9.8 5.0 9.0 5.0 8.2 5.5 7.65 6.05 7.15 6.85 7.15 7.6 7.15 8.1 7.65 8.7 8.2 8.7 9.0 M-5.0 9.0 Q-5.0 9.8 -5.55 10.3 -6.1 10.85 -6.85 10.85 -7.65 10.85 -8.2 10.3 -8.7 9.8 -8.7 9.0 -8.7 8.2 -8.2 7.65 -7.65 7.15 -6.85 7.15 -6.1 7.15 -5.55 7.65 -5.0 8.2 -5.0 9.0" fill="#f8cef8" fill-rule="evenodd" stroke="none"/>
      <path d="M-6.3 -5.55 L-6.55 -6.1 -6.5 -6.65 -6.15 -7.1 -5.6 -7.3 -2.6 -7.3 -0.9 -10.8 -0.35 -11.25 0.4 -11.25 Q0.75 -11.15 0.9 -10.8 L2.65 -7.3 5.6 -7.3 6.3 -7.0 6.6 -6.3 6.3 -5.6 3.75 -3.55 4.15 -0.05 3.95 0.6 3.4 0.95 2.75 0.85 0.0 -0.45 -2.7 0.85 -3.35 0.95 -3.9 0.6 -4.15 -0.05 -3.85 -3.5 -6.3 -5.55" fill="#0bd0aa" fill-rule="evenodd" stroke="none"/>
    </g>
  </defs>
</svg>
