<?xml version="1.0" encoding="UTF-8" standalone="no"?>
<svg xmlns:xlink="http://www.w3.org/1999/xlink" height="57.8px" width="57.75px" xmlns="http://www.w3.org/2000/svg">
  <g transform="matrix(1.0, 0.0, 0.0, 1.0, 28.85, 28.9)">
    <use height="57.8" transform="matrix(1.0, 0.0, 0.0, 1.0, -28.85, -28.9)" width="57.75" xlink:href="#shape0"/>
  </g>
  <defs>
    <g id="shape0" transform="matrix(1.0, 0.0, 0.0, 1.0, 28.85, 28.9)">
      <path d="M-28.85 -28.85 L28.9 -28.85 28.9 28.9 -28.85 28.9 -28.85 -28.85" fill="#ffffff" fill-opacity="0.0" fill-rule="evenodd" stroke="none"/>
      <path d="M-12.0 -3.05 L-4.05 0.0 16.65 -19.7 -12.0 -3.05 M-22.3 26.85 Q-22.85 26.5 -23.0 25.95 -23.2 25.35 -22.9 24.8 -22.6 24.25 -22.0 24.1 L-20.85 24.2 Q-18.2 25.6 -14.85 25.85 -14.25 25.9 -13.8 26.4 -13.4 26.85 -13.45 27.45 -13.5 28.05 -13.95 28.5 -14.45 28.9 -15.05 28.85 -19.1 28.6 -22.3 26.85 M-28.2 20.7 Q-28.5 20.1 -28.25 19.55 -28.0 18.95 -27.4 18.75 L-26.25 18.7 Q-25.7 18.95 -25.45 19.55 -24.85 20.9 -23.65 22.1 -23.2 22.5 -23.2 23.15 -23.2 23.75 -23.6 24.2 -24.05 24.65 -24.65 24.65 -25.3 24.65 -25.75 24.25 -27.45 22.6 -28.2 20.7 M-4.3 26.5 Q-6.9 28.05 -10.05 28.65 L-11.15 28.4 Q-11.65 28.0 -11.75 27.4 -11.9 26.8 -11.5 26.3 -11.15 25.8 -10.55 25.7 -8.0 25.25 -5.9 23.95 L-5.85 23.95 -5.35 23.65 -4.2 23.45 -3.3 24.15 Q-3.0 24.65 -3.15 25.3 -3.3 25.85 -3.8 26.2 L-4.3 26.5 M4.15 3.05 L17.6 -16.5 -0.95 1.15 4.15 3.05 M18.95 8.65 L24.2 -20.85 7.0 4.15 18.95 8.65 M-0.2 22.95 L-1.2 23.5 -2.3 23.2 Q-2.8 22.8 -2.9 22.2 -2.95 21.55 -2.55 21.1 -1.75 20.05 -1.35 18.85 -1.2 18.25 -0.65 18.0 L0.5 17.9 Q1.1 18.05 1.4 18.6 1.65 19.15 1.5 19.75 0.95 21.45 -0.2 22.95 M1.7 10.25 L2.9 5.8 -0.9 4.35 1.7 10.25 M3.45 15.15 L2.95 15.9 2.1 16.25 1.25 16.05 Q0.8 15.8 0.65 15.35 L-4.8 2.9 -15.95 -1.4 Q-16.55 -1.6 -16.8 -2.15 -17.05 -2.65 -16.85 -3.2 L-16.2 -4.1 26.1 -28.65 26.15 -28.65 26.15 -28.7 26.25 -28.75 26.65 -28.85 26.95 -28.9 27.2 -28.85 27.3 -28.85 27.35 -28.8 27.45 -28.8 27.75 -28.65 28.1 -28.3 28.15 -28.2 28.2 -28.15 28.3 -28.0 28.4 -27.7 28.4 -27.65 28.4 -27.35 28.4 -27.1 21.6 11.0 21.2 11.75 20.45 12.2 19.6 12.1 5.75 6.85 3.45 15.15" fill="#333333" fill-rule="evenodd" stroke="none"/>
    </g>
  </defs>
</svg>
