<?xml version="1.0" encoding="UTF-8" standalone="no"?>
<svg xmlns:xlink="http://www.w3.org/1999/xlink" height="19.75px" width="25.2px" xmlns="http://www.w3.org/2000/svg">
  <g transform="matrix(1.0, 0.0, 0.0, 1.0, 12.6, 9.85)">
    <use height="19.75" transform="matrix(1.0, 0.0, 0.0, 1.0, -12.6, -9.85)" width="25.2" xlink:href="#shape0"/>
  </g>
  <defs>
    <g id="shape0" transform="matrix(1.0, 0.0, 0.0, 1.0, 12.6, 9.85)">
      <path d="M-12.35 -8.55 L-12.55 -8.9 -12.55 -9.35 -12.25 -9.7 -11.85 -9.85 8.85 -9.85 Q12.6 -9.85 12.6 -6.1 L12.6 6.15 Q12.6 9.9 8.85 9.9 L-4.7 9.9 Q-8.45 9.9 -8.45 6.15 L-8.45 -4.9 -12.35 -8.55 M6.5 -4.6 L-2.25 -4.6 Q-2.75 -4.6 -3.1 -4.2 -3.5 -3.85 -3.5 -3.35 -3.5 -2.85 -3.1 -2.45 -2.75 -2.1 -2.25 -2.1 L6.5 -2.1 Q7.0 -2.1 7.4 -2.45 7.75 -2.85 7.75 -3.35 7.75 -3.85 7.4 -4.2 7.0 -4.6 6.5 -4.6 M1.35 2.8 L-2.25 2.8 Q-2.75 2.8 -3.1 3.2 -3.5 3.55 -3.5 4.05 -3.5 4.55 -3.1 4.95 L-2.25 5.3 1.35 5.3 Q1.85 5.3 2.25 4.95 L2.6 4.05 Q2.6 3.55 2.25 3.2 1.85 2.8 1.35 2.8 M6.5 -0.9 L-2.25 -0.9 Q-2.75 -0.9 -3.1 -0.5 -3.5 -0.15 -3.5 0.35 -3.5 0.85 -3.1 1.25 L-2.25 1.6 6.5 1.6 Q7.0 1.6 7.4 1.25 L7.75 0.35 Q7.75 -0.15 7.4 -0.5 7.0 -0.9 6.5 -0.9" fill="#ffffff" fill-rule="evenodd" stroke="none"/>
    </g>
  </defs>
</svg>
