<?xml version="1.0" encoding="UTF-8" standalone="no"?>
<svg xmlns:xlink="http://www.w3.org/1999/xlink" height="40.9px" width="40.9px" xmlns="http://www.w3.org/2000/svg">
  <g transform="matrix(1.0, 0.0, 0.0, 1.0, 20.45, 20.45)">
    <use height="40.9" transform="matrix(1.0, 0.0, 0.0, 1.0, -20.45, -20.45)" width="40.9" xlink:href="#shape0"/>
  </g>
  <defs>
    <g id="shape0" transform="matrix(1.0, 0.0, 0.0, 1.0, 20.45, 20.45)">
      <path d="M19.75 16.2 Q20.45 16.9 20.45 17.95 20.45 19.0 19.75 19.75 19.0 20.45 17.95 20.45 16.9 20.45 16.2 19.75 L0.0 3.55 -16.15 19.75 Q-16.9 20.45 -17.95 20.45 -18.95 20.45 -19.7 19.75 -20.45 19.0 -20.45 17.95 -20.45 16.9 -19.7 16.2 L-3.55 0.0 -19.7 -16.15 Q-20.45 -16.9 -20.45 -17.95 -20.45 -19.0 -19.7 -19.7 -19.0 -20.45 -17.95 -20.45 -16.9 -20.45 -16.15 -19.7 L0.0 -3.55 16.2 -19.7 Q16.9 -20.45 17.95 -20.45 18.95 -20.45 19.7 -19.7 20.45 -19.0 20.45 -17.95 20.45 -16.9 19.75 -16.15 L3.55 0.0 19.75 16.2" fill="#ffffff" fill-rule="evenodd" stroke="none"/>
    </g>
  </defs>
</svg>
