<?xml version="1.0" encoding="UTF-8" standalone="no"?>
<svg xmlns:xlink="http://www.w3.org/1999/xlink" height="175.3px" width="175.3px" xmlns="http://www.w3.org/2000/svg">
  <g transform="matrix(1.0, 0.0, 0.0, 1.0, 87.6, 87.65)">
    <use height="175.3" transform="matrix(1.0, 0.0, 0.0, 1.0, -87.6, -87.65)" width="175.3" xlink:href="#shape0"/>
  </g>
  <defs>
    <g id="shape0" transform="matrix(1.0, 0.0, 0.0, 1.0, 87.6, 87.65)">
      <path d="M-87.6 -87.65 L87.7 -87.65 87.7 87.65 -87.6 87.65 -87.6 -87.65" fill="#ffffff" fill-opacity="0.0" fill-rule="evenodd" stroke="none"/>
      <path d="M-69.3 -83.3 Q-35.3 -87.65 0.0 -87.65 35.3 -87.6 69.3 -83.25 L69.3 29.35 Q68.45 38.0 60.9 46.15 54.85 52.7 43.05 60.35 40.75 61.85 23.5 71.25 6.2 80.65 0.0 87.65 L0.0 87.6 Q-6.65 80.35 -23.65 71.0 -40.65 61.6 -47.75 57.15 -54.85 52.65 -60.9 46.1 -68.45 37.95 -69.3 29.3 L-69.3 -83.3" fill="#d6b85d" fill-rule="evenodd" stroke="none"/>
      <path d="M-65.45 -79.35 Q-33.35 -83.5 0.0 -83.5 33.4 -83.45 65.45 -79.3 L65.45 27.95 Q64.7 36.2 57.5 43.95 51.85 50.2 40.7 57.5 38.5 58.95 22.6 67.1 6.7 75.25 0.0 83.5 L0.0 83.45 Q-6.5 75.3 -22.45 67.1 -38.45 58.9 -40.65 57.45 -51.8 50.15 -57.45 43.95 -64.65 36.15 -65.45 27.9 L-65.45 -79.35" fill="#ffffff" fill-rule="evenodd" stroke="none"/>
      <path d="M61.85 -76.45 L61.85 27.0 Q61.15 34.95 54.4 42.4 49.0 48.45 38.5 55.5 L21.6 64.65 21.6 -80.0 Q42.0 -79.05 61.85 -76.45 M-61.85 -76.5 Q-41.95 -79.1 -21.6 -80.0 L-21.6 64.55 Q-36.4 56.85 -38.4 55.45 -48.9 48.4 -54.3 42.4 -61.05 34.9 -61.85 26.95 L-61.85 -76.5" fill="#e2061b" fill-rule="evenodd" stroke="none"/>
      <path d="M10.95 -17.8 L10.95 -17.7 Q10.8 -16.2 10.25 -14.85 9.55 -13.1 8.2 -11.8 6.85 -10.5 4.8 -9.8 2.75 -9.05 0.0 -9.05 L-2.55 -9.05 -2.55 0.45 -7.2 0.45 -7.2 -26.35 0.2 -26.35 4.85 -25.8 Q6.85 -25.25 8.2 -24.15 9.55 -23.05 10.25 -21.45 10.8 -20.15 10.95 -18.6 L10.95 -18.2 10.95 -17.8 M6.55 -18.05 Q6.55 -19.1 6.15 -19.9 L5.0 -21.35 3.15 -22.25 0.4 -22.55 -2.55 -22.55 -2.55 -13.15 0.55 -13.15 3.15 -13.45 Q4.25 -13.8 5.0 -14.5 5.75 -15.1 6.15 -16.0 6.55 -16.95 6.55 -18.05" fill="#e2061b" fill-rule="evenodd" stroke="none"/>
      <path d="M38.55 -22.1 L38.55 -14.65 48.7 -14.65 48.7 -10.5 38.55 -10.5 38.55 0.45 33.4 0.45 33.4 -26.35 49.25 -26.35 49.25 -22.1 38.55 -22.1 M-44.9 -22.1 L-44.9 -14.65 -34.75 -14.65 -34.75 -10.5 -44.9 -10.5 -44.9 0.45 -50.05 0.45 -50.05 -26.35 -34.2 -26.35 -34.2 -22.1 -44.9 -22.1" fill="#ffffff" fill-rule="evenodd" stroke="none"/>
    </g>
  </defs>
</svg>
