<?xml version="1.0" encoding="UTF-8" standalone="no"?>
<svg xmlns:xlink="http://www.w3.org/1999/xlink" height="61.1px" width="61.1px" xmlns="http://www.w3.org/2000/svg">
  <g transform="matrix(1.0, 0.0, 0.0, 1.0, 30.55, 30.55)">
    <use height="61.1" transform="matrix(1.0, 0.0, 0.0, 1.0, -30.55, -30.55)" width="61.1" xlink:href="#shape0"/>
  </g>
  <defs>
    <g id="shape0" transform="matrix(1.0, 0.0, 0.0, 1.0, 30.55, 30.55)">
      <path d="M-5.9 -9.15 L-6.7 -8.15 Q-7.25 -7.8 -7.9 -7.7 L-22.7 -5.9 -11.7 5.2 -10.85 6.25 Q-10.5 7.1 -10.75 7.95 L-14.85 22.35 -1.35 13.65 Q-0.75 13.25 0.0 13.25 0.75 13.25 1.35 13.65 L14.9 22.35 10.8 7.95 Q10.55 7.0 11.0 6.15 L11.15 6.0 11.6 5.35 22.75 -5.9 7.9 -7.7 Q7.25 -7.8 6.75 -8.15 6.2 -8.55 5.95 -9.15 L0.0 -22.0 -5.9 -9.15 M-2.25 -29.1 Q-1.85 -30.0 -0.9 -30.35 0.0 -30.75 0.95 -30.35 1.85 -30.0 2.3 -29.1 L9.9 -12.5 28.35 -10.25 Q29.3 -10.15 29.95 -9.4 30.6 -8.7 30.55 -7.7 30.5 -6.75 29.85 -6.05 L16.0 8.0 21.5 27.4 Q21.7 28.1 21.5 28.85 21.2 29.6 20.6 30.05 19.95 30.5 19.2 30.55 18.4 30.55 17.75 30.15 L0.0 18.75 -17.75 30.15 -19.15 30.55 Q-19.95 30.5 -20.55 30.05 -21.2 29.6 -21.45 28.85 -21.7 28.1 -21.5 27.35 L-15.95 8.0 -29.8 -6.05 Q-30.5 -6.75 -30.55 -7.7 -30.6 -8.7 -29.95 -9.4 -29.3 -10.15 -28.35 -10.25 L-9.9 -12.5 -2.25 -29.1" fill="#f7bf1f" fill-rule="evenodd" stroke="none"/>
    </g>
  </defs>
</svg>
