<?xml version="1.0" encoding="UTF-8" standalone="no"?>
<svg xmlns:xlink="http://www.w3.org/1999/xlink" height="56.0px" width="56.0px" xmlns="http://www.w3.org/2000/svg">
  <g transform="matrix(1.0, 0.0, 0.0, 1.0, 28.0, 28.0)">
    <use height="56.0" transform="matrix(1.0, 0.0, 0.0, 1.0, -28.0, -28.0)" width="56.0" xlink:href="#shape0"/>
  </g>
  <defs>
    <g id="shape0" transform="matrix(1.0, 0.0, 0.0, 1.0, 28.0, 28.0)">
      <path d="M-28.0 -28.0 L28.0 -28.0 28.0 28.0 -28.0 28.0 -28.0 -28.0" fill="#ffffff" fill-opacity="0.0" fill-rule="evenodd" stroke="none"/>
      <path d="M15.5 -7.05 Q13.9 -5.45 11.65 -5.45 9.4 -5.45 7.75 -7.1 6.15 -8.7 6.15 -10.95 6.15 -13.2 7.75 -14.85 9.4 -16.45 11.65 -16.45 13.9 -16.45 15.5 -14.85 17.15 -13.2 17.15 -10.95 17.15 -8.7 15.55 -7.1 L15.5 -7.05 M23.1 -17.3 L23.05 -16.4 23.05 -3.5 22.75 -2.8 -2.6 22.8 -3.05 23.1 -3.55 23.1 -4.0 22.8 -22.75 3.25 -23.05 2.55 -22.75 1.85 2.85 -22.7 3.55 -23.0 16.5 -23.0 17.35 -23.05 18.25 -23.0 22.05 -23.0 22.75 -22.7 23.05 -22.0 23.05 -18.15 23.1 -17.3 M21.05 -16.65 L21.05 -17.85 21.05 -18.1 21.05 -21.0 18.25 -21.0 18.0 -21.0 16.8 -21.0 16.55 -21.0 4.0 -21.0 -20.6 2.6 -3.25 20.7 21.05 -3.9 21.05 -16.4 21.05 -16.65 M15.15 -10.95 Q15.15 -12.4 14.1 -13.45 13.1 -14.45 11.65 -14.45 10.2 -14.45 9.2 -13.45 L9.15 -13.4 Q8.15 -12.4 8.15 -10.95 8.15 -9.5 9.15 -8.5 10.2 -7.45 11.65 -7.45 13.05 -7.45 14.1 -8.5 15.15 -9.55 15.15 -10.95" fill="#343434" fill-rule="evenodd" stroke="none"/>
    </g>
  </defs>
</svg>
