<?xml version="1.0" encoding="UTF-8" standalone="no"?>
<svg xmlns:xlink="http://www.w3.org/1999/xlink" height="18.45px" width="18.45px" xmlns="http://www.w3.org/2000/svg">
  <g transform="matrix(1.0, 0.0, 0.0, 1.0, 9.2, 9.2)">
    <use height="18.45" transform="matrix(1.0, 0.0, 0.0, 1.0, -9.2, -9.2)" width="18.45" xlink:href="#shape0"/>
  </g>
  <defs>
    <g id="shape0" transform="matrix(1.0, 0.0, 0.0, 1.0, 9.2, 9.2)">
      <path d="M-5.2 -5.05 Q-7.2 -5.05 -7.2 -3.05 L-7.2 -1.8 7.25 -1.8 7.25 -3.05 Q7.25 -5.05 5.25 -5.05 L-5.2 -5.05 M7.25 5.25 L7.25 0.2 -7.2 0.2 -7.2 5.25 Q-7.2 7.25 -5.2 7.25 L5.25 7.25 Q7.25 7.25 7.25 5.25 M5.25 -7.05 Q9.25 -7.05 9.25 -3.05 L9.25 5.25 Q9.25 9.25 5.25 9.25 L-5.2 9.25 Q-9.2 9.25 -9.2 5.25 L-9.2 -3.05 Q-9.2 -7.05 -5.2 -7.05 L-4.75 -7.05 -4.75 -8.2 -4.45 -8.85 -4.4 -8.9 -3.75 -9.2 Q-3.35 -9.2 -3.0 -8.85 -2.75 -8.6 -2.75 -8.2 L-2.75 -7.05 3.2 -7.05 3.2 -8.2 Q3.2 -8.6 3.5 -8.85 L3.55 -8.9 Q3.8 -9.2 4.2 -9.2 4.6 -9.2 4.95 -8.85 L5.2 -8.2 5.2 -7.05 5.25 -7.05" fill="#6d6d6d" fill-rule="evenodd" stroke="none"/>
    </g>
  </defs>
</svg>
