<?xml version="1.0" encoding="UTF-8" standalone="no"?>
<svg xmlns:xlink="http://www.w3.org/1999/xlink" height="25.0px" width="25.0px" xmlns="http://www.w3.org/2000/svg">
  <g transform="matrix(1.0, 0.0, 0.0, 1.0, 12.5, 12.5)">
    <use height="25.0" transform="matrix(1.0, 0.0, 0.0, 1.0, -12.5, -12.5)" width="25.0" xlink:href="#shape0"/>
  </g>
  <defs>
    <g id="shape0" transform="matrix(1.0, 0.0, 0.0, 1.0, 12.5, 12.5)">
      <path d="M-12.5 -12.5 L12.5 -12.5 12.5 12.5 -12.5 12.5 -12.5 -12.5" fill="#ffffff" fill-opacity="0.0" fill-rule="evenodd" stroke="none"/>
      <path d="M-12.0 1.2 L-12.25 0.9 -12.35 0.7 -12.4 0.55 -12.5 0.1 -12.5 0.0 -12.5 -0.1 -12.4 -0.55 -12.35 -0.65 -12.25 -0.85 -12.0 -1.2 -1.45 -11.7 Q-1.0 -12.2 -0.3 -12.2 0.35 -12.2 0.85 -11.7 1.35 -11.25 1.35 -10.55 1.35 -9.9 0.9 -9.4 L-6.85 -1.65 10.85 -1.65 Q11.55 -1.65 12.05 -1.15 L12.5 0.0 12.05 1.2 Q11.55 1.65 10.85 1.65 L-6.85 1.65 0.9 9.4 Q1.35 9.85 1.35 10.55 1.35 11.25 0.9 11.75 L-0.3 12.2 Q-1.0 12.2 -1.45 11.75 L-12.0 1.2" fill="#fff" fill-rule="evenodd" stroke="none"/>
    </g>
  </defs>
</svg>
