<?xml version="1.0" encoding="UTF-8" standalone="no"?>
<svg xmlns:xlink="http://www.w3.org/1999/xlink" height="61.3px" width="61.3px" xmlns="http://www.w3.org/2000/svg">
  <g transform="matrix(1.0, 0.0, 0.0, 1.0, 30.65, 30.65)">
    <use height="61.3" transform="matrix(1.0, 0.0, 0.0, 1.0, -30.65, -30.65)" width="61.3" xlink:href="#shape0"/>
  </g>
  <defs>
    <g id="shape0" transform="matrix(1.0, 0.0, 0.0, 1.0, 30.65, 30.65)">
      <path d="M-30.65 -30.65 L30.65 -30.65 30.65 30.65 -30.65 30.65 -30.65 -30.65" fill="#ffffff" fill-opacity="0.0" fill-rule="evenodd" stroke="none"/>
      <path d="M-1.5 -29.15 L-1.05 -30.2 0.0 -30.65 1.05 -30.2 1.5 -29.15 1.5 25.5 14.2 12.8 Q14.6 12.35 15.25 12.35 15.85 12.35 16.3 12.8 16.75 13.25 16.75 13.85 16.75 14.45 16.35 14.9 L1.1 30.15 0.7 30.45 0.0 30.6 -1.05 30.15 -16.3 14.9 -16.75 13.85 Q-16.75 13.25 -16.3 12.8 -15.85 12.35 -15.25 12.35 -14.65 12.35 -14.2 12.8 L-1.5 25.5 -1.5 -29.15" fill="#090909" fill-rule="evenodd" stroke="none"/>
    </g>
  </defs>
</svg>
