<?xml version="1.0" encoding="UTF-8" standalone="no"?>
<svg xmlns:xlink="http://www.w3.org/1999/xlink" height="128.1px" width="476.75px" xmlns="http://www.w3.org/2000/svg">
  <g transform="matrix(1.0, 0.0, 0.0, 1.0, 238.35, 64.05)">
    <use height="128.1" transform="matrix(1.0, 0.0, 0.0, 1.0, -238.35, -64.05)" width="476.75" xlink:href="#shape0"/>
  </g>
  <defs>
    <g id="shape0" transform="matrix(1.0, 0.0, 0.0, 1.0, 238.35, 64.05)">
      <path d="M-213.35 -64.05 L213.4 -64.05 Q223.75 -64.05 231.05 -56.75 238.4 -49.4 238.4 -39.05 L238.4 39.05 Q238.4 49.4 231.05 56.7 223.75 64.05 213.4 64.05 L-213.35 64.05 Q-223.7 64.05 -231.05 56.7 -238.35 49.4 -238.35 39.05 L-238.35 -39.05 Q-238.35 -49.4 -231.05 -56.75 -223.7 -64.05 -213.35 -64.05" fill="url(#gradient0)" fill-rule="evenodd" stroke="none"/>
      <path d="M60.4 34.85 Q60.1 34.6 60.1 34.15 L60.1 34.05 Q60.2 32.85 61.9 32.85 L62.75 32.85 62.75 34.3 62.1 34.9 61.2 35.15 60.4 34.85 M34.45 34.85 Q34.15 34.6 34.15 34.15 L34.15 34.05 Q34.25 32.85 35.95 32.85 L36.8 32.85 36.8 34.3 36.15 34.9 35.25 35.15 34.45 34.85 M43.0 34.2 L43.0 30.75 Q43.35 29.95 44.45 29.95 45.25 29.95 45.65 30.55 46.05 31.2 46.05 32.4 46.05 35.05 44.45 35.05 43.4 35.05 43.0 34.2 M40.7 39.95 L43.0 39.95 43.0 35.95 Q43.75 36.85 45.05 36.85 46.55 36.85 47.45 35.7 48.35 34.5 48.35 32.55 L48.35 32.45 Q48.35 30.4 47.45 29.25 46.6 28.1 45.05 28.1 43.7 28.1 42.9 29.1 L42.8 28.25 40.7 28.25 40.7 39.95 M32.9 32.25 Q31.9 33.0 31.9 34.35 31.9 35.4 32.7 36.15 33.5 36.85 34.75 36.85 36.05 36.85 36.9 35.95 L37.1 36.7 39.4 36.7 39.4 36.55 Q39.05 35.95 39.05 34.75 L39.05 31.1 Q39.05 29.65 38.15 28.9 37.25 28.1 35.65 28.1 34.65 28.1 33.8 28.45 33.0 28.8 32.5 29.45 32.05 30.05 32.05 30.8 L34.35 30.8 Q34.35 30.3 34.65 30.05 35.0 29.75 35.55 29.75 36.2 29.75 36.5 30.1 L36.8 31.05 36.8 31.55 35.75 31.55 Q33.85 31.55 32.9 32.25 M24.15 25.35 L21.55 25.35 25.3 32.6 25.3 36.7 27.7 36.7 27.7 32.6 31.4 25.35 28.85 25.35 26.5 30.45 24.15 25.35 M58.85 32.25 Q57.85 33.0 57.85 34.35 57.85 35.4 58.65 36.15 59.45 36.85 60.7 36.85 62.0 36.85 62.85 35.95 L63.05 36.7 65.35 36.7 65.35 36.55 Q65.0 35.95 65.0 34.75 L65.0 31.1 Q65.0 29.65 64.1 28.9 63.2 28.1 61.6 28.1 L59.75 28.45 Q58.95 28.8 58.45 29.45 58.0 30.05 58.0 30.8 L60.3 30.8 Q60.3 30.3 60.6 30.05 60.95 29.75 61.5 29.75 62.15 29.75 62.45 30.1 L62.75 31.05 62.75 31.55 61.7 31.55 Q59.8 31.55 58.85 32.25 M51.65 31.65 Q51.75 30.85 52.15 30.35 52.6 29.9 53.25 29.9 53.95 29.9 54.35 30.35 54.75 30.75 54.75 31.5 L54.75 31.65 51.65 31.65 M49.3 32.7 Q49.3 34.6 50.5 35.7 51.65 36.85 53.5 36.85 L55.45 36.45 56.8 35.35 55.7 34.1 Q54.95 35.05 53.65 35.05 52.8 35.05 52.25 34.55 51.7 34.05 51.6 33.2 L57.0 33.2 57.0 32.3 Q57.0 30.3 56.0 29.2 55.0 28.1 53.25 28.1 52.1 28.1 51.2 28.65 50.3 29.2 49.8 30.2 49.3 31.2 49.3 32.45 L49.3 32.7 M108.4 36.7 L110.65 36.7 110.65 28.25 108.4 28.25 108.4 36.7 M68.8 28.25 L66.65 28.25 66.65 36.7 68.95 36.7 68.95 31.15 Q69.3 30.3 70.6 30.3 L71.4 30.35 71.45 28.2 70.75 28.1 Q69.55 28.1 68.85 29.25 L68.8 28.25 M75.9 33.1 Q75.9 34.2 76.45 35.05 77.0 35.9 78.1 36.4 L80.5 36.85 Q82.4 36.85 83.5 36.0 84.6 35.2 84.6 33.7 84.6 32.35 83.7 31.5 82.8 30.6 80.8 30.0 79.7 29.65 79.15 29.3 78.6 28.9 78.6 28.35 78.6 27.75 79.05 27.4 79.55 27.05 80.4 27.05 81.3 27.05 81.8 27.45 82.25 27.9 82.25 28.7 L84.6 28.7 Q84.6 27.65 84.1 26.85 83.55 26.05 82.6 25.6 L80.45 25.15 Q79.25 25.15 78.25 25.6 77.3 26.0 76.75 26.7 76.25 27.45 76.25 28.35 76.25 30.1 78.2 31.15 78.9 31.55 80.1 31.95 81.35 32.35 81.8 32.7 82.25 33.05 82.25 33.7 82.25 34.35 81.8 34.65 81.35 35.0 80.5 35.0 78.25 35.0 78.25 33.1 L75.9 33.1 M99.5 28.25 L102.35 36.7 104.5 36.7 107.35 28.25 105.0 28.25 103.45 33.95 101.85 28.25 99.5 28.25 M108.25 26.05 Q108.25 26.6 108.6 26.9 108.95 27.25 109.5 27.25 110.1 27.25 110.45 26.9 L110.8 26.05 Q110.8 25.55 110.45 25.2 L109.5 24.9 Q108.95 24.9 108.6 25.2 108.25 25.55 108.25 26.05 M96.65 28.25 L94.5 28.25 94.5 36.7 96.8 36.7 96.8 31.15 Q97.15 30.3 98.45 30.3 L99.25 30.35 99.3 28.2 98.6 28.1 Q97.4 28.1 96.7 29.25 L96.65 28.25 M85.65 32.7 Q85.65 34.6 86.85 35.7 88.0 36.85 89.85 36.85 L91.8 36.45 Q92.65 36.05 93.15 35.35 L92.05 34.1 Q91.3 35.05 90.0 35.05 89.15 35.05 88.6 34.55 88.05 34.05 87.95 33.2 L93.35 33.2 93.35 32.3 Q93.35 30.3 92.35 29.2 91.35 28.1 89.6 28.1 88.45 28.1 87.55 28.65 86.65 29.2 86.15 30.2 85.65 31.2 85.65 32.45 L85.65 32.7 M88.0 31.65 Q88.1 30.85 88.5 30.35 88.95 29.9 89.6 29.9 90.3 29.9 90.7 30.35 91.1 30.75 91.1 31.5 L91.1 31.65 88.0 31.65 M157.75 36.05 L161.0 32.8 161.2 32.4 161.25 32.3 161.25 32.1 160.95 31.4 160.85 31.3 157.7 28.15 Q157.4 27.85 157.0 27.85 156.6 27.85 156.3 28.15 156.0 28.45 156.0 28.85 156.0 29.25 156.3 29.55 L157.85 31.1 148.3 31.1 Q147.9 31.1 147.6 31.4 147.3 31.7 147.3 32.1 147.3 32.5 147.6 32.8 L148.3 33.1 157.85 33.1 156.3 34.65 Q156.0 34.95 156.0 35.4 156.0 35.8 156.3 36.1 L157.05 36.35 Q157.45 36.35 157.75 36.05 M-4.7 16.75 L159.85 16.75 Q165.25 16.75 169.05 20.55 172.85 24.35 172.85 29.75 L172.85 34.5 Q172.85 39.9 169.05 43.7 165.25 47.5 159.85 47.5 L-4.7 47.5 Q-10.1 47.5 -13.9 43.7 -17.7 39.9 -17.7 34.5 L-17.7 29.75 Q-17.7 24.35 -13.9 20.55 -10.1 16.75 -4.7 16.75 M12.35 34.85 Q12.05 34.6 12.05 34.15 L12.05 34.05 Q12.15 32.85 13.85 32.85 L14.7 32.85 14.7 34.3 14.05 34.9 13.15 35.15 12.35 34.85 M-1.35 36.7 L-1.35 25.35 -3.7 25.35 -3.7 36.7 -1.35 36.7 M2.7 28.25 L0.55 28.25 0.55 36.7 2.85 36.7 2.85 31.15 Q3.2 30.3 4.5 30.3 L5.3 30.35 5.35 28.2 4.65 28.1 Q3.45 28.1 2.75 29.25 L2.7 28.25 M10.8 32.25 Q9.8 33.0 9.8 34.35 9.8 35.4 10.6 36.15 11.4 36.85 12.65 36.85 13.95 36.85 14.8 35.95 L15.0 36.7 17.3 36.7 17.3 36.55 Q16.95 35.95 16.95 34.75 L16.95 31.1 Q16.95 29.65 16.05 28.9 15.15 28.1 13.55 28.1 12.55 28.1 11.7 28.45 10.9 28.8 10.4 29.45 9.95 30.05 9.95 30.8 L12.25 30.8 Q12.25 30.3 12.55 30.05 12.9 29.75 13.45 29.75 14.1 29.75 14.4 30.1 L14.7 31.05 14.7 31.55 13.65 31.55 Q11.75 31.55 10.8 32.25 M127.2 34.4 Q126.7 33.75 126.7 32.55 126.7 31.2 127.2 30.55 127.65 29.9 128.45 29.9 129.3 29.9 129.75 30.55 130.2 31.2 130.2 32.4 130.2 33.8 129.75 34.4 129.3 35.05 128.45 35.05 127.65 35.05 127.2 34.4 M120.8 36.7 L123.05 36.7 123.05 28.25 120.8 28.25 120.8 36.7 M120.65 26.05 Q120.65 26.6 121.0 26.9 L121.9 27.25 122.85 26.9 123.2 26.05 Q123.2 25.55 122.85 25.2 122.5 24.9 121.9 24.9 121.35 24.9 121.0 25.2 120.65 25.55 120.65 26.05 M112.05 32.5 Q112.05 34.55 113.1 35.7 114.15 36.85 115.95 36.85 116.95 36.85 117.75 36.45 L119.0 35.35 119.45 33.8 117.35 33.8 Q117.35 34.35 116.95 34.7 116.55 35.05 115.95 35.05 115.1 35.05 114.7 34.45 114.3 33.9 114.3 32.6 L114.3 32.35 Q114.3 31.05 114.75 30.5 115.15 29.9 115.9 29.9 116.55 29.9 116.95 30.35 117.35 30.75 117.35 31.4 L119.45 31.4 Q119.45 29.9 118.5 29.0 117.55 28.1 115.95 28.1 114.15 28.1 113.1 29.25 112.05 30.4 112.05 32.35 L112.05 32.5 M133.35 34.0 Q133.35 34.8 133.8 35.45 L135.1 36.5 137.0 36.85 Q138.55 36.85 139.55 36.15 140.55 35.45 140.55 34.25 140.55 32.65 138.75 32.0 L137.35 31.6 136.15 31.2 Q135.8 31.0 135.8 30.6 135.8 30.2 136.1 29.95 136.4 29.7 136.95 29.7 137.65 29.7 137.95 30.0 L138.25 30.8 140.5 30.8 Q140.5 29.6 139.55 28.85 138.6 28.1 137.0 28.1 135.45 28.1 134.55 28.85 133.6 29.6 133.6 30.7 133.6 32.65 136.6 33.3 L137.95 33.7 Q138.35 33.95 138.35 34.35 L138.0 35.0 137.05 35.25 135.9 34.95 Q135.5 34.6 135.5 34.0 L133.35 34.0 M124.45 32.5 Q124.45 34.5 125.55 35.7 126.65 36.85 128.45 36.85 130.3 36.85 131.4 35.7 132.45 34.5 132.45 32.55 L132.45 32.0 Q132.35 30.2 131.25 29.15 130.15 28.1 128.45 28.1 127.25 28.1 126.35 28.65 125.45 29.15 124.95 30.15 124.45 31.15 124.45 32.4 L124.45 32.5" fill="#813e97" fill-rule="evenodd" stroke="none"/>
      <path d="M88.0 31.65 L91.1 31.65 91.1 31.5 Q91.1 30.75 90.7 30.35 90.3 29.9 89.6 29.9 88.95 29.9 88.5 30.35 88.1 30.85 88.0 31.65 M85.65 32.7 L85.65 32.45 Q85.65 31.2 86.15 30.2 86.65 29.2 87.55 28.65 88.45 28.1 89.6 28.1 91.35 28.1 92.35 29.2 93.35 30.3 93.35 32.3 L93.35 33.2 87.95 33.2 Q88.05 34.05 88.6 34.55 89.15 35.05 90.0 35.05 91.3 35.05 92.05 34.1 L93.15 35.35 Q92.65 36.05 91.8 36.45 L89.85 36.85 Q88.0 36.85 86.85 35.7 85.65 34.6 85.65 32.7 M96.65 28.25 L96.7 29.25 Q97.4 28.1 98.6 28.1 L99.3 28.2 99.25 30.35 98.45 30.3 Q97.15 30.3 96.8 31.15 L96.8 36.7 94.5 36.7 94.5 28.25 96.65 28.25 M108.25 26.05 Q108.25 25.55 108.6 25.2 108.95 24.9 109.5 24.9 L110.45 25.2 Q110.8 25.55 110.8 26.05 L110.45 26.9 Q110.1 27.25 109.5 27.25 108.95 27.25 108.6 26.9 108.25 26.6 108.25 26.05 M99.5 28.25 L101.85 28.25 103.45 33.95 105.0 28.25 107.35 28.25 104.5 36.7 102.35 36.7 99.5 28.25 M75.9 33.1 L78.25 33.1 Q78.25 35.0 80.5 35.0 81.35 35.0 81.8 34.65 82.25 34.35 82.25 33.7 82.25 33.05 81.8 32.7 81.35 32.35 80.1 31.95 78.9 31.55 78.2 31.15 76.25 30.1 76.25 28.35 76.25 27.45 76.75 26.7 77.3 26.0 78.25 25.6 79.25 25.15 80.45 25.15 L82.6 25.6 Q83.55 26.05 84.1 26.85 84.6 27.65 84.6 28.7 L82.25 28.7 Q82.25 27.9 81.8 27.45 81.3 27.05 80.4 27.05 79.55 27.05 79.05 27.4 78.6 27.75 78.6 28.35 78.6 28.9 79.15 29.3 79.7 29.65 80.8 30.0 82.8 30.6 83.7 31.5 84.6 32.35 84.6 33.7 84.6 35.2 83.5 36.0 82.4 36.85 80.5 36.85 L78.1 36.4 Q77.0 35.9 76.45 35.05 75.9 34.2 75.9 33.1 M68.8 28.25 L68.85 29.25 Q69.55 28.1 70.75 28.1 L71.45 28.2 71.4 30.35 70.6 30.3 Q69.3 30.3 68.95 31.15 L68.95 36.7 66.65 36.7 66.65 28.25 68.8 28.25 M108.4 36.7 L108.4 28.25 110.65 28.25 110.65 36.7 108.4 36.7 M49.3 32.7 L49.3 32.45 Q49.3 31.2 49.8 30.2 50.3 29.2 51.2 28.65 52.1 28.1 53.25 28.1 55.0 28.1 56.0 29.2 57.0 30.3 57.0 32.3 L57.0 33.2 51.6 33.2 Q51.7 34.05 52.25 34.55 52.8 35.05 53.65 35.05 54.95 35.05 55.7 34.1 L56.8 35.35 55.45 36.45 53.5 36.85 Q51.65 36.85 50.5 35.7 49.3 34.6 49.3 32.7 M51.65 31.65 L54.75 31.65 54.75 31.5 Q54.75 30.75 54.35 30.35 53.95 29.9 53.25 29.9 52.6 29.9 52.15 30.35 51.75 30.85 51.65 31.65 M58.85 32.25 Q59.8 31.55 61.7 31.55 L62.75 31.55 62.75 31.05 62.45 30.1 Q62.15 29.75 61.5 29.75 60.95 29.75 60.6 30.05 60.3 30.3 60.3 30.8 L58.0 30.8 Q58.0 30.05 58.45 29.45 58.95 28.8 59.75 28.45 L61.6 28.1 Q63.2 28.1 64.1 28.9 65.0 29.65 65.0 31.1 L65.0 34.75 Q65.0 35.95 65.35 36.55 L65.35 36.7 63.05 36.7 62.85 35.95 Q62.0 36.85 60.7 36.85 59.45 36.85 58.65 36.15 57.85 35.4 57.85 34.35 57.85 33.0 58.85 32.25 M24.15 25.35 L26.5 30.45 28.85 25.35 31.4 25.35 27.7 32.6 27.7 36.7 25.3 36.7 25.3 32.6 21.55 25.35 24.15 25.35 M32.9 32.25 Q33.85 31.55 35.75 31.55 L36.8 31.55 36.8 31.05 36.5 30.1 Q36.2 29.75 35.55 29.75 35.0 29.75 34.65 30.05 34.35 30.3 34.35 30.8 L32.05 30.8 Q32.05 30.05 32.5 29.45 33.0 28.8 33.8 28.45 34.65 28.1 35.65 28.1 37.25 28.1 38.15 28.9 39.05 29.65 39.05 31.1 L39.05 34.75 Q39.05 35.95 39.4 36.55 L39.4 36.7 37.1 36.7 36.9 35.95 Q36.05 36.85 34.75 36.85 33.5 36.85 32.7 36.15 31.9 35.4 31.9 34.35 31.9 33.0 32.9 32.25 M40.7 39.95 L40.7 28.25 42.8 28.25 42.9 29.1 Q43.7 28.1 45.05 28.1 46.6 28.1 47.45 29.25 48.35 30.4 48.35 32.45 L48.35 32.55 Q48.35 34.5 47.45 35.7 46.55 36.85 45.05 36.85 43.75 36.85 43.0 35.95 L43.0 39.95 40.7 39.95 M43.0 34.2 Q43.4 35.05 44.45 35.05 46.05 35.05 46.05 32.4 46.05 31.2 45.65 30.55 45.25 29.95 44.45 29.95 43.35 29.95 43.0 30.75 L43.0 34.2 M34.45 34.85 L35.25 35.15 36.15 34.9 36.8 34.3 36.8 32.85 35.95 32.85 Q34.25 32.85 34.15 34.05 L34.15 34.15 Q34.15 34.6 34.45 34.85 M60.4 34.85 L61.2 35.15 62.1 34.9 62.75 34.3 62.75 32.85 61.9 32.85 Q60.2 32.85 60.1 34.05 L60.1 34.15 Q60.1 34.6 60.4 34.85 M157.75 36.05 Q157.45 36.35 157.05 36.35 L156.3 36.1 Q156.0 35.8 156.0 35.4 156.0 34.95 156.3 34.65 L157.85 33.1 148.3 33.1 147.6 32.8 Q147.3 32.5 147.3 32.1 147.3 31.7 147.6 31.4 147.9 31.1 148.3 31.1 L157.85 31.1 156.3 29.55 Q156.0 29.25 156.0 28.85 156.0 28.45 156.3 28.15 156.6 27.85 157.0 27.85 157.4 27.85 157.7 28.15 L160.85 31.3 160.95 31.4 161.25 32.1 161.25 32.3 161.2 32.4 161.0 32.8 157.75 36.05 M124.45 32.5 L124.45 32.4 Q124.45 31.15 124.95 30.15 125.45 29.15 126.35 28.65 127.25 28.1 128.45 28.1 130.15 28.1 131.25 29.15 132.35 30.2 132.45 32.0 L132.45 32.55 Q132.45 34.5 131.4 35.7 130.3 36.85 128.45 36.85 126.65 36.85 125.55 35.7 124.45 34.5 124.45 32.5 M133.35 34.0 L135.5 34.0 Q135.5 34.6 135.9 34.95 L137.05 35.25 138.0 35.0 138.35 34.35 Q138.35 33.95 137.95 33.7 L136.6 33.3 Q133.6 32.65 133.6 30.7 133.6 29.6 134.55 28.85 135.45 28.1 137.0 28.1 138.6 28.1 139.55 28.85 140.5 29.6 140.5 30.8 L138.25 30.8 137.95 30.0 Q137.65 29.7 136.95 29.7 136.4 29.7 136.1 29.95 135.8 30.2 135.8 30.6 135.8 31.0 136.15 31.2 L137.35 31.6 138.75 32.0 Q140.55 32.65 140.55 34.25 140.55 35.45 139.55 36.15 138.55 36.85 137.0 36.85 L135.1 36.5 133.8 35.45 Q133.35 34.8 133.35 34.0 M112.05 32.5 L112.05 32.35 Q112.05 30.4 113.1 29.25 114.15 28.1 115.95 28.1 117.55 28.1 118.5 29.0 119.45 29.9 119.45 31.4 L117.35 31.4 Q117.35 30.75 116.95 30.35 116.55 29.9 115.9 29.9 115.15 29.9 114.75 30.5 114.3 31.05 114.3 32.35 L114.3 32.6 Q114.3 33.9 114.7 34.45 115.1 35.05 115.95 35.05 116.55 35.05 116.95 34.7 117.35 34.35 117.35 33.8 L119.45 33.8 119.0 35.35 117.75 36.45 Q116.95 36.85 115.95 36.85 114.15 36.85 113.1 35.7 112.05 34.55 112.05 32.5 M120.65 26.05 Q120.65 25.55 121.0 25.2 121.35 24.9 121.9 24.9 122.5 24.9 122.85 25.2 123.2 25.55 123.2 26.05 L122.85 26.9 121.9 27.25 121.0 26.9 Q120.65 26.6 120.65 26.05 M120.8 36.7 L120.8 28.25 123.05 28.25 123.05 36.7 120.8 36.7 M127.2 34.4 Q127.65 35.05 128.45 35.05 129.3 35.05 129.75 34.4 130.2 33.8 130.2 32.4 130.2 31.2 129.75 30.55 129.3 29.9 128.45 29.9 127.65 29.9 127.2 30.55 126.7 31.2 126.7 32.55 126.7 33.75 127.2 34.4 M10.8 32.25 Q11.75 31.55 13.65 31.55 L14.7 31.55 14.7 31.05 14.4 30.1 Q14.1 29.75 13.45 29.75 12.9 29.75 12.55 30.05 12.25 30.3 12.25 30.8 L9.95 30.8 Q9.95 30.05 10.4 29.45 10.9 28.8 11.7 28.45 12.55 28.1 13.55 28.1 15.15 28.1 16.05 28.9 16.95 29.65 16.95 31.1 L16.95 34.75 Q16.95 35.95 17.3 36.55 L17.3 36.7 15.0 36.7 14.8 35.95 Q13.95 36.85 12.65 36.85 11.4 36.85 10.6 36.15 9.8 35.4 9.8 34.35 9.8 33.0 10.8 32.25 M2.7 28.25 L2.75 29.25 Q3.45 28.1 4.65 28.1 L5.35 28.2 5.3 30.35 4.5 30.3 Q3.2 30.3 2.85 31.15 L2.85 36.7 0.55 36.7 0.55 28.25 2.7 28.25 M-1.35 36.7 L-3.7 36.7 -3.7 25.35 -1.35 25.35 -1.35 36.7 M12.35 34.85 L13.15 35.15 14.05 34.9 14.7 34.3 14.7 32.85 13.85 32.85 Q12.15 32.85 12.05 34.05 L12.05 34.15 Q12.05 34.6 12.35 34.85" fill="#ffffff" fill-rule="evenodd" stroke="none"/>
      <path d="M199.7 -26.7 L197.1 -20.3 194.0 -20.3 196.0 -26.7 199.7 -26.7 M193.4 5.6 Q192.4 5.6 191.85 5.0 191.2 4.4 191.3 3.5 191.4 2.6 192.15 2.0 192.95 1.45 193.95 1.45 194.95 1.45 195.55 2.0 196.15 2.6 196.05 3.5 195.95 4.45 195.2 5.05 194.45 5.6 193.4 5.6 M199.45 5.6 Q198.45 5.6 197.9 5.0 197.25 4.4 197.35 3.5 197.45 2.6 198.2 2.0 199.0 1.45 200.0 1.45 201.0 1.45 201.6 2.0 202.2 2.6 202.1 3.5 202.0 4.45 201.25 5.05 200.5 5.6 199.45 5.6 M158.4 -24.7 Q155.55 -23.2 151.6 -23.2 147.2 -23.2 145.0 -25.6 142.7 -28.05 143.15 -32.3 143.65 -36.6 146.7 -39.3 149.75 -42.0 154.35 -42.0 157.25 -42.0 159.35 -41.2 L158.95 -37.35 Q156.95 -38.6 153.9 -38.6 151.35 -38.6 149.6 -36.9 147.8 -35.25 147.5 -32.5 147.2 -29.7 148.45 -28.15 149.75 -26.6 152.2 -26.6 153.65 -26.6 154.55 -27.05 L154.95 -30.6 151.35 -30.6 151.7 -33.85 159.4 -33.85 158.4 -24.7 M136.15 -30.7 L134.85 -36.8 134.75 -38.45 134.65 -38.45 134.15 -36.85 131.5 -30.7 136.15 -30.7 M142.05 -23.5 L137.55 -23.5 136.75 -27.55 130.25 -27.55 128.5 -23.5 124.1 -23.5 132.7 -41.7 137.55 -41.7 142.05 -23.5 M112.15 -23.5 L97.45 -23.5 97.7 -25.85 108.45 -38.35 99.8 -38.35 100.15 -41.7 114.1 -41.7 113.85 -39.4 103.35 -26.85 112.5 -26.85 112.15 -23.5 M117.6 -26.7 L115.0 -20.3 111.9 -20.3 113.9 -26.7 117.6 -26.7 M126.0 -12.9 L118.8 -1.15 118.1 5.3 114.0 5.3 114.7 -1.1 110.2 -12.9 114.9 -12.9 117.05 -6.1 117.35 -4.65 117.4 -4.65 117.95 -6.05 121.65 -12.9 126.0 -12.9 M152.0 5.3 L147.95 5.3 149.15 -5.6 149.75 -9.5 149.65 -9.5 148.75 -7.1 143.15 5.3 139.8 5.3 136.8 -6.95 136.55 -9.5 136.4 -9.5 136.05 -4.75 134.95 5.3 131.25 5.3 133.25 -12.9 139.25 -12.9 141.75 -2.1 142.15 0.5 142.25 0.5 143.2 -2.15 148.1 -12.9 154.0 -12.9 152.0 5.3 M194.65 -23.5 L190.15 -23.5 189.35 -27.55 182.85 -27.55 181.1 -23.5 176.7 -23.5 185.3 -41.7 190.15 -41.7 194.65 -23.5 M188.75 -30.7 L187.45 -36.8 187.35 -38.45 187.25 -38.45 186.75 -36.85 184.1 -30.7 188.75 -30.7 M176.5 -31.4 Q175.6 -23.2 168.0 -23.2 160.55 -23.2 161.45 -31.2 L162.6 -41.7 166.75 -41.7 165.6 -31.15 Q165.1 -26.7 168.55 -26.7 171.9 -26.7 172.4 -31.0 L173.55 -41.7 177.65 -41.7 176.5 -31.4 M168.85 -18.7 L164.45 -14.6 161.55 -14.6 165.3 -18.7 168.85 -18.7 M171.15 5.3 L166.65 5.3 165.85 1.25 159.35 1.25 157.6 5.3 153.2 5.3 161.8 -12.9 166.65 -12.9 171.15 5.3 M165.25 -1.9 L163.95 -8.0 163.85 -9.65 163.75 -9.65 163.25 -8.05 160.6 -1.9 165.25 -1.9 M171.7 4.6 L172.15 0.55 Q173.1 1.45 174.35 1.95 L176.9 2.4 178.3 2.25 179.35 1.85 179.95 1.3 180.2 0.55 Q180.3 0.0 180.05 -0.4 L179.25 -1.15 178.1 -1.85 176.6 -2.55 Q174.55 -3.4 173.65 -4.7 172.75 -6.0 172.95 -7.8 173.1 -9.2 173.8 -10.25 174.5 -11.25 175.55 -11.95 176.6 -12.6 177.9 -12.9 L180.7 -13.2 183.2 -13.05 185.15 -12.5 184.75 -8.7 183.8 -9.25 182.75 -9.65 181.65 -9.9 180.6 -10.0 179.25 -9.85 178.3 -9.5 177.6 -8.9 177.35 -8.15 Q177.3 -7.7 177.5 -7.3 L178.05 -6.65 179.1 -6.0 180.45 -5.35 182.3 -4.4 183.7 -3.25 184.5 -1.75 Q184.7 -0.9 184.55 0.2 184.4 1.7 183.75 2.75 183.0 3.8 181.95 4.4 180.9 5.05 179.55 5.35 L176.75 5.6 173.95 5.35 Q172.6 5.1 171.7 4.6 M187.35 5.6 Q186.35 5.6 185.8 5.0 185.15 4.4 185.25 3.5 185.35 2.6 186.1 2.0 186.9 1.45 187.9 1.45 188.9 1.45 189.5 2.0 190.1 2.6 190.0 3.5 189.9 4.45 189.15 5.05 188.4 5.6 187.35 5.6 M43.55 -23.5 L52.15 -41.7 57.0 -41.7 61.5 -23.5 57.0 -23.5 56.2 -27.55 49.7 -27.55 47.95 -23.5 43.55 -23.5 32.65 -23.5 34.65 -41.7 45.15 -41.7 44.8 -38.35 38.4 -38.35 37.95 -34.3 43.9 -34.3 43.55 -31.0 37.6 -31.0 37.1 -26.85 43.9 -26.85 43.55 -23.5 M55.6 -30.7 L54.3 -36.8 54.2 -38.45 54.1 -38.45 53.6 -36.85 50.95 -30.7 55.6 -30.7 M22.5 -29.75 L21.8 -23.5 17.7 -23.5 19.7 -41.7 26.1 -41.7 Q33.0 -41.7 32.35 -35.9 32.05 -33.15 29.9 -31.45 27.75 -29.75 24.45 -29.75 L22.5 -29.75 M34.25 -18.7 L29.85 -14.6 26.95 -14.6 30.7 -18.7 34.25 -18.7 M46.85 -9.55 L40.45 -9.55 39.95 -5.1 45.85 -5.1 45.5 -1.75 39.6 -1.75 38.8 5.3 34.7 5.3 36.7 -12.9 47.2 -12.9 46.85 -9.55 M32.75 5.3 L21.85 5.3 23.85 -12.9 34.35 -12.9 34.0 -9.55 27.6 -9.55 27.15 -5.5 33.1 -5.5 32.75 -2.2 26.8 -2.2 26.3 1.95 33.1 1.95 32.75 5.3 M54.85 5.6 Q50.9 5.6 48.75 3.1 46.6 0.55 47.05 -3.55 47.5 -7.9 50.3 -10.55 53.1 -13.2 57.2 -13.2 61.1 -13.2 63.25 -10.65 65.4 -8.1 64.9 -3.95 64.45 0.35 61.65 3.0 58.85 5.6 54.85 5.6 M56.7 -9.7 Q54.55 -9.7 53.1 -8.05 51.65 -6.45 51.35 -3.8 51.05 -1.05 52.2 0.5 53.25 2.1 55.3 2.1 57.4 2.1 58.8 0.55 60.25 -1.0 60.55 -3.7 60.85 -6.55 59.85 -8.1 58.8 -9.7 56.7 -9.7 M82.25 5.3 L78.1 5.3 71.85 -6.15 71.15 -7.65 71.1 -7.65 70.85 -4.7 69.75 5.3 65.9 5.3 67.9 -12.9 72.3 -12.9 78.3 -1.8 79.05 -0.35 79.1 -0.35 79.3 -2.85 80.4 -12.9 84.25 -12.9 82.25 5.3 M96.9 -31.4 Q96.0 -23.2 88.4 -23.2 80.95 -23.2 81.85 -31.2 L83.0 -41.7 87.15 -41.7 86.0 -31.15 Q85.5 -26.7 88.95 -26.7 92.3 -26.7 92.8 -31.0 L93.95 -41.7 98.05 -41.7 96.9 -31.4 M79.75 -23.5 L68.95 -23.5 70.95 -41.7 75.05 -41.7 73.4 -26.85 80.1 -26.85 79.75 -23.5 M93.1 5.6 Q89.15 5.6 87.0 3.1 84.85 0.55 85.3 -3.55 85.75 -7.9 88.55 -10.55 91.35 -13.2 95.45 -13.2 99.35 -13.2 101.5 -10.65 103.65 -8.1 103.15 -3.95 102.7 0.35 99.9 3.0 97.1 5.6 93.1 5.6 M94.95 -9.7 Q92.8 -9.7 91.35 -8.05 89.9 -6.45 89.6 -3.8 89.3 -1.05 90.45 0.5 91.5 2.1 93.55 2.1 95.65 2.1 97.05 0.55 98.5 -1.0 98.8 -3.7 99.1 -6.55 98.1 -8.1 97.05 -9.7 94.95 -9.7 M-3.15 -9.55 L-8.35 -9.55 -10.0 5.3 -14.1 5.3 -12.45 -9.55 -17.6 -9.55 -17.25 -12.9 -2.8 -12.9 -3.15 -9.55 M23.45 -38.55 L22.85 -32.9 24.45 -32.9 Q27.7 -32.9 28.0 -35.75 28.3 -38.55 25.05 -38.55 L23.45 -38.55 M10.5 -30.7 L9.2 -36.8 9.1 -38.45 9.0 -38.45 8.5 -36.85 5.85 -30.7 10.5 -30.7 M16.4 -23.5 L11.9 -23.5 11.1 -27.55 4.6 -27.55 2.85 -23.5 -1.55 -23.5 7.05 -41.7 11.9 -41.7 16.4 -23.5 M1.3 -41.7 L-5.9 -29.95 -6.6 -23.5 -10.7 -23.5 -10.0 -29.9 -14.5 -41.7 -9.8 -41.7 -7.65 -34.9 -7.35 -33.45 -7.3 -33.45 -6.75 -34.85 -3.05 -41.7 1.3 -41.7 M7.6 5.3 L-3.3 5.3 -1.3 -12.9 9.2 -12.9 8.85 -9.55 2.45 -9.55 2.0 -5.5 7.95 -5.5 7.6 -2.2 1.65 -2.2 1.15 1.95 7.95 1.95 7.6 5.3 M20.35 5.3 L9.55 5.3 11.55 -12.9 15.65 -12.9 14.0 1.95 20.7 1.95 20.35 5.3" fill="#652f7a" fill-rule="evenodd" stroke="none"/>
      <path d="M-44.7 26.7 Q-44.7 35.4 -50.85 41.55 -57.0 47.7 -65.7 47.7 -74.35 47.7 -80.55 41.55 -86.7 35.4 -86.7 26.7 -86.7 18.05 -80.55 11.85 -74.35 5.7 -65.7 5.7 -57.0 5.7 -50.85 11.85 -44.7 18.05 -44.7 26.7" fill="#ffffff" fill-rule="evenodd" stroke="none"/>
      <path d="M-166.1 -25.8 Q-166.1 -17.1 -172.25 -10.95 -178.4 -4.8 -187.1 -4.8 -195.75 -4.8 -201.95 -10.95 -208.1 -17.1 -208.1 -25.8 -208.1 -34.45 -201.95 -40.65 -195.75 -46.8 -187.1 -46.8 -178.4 -46.8 -172.25 -40.65 -166.1 -34.45 -166.1 -25.8" fill="#ffffff" fill-rule="evenodd" stroke="none"/>
      <path d="M-166.1 26.7 Q-166.1 35.4 -172.25 41.55 -178.4 47.7 -187.1 47.7 -195.75 47.7 -201.95 41.55 -208.1 35.4 -208.1 26.7 -208.1 18.05 -201.95 11.85 -195.75 5.7 -187.1 5.7 -178.4 5.7 -172.25 11.85 -166.1 18.05 -166.1 26.7" fill="#ffffff" fill-rule="evenodd" stroke="none"/>
      <path d="M-106.2 -25.8 Q-106.2 -17.1 -112.35 -10.95 -118.5 -4.8 -127.2 -4.8 -135.85 -4.8 -142.05 -10.95 -148.2 -17.1 -148.2 -25.8 -148.2 -34.45 -142.05 -40.65 -135.85 -46.8 -127.2 -46.8 -118.5 -46.8 -112.35 -40.65 -106.2 -34.45 -106.2 -25.8" fill="#ffffff" fill-rule="evenodd" stroke="none"/>
      <path d="M-106.2 26.7 Q-106.2 35.4 -112.35 41.55 -118.5 47.7 -127.2 47.7 -135.85 47.7 -142.05 41.55 -148.2 35.4 -148.2 26.7 -148.2 18.05 -142.05 11.85 -135.85 5.7 -127.2 5.7 -118.5 5.7 -112.35 11.85 -106.2 18.05 -106.2 26.7" fill="#ffffff" fill-rule="evenodd" stroke="none"/>
      <path d="M-44.7 -25.8 Q-44.7 -17.1 -50.85 -10.95 -57.0 -4.8 -65.7 -4.8 -74.35 -4.8 -80.55 -10.95 -86.7 -17.1 -86.7 -25.8 -86.7 -34.45 -80.55 -40.65 -74.35 -46.8 -65.7 -46.8 -57.0 -46.8 -50.85 -40.65 -44.7 -34.45 -44.7 -25.8" fill="#ffffff" fill-rule="evenodd" stroke="none"/>
      <path d="M-120.6 -34.2 L-118.4 -33.95 Q-117.3 -33.3 -116.6 -31.4 -115.2 -27.55 -115.9 -22.55 -116.1 -21.05 -117.05 -20.6 L-117.75 -20.55 -118.35 -20.9 -118.7 -21.9 -118.65 -23.0 Q-118.4 -24.7 -118.45 -26.4 -118.5 -27.35 -119.1 -27.75 L-119.7 -27.95 -120.35 -27.7 Q-121.05 -27.25 -121.7 -26.0 L-122.75 -23.4 -123.6 -20.75 Q-124.1 -19.3 -125.15 -18.65 -126.3 -17.8 -128.2 -17.9 -129.15 -17.95 -130.05 -18.5 L-131.45 -19.9 -132.7 -22.1 -133.95 -24.25 -134.45 -24.85 Q-134.8 -25.2 -135.2 -25.15 -135.6 -25.1 -135.8 -24.7 L-136.0 -23.9 -135.5 -21.35 -134.8 -18.8 Q-134.7 -18.35 -134.85 -17.95 L-135.35 -17.35 -136.35 -17.35 -136.9 -17.8 -137.3 -18.45 Q-138.35 -21.0 -138.75 -24.05 L-138.75 -25.5 -138.6 -26.95 -138.0 -29.3 Q-137.5 -30.6 -136.7 -31.4 -135.95 -32.15 -134.8 -32.3 -133.65 -32.5 -132.75 -31.9 -131.95 -31.35 -131.25 -30.4 L-130.05 -28.6 -129.15 -27.25 Q-128.55 -26.5 -127.9 -26.2 L-126.75 -26.1 Q-126.1 -26.2 -125.7 -26.65 L-125.25 -27.35 -124.95 -28.1 -123.6 -31.25 Q-123.2 -32.35 -122.45 -33.1 -121.6 -34.0 -120.6 -34.2" fill="#00abe1" fill-rule="evenodd" stroke="none"/>
      <path d="M-180.55 -18.45 L-181.55 -19.3 -181.65 -19.4 -181.75 -19.5 -181.8 -19.55 -181.9 -19.8 -181.75 -20.05 -181.6 -20.2 -181.55 -20.25 -181.35 -20.55 -181.25 -20.6 -180.65 -21.4 Q-179.75 -22.7 -179.4 -24.1 L-179.3 -24.7 -179.25 -25.3 -179.25 -25.7 -179.3 -26.75 -179.55 -27.9 -180.1 -29.15 -180.25 -29.4 -180.95 -30.35 -181.4 -30.85 -181.7 -31.25 -181.7 -31.55 -181.4 -31.9 -180.8 -32.5 -180.3 -32.95 -180.05 -33.15 -179.85 -33.25 -179.65 -33.35 -179.6 -33.35 -179.2 -33.2 -179.15 -33.15 -178.05 -32.15 -177.95 -32.0 Q-176.9 -30.8 -176.35 -29.2 L-176.3 -29.1 -175.9 -27.5 -175.8 -26.65 -175.8 -26.6 -175.8 -24.6 -175.9 -23.85 -176.15 -22.7 -176.2 -22.65 -176.8 -21.1 -176.85 -21.05 -177.0 -20.7 Q-177.85 -19.15 -178.95 -18.3 L-179.2 -18.1 -179.65 -17.9 -179.75 -17.9 -179.8 -17.95 -180.55 -18.45" fill="#ff3d00" fill-rule="evenodd" stroke="none"/>
      <path d="M-192.7 -17.5 Q-194.1 -17.8 -195.15 -18.45 -196.25 -19.1 -196.95 -20.05 -197.75 -21.15 -198.1 -22.55 L-198.35 -23.85 -198.45 -26.0 -198.35 -27.2 -198.35 -27.45 Q-198.15 -29.2 -197.45 -30.55 -196.6 -32.2 -195.1 -33.15 L-194.6 -33.4 -193.95 -33.75 -193.8 -33.8 -192.75 -34.1 -190.85 -34.3 -189.7 -34.25 -187.8 -33.8 -186.55 -33.15 -185.85 -32.65 -185.55 -32.4 -185.1 -31.95 -184.85 -31.6 -184.8 -31.5 -184.75 -31.45 -184.5 -31.1 -184.1 -30.4 -184.0 -30.15 Q-183.55 -29.25 -183.35 -28.15 L-183.2 -26.3 -183.2 -25.45 -183.2 -24.95 -183.25 -24.85 -183.45 -24.65 -183.6 -24.5 -188.0 -24.45 -188.85 -24.45 -194.05 -24.4 -194.1 -24.05 -194.05 -23.65 -193.9 -23.1 -193.65 -22.5 -193.15 -21.9 -192.25 -21.25 -191.9 -21.1 -190.2 -20.95 -188.55 -21.1 -187.2 -21.8 Q-186.9 -22.0 -186.65 -22.15 L-186.35 -22.25 -186.25 -22.25 -186.25 -22.2 -185.4 -21.5 -184.05 -20.15 -184.05 -20.1 -184.0 -20.0 -184.0 -19.9 -184.1 -19.75 -184.45 -19.4 -186.25 -18.3 Q-187.3 -17.85 -188.25 -17.55 L-189.8 -17.35 -191.9 -17.35 -192.7 -17.5 M-187.55 -27.6 L-187.6 -27.8 -187.65 -28.2 Q-187.9 -29.2 -188.5 -29.85 L-188.6 -29.95 -189.45 -30.55 -190.05 -30.7 -190.85 -30.75 -191.65 -30.7 -191.8 -30.7 -192.25 -30.5 Q-192.7 -30.3 -193.15 -29.9 L-193.65 -29.25 -193.75 -29.0 -194.0 -28.3 -194.1 -27.65 -194.1 -27.4 -190.85 -27.4 -188.0 -27.45 -187.65 -27.5 -187.55 -27.6" fill="#002efe" fill-rule="evenodd" stroke="none"/>
      <path d="M-52.0 -25.8 Q-52.0 -21.65 -56.05 -18.8 -60.05 -15.85 -65.7 -15.85 -71.4 -15.85 -75.45 -18.8 -79.4 -21.65 -79.4 -25.8 -79.4 -29.95 -75.45 -32.85 -71.4 -35.75 -65.7 -35.75 -60.05 -35.75 -56.05 -32.85 -52.0 -29.95 -52.0 -25.8" fill="#304e6b" fill-rule="evenodd" stroke="none"/>
      <path d="M-72.85 -27.15 L-55.65 -27.15 -78.5 -22.1 -77.0 -27.15 -72.85 -27.15 -71.75 -31.65 -56.95 -31.65 -72.85 -27.15 M-56.45 -22.6 L-74.95 -18.45 -73.8 -23.1 -56.45 -22.6" fill="#deb95c" fill-rule="evenodd" stroke="none"/>
      <path d="M-133.65 26.25 L-134.9 26.25 Q-135.1 25.45 -135.65 24.85 L-134.8 24.0 -134.05 25.0 -133.65 26.25" fill="url(#gradient1)" fill-rule="evenodd" stroke="none"/>
      <path d="M-137.65 24.05 L-137.7 24.05 -137.7 22.8 -137.65 22.8 -136.05 23.15 Q-135.3 23.45 -134.7 24.05 L-135.6 24.95 Q-136.0 24.5 -136.55 24.3 L-137.65 24.05" fill="url(#gradient2)" fill-rule="evenodd" stroke="none"/>
      <path d="M-137.65 24.05 L-138.75 24.3 -139.7 24.95 -140.6 24.05 Q-140.0 23.45 -139.25 23.15 -138.5 22.8 -137.65 22.8 L-137.65 24.05" fill="url(#gradient3)" fill-rule="evenodd" stroke="none"/>
      <path d="M-140.55 26.95 L-140.55 27.0 -141.8 27.0 -141.8 26.95 -141.5 25.35 Q-141.15 24.6 -140.6 24.0 L-139.7 24.9 -140.35 25.85 -140.55 26.95" fill="url(#gradient4)" fill-rule="evenodd" stroke="none"/>
      <path d="M-140.55 26.85 L-140.35 27.95 -139.7 28.9 -140.55 29.8 -141.45 28.45 -141.8 26.85 -140.55 26.85" fill="url(#gradient5)" fill-rule="evenodd" stroke="none"/>
      <path d="M-137.65 29.75 L-137.65 30.95 -137.7 30.95 -139.25 30.65 -140.6 29.75 -139.7 28.85 -138.75 29.5 -137.65 29.75" fill="url(#gradient6)" fill-rule="evenodd" stroke="none"/>
      <path d="M-135.35 28.6 L-134.4 29.35 -135.85 30.55 -137.7 30.95 -137.7 29.75 -136.4 29.45 -135.35 28.6" fill="url(#gradient7)" fill-rule="evenodd" stroke="none"/>
      <path d="M-115.8 26.25 L-117.05 26.25 Q-117.25 25.45 -117.85 24.85 L-117.0 24.0 -116.2 25.0 -115.8 26.25" fill="url(#gradient8)" fill-rule="evenodd" stroke="none"/>
      <path d="M-119.85 24.05 L-119.85 22.8 -118.25 23.15 Q-117.5 23.45 -116.9 24.05 L-117.8 24.95 Q-118.2 24.5 -118.75 24.3 L-119.85 24.05" fill="url(#gradient9)" fill-rule="evenodd" stroke="none"/>
      <path d="M-119.85 24.05 L-120.95 24.3 -121.9 24.95 -122.75 24.05 Q-122.2 23.45 -121.4 23.15 -120.65 22.8 -119.85 22.8 L-119.85 24.05" fill="url(#gradient10)" fill-rule="evenodd" stroke="none"/>
      <path d="M-122.7 26.95 L-123.95 26.95 -123.95 26.9 -123.65 25.35 -122.75 24.0 -121.85 24.9 -122.5 25.85 -122.7 26.95" fill="url(#gradient11)" fill-rule="evenodd" stroke="none"/>
      <path d="M-122.7 26.85 L-122.5 27.95 -121.85 28.9 -122.7 29.8 -123.6 28.45 -123.95 26.85 -122.7 26.85" fill="url(#gradient12)" fill-rule="evenodd" stroke="none"/>
      <path d="M-119.85 29.75 L-119.8 29.75 -119.8 30.95 -119.85 30.95 -121.4 30.65 -122.75 29.75 -121.9 28.85 -120.95 29.5 -119.85 29.75" fill="url(#gradient13)" fill-rule="evenodd" stroke="none"/>
      <path d="M-117.6 28.6 L-116.6 29.35 -118.05 30.55 -119.9 30.95 -119.9 29.75 -118.6 29.45 -117.6 28.6" fill="url(#gradient14)" fill-rule="evenodd" stroke="none"/>
      <path d="M-114.6 24.55 L-113.35 24.55 -113.35 28.25 -114.6 28.25 -114.6 24.55" fill="url(#gradient15)" fill-rule="evenodd" stroke="none"/>
      <path d="M-113.35 28.2 L-113.05 29.2 -112.2 29.95 -112.9 30.95 -114.15 29.8 Q-114.55 29.15 -114.55 28.2 L-113.35 28.2" fill="url(#gradient16)" fill-rule="evenodd" stroke="none"/>
      <path d="M-128.45 22.85 L-128.35 22.8 -128.35 24.05 -128.45 24.05 Q-129.6 24.05 -130.4 24.9 -131.05 25.6 -131.2 26.45 L-131.2 23.95 -129.95 23.1 -128.45 22.85" fill="url(#gradient17)" fill-rule="evenodd" stroke="none"/>
      <path d="M-125.05 26.65 L-126.3 26.65 -126.3 26.25 Q-126.3 25.35 -126.95 24.7 -127.55 24.05 -128.45 24.05 L-128.45 22.8 Q-127.05 22.8 -126.05 23.8 -125.05 24.8 -125.05 26.2 L-125.05 26.65" fill="url(#gradient18)" fill-rule="evenodd" stroke="none"/>
      <path d="M-132.4 23.15 L-131.2 23.15 -131.2 27.45 -132.4 27.45 -132.4 23.15" fill="#bcbcb6" fill-rule="evenodd" stroke="none"/>
      <path d="M-114.6 20.35 L-113.35 20.35 -113.35 24.65 -114.6 24.65 -114.6 20.35" fill="#bcbcb6" fill-rule="evenodd" stroke="none"/>
      <path d="M-126.3 26.5 L-125.05 26.5 -125.05 30.85 -126.3 30.85 -126.3 26.5" fill="#bcbcb6" fill-rule="evenodd" stroke="none"/>
      <path d="M-137.9 26.2 L-133.6 26.2 -133.6 27.45 -137.9 27.45 -137.9 26.2" fill="#bcbcb6" fill-rule="evenodd" stroke="none"/>
      <path d="M-120.15 26.2 L-115.8 26.2 -115.8 27.45 -120.15 27.45 -120.15 26.2" fill="#bcbcb6" fill-rule="evenodd" stroke="none"/>
      <path d="M-172.1 30.2 L-172.1 31.4 Q-175.05 33.45 -179.4 33.15 L-183.1 32.6 -186.75 31.65 -190.3 31.05 -192.2 30.95 -194.05 31.15 -196.8 32.0 -199.4 33.2 -199.45 32.05 Q-197.05 30.85 -194.65 30.5 L-192.8 30.35 -190.9 30.5 -187.05 31.2 -184.45 31.85 -181.85 32.4 -178.55 32.65 Q-175.35 32.4 -172.1 30.2" fill="#97bddd" fill-rule="evenodd" stroke="none"/>
      <path d="M-182.9 23.25 L-182.9 23.75 -182.2 23.25 Q-181.8 23.1 -181.3 23.25 L-180.5 24.0 -180.3 25.1 -180.5 26.15 -181.3 26.9 -182.2 26.9 -182.85 26.4 -182.85 28.3 -183.9 28.3 -183.9 23.65 -183.95 23.65 -183.95 23.25 -182.9 23.25 M-185.55 26.9 L-185.6 26.4 -186.05 26.85 -186.35 27.0 -186.7 27.05 Q-187.2 27.05 -187.5 26.75 L-187.9 26.0 -187.85 25.4 -187.5 24.95 Q-187.25 24.75 -186.8 24.65 L-185.95 24.55 -185.7 24.55 Q-185.6 23.85 -186.05 23.75 L-186.5 23.85 -186.7 24.3 -187.75 24.3 -187.55 23.6 Q-187.35 23.35 -186.95 23.25 L-186.0 23.15 -185.75 23.2 -185.5 23.25 -185.4 23.3 -185.3 23.35 Q-184.8 23.6 -184.75 24.05 L-184.65 25.0 -184.65 25.95 -184.6 26.9 -185.55 26.9 M-185.7 25.15 L-186.3 25.2 -186.8 25.55 -186.85 25.65 -186.85 25.75 -186.85 25.95 -186.8 26.0 -186.8 26.05 -186.75 26.15 -186.65 26.2 -186.55 26.25 -186.35 26.3 Q-186.05 26.3 -185.95 26.1 L-185.7 25.65 -185.7 25.3 -185.7 25.15 M-181.35 25.05 Q-181.35 24.6 -181.5 24.3 -181.7 23.9 -182.1 23.9 -182.5 23.9 -182.75 24.3 L-182.9 25.05 -182.75 25.85 Q-182.5 26.25 -182.1 26.25 L-181.5 25.85 Q-181.35 25.55 -181.35 25.05 M-189.5 26.9 L-189.55 26.4 -190.25 26.95 -191.15 26.9 -191.9 26.15 -192.1 25.1 Q-192.15 24.4 -191.8 23.85 L-191.7 23.65 -191.55 23.5 -191.15 23.25 Q-190.7 23.1 -190.25 23.25 L-189.55 23.75 -189.55 21.65 -188.5 21.65 -188.5 26.6 -188.45 26.9 -189.5 26.9 M-191.05 25.1 L-190.9 25.85 -190.3 26.3 Q-189.9 26.25 -189.7 25.85 -189.5 25.55 -189.55 25.1 -189.5 24.65 -189.7 24.3 -189.9 23.9 -190.3 23.9 -190.7 23.9 -190.9 24.3 L-191.05 25.1 M-192.65 25.75 Q-192.7 26.65 -193.65 26.9 L-195.25 26.7 -195.65 26.3 -195.85 25.75 -195.9 24.9 -195.75 24.1 Q-195.5 23.5 -194.85 23.3 L-193.65 23.25 Q-193.0 23.4 -192.7 24.05 -192.5 24.55 -192.55 25.3 L-194.9 25.3 Q-194.9 26.3 -194.25 26.3 L-193.8 26.15 -193.6 25.75 -192.65 25.75 M-174.75 27.85 L-174.75 29.05 Q-177.7 31.1 -182.05 30.8 L-185.75 30.25 -189.4 29.35 -192.95 28.7 -194.85 28.6 -196.7 28.8 Q-199.3 29.35 -202.1 30.85 L-202.1 29.7 -199.75 28.75 -197.35 28.15 -195.45 28.0 -193.55 28.15 -191.65 28.45 -189.7 28.85 -187.1 29.5 -184.5 30.05 -181.2 30.3 Q-178.0 30.05 -174.75 27.85 M-177.5 26.9 L-177.55 26.4 -178.0 26.85 -178.35 27.0 -178.65 27.05 -179.5 26.75 -179.85 26.0 -179.8 25.4 -179.45 24.95 Q-179.2 24.75 -178.75 24.65 L-177.65 24.55 -177.7 24.1 -178.0 23.75 -178.45 23.85 -178.65 24.3 -179.7 24.3 -179.5 23.6 Q-179.3 23.35 -178.9 23.25 L-178.05 23.15 -177.25 23.35 -176.9 23.65 -176.7 24.05 -176.6 25.0 -176.65 25.95 -176.6 26.9 -177.5 26.9 M-174.85 26.9 L-175.9 26.9 -175.9 21.65 -174.85 21.65 -174.85 26.9 M-177.65 25.15 L-178.4 25.25 -178.6 25.4 -178.75 25.55 -178.85 25.75 -178.8 25.95 -178.8 26.0 -178.75 26.05 -178.75 26.1 -178.65 26.2 -178.25 26.3 -177.9 26.15 Q-177.6 25.85 -177.65 25.15 M-199.4 25.8 L-198.4 25.8 -198.35 26.1 -198.1 26.25 -197.9 26.3 -197.7 26.3 -197.55 26.25 -197.45 26.2 Q-197.1 25.8 -197.6 25.55 L-198.45 25.25 -199.3 24.55 Q-199.45 23.8 -198.8 23.4 L-197.35 23.2 Q-196.4 23.4 -196.45 24.2 L-197.35 24.2 Q-197.4 23.85 -197.8 23.8 L-198.35 24.0 -198.4 24.2 -198.35 24.3 -198.25 24.35 -197.7 24.6 -196.9 24.8 Q-196.6 24.95 -196.45 25.15 L-196.25 25.65 -196.4 26.25 -196.85 26.7 Q-197.15 26.95 -197.7 27.0 L-198.6 26.9 -199.2 26.5 -199.4 25.8 M-194.85 24.65 L-193.6 24.65 -193.75 24.1 Q-193.9 23.85 -194.25 23.85 -194.55 23.85 -194.7 24.1 L-194.85 24.65" fill="#0069b4" fill-rule="evenodd" stroke="none"/>
      <path d="M-173.5 29.0 L-173.5 30.2 Q-176.45 32.25 -180.8 31.95 L-184.5 31.4 -188.15 30.5 -191.7 29.85 -193.6 29.75 -195.45 30.0 Q-196.8 30.25 -198.2 30.8 L-200.85 32.05 -200.85 30.9 Q-198.5 29.7 -196.1 29.35 L-194.2 29.2 -192.3 29.35 -190.35 29.65 -188.45 30.05 -185.85 30.65 -183.25 31.25 -180.0 31.45 Q-178.3 31.35 -176.6 30.7 -175.0 30.05 -173.5 29.0" fill="#0095d4" fill-rule="evenodd" stroke="none"/>
      <path d="M-62.35 35.65 L-62.35 32.95 -62.55 32.9 -62.9 32.85 -63.85 33.25 Q-64.25 33.65 -64.25 34.3 -64.25 34.95 -63.9 35.3 L-62.85 35.75 -62.35 35.65 M-57.9 35.65 L-57.9 32.95 -58.45 32.85 Q-59.05 32.85 -59.4 33.25 -59.8 33.65 -59.8 34.3 -59.8 34.95 -59.45 35.3 L-58.4 35.75 -58.1 35.7 -57.9 35.65 M-53.6 35.6 L-53.6 34.45 -54.35 34.5 Q-55.25 34.5 -55.25 35.1 L-55.05 35.6 -54.55 35.8 -53.85 35.7 -53.6 35.6 M-71.1 35.6 L-71.1 34.45 -71.8 34.5 -72.5 34.65 -72.7 35.1 -72.55 35.6 -72.05 35.8 -71.35 35.7 -71.1 35.6 M-70.25 36.15 L-72.2 36.5 -73.05 36.25 -73.55 35.65 -73.65 35.2 Q-73.65 34.55 -73.2 34.2 -72.75 33.85 -71.9 33.8 L-71.15 33.75 -71.15 33.65 Q-71.15 33.2 -71.4 33.0 L-71.95 32.85 -72.6 32.95 -73.05 33.2 -73.35 32.6 -72.6 32.2 -71.8 32.1 Q-70.2 32.1 -70.2 33.6 L-70.2 35.15 -70.25 36.15 M-74.2 36.05 L-74.25 36.05 Q-75.05 36.55 -75.95 36.55 -77.2 36.55 -77.95 35.75 -78.7 35.0 -78.7 33.75 -78.7 32.5 -77.85 31.65 -77.05 30.85 -75.8 30.85 L-75.0 30.9 -74.35 31.15 -74.35 32.1 -74.4 32.05 Q-74.75 31.85 -75.05 31.75 L-75.75 31.65 Q-76.7 31.65 -77.2 32.3 -77.65 32.85 -77.65 33.65 -77.65 34.6 -77.15 35.15 -76.65 35.7 -75.85 35.7 L-74.55 35.35 -74.5 35.3 -74.2 36.05 M-52.75 36.15 L-54.75 36.5 -55.55 36.25 -56.05 35.65 -56.15 35.2 Q-56.15 34.55 -55.7 34.2 -55.25 33.85 -54.45 33.8 L-53.65 33.75 -53.65 33.65 Q-53.65 33.2 -53.9 33.0 L-54.5 32.85 Q-55.05 32.85 -55.55 33.2 L-55.9 32.6 -55.1 32.2 -54.3 32.1 Q-52.7 32.1 -52.7 33.6 L-52.7 35.15 -52.75 36.15 M-57.0 36.15 L-57.6 36.4 -58.5 36.5 Q-59.45 36.5 -60.05 35.95 -60.75 35.4 -60.75 34.35 -60.75 33.35 -60.1 32.75 -59.45 32.1 -58.45 32.1 L-57.9 32.15 -57.9 30.1 -57.0 30.1 -57.0 36.15 M-66.0 32.2 L-66.0 36.4 -66.9 36.4 -66.9 32.2 -66.0 32.2 M-61.45 36.15 L-62.05 36.4 -62.95 36.5 Q-63.9 36.5 -64.5 35.95 -65.15 35.4 -65.15 34.35 -65.15 33.4 -64.55 32.75 -63.9 32.1 -62.9 32.1 L-62.35 32.15 -62.35 30.1 -61.45 30.1 -61.45 36.15 M-67.7 36.3 L-68.45 36.5 -69.1 36.25 -69.3 35.6 -69.3 30.1 -68.4 30.1 -68.4 35.2 -68.35 35.55 -68.1 35.65 -68.0 35.65 -67.85 35.65 -67.7 36.3 M-66.45 30.35 Q-66.2 30.35 -66.05 30.5 L-65.85 30.9 -66.05 31.3 Q-66.2 31.5 -66.45 31.5 -66.7 31.5 -66.85 31.3 L-67.05 30.9 -66.85 30.5 Q-66.7 30.35 -66.45 30.35 M-71.1 31.25 L-71.75 31.5 -72.35 31.55 -72.15 31.0 -71.75 30.5 -70.75 30.4 Q-70.7 30.95 -71.1 31.25" fill="#777c80" fill-rule="evenodd" stroke="none"/>
      <path d="M-62.3 19.7 L-62.2 19.7 -60.4 20.0 -58.9 20.6 -60.35 21.9 Q-61.35 22.6 -62.15 22.75 -63.65 23.0 -64.8 21.65 L-64.4 20.85 -65.6 20.9 -65.9 20.15 -66.45 20.7 Q-68.1 20.1 -68.35 18.55 L-68.2 16.6 Q-67.95 15.5 -67.5 14.75 -66.9 15.3 -66.25 16.2 L-65.55 17.45 -65.5 17.35 Q-64.95 16.55 -63.65 15.8 -62.5 15.1 -61.5 14.85 -61.4 15.9 -61.6 17.25 -61.85 18.75 -62.35 19.55 L-62.4 19.6 -62.6 19.65 -62.65 19.65 Q-63.65 19.85 -64.25 20.65 L-64.35 20.8 -64.25 20.8 -64.05 20.75 -63.5 20.55 -62.35 19.7 -62.3 19.7 M-71.9 18.25 L-71.55 18.2 -70.15 18.35 Q-69.4 18.55 -68.95 18.85 -67.95 19.5 -68.05 20.9 L-70.25 20.8 -71.3 19.6 -71.9 18.25 M-65.4 17.6 L-65.45 17.5 -65.5 17.5 -65.5 17.55 Q-66.15 18.65 -65.85 19.95 L-65.8 19.95 -65.4 19.25 -65.3 18.65 -65.3 17.4 -65.4 17.6 M-64.7 23.25 L-63.55 22.95 Q-63.0 22.95 -62.5 23.3 -61.95 23.6 -61.45 24.45 L-60.75 25.8 -62.25 25.75 -63.75 25.3 Q-64.75 24.65 -64.7 23.25 M-69.15 25.2 Q-68.8 24.65 -68.1 24.65 L-68.0 24.65 Q-67.65 25.35 -68.05 25.9 L-68.7 26.5 -69.45 26.85 -69.4 26.0 -69.15 25.2 M-70.6 21.9 L-70.35 21.85 Q-69.65 21.85 -69.15 22.5 -69.5 23.4 -70.3 23.55 L-71.4 23.45 -72.4 23.05 -71.6 22.35 Q-71.05 21.95 -70.6 21.9 M-66.55 26.45 Q-66.7 25.6 -66.05 25.0 -65.15 25.25 -64.95 26.1 L-65.0 27.15 -65.35 28.15 -66.05 27.4 -66.55 26.45" fill="#00bce9" fill-rule="evenodd" stroke="none"/>
      <path d="M-62.35 19.7 L-63.5 20.55 -64.05 20.75 -64.25 20.8 -64.35 20.8 -64.0 20.4 Q-63.45 19.8 -62.6 19.65 L-62.4 19.6 -62.25 19.6 -62.3 19.7 -62.35 19.7 M-65.3 18.65 L-65.35 18.8 -65.4 18.95 -65.65 19.5 -65.7 19.7 -65.75 19.75 Q-66.1 18.65 -65.5 17.75 L-65.45 17.75 -65.4 17.6 -65.3 17.4 -65.3 18.65" fill="#086ab3" fill-rule="evenodd" stroke="none"/>
      <path d="M-62.3 19.7 L-62.35 19.7 -62.3 19.7 M-64.35 20.8 L-64.25 20.65 Q-63.65 19.85 -62.65 19.65 L-62.6 19.65 Q-63.45 19.8 -64.0 20.4 L-64.35 20.8 M-65.3 18.65 L-65.4 19.25 -65.8 19.95 -65.85 19.95 Q-66.15 18.65 -65.5 17.55 L-65.5 17.5 -65.45 17.5 -65.4 17.6 -65.45 17.75 -65.5 17.75 Q-66.1 18.65 -65.75 19.75 L-65.7 19.7 -65.65 19.5 -65.4 18.95 -65.35 18.8 -65.3 18.65" fill="#06538d" fill-rule="evenodd" stroke="none"/>
    </g>
    <linearGradient gradientTransform="matrix(0.0, -0.0782, 0.0782, 0.0, 0.0, 0.0)" gradientUnits="userSpaceOnUse" id="gradient0" spreadMethod="pad" x1="-819.2" x2="819.2">
      <stop offset="0.0" stop-color="#c49ad7"/>
      <stop offset="1.0" stop-color="#e5cbed"/>
    </linearGradient>
    <linearGradient gradientTransform="matrix(5.0E-4, -0.001, 0.0011, 6.0E-4, -134.65, 25.25)" gradientUnits="userSpaceOnUse" id="gradient1" spreadMethod="pad" x1="-819.2" x2="819.2">
      <stop offset="0.0" stop-color="#e41f13"/>
      <stop offset="1.0" stop-color="#e30613"/>
    </linearGradient>
    <linearGradient gradientTransform="matrix(0.0015, -9.0E-4, 6.0E-4, 0.0011, -136.35, 23.8)" gradientUnits="userSpaceOnUse" id="gradient2" spreadMethod="pad" x1="-819.2" x2="819.2">
      <stop offset="0.0" stop-color="#e42313"/>
      <stop offset="1.0" stop-color="#e41f13"/>
    </linearGradient>
    <linearGradient gradientTransform="matrix(-0.0015, -9.0E-4, 7.0E-4, -0.0011, -138.9, 23.8)" gradientUnits="userSpaceOnUse" id="gradient3" spreadMethod="pad" x1="-819.2" x2="819.2">
      <stop offset="0.0" stop-color="#e42313"/>
      <stop offset="1.0" stop-color="#e52d12"/>
    </linearGradient>
    <linearGradient gradientTransform="matrix(-6.0E-4, -0.001, 0.0015, -9.0E-4, -140.75, 25.6)" gradientUnits="userSpaceOnUse" id="gradient4" spreadMethod="pad" x1="-819.2" x2="819.2">
      <stop offset="0.0" stop-color="#e52d12"/>
      <stop offset="1.0" stop-color="#e74018"/>
    </linearGradient>
    <linearGradient gradientTransform="matrix(6.0E-4, -0.0011, 0.0015, 9.0E-4, -140.75, 28.15)" gradientUnits="userSpaceOnUse" id="gradient5" spreadMethod="pad" x1="-819.2" x2="819.2">
      <stop offset="0.0" stop-color="#e74018"/>
      <stop offset="1.0" stop-color="#e84617"/>
    </linearGradient>
    <linearGradient gradientTransform="matrix(0.0015, -8.0E-4, 6.0E-4, 0.0011, -138.95, 29.95)" gradientUnits="userSpaceOnUse" id="gradient6" spreadMethod="pad" x1="-819.2" x2="819.2">
      <stop offset="0.0" stop-color="#e84617"/>
      <stop offset="1.0" stop-color="#ea561f"/>
    </linearGradient>
    <linearGradient gradientTransform="matrix(0.0014, 0.0019, -0.0014, 0.001, -136.4, 29.9)" gradientUnits="userSpaceOnUse" id="gradient7" spreadMethod="pad" x1="-819.2" x2="819.2">
      <stop offset="0.27058823529411763" stop-color="#ea561f"/>
      <stop offset="1.0" stop-color="#e9531e" stop-opacity="0.0"/>
    </linearGradient>
    <linearGradient gradientTransform="matrix(-5.0E-4, 7.0E-4, -8.0E-4, -5.0E-4, -116.85, 25.2)" gradientUnits="userSpaceOnUse" id="gradient8" spreadMethod="pad" x1="-819.2" x2="819.2">
      <stop offset="0.0" stop-color="#006fb9"/>
      <stop offset="1.0" stop-color="#0078c0"/>
    </linearGradient>
    <linearGradient gradientTransform="matrix(-0.0012, 7.0E-4, -5.0E-4, -9.0E-4, -118.55, 23.8)" gradientUnits="userSpaceOnUse" id="gradient9" spreadMethod="pad" x1="-819.2" x2="819.2">
      <stop offset="0.0" stop-color="#0078c0"/>
      <stop offset="1.0" stop-color="#0085ca"/>
    </linearGradient>
    <linearGradient gradientTransform="matrix(0.0013, 7.0E-4, -5.0E-4, 9.0E-4, -121.1, 23.8)" gradientUnits="userSpaceOnUse" id="gradient10" spreadMethod="pad" x1="-819.2" x2="819.2">
      <stop offset="0.0" stop-color="#0091d0"/>
      <stop offset="1.0" stop-color="#0085ca"/>
    </linearGradient>
    <linearGradient gradientTransform="matrix(5.0E-4, 9.0E-4, -0.0012, 7.0E-4, -122.9, 25.6)" gradientUnits="userSpaceOnUse" id="gradient11" spreadMethod="pad" x1="-819.2" x2="819.2">
      <stop offset="0.0" stop-color="#009dd7"/>
      <stop offset="1.0" stop-color="#0091d0"/>
    </linearGradient>
    <linearGradient gradientTransform="matrix(5.0E-4, -9.0E-4, 0.0012, 7.0E-4, -122.9, 28.15)" gradientUnits="userSpaceOnUse" id="gradient12" spreadMethod="pad" x1="-819.2" x2="819.2">
      <stop offset="0.0" stop-color="#009dd7"/>
      <stop offset="1.0" stop-color="#00a9dd"/>
    </linearGradient>
    <linearGradient gradientTransform="matrix(0.0013, -8.0E-4, 5.0E-4, 9.0E-4, -121.2, 29.9)" gradientUnits="userSpaceOnUse" id="gradient13" spreadMethod="pad" x1="-819.2" x2="819.2">
      <stop offset="0.00784313725490196" stop-color="#00a9dd"/>
      <stop offset="0.9411764705882353" stop-color="#70c5e9"/>
    </linearGradient>
    <linearGradient gradientTransform="matrix(0.0015, 0.0022, -0.0016, 0.0011, -118.65, 30.0)" gradientUnits="userSpaceOnUse" id="gradient14" spreadMethod="pad" x1="-819.2" x2="819.2">
      <stop offset="0.3176470588235294" stop-color="#70c5e9"/>
      <stop offset="1.0" stop-color="#70c5e9" stop-opacity="0.0"/>
    </linearGradient>
    <linearGradient gradientTransform="matrix(0.0, -7.0E-4, 0.0022, 0.0, -113.95, 26.4)" gradientUnits="userSpaceOnUse" id="gradient15" spreadMethod="pad" x1="-819.2" x2="819.2">
      <stop offset="0.0" stop-color="#009767"/>
      <stop offset="1.0" stop-color="#73ba64"/>
    </linearGradient>
    <linearGradient gradientTransform="matrix(7.0E-4, -5.0E-4, 6.0E-4, 8.0E-4, -112.9, 29.75)" gradientUnits="userSpaceOnUse" id="gradient16" spreadMethod="pad" x1="-819.2" x2="819.2">
      <stop offset="0.0" stop-color="#73ba64"/>
      <stop offset="1.0" stop-color="#73ba64" stop-opacity="0.0"/>
    </linearGradient>
    <linearGradient gradientTransform="matrix(0.0017, 0.0, 0.0, 0.0022, -129.75, 24.6)" gradientUnits="userSpaceOnUse" id="gradient17" spreadMethod="pad" x1="-819.2" x2="819.2">
      <stop offset="0.00392156862745098" stop-color="#e60064"/>
      <stop offset="0.996078431372549" stop-color="#e54c88"/>
    </linearGradient>
    <linearGradient gradientTransform="matrix(0.0, -0.0012, 0.0013, 0.0, -126.75, 25.4)" gradientUnits="userSpaceOnUse" id="gradient18" spreadMethod="pad" x1="-819.2" x2="819.2">
      <stop offset="0.0196078431372549" stop-color="#e54c88"/>
      <stop offset="1.0" stop-color="#e54c88" stop-opacity="0.0"/>
    </linearGradient>
  </defs>
</svg>
