<?xml version="1.0" encoding="UTF-8" standalone="no"?>
<svg xmlns:xlink="http://www.w3.org/1999/xlink" height="70.95px" width="46.75px" xmlns="http://www.w3.org/2000/svg">
  <g transform="matrix(1.0, 0.0, 0.0, 1.0, 23.35, 35.45)">
    <use height="70.95" transform="matrix(1.0, 0.0, 0.0, 1.0, -23.35, -35.45)" width="46.75" xlink:href="#shape0"/>
  </g>
  <defs>
    <g id="shape0" transform="matrix(1.0, 0.0, 0.0, 1.0, 23.35, 35.45)">
      <path d="M23.4 -7.2 L23.4 20.0 Q23.4 27.8 16.6 28.85 L14.9 34.5 Q14.9 35.5 13.9 35.5 L-13.5 35.5 Q-14.5 35.5 -14.5 34.5 L-16.0 28.95 Q-23.35 28.1 -23.35 20.0 L-23.35 -6.45 Q-23.35 -21.75 -10.0 -24.9 L-10.0 -25.3 -10.0 -30.45 Q-10.0 -35.45 -5.0 -35.45 L4.85 -35.45 Q9.85 -35.45 9.85 -30.45 L9.85 -25.3 9.8 -24.35 Q23.4 -20.7 23.4 -7.2 M-3.45 -31.75 Q-6.9 -31.75 -6.9 -30.1 L-6.9 -27.55 Q-6.9 -25.9 -3.45 -25.9 L3.35 -25.9 Q6.8 -25.9 6.8 -27.55 L6.8 -30.1 Q6.55 -31.75 3.35 -31.75 L-3.45 -31.75" fill="#7b1f92" fill-rule="evenodd" stroke="none"/>
      <path d="M-1.6 -8.7 Q26.3 7.8 2.7 22.45 9.0 9.9 3.95 7.1 3.4 11.05 0.55 14.65 0.65 12.35 -3.3 9.9 -4.85 15.15 -1.6 22.45 -16.45 12.2 -6.75 1.7 -2.9 -2.5 -1.6 -8.7" fill="#11caa6" fill-rule="evenodd" stroke="none"/>
    </g>
  </defs>
</svg>
