<?xml version="1.0" encoding="UTF-8" standalone="no"?>
<svg xmlns:xlink="http://www.w3.org/1999/xlink" height="20.4px" width="20.4px" xmlns="http://www.w3.org/2000/svg">
  <g transform="matrix(1.0, 0.0, 0.0, 1.0, 10.2, 10.2)">
    <use height="20.4" transform="matrix(1.0, 0.0, 0.0, 1.0, -10.2, -10.2)" width="20.4" xlink:href="#shape0"/>
  </g>
  <defs>
    <g id="shape0" transform="matrix(1.0, 0.0, 0.0, 1.0, 10.2, 10.2)">
      <path d="M6.0 5.65 L5.95 5.7 6.0 5.65 M0.0 2.0 L-0.65 1.75 -1.0 1.0 -1.0 -4.5 -0.7 -5.15 -0.65 -5.2 Q-0.4 -5.5 0.0 -5.5 L0.75 -5.15 1.0 -4.5 1.0 0.0 2.95 0.0 Q3.35 0.0 3.7 0.35 L3.95 1.0 3.7 1.7 3.65 1.75 2.95 2.0 0.0 2.0 M8.2 -0.05 Q8.2 -3.45 5.85 -5.75 3.45 -8.2 0.05 -8.2 -3.4 -8.2 -5.75 -5.75 -8.2 -3.45 -8.2 -0.05 -8.2 3.4 -5.75 5.75 L-5.7 5.8 -5.7 5.85 Q-3.35 8.2 0.05 8.2 3.45 8.2 5.8 5.8 L5.85 5.75 Q8.2 3.4 8.2 -0.05 M7.25 7.2 Q4.9 9.55 1.85 10.05 L0.05 10.2 -1.75 10.05 Q-4.85 9.55 -7.15 7.2 -10.2 4.3 -10.2 -0.05 -10.2 -4.25 -7.15 -7.15 -4.2 -10.2 0.05 -10.2 4.25 -10.2 7.25 -7.15 10.2 -4.25 10.2 -0.05 10.2 4.25 7.25 7.2" fill="#6d6d6d" fill-rule="evenodd" stroke="none"/>
    </g>
  </defs>
</svg>
