<?xml version="1.0" encoding="UTF-8" standalone="no"?>
<svg xmlns:xlink="http://www.w3.org/1999/xlink" height="30.9px" width="30.9px" xmlns="http://www.w3.org/2000/svg">
  <g transform="matrix(1.0, 0.0, 0.0, 1.0, 15.45, 15.45)">
    <use height="30.9" transform="matrix(1.0, 0.0, 0.0, 1.0, -15.45, -15.45)" width="30.9" xlink:href="#shape0"/>
  </g>
  <defs>
    <g id="shape0" transform="matrix(1.0, 0.0, 0.0, 1.0, 15.45, 15.45)">
      <path d="M-15.45 -15.45 L15.45 -15.45 15.45 15.45 -15.45 15.45 -15.45 -15.45" fill="#ffffff" fill-opacity="0.0" fill-rule="evenodd" stroke="none"/>
      <path d="M2.55 -8.9 Q1.45 -7.8 0.0 -7.85 -1.55 -7.85 -2.7 -9.0 -3.8 -10.05 -3.8 -11.65 -3.8 -13.15 -2.75 -14.25 L-2.7 -14.35 Q-1.5 -15.45 0.0 -15.45 1.45 -15.45 2.6 -14.35 L2.65 -14.3 Q3.8 -13.2 3.8 -11.65 3.8 -10.0 2.55 -8.9 M2.5 12.95 Q2.5 14.0 1.8 14.75 1.05 15.45 0.0 15.45 -1.05 15.45 -1.75 14.75 -2.5 14.0 -2.5 12.95 L-2.5 -1.4 Q-2.5 -2.45 -1.75 -3.15 -1.05 -3.9 0.0 -3.9 1.05 -3.9 1.8 -3.15 2.5 -2.45 2.5 -1.4 L2.5 12.95" fill="#ffffff" fill-rule="evenodd" stroke="none"/>
    </g>
  </defs>
</svg>
