<?xml version="1.0" encoding="UTF-8" standalone="no"?>
<svg xmlns:xlink="http://www.w3.org/1999/xlink" height="58.3px" width="58.3px" xmlns="http://www.w3.org/2000/svg">
  <g transform="matrix(1.0, 0.0, 0.0, 1.0, 29.15, 29.15)">
    <use height="58.3" transform="matrix(1.0, 0.0, 0.0, 1.0, -29.15, -29.15)" width="58.3" xlink:href="#shape0"/>
  </g>
  <defs>
    <g id="shape0" transform="matrix(1.0, 0.0, 0.0, 1.0, 29.15, 29.15)">
      <path d="M1.2 -11.2 Q0.7 -10.75 0.0 -10.75 -0.7 -10.75 -1.2 -11.2 -1.7 -11.7 -1.7 -12.4 -1.7 -13.15 -1.2 -13.6 -0.7 -14.1 0.0 -14.1 0.7 -14.1 1.2 -13.6 1.7 -13.15 1.7 -12.4 1.7 -11.7 1.2 -11.2 M1.25 12.15 L0.9 13.05 Q0.5 13.4 0.0 13.4 -0.5 13.4 -0.85 13.05 -1.25 12.65 -1.25 12.15 L-1.25 -1.75 Q-1.25 -2.25 -0.85 -2.6 -0.5 -3.0 0.0 -3.0 0.5 -3.0 0.9 -2.6 1.25 -2.25 1.25 -1.75 L1.25 12.15 M26.65 0.0 Q26.65 -11.05 18.85 -18.85 11.05 -26.65 0.0 -26.65 -11.05 -26.65 -18.85 -18.85 -26.65 -11.05 -26.65 0.0 -26.65 11.0 -18.85 18.8 -11.05 26.65 0.0 26.65 11.0 26.65 18.8 18.8 L18.85 18.8 Q26.65 11.0 26.65 0.0 M20.6 20.55 Q12.1 29.15 0.0 29.15 -12.05 29.15 -20.6 20.55 -29.15 12.0 -29.15 0.0 -29.15 -12.05 -20.6 -20.6 -12.05 -29.15 0.0 -29.15 12.05 -29.15 20.6 -20.6 29.15 -12.05 29.15 0.0 29.15 12.0 20.6 20.55" fill="#333333" fill-rule="evenodd" stroke="none"/>
    </g>
  </defs>
</svg>
