<?xml version="1.0" encoding="UTF-8" standalone="no"?>
<svg xmlns:xlink="http://www.w3.org/1999/xlink" height="52.4px" width="52.4px" xmlns="http://www.w3.org/2000/svg">
  <g transform="matrix(1.0, 0.0, 0.0, 1.0, 26.2, 26.2)">
    <use height="52.4" transform="matrix(1.0, 0.0, 0.0, 1.0, -26.2, -26.2)" width="52.4" xlink:href="#shape0"/>
  </g>
  <defs>
    <g id="shape0" transform="matrix(1.0, 0.0, 0.0, 1.0, 26.2, 26.2)">
      <path d="M-26.2 -26.2 L26.2 -26.2 26.2 26.2 -26.2 26.2 -26.2 -26.2" fill="#ffffff" fill-opacity="0.0" fill-rule="evenodd" stroke="none"/>
      <path d="M19.95 17.95 L19.95 -4.3 0.0 -20.2 -19.9 -4.3 -19.9 17.95 Q-19.9 18.95 -18.9 18.95 L-11.0 18.95 -11.0 6.6 Q-11.0 1.6 -6.0 1.6 L5.1 1.6 Q10.1 1.6 10.1 6.6 L10.1 18.95 18.95 18.95 Q19.95 18.95 19.95 17.95 M18.95 22.95 L8.1 22.95 Q7.25 22.95 6.7 22.4 6.1 21.8 6.1 20.95 L6.1 6.6 Q6.1 5.6 5.1 5.6 L-6.0 5.6 Q-7.0 5.6 -7.0 6.6 L-7.0 20.95 Q-7.0 21.8 -7.55 22.4 -8.15 22.95 -9.0 22.95 L-18.9 22.95 Q-23.9 22.95 -23.9 17.95 L-23.9 -5.3 -23.7 -6.15 -23.15 -6.85 -1.25 -24.35 Q-0.7 -24.8 0.0 -24.8 0.7 -24.8 1.25 -24.35 L23.2 -6.85 23.75 -6.15 23.95 -5.3 23.95 17.95 Q23.95 22.95 18.95 22.95" fill="#017aad" fill-rule="evenodd" stroke="none"/>
    </g>
  </defs>
</svg>
