<?xml version="1.0" encoding="UTF-8" standalone="no"?>
<svg xmlns:xlink="http://www.w3.org/1999/xlink" height="190.0px" width="190.0px" xmlns="http://www.w3.org/2000/svg">
  <g transform="matrix(1.0, 0.0, 0.0, 1.0, 95.0, 94.95)">
    <use height="190.0" transform="matrix(1.0, 0.0, 0.0, 1.0, -95.0, -94.95)" width="190.0" xlink:href="#shape0"/>
  </g>
  <defs>
    <g id="shape0" transform="matrix(1.0, 0.0, 0.0, 1.0, 95.0, 94.95)">
      <path d="M-95.0 -94.95 L95.0 -94.95 95.0 95.05 -95.0 95.05 -95.0 -94.95" fill="#ffffff" fill-opacity="0.0" fill-rule="evenodd" stroke="none"/>
      <path d="M54.7 1.5 L54.7 52.5 Q54.7 59.5 49.9 64.25 44.95 69.25 38.15 69.25 L-38.2 69.25 Q-44.95 69.25 -49.95 64.25 -54.7 59.5 -54.7 52.5 L-54.7 1.5 -57.65 4.7 Q-59.7 7.15 -62.85 7.4 -66.05 7.6 -68.3 5.6 -70.55 3.55 -70.8 0.35 -71.0 -2.55 -69.0 -5.05 -55.15 -21.15 -39.75 -37.25 -8.75 -69.2 0.1 -69.2 8.7 -69.2 39.75 -37.25 55.15 -21.15 68.95 -5.05 71.0 -2.55 70.75 0.35 70.55 3.55 68.25 5.6 66.0 7.6 62.85 7.4 59.65 7.15 57.6 4.7 L54.7 1.5 M-7.4 8.1 L7.1 8.1 Q14.15 8.1 18.9 12.85 23.9 18.25 23.9 24.6 L23.9 54.1 38.15 54.1 39.3 53.6 39.75 52.5 39.75 -15.5 Q4.85 -54.0 -0.15 -54.0 -4.9 -54.0 -39.75 -15.5 L-39.75 52.5 -39.3 53.6 -38.2 54.1 -23.9 54.1 -23.9 24.6 Q-23.9 17.8 -18.95 12.85 -14.15 8.1 -7.4 8.1 M8.7 54.1 L8.7 24.6 8.25 23.7 Q8.0 23.25 7.1 23.25 L-7.4 23.25 Q-8.05 23.25 -8.3 23.7 L-8.75 24.6 -8.75 54.1 8.7 54.1" fill="#fefefe" fill-rule="evenodd" stroke="none"/>
    </g>
  </defs>
</svg>
