<?xml version="1.0" encoding="UTF-8" standalone="no"?>
<svg xmlns:xlink="http://www.w3.org/1999/xlink" height="55.65px" width="68.4px" xmlns="http://www.w3.org/2000/svg">
  <g transform="matrix(1.0, 0.0, 0.0, 1.0, 34.2, 27.8)">
    <use height="55.65" transform="matrix(1.0, 0.0, 0.0, 1.0, -34.2, -27.8)" width="68.4" xlink:href="#shape0"/>
  </g>
  <defs>
    <g id="shape0" transform="matrix(1.0, 0.0, 0.0, 1.0, 34.2, 27.8)">
      <path d="M17.25 -27.8 Q32.25 -27.8 32.25 -12.8 L34.2 10.7 34.2 11.85 Q34.2 18.45 29.5 23.15 24.8 27.85 18.2 27.85 11.6 27.85 6.9 23.15 6.15 22.4 5.4 21.95 0.0 18.2 -5.15 21.75 L-6.9 23.15 Q-11.6 27.85 -18.2 27.85 -24.8 27.85 -29.5 23.15 -34.2 18.45 -34.2 11.85 L-34.2 10.7 -32.25 -12.8 Q-32.25 -27.8 -17.25 -27.8 L17.25 -27.8" fill="#7b1f92" fill-rule="evenodd" stroke="none"/>
      <path d="M-10.45 3.6 Q-10.45 5.05 -11.45 6.1 -12.5 7.1 -13.95 7.1 -15.4 7.1 -16.4 6.1 -17.45 5.05 -17.45 3.6 L-17.45 -0.2 -21.25 -0.2 Q-22.7 -0.2 -23.7 -1.2 -24.75 -2.25 -24.75 -3.7 -24.75 -5.15 -23.7 -6.15 -22.7 -7.2 -21.25 -7.2 L-17.45 -7.2 -17.45 -11.0 Q-17.45 -12.45 -16.4 -13.45 -15.4 -14.5 -13.95 -14.5 -12.5 -14.5 -11.45 -13.45 -10.45 -12.45 -10.45 -11.0 L-10.45 -7.2 -6.65 -7.2 Q-5.2 -7.2 -4.15 -6.15 -3.15 -5.15 -3.15 -3.7 -3.15 -2.25 -4.15 -1.2 -5.2 -0.2 -6.65 -0.2 L-10.45 -0.2 -10.45 3.6" fill="#0bd0aa" fill-rule="evenodd" stroke="none"/>
      <path d="M24.4 -10.7 Q24.4 -9.15 23.3 -8.1 22.25 -7.0 20.7 -7.0 19.15 -7.0 18.05 -8.1 17.0 -9.15 17.0 -10.7 17.0 -12.25 18.05 -13.35 19.15 -14.4 20.7 -14.4 22.25 -14.4 23.3 -13.35 24.4 -12.25 24.4 -10.7 M18.4 4.3 Q18.4 5.85 17.3 6.9 16.25 8.0 14.7 8.0 13.15 8.0 12.05 6.9 11.0 5.85 11.0 4.3 11.0 2.75 12.05 1.65 13.15 0.6 14.7 0.6 16.25 0.6 17.3 1.65 18.4 2.75 18.4 4.3" fill="#e2acfe" fill-rule="evenodd" stroke="none"/>
    </g>
  </defs>
</svg>
