<?xml version="1.0" encoding="UTF-8" standalone="no"?>
<svg xmlns:xlink="http://www.w3.org/1999/xlink" height="61.05px" width="61.0px" xmlns="http://www.w3.org/2000/svg">
  <g transform="matrix(1.0, 0.0, 0.0, 1.0, 30.5, 30.5)">
    <use height="61.05" transform="matrix(1.0, 0.0, 0.0, 1.0, -30.5, -30.5)" width="61.0" xlink:href="#shape0"/>
  </g>
  <defs>
    <g id="shape0" transform="matrix(1.0, 0.0, 0.0, 1.0, 30.5, 30.5)">
      <path d="M-30.5 -30.5 L30.5 -30.5 30.5 30.55 -30.5 30.55 -30.5 -30.5" fill="#ffffff" fill-opacity="0.0" fill-rule="evenodd" stroke="none"/>
      <path d="M-9.3 -14.4 L-17.95 -23.8 -24.0 -18.55 Q-25.15 -15.25 -21.7 -8.8 -17.95 -1.85 -10.55 5.95 -3.15 13.8 4.65 18.9 L4.7 18.9 Q12.25 23.9 17.65 24.45 L23.75 17.65 14.25 8.95 5.1 13.05 4.05 13.2 Q3.5 13.05 3.1 12.7 L-13.3 -3.9 Q-13.7 -4.3 -13.75 -4.85 L-13.6 -5.95 -9.3 -14.4 M-5.9 -15.85 L-5.45 -14.9 Q-5.4 -14.4 -5.65 -13.9 L-9.9 -5.45 4.75 9.35 13.85 5.25 14.85 5.15 Q15.35 5.2 15.75 5.55 L27.4 16.2 Q27.9 16.7 27.95 17.45 28.0 18.15 27.5 18.7 L19.65 27.45 19.05 27.85 18.3 28.0 Q11.9 27.85 2.75 21.8 L2.75 21.85 Q-5.35 16.5 -13.1 8.35 -20.85 0.15 -24.8 -7.15 -29.5 -15.95 -27.05 -20.35 L-26.65 -20.9 -19.0 -27.55 Q-18.45 -28.05 -17.75 -28.0 -17.05 -27.95 -16.55 -27.4 L-5.9 -15.85" fill="#787878" fill-rule="evenodd" stroke="none"/>
    </g>
  </defs>
</svg>
