<?xml version="1.0" encoding="UTF-8" standalone="no"?>
<svg xmlns:xlink="http://www.w3.org/1999/xlink" height="1988.0px" width="1988.0px" xmlns="http://www.w3.org/2000/svg">
  <g transform="matrix(1.0, 0.0, 0.0, 1.0, 994.0, 994.0)">
    <use height="1988.0" transform="matrix(1.0, 0.0, 0.0, 1.0, -994.0, -994.0)" width="1988.0" xlink:href="#shape0"/>
  </g>
  <defs>
    <g id="shape0" transform="matrix(1.0, 0.0, 0.0, 1.0, 994.0, 994.0)">
      <path d="M-994.0 -994.0 L994.0 -994.0 994.0 994.0 -994.0 994.0 -994.0 -994.0" fill="#00abe1" fill-rule="evenodd" stroke="none"/>
      <path d="M280.7 -357.05 Q339.05 -366.6 372.35 -345.3 419.9 -316.9 449.2 -238.2 509.1 -73.7 478.55 136.8 470.5 200.7 431.0 219.55 415.9 224.5 401.4 222.0 385.0 219.25 375.75 207.5 362.5 191.45 361.25 164.6 360.95 158.75 363.4 118.0 373.6 46.4 370.5 -24.6 369.9 -65.35 344.3 -82.65 332.85 -91.3 317.4 -90.65 302.6 -89.75 290.25 -81.4 259.7 -61.65 232.55 -9.15 211.25 34.65 189.35 101.65 177.0 139.3 152.6 214.9 130.4 274.8 87.5 304.1 38.7 338.4 -41.85 335.6 -83.5 333.45 -121.15 309.35 -157.0 286.5 -180.15 249.8 -200.5 216.75 -233.85 157.8 -271.2 92.05 -286.9 65.85 -299.6 47.0 -307.9 39.3 -322.1 26.3 -338.15 28.2 -355.75 29.7 -365.3 47.0 -373.35 61.8 -372.4 80.65 -371.5 123.55 -351.1 189.6 -325.8 272.0 -321.5 297.0 -317.8 315.55 -323.35 332.2 -329.8 351.05 -345.85 358.15 -373.95 361.85 -388.15 358.15 -401.45 352.9 -411.95 338.7 -418.7 330.05 -427.65 311.55 -473.35 202.55 -488.8 75.1 -488.8 33.4 -488.45 12.45 -487.85 -24.3 -482.6 -49.3 -471.5 -110.4 -456.7 -149.3 -436.3 -202.7 -402.65 -236.35 -369.95 -269.35 -322.1 -276.45 -273.05 -283.55 -234.75 -258.25 -202.05 -235.75 -171.2 -194.35 -162.85 -183.55 -120.55 -119.35 -88.75 -68.75 -82.6 -60.7 -58.2 -29.25 -29.5 -17.2 -6.65 -6.1 19.9 -11.95 46.1 -17.5 63.1 -36.65 73.6 -47.75 82.25 -64.75 86.55 -73.7 95.5 -96.5 131.9 -187.25 151.7 -231.7 169.9 -277.7 201.35 -310.45 236.55 -346.55 280.7 -357.05" fill="#ffffff" fill-rule="evenodd" stroke="none"/>
    </g>
  </defs>
</svg>
