<?xml version="1.0" encoding="UTF-8" standalone="no"?>
<svg xmlns:xlink="http://www.w3.org/1999/xlink" height="1988.0px" width="1988.0px" xmlns="http://www.w3.org/2000/svg">
  <g transform="matrix(1.0, 0.0, 0.0, 1.0, 994.0, 994.0)">
    <use height="1988.0" transform="matrix(1.0, 0.0, 0.0, 1.0, -994.0, -994.0)" width="1988.0" xlink:href="#shape0"/>
  </g>
  <defs>
    <g id="shape0" transform="matrix(1.0, 0.0, 0.0, 1.0, 994.0, 994.0)">
      <path d="M-994.0 -994.0 L994.0 -994.0 994.0 994.0 -994.0 994.0 -994.0 -994.0" fill="#fff200" fill-rule="evenodd" stroke="none"/>
      <path d="M175.8 262.5 Q153.1 281.05 125.6 290.3 98.1 299.55 69.05 298.3 L-113.5 298.3 -113.5 298.0 Q-168.2 301.5 -207.2 331.25 -226.35 345.95 -235.0 360.0 L-235.0 138.45 Q-235.0 102.95 -219.95 71.0 -204.65 37.75 -176.2 14.4 -133.0 -20.8 -76.45 -21.4 L75.1 -21.4 Q110.6 -21.4 142.55 -6.4 175.8 8.95 199.15 37.75 241.0 89.2 234.0 155.05 227.3 220.9 175.8 262.5 M134.25 -102.65 Q92.05 -67.8 37.05 -70.35 L-83.8 -70.35 Q-89.55 -69.7 -95.95 -70.35 L-124.7 -70.35 Q-174.25 -66.8 -209.4 -40.3 -227.35 -26.85 -235.0 -14.05 L-235.0 -214.85 Q-235.0 -247.15 -221.55 -276.25 -207.5 -306.3 -181.6 -327.4 -141.95 -360.0 -91.15 -360.0 L42.8 -360.0 Q75.1 -360.0 104.2 -346.55 134.25 -332.5 155.35 -306.6 193.05 -259.95 187.0 -200.15 180.9 -140.65 134.25 -102.65" fill="#287d91" fill-rule="evenodd" stroke="none"/>
    </g>
  </defs>
</svg>
