<?xml version="1.0" encoding="UTF-8" standalone="no"?>
<svg xmlns:xlink="http://www.w3.org/1999/xlink" height="339.0px" width="339.0px" xmlns="http://www.w3.org/2000/svg">
  <g transform="matrix(1.0, 0.0, 0.0, 1.0, 169.5, 169.5)">
    <use height="339.0" transform="matrix(1.0, 0.0, 0.0, 1.0, -169.5, -169.5)" width="339.0" xlink:href="#shape0"/>
  </g>
  <defs>
    <g id="shape0" transform="matrix(1.0, 0.0, 0.0, 1.0, 169.5, 169.5)">
      <path d="M169.5 0.0 Q169.5 70.2 119.85 119.85 70.2 169.5 0.0 169.5 -14.45 169.5 -29.3 166.55 -36.45 165.1 -56.75 159.7 -71.95 155.6 -86.9 155.4 -100.05 155.2 -107.2 157.9 -120.15 162.75 -133.25 162.65 -146.35 162.55 -155.45 153.45 -164.5 144.4 -164.6 131.4 -164.7 118.35 -157.95 104.5 -154.75 97.85 -155.4 82.95 -156.05 69.05 -160.7 54.4 -165.3 39.75 -167.4 28.25 -169.5 16.75 -169.5 0.0 -169.5 -70.2 -119.85 -119.85 -70.2 -169.5 0.0 -169.5 70.2 -169.5 119.85 -119.85 169.5 -70.2 169.5 0.0" fill="url(#gradient0)" fill-rule="evenodd" stroke="none"/>
      <path d="M-59.0 4.65 Q-59.0 -6.3 -65.6 -14.05 -71.05 -20.4 -78.65 -20.6 -88.8 -18.9 -93.25 -11.75 -96.5 -6.55 -97.2 0.6 L-97.2 8.65 Q-96.4 17.7 -92.0 23.6 -87.0 30.3 -78.65 29.9 -71.05 29.7 -65.6 23.4 -59.0 15.6 -59.0 4.65 M-3.9 37.7 Q-3.9 42.25 -7.1 45.5 -10.35 48.7 -14.9 48.7 -19.45 48.7 -22.65 45.5 -25.9 42.25 -25.9 37.7 L-25.9 -64.9 Q-25.9 -69.45 -22.65 -72.65 -19.45 -75.9 -14.9 -75.9 -10.35 -75.9 -7.1 -72.65 -3.9 -69.45 -3.9 -64.9 L-3.9 37.7 M-47.05 35.9 Q-58.85 50.25 -75.65 50.05 -87.7 50.2 -91.9 48.2 -96.45 46.0 -97.2 50.9 L-97.2 69.75 Q-97.2 74.3 -100.4 77.55 -103.65 80.75 -108.2 80.75 -112.75 80.75 -115.95 77.55 -119.2 74.3 -119.2 69.75 L-119.2 -35.05 Q-119.3 -37.9 -116.95 -38.4 L-112.7 -38.95 -106.6 -39.1 -101.05 -38.75 Q-99.6 -38.35 -98.4 -36.9 -97.25 -35.5 -95.0 -35.75 -93.05 -35.95 -90.7 -37.5 -86.4 -40.35 -75.65 -41.25 -58.85 -41.45 -47.05 -27.05 -36.3 -14.05 -36.3 4.4 -36.3 22.85 -47.05 35.9 M96.3 -40.7 Q108.7 -40.95 117.95 -29.15 L117.95 -29.1 Q126.55 -18.65 125.95 -3.35 L125.95 37.7 Q125.95 42.25 122.75 45.5 119.5 48.7 114.95 48.7 110.4 48.7 107.2 45.5 103.95 42.25 103.95 37.7 L103.95 -5.9 103.95 -6.35 Q103.65 -11.55 100.8 -15.35 L100.75 -15.35 Q96.25 -20.4 89.7 -20.3 83.15 -20.25 78.35 -15.2 73.5 -10.2 72.7 -1.7 L72.7 37.7 Q72.7 42.25 69.5 45.5 66.25 48.7 61.7 48.7 57.15 48.7 53.95 45.5 50.7 42.25 50.7 37.7 L50.7 -36.9 Q50.5 -39.3 53.8 -39.25 L62.8 -39.5 Q68.5 -39.85 69.35 -37.35 74.4 -35.15 79.15 -37.8 83.85 -40.45 96.3 -40.7 M34.9 37.7 Q34.9 42.25 31.7 45.5 28.45 48.7 23.9 48.7 19.35 48.7 16.15 45.5 12.9 42.25 12.9 37.7 L12.9 -27.7 Q12.9 -32.25 16.15 -35.45 19.35 -38.7 23.9 -38.7 28.45 -38.7 31.7 -35.45 34.9 -32.25 34.9 -27.7 L34.9 37.7" fill="#ffffff" fill-rule="evenodd" stroke="none"/>
      <path d="M24.4 -55.2 L24.45 -55.25 24.4 -55.3 24.35 -55.3 24.35 -55.25 24.4 -55.2 M32.85 -46.7 Q29.35 -43.2 24.4 -43.2 19.45 -43.2 15.85 -46.75 12.35 -50.25 12.35 -55.25 12.35 -60.2 15.8 -63.7 L15.95 -63.85 Q19.45 -67.3 24.4 -67.3 29.4 -67.3 32.9 -63.8 36.45 -60.2 36.45 -55.25 36.45 -50.3 32.95 -46.8 L32.85 -46.7" fill="#fd70c6" fill-rule="evenodd" stroke="none"/>
    </g>
    <linearGradient gradientTransform="matrix(0.1255, -0.0962, 0.1258, 0.1641, -72.7, 63.0)" gradientUnits="userSpaceOnUse" id="gradient0" spreadMethod="pad" x1="-819.2" x2="819.2">
      <stop offset="0.0" stop-color="#2687f5"/>
      <stop offset="1.0" stop-color="#00e3cf"/>
    </linearGradient>
  </defs>
</svg>
