<?xml version="1.0" encoding="UTF-8" standalone="no"?>
<svg xmlns:xlink="http://www.w3.org/1999/xlink" height="1988.0px" width="1988.0px" xmlns="http://www.w3.org/2000/svg">
  <g transform="matrix(1.0, 0.0, 0.0, 1.0, 994.0, 994.0)">
    <use height="1988.0" transform="matrix(1.0, 0.0, 0.0, 1.0, -994.0, -994.0)" width="1988.0" xlink:href="#shape0"/>
  </g>
  <defs>
    <g id="shape0" transform="matrix(1.0, 0.0, 0.0, 1.0, 994.0, 994.0)">
      <path d="M-994.0 -994.0 L994.0 -994.0 994.0 994.0 -994.0 994.0 -994.0 -994.0" fill="#e30613" fill-rule="evenodd" stroke="none"/>
      <path d="M567.85 17.65 Q593.6 44.3 606.05 75.25 618.8 106.8 618.8 145.55 618.8 183.25 606.55 214.25 594.0 246.05 567.85 272.2 541.85 298.2 509.0 311.45 477.1 324.4 441.25 324.4 405.45 324.4 374.35 311.45 342.3 298.25 317.2 272.2 290.85 245.8 277.9 214.25 273.7 204.05 270.85 193.15 265.0 170.65 265.0 145.55 265.0 120.2 270.85 97.5 282.5 52.35 317.2 17.65 343.6 -8.8 374.35 -21.7 404.95 -34.65 441.25 -34.65 477.85 -34.65 509.5 -21.7 541.7 -8.6 567.85 17.65 M202.3 -24.15 L236.3 -33.35 258.55 -32.0 258.55 54.15 232.4 52.9 Q220.8 52.9 209.05 56.6 197.6 60.25 186.7 67.2 168.0 78.45 157.95 98.6 151.45 106.0 148.65 121.6 146.2 135.1 146.2 157.3 L146.2 320.45 61.35 320.45 61.35 -18.95 142.3 -18.95 142.3 24.2 Q154.35 6.55 170.35 -5.9 184.45 -16.75 202.3 -24.15 M580.3 -77.45 L785.1 -282.45 839.55 -228.05 634.75 -23.0 580.3 -77.45 M415.15 -324.4 L492.15 -324.4 492.15 -103.8 415.15 -103.8 415.15 -324.4 M-677.55 -123.4 Q-640.85 -124.4 -607.0 -112.6 -572.4 -100.6 -544.35 -76.4 -515.15 -54.0 -496.0 -25.15 -477.15 3.45 -467.4 39.8 L-556.15 39.8 Q-575.25 3.7 -604.45 -16.3 -622.45 -27.35 -640.0 -32.85 -658.35 -38.5 -677.55 -38.5 -732.3 -38.5 -772.8 1.95 -813.3 42.4 -813.3 99.85 -813.3 127.4 -803.35 150.95 -793.25 174.7 -772.8 195.15 -754.05 214.8 -730.05 225.2 -705.7 235.65 -677.55 235.65 -656.85 235.65 -639.0 230.55 -620.95 225.45 -604.45 214.7 -575.2 194.65 -556.15 158.6 L-467.4 158.6 Q-477.2 193.2 -496.55 222.55 -516.25 252.45 -544.35 274.75 -600.3 319.15 -676.25 319.15 -723.05 319.15 -761.25 303.35 -799.1 287.65 -831.55 255.2 -863.55 223.15 -879.7 183.25 -895.5 144.1 -895.5 98.6 -895.5 51.8 -879.9 12.85 -864.35 -25.6 -832.9 -58.1 -800.5 -91.45 -761.55 -107.85 -722.5 -124.4 -677.55 -123.4 M-424.3 -123.4 L-339.4 -123.4 -339.4 320.45 -424.3 320.45 -424.3 -123.4 M-101.85 155.95 L-143.6 166.45 Q-172.65 170.55 -184.05 178.15 -194.85 185.05 -199.85 194.15 -204.9 203.35 -204.9 216.0 -204.9 227.95 -201.35 236.4 -198.3 243.55 -191.9 250.0 -186.1 254.85 -178.8 257.05 -171.8 259.1 -161.9 259.1 -147.75 259.1 -134.75 255.05 -121.1 250.7 -109.65 242.15 -97.95 234.4 -92.0 218.95 -86.15 203.8 -86.15 182.1 L-86.15 146.85 -101.85 155.95 M-137.05 -37.25 Q-109.4 -37.25 -85.15 -32.0 -60.45 -26.65 -35.25 -15.05 -13.8 -4.3 -2.95 17.15 7.85 38.45 7.85 69.85 L7.85 321.8 -77.0 321.8 -77.0 286.5 Q-96.5 303.1 -124.5 311.95 -152.1 320.75 -186.7 321.8 -208.55 320.75 -226.3 314.95 -244.6 308.9 -257.15 298.3 -272.05 284.4 -279.35 266.1 -286.85 247.4 -285.9 225.2 -289.6 163.35 -240.2 132.5 -227.15 125.0 -208.05 119.45 -191.25 114.45 -167.1 110.25 L-101.85 98.6 Q-92.1 94.7 -87.15 87.9 -82.25 81.3 -82.25 72.45 -82.25 51.95 -96.6 43.7 -105.25 39.4 -115.0 37.3 -126.45 34.95 -138.35 35.85 -153.95 34.9 -164.95 38.85 -175.9 42.7 -182.8 51.55 -194.1 62.85 -195.85 81.55 L-280.7 81.55 Q-279.65 58.3 -273.8 40.0 -268.05 22.0 -257.15 7.15 -240.4 -15.55 -210.35 -26.8 -179.8 -38.25 -137.05 -37.25 M671.05 62.0 L895.55 62.0 895.55 139.05 671.05 139.05 671.05 62.0 M507.85 210.85 L507.8 210.85 Q520.95 196.75 528.05 179.5 534.5 163.95 536.5 144.25 535.5 124.35 528.7 107.5 521.65 90.25 509.1 77.65 481.75 48.35 442.55 50.3 423.0 50.3 407.0 56.6 389.55 63.55 377.3 77.65 349.9 103.1 349.9 144.25 349.9 179.2 377.3 210.85 389.8 224.35 407.0 231.4 423.6 238.2 442.55 238.2 462.1 238.2 478.15 231.95 495.55 225.0 507.85 210.85" fill="#ffffff" fill-rule="evenodd" stroke="none"/>
    </g>
  </defs>
</svg>
