<?xml version="1.0" encoding="UTF-8" standalone="no"?>
<svg xmlns:xlink="http://www.w3.org/1999/xlink" height="1988.0px" width="1988.0px" xmlns="http://www.w3.org/2000/svg">
  <g transform="matrix(1.0, 0.0, 0.0, 1.0, 994.0, 994.0)">
    <use height="1988.0" transform="matrix(1.0, 0.0, 0.0, 1.0, -994.0, -994.0)" width="1988.0" xlink:href="#shape0"/>
  </g>
  <defs>
    <g id="shape0" transform="matrix(1.0, 0.0, 0.0, 1.0, 994.0, 994.0)">
      <path d="M-994.0 -994.0 L994.0 -994.0 994.0 994.0 -994.0 994.0 -994.0 -994.0" fill="#002efe" fill-rule="evenodd" stroke="none"/>
      <path d="M-237.35 352.35 Q-296.5 339.75 -342.15 312.05 -387.85 284.35 -416.5 243.9 -450.3 196.3 -465.65 137.7 -472.3 112.5 -475.9 83.45 L-480.9 21.25 -481.2 0.65 -481.2 -0.9 -480.6 -9.45 Q-480.2 -34.95 -477.45 -59.15 L-476.75 -70.65 Q-467.75 -145.0 -437.7 -202.35 -402.0 -270.45 -338.55 -310.75 L-318.2 -322.8 Q-304.4 -330.4 -289.85 -336.35 L-283.2 -338.85 Q-261.05 -347.6 -239.3 -352.3 -204.55 -359.9 -158.2 -359.9 L-148.35 -359.75 -138.65 -359.5 -122.85 -358.65 -111.1 -357.55 Q-66.25 -352.85 -29.55 -339.0 -2.3 -328.75 22.65 -312.3 L52.4 -290.4 Q59.05 -285.0 65.3 -279.2 75.1 -269.9 83.95 -259.65 L95.85 -245.4 98.1 -241.65 100.3 -238.75 102.25 -235.3 109.45 -224.75 Q119.0 -210.25 126.9 -194.15 L132.4 -185.05 Q151.25 -145.7 159.3 -99.05 163.45 -75.5 164.7 -21.95 165.25 0.5 164.95 15.05 L165.65 36.9 162.9 39.55 162.6 40.4 Q160.25 46.6 155.0 48.85 L151.8 49.95 147.65 54.65 146.7 54.65 145.85 55.35 -37.3 56.6 Q-55.3 57.15 -75.1 57.25 L-293.7 59.05 Q-294.55 59.65 -294.8 60.3 L-295.95 73.35 Q-296.5 79.15 -294.4 91.05 -292.45 102.95 -289.15 113.75 -283.9 130.95 -278.35 139.5 -272.8 148.25 -256.6 164.3 -236.8 183.95 -219.1 193.5 -211.75 197.0 -203.6 200.0 -180.35 206.8 -130.5 206.65 -82.7 206.55 -61.0 200.3 -39.25 194.05 -3.65 170.1 9.05 161.55 19.45 155.6 29.95 149.5 32.2 149.5 33.0 149.5 36.05 151.55 36.5 151.7 37.05 152.0 44.95 156.55 72.6 183.0 L84.5 194.2 95.05 204.3 103.9 212.9 109.6 218.45 126.9 237.0 128.25 238.95 128.55 239.35 128.55 239.5 128.7 239.75 129.25 241.0 131.6 244.9 131.6 245.3 131.6 245.7 Q131.45 247.5 130.9 249.45 130.6 253.45 127.85 257.2 124.4 261.8 112.2 270.8 78.3 296.0 35.25 317.0 -7.7 338.05 -48.8 349.55 -73.05 356.2 -114.0 358.3 -160.95 362.3 -203.45 357.3 -222.4 355.5 -237.35 352.35 M-19.75 -75.5 Q-19.75 -78.4 -20.4 -83.95 -21.55 -91.0 -23.9 -102.25 -32.9 -144.9 -59.6 -172.3 L-63.05 -175.6 Q-78.85 -190.55 -100.3 -200.7 -114.0 -207.05 -124.0 -208.7 -133.95 -210.35 -158.2 -210.35 -182.7 -210.35 -192.8 -208.55 L-195.3 -208.0 -197.1 -207.6 -199.3 -207.05 Q-207.45 -204.7 -218.1 -199.7 -237.35 -190.85 -255.65 -173.4 -269.75 -159.7 -277.1 -146.55 L-281.4 -137.55 -282.25 -135.6 Q-287.35 -122.7 -291.65 -106.25 -296.35 -88.25 -296.6 -78.95 L-296.6 -68.3 -158.2 -68.3 Q-56.85 -68.3 -38.4 -69.3 -26.1 -69.85 -22.35 -71.35 -19.75 -72.45 -19.75 -75.5" fill="#ffffff" fill-rule="evenodd" stroke="none"/>
      <path d="M276.7 312.45 Q249.15 288.8 236.4 276.3 L232.95 273.25 232.4 272.85 231.85 272.3 231.55 272.0 Q229.05 269.8 227.25 267.6 L226.3 266.35 224.65 264.0 Q220.2 258.3 220.2 255.4 220.2 253.05 227.7 242.95 L230.15 239.75 232.65 236.6 Q233.35 235.45 234.3 234.5 238.9 228.8 244.3 222.75 L245.55 221.35 247.2 219.7 248.7 217.9 274.35 185.75 Q311.85 132.2 325.85 71.4 328.75 58.8 330.55 46.35 331.8 34.45 332.35 21.15 L332.6 7.55 332.6 3.4 Q332.5 -20.95 330.25 -41.05 326.65 -64.7 319.45 -88.55 L318.5 -91.55 317.95 -93.35 317.55 -94.75 314.9 -102.65 314.2 -104.6 297.75 -141.0 296.75 -142.65 296.05 -143.9 294.7 -146.4 290.8 -153.2 Q278.05 -174.25 261.6 -193.5 L258.4 -197.1 255.25 -200.55 244.3 -212.6 242.5 -214.65 Q230.3 -228.1 228.1 -231.95 225.2 -237.1 229.05 -244.55 231.4 -249.0 241.5 -259.5 250.95 -269.75 266.85 -284.05 L267.25 -284.3 269.9 -286.65 289.3 -303.15 Q294.4 -307.55 299.4 -311.3 303.4 -314.35 307.7 -315.9 L308.0 -316.0 Q312.95 -318.8 316.3 -319.2 L317.55 -319.35 Q324.85 -319.35 334.85 -313.4 L337.9 -311.85 Q356.55 -301.35 383.45 -269.35 L388.55 -263.4 Q432.15 -211.5 455.7 -143.9 L457.1 -140.45 Q469.25 -106.8 475.35 -72.05 478.0 -57.65 479.25 -36.35 L479.35 -33.95 Q483.25 8.65 478.95 51.2 477.7 70.0 475.35 83.05 470.95 107.95 463.3 132.45 L462.9 133.85 Q453.2 165.95 436.3 199.2 L435.05 201.8 Q431.45 209.15 427.45 216.35 391.75 281.6 346.6 318.25 L343.15 321.05 334.15 327.4 334.0 327.4 Q323.2 334.2 315.3 334.45 L312.55 334.45 312.15 334.35 309.1 333.65 Q297.05 330.2 276.7 312.45" fill="#ff3d00" fill-rule="evenodd" stroke="none"/>
    </g>
  </defs>
</svg>
