<?xml version="1.0" encoding="UTF-8" standalone="no"?>
<svg xmlns:xlink="http://www.w3.org/1999/xlink" height="41.8px" width="41.8px" xmlns="http://www.w3.org/2000/svg">
  <g transform="matrix(1.0, 0.0, 0.0, 1.0, 20.9, 20.9)">
    <use height="41.8" transform="matrix(1.0, 0.0, 0.0, 1.0, -20.9, -20.9)" width="41.8" xlink:href="#shape0"/>
  </g>
  <defs>
    <g id="shape0" transform="matrix(1.0, 0.0, 0.0, 1.0, 20.9, 20.9)">
      <path d="M5.95 6.0 L6.0 5.95 Q10.05 1.85 10.05 -3.9 10.05 -9.7 5.95 -13.8 1.85 -17.9 -3.95 -17.9 -9.75 -17.9 -13.85 -13.8 L-13.8 -13.8 Q-17.9 -9.7 -17.9 -3.9 -17.9 1.9 -13.8 6.0 L-13.85 6.0 Q-9.75 10.1 -3.95 10.1 1.85 10.1 5.95 6.0 M-3.95 13.1 Q-10.95 13.1 -15.95 8.1 -20.9 3.1 -20.9 -3.9 -20.9 -10.9 -15.95 -15.9 -10.95 -20.9 -3.95 -20.9 3.15 -20.9 8.1 -15.9 L8.05 -15.9 Q13.05 -10.9 13.05 -3.9 13.05 2.35 9.15 7.0 L20.45 18.35 Q20.9 18.8 20.9 19.4 20.9 20.0 20.45 20.45 20.0 20.9 19.4 20.9 18.8 20.9 18.35 20.45 L7.05 9.1 Q2.4 13.1 -3.95 13.1" fill="#333333" fill-rule="evenodd" stroke="none"/>
    </g>
  </defs>
</svg>
