<?xml version="1.0" encoding="UTF-8" standalone="no"?>
<svg xmlns:xlink="http://www.w3.org/1999/xlink" height="31.8px" width="31.8px" xmlns="http://www.w3.org/2000/svg">
  <g transform="matrix(1.0, 0.0, 0.0, 1.0, 15.9, 15.9)">
    <use height="31.8" transform="matrix(1.0, 0.0, 0.0, 1.0, -15.9, -15.9)" width="31.8" xlink:href="#shape0"/>
  </g>
  <defs>
    <g id="shape0" transform="matrix(1.0, 0.0, 0.0, 1.0, 15.9, 15.9)">
      <path d="M-15.9 -15.9 L15.9 -15.9 15.9 15.9 -15.9 15.9 -15.9 -15.9" fill="#ffffff" fill-opacity="0.0" fill-rule="evenodd" stroke="none"/>
      <path d="M11.9 7.5 L11.9 -5.35 3.85 1.4 Q0.0 4.6 -3.75 1.45 L-11.9 -5.35 -11.9 7.5 Q-11.9 8.5 -10.9 8.5 L10.9 8.5 Q11.9 8.5 11.9 7.5 M10.9 -12.5 Q15.9 -12.5 15.9 -7.5 L15.9 7.5 Q15.9 12.5 10.9 12.5 L-10.9 12.5 Q-15.9 12.5 -15.9 7.5 L-15.9 -7.5 Q-15.9 -12.5 -10.9 -12.5 L10.9 -12.5 M1.3 -1.7 L9.4 -8.5 -9.4 -8.5 -1.2 -1.6 1.25 -1.65 1.3 -1.7" fill="#ffffff" fill-rule="evenodd" stroke="none"/>
    </g>
  </defs>
</svg>
