<?xml version="1.0" encoding="UTF-8" standalone="no"?>
<svg xmlns:xlink="http://www.w3.org/1999/xlink" height="60.15px" width="46.95px" xmlns="http://www.w3.org/2000/svg">
  <g transform="matrix(1.0, 0.0, 0.0, 1.0, 23.45, 30.05)">
    <use height="60.15" transform="matrix(1.0, 0.0, 0.0, 1.0, -23.45, -30.05)" width="46.95" xlink:href="#shape0"/>
  </g>
  <defs>
    <g id="shape0" transform="matrix(1.0, 0.0, 0.0, 1.0, 23.45, 30.05)">
      <path d="M10.15 8.9 Q15.7 8.9 19.6 12.8 23.5 16.7 23.5 22.25 L23.25 25.1 Q23.05 26.15 22.3 26.9 21.55 27.65 20.55 27.9 0.05 32.25 -20.4 27.95 -21.4 27.7 -22.15 27.0 L-23.1 25.3 -23.45 22.25 Q-23.45 16.7 -19.6 12.8 L-19.55 12.75 Q-15.65 8.9 -10.1 8.9 L10.15 8.9 M-10.1 15.9 Q-12.75 15.9 -14.6 17.7 L-14.65 17.75 Q-16.2 19.4 -16.4 21.6 0.0 24.55 16.5 21.55 16.25 19.35 14.65 17.75 12.8 15.9 10.15 15.9 L-10.1 15.9 M-0.1 -30.05 Q6.15 -30.05 10.6 -25.6 15.0 -21.2 15.0 -14.95 L15.0 -8.65 Q15.0 -2.4 10.6 2.05 6.15 6.45 -0.1 6.45 L-0.15 6.45 Q-6.4 6.45 -10.8 2.05 -15.25 -2.4 -15.25 -8.65 L-15.25 -14.95 Q-15.25 -21.2 -10.8 -25.6 -6.4 -30.05 -0.15 -30.05 L-0.1 -30.05 M-0.15 -23.05 Q-3.5 -23.05 -5.85 -20.65 -8.25 -18.3 -8.25 -14.95 L-8.25 -8.65 Q-8.25 -5.3 -5.85 -2.9 -3.5 -0.55 -0.15 -0.55 L-0.1 -0.55 Q3.25 -0.55 5.65 -2.9 8.0 -5.3 8.0 -8.65 L8.0 -14.95 Q8.0 -18.3 5.65 -20.65 3.25 -23.05 -0.1 -23.05 L-0.15 -23.05" fill="#ffffff" fill-rule="evenodd" stroke="none"/>
    </g>
  </defs>
</svg>
