<?xml version="1.0" encoding="UTF-8" standalone="no"?>
<svg xmlns:xlink="http://www.w3.org/1999/xlink" height="52.4px" width="52.4px" xmlns="http://www.w3.org/2000/svg">
  <g transform="matrix(1.0, 0.0, 0.0, 1.0, 26.2, 26.2)">
    <use height="52.4" transform="matrix(1.0, 0.0, 0.0, 1.0, -26.2, -26.2)" width="52.4" xlink:href="#shape0"/>
  </g>
  <defs>
    <g id="shape0" transform="matrix(1.0, 0.0, 0.0, 1.0, 26.2, 26.2)">
      <path d="M-26.2 -26.2 L26.2 -26.2 26.2 26.2 -26.2 26.2 -26.2 -26.2" fill="#ffffff" fill-opacity="0.0" fill-rule="evenodd" stroke="none"/>
      <path d="M-23.25 17.8 L-23.25 17.65 -23.25 17.5 Q-23.25 12.55 -19.75 9.0 -16.2 5.5 -11.25 5.5 L11.3 5.5 Q16.3 5.5 19.8 9.0 23.3 12.5 23.3 17.5 L23.3 17.65 23.3 17.8 23.3 21.35 Q23.3 22.2 22.75 22.8 22.15 23.35 21.3 23.35 20.45 23.35 19.9 22.8 19.3 22.2 19.3 21.35 L19.3 17.8 19.3 17.65 19.3 17.5 Q19.3 14.2 16.95 11.85 14.6 9.5 11.3 9.5 L-11.25 9.5 Q-14.55 9.5 -16.9 11.8 L-16.95 11.85 Q-19.25 14.2 -19.25 17.5 L-19.25 17.65 -19.25 17.8 -19.25 21.35 Q-19.25 22.2 -19.8 22.8 -20.4 23.35 -21.25 23.35 -22.1 23.35 -22.65 22.8 -23.25 22.2 -23.25 21.35 L-23.25 17.8 M8.4 -10.6 Q8.4 -14.05 5.95 -16.5 3.45 -19.0 0.0 -19.0 -3.45 -19.0 -5.9 -16.5 -8.4 -14.05 -8.4 -10.6 -8.4 -7.15 -5.9 -4.65 -3.45 -2.2 0.0 -2.2 3.45 -2.2 5.95 -4.65 8.4 -7.15 8.4 -10.6 M8.8 -1.8 Q5.15 1.8 0.0 1.8 -5.15 1.8 -8.75 -1.8 -12.4 -5.45 -12.4 -10.6 -12.4 -15.75 -8.75 -19.35 -5.15 -23.0 0.0 -23.0 5.15 -23.0 8.8 -19.35 12.4 -15.75 12.4 -10.6 12.4 -5.45 8.8 -1.8" fill="#333333" fill-rule="evenodd" stroke="none"/>
    </g>
  </defs>
</svg>
