<?xml version="1.0" encoding="UTF-8" standalone="no"?>
<svg xmlns:xlink="http://www.w3.org/1999/xlink" height="52.4px" width="52.4px" xmlns="http://www.w3.org/2000/svg">
  <g transform="matrix(1.0, 0.0, 0.0, 1.0, 26.2, 26.2)">
    <use height="52.4" transform="matrix(1.0, 0.0, 0.0, 1.0, -26.2, -26.2)" width="52.4" xlink:href="#shape0"/>
  </g>
  <defs>
    <g id="shape0" transform="matrix(1.0, 0.0, 0.0, 1.0, 26.2, 26.2)">
      <path d="M-26.2 -26.2 L26.2 -26.2 26.2 26.2 -26.2 26.2 -26.2 -26.2" fill="#ffffff" fill-opacity="0.0" fill-rule="evenodd" stroke="none"/>
      <path d="M21.35 15.25 Q22.2 15.25 22.8 15.85 23.35 16.4 23.35 17.25 23.35 18.1 22.8 18.7 22.2 19.25 21.35 19.25 L-6.35 19.25 Q-7.2 19.25 -7.75 18.7 -8.35 18.1 -8.35 17.25 -8.35 16.4 -7.75 15.85 -7.2 15.25 -6.35 15.25 L21.35 15.25 M-15.85 17.25 Q-15.85 16.55 -16.35 16.05 -16.9 15.5 -17.6 15.5 -18.3 15.5 -18.8 16.05 -19.35 16.55 -19.35 17.25 -19.35 17.95 -18.8 18.5 -18.3 19.0 -17.6 19.0 -16.9 19.0 -16.35 18.5 -15.85 17.95 -15.85 17.25 M-13.5 21.35 Q-15.2 23.0 -17.6 23.0 -20.0 23.0 -21.65 21.35 -23.35 19.65 -23.35 17.25 -23.35 14.85 -21.65 13.2 -20.0 11.5 -17.6 11.5 -15.2 11.5 -13.5 13.2 -11.85 14.85 -11.85 17.25 -11.85 19.65 -13.5 21.35 M-15.85 1.2 Q-15.85 0.5 -16.35 0.0 -16.9 -0.55 -17.6 -0.55 -18.3 -0.55 -18.8 0.0 -19.35 0.5 -19.35 1.2 -19.35 1.9 -18.8 2.45 -18.3 2.95 -17.6 2.95 -16.9 2.95 -16.35 2.45 -15.85 1.9 -15.85 1.2 M-13.5 5.3 Q-15.2 6.95 -17.6 6.95 -20.0 6.95 -21.65 5.3 -23.35 3.6 -23.35 1.2 -23.35 -1.2 -21.65 -2.85 -20.0 -4.55 -17.6 -4.55 -15.2 -4.55 -13.5 -2.85 -11.85 -1.2 -11.85 1.2 -11.85 3.6 -13.5 5.3 M-15.85 -14.85 Q-15.85 -15.55 -16.35 -16.05 -16.9 -16.6 -17.6 -16.6 -18.3 -16.6 -18.8 -16.05 -19.35 -15.55 -19.35 -14.85 -19.35 -14.15 -18.8 -13.6 -18.3 -13.1 -17.6 -13.1 -16.9 -13.1 -16.35 -13.6 -15.85 -14.15 -15.85 -14.85 M-13.5 -10.75 Q-15.2 -9.1 -17.6 -9.1 -20.0 -9.1 -21.65 -10.75 -23.35 -12.45 -23.35 -14.85 -23.35 -17.25 -21.65 -18.9 -20.0 -20.6 -17.6 -20.6 -15.2 -20.6 -13.5 -18.9 -11.85 -17.25 -11.85 -14.85 -11.85 -12.45 -13.5 -10.75 M21.35 -16.85 Q22.2 -16.85 22.8 -16.25 23.35 -15.7 23.35 -14.85 23.35 -14.0 22.8 -13.4 22.2 -12.85 21.35 -12.85 L-6.35 -12.85 Q-7.2 -12.85 -7.75 -13.4 -8.35 -14.0 -8.35 -14.85 -8.35 -15.7 -7.75 -16.25 -7.2 -16.85 -6.35 -16.85 L21.35 -16.85 M21.35 -0.8 Q22.2 -0.8 22.8 -0.2 23.35 0.35 23.35 1.2 23.35 2.05 22.8 2.65 22.2 3.2 21.35 3.2 L-6.35 3.2 Q-7.2 3.2 -7.75 2.65 -8.35 2.05 -8.35 1.2 -8.35 0.35 -7.75 -0.2 -7.2 -0.8 -6.35 -0.8 L21.35 -0.8" fill="#333333" fill-rule="evenodd" stroke="none"/>
    </g>
  </defs>
</svg>
