<?xml version="1.0" encoding="UTF-8" standalone="no"?>
<svg xmlns:xlink="http://www.w3.org/1999/xlink" height="54.1px" width="54.3px" xmlns="http://www.w3.org/2000/svg">
  <g transform="matrix(1.0, 0.0, 0.0, 1.0, 27.15, 27.05)">
    <use height="54.1" transform="matrix(1.0, 0.0, 0.0, 1.0, -27.15, -27.05)" width="54.3" xlink:href="#shape0"/>
  </g>
  <defs>
    <g id="shape0" transform="matrix(1.0, 0.0, 0.0, 1.0, 27.15, 27.05)">
      <path d="M-18.65 -20.05 Q-20.15 -20.05 -20.15 -18.55 L-20.15 -10.95 Q-20.15 -9.45 -18.65 -9.45 L-11.05 -9.45 Q-9.55 -9.45 -9.55 -10.95 L-9.55 -18.55 Q-9.55 -20.05 -11.05 -20.05 L-18.65 -20.05 M-11.65 -14.65 Q-11.65 -13.4 -12.55 -12.5 -13.45 -11.6 -14.7 -11.6 -15.95 -11.6 -16.85 -12.5 -17.75 -13.4 -17.75 -14.65 -17.75 -15.9 -16.85 -16.8 -15.95 -17.7 -14.7 -17.7 -13.45 -17.7 -12.55 -16.8 -11.65 -15.9 -11.65 -14.65 M11.05 9.45 Q9.55 9.45 9.55 10.95 L9.55 18.55 Q9.55 20.05 11.05 20.05 L18.65 20.05 Q20.15 20.05 20.15 18.55 L20.15 10.95 Q20.15 9.45 18.65 9.45 L11.05 9.45 M18.65 2.45 Q27.15 2.45 27.15 10.95 L27.15 18.55 Q27.15 27.05 18.65 27.05 L11.05 27.05 Q2.55 27.05 2.55 18.55 L2.55 10.95 Q2.55 2.45 11.05 2.45 L18.65 2.45 M11.05 -20.05 Q9.55 -20.05 9.55 -18.55 L9.55 -10.95 Q9.55 -9.45 11.05 -9.45 L18.65 -9.45 Q20.15 -9.45 20.15 -10.95 L20.15 -18.55 Q20.15 -20.05 18.65 -20.05 L11.05 -20.05 M18.65 -27.05 Q27.15 -27.05 27.15 -18.55 L27.15 -10.95 Q27.15 -2.45 18.65 -2.45 L11.05 -2.45 Q2.55 -2.45 2.55 -10.95 L2.55 -18.55 Q2.55 -27.05 11.05 -27.05 L18.65 -27.05 M-18.65 9.45 Q-20.15 9.45 -20.15 10.95 L-20.15 18.55 Q-20.15 20.05 -18.65 20.05 L-11.05 20.05 Q-9.55 20.05 -9.55 18.55 L-9.55 10.95 Q-9.55 9.45 -11.05 9.45 L-18.65 9.45 M-11.05 2.45 Q-2.55 2.45 -2.55 10.95 L-2.55 18.55 Q-2.55 27.05 -11.05 27.05 L-18.65 27.05 Q-27.15 27.05 -27.15 18.55 L-27.15 10.95 Q-27.15 2.45 -18.65 2.45 L-11.05 2.45 M-11.05 -27.05 Q-2.55 -27.05 -2.55 -18.55 L-2.55 -10.95 Q-2.55 -2.45 -11.05 -2.45 L-18.65 -2.45 Q-27.15 -2.45 -27.15 -10.95 L-27.15 -18.55 Q-27.15 -27.05 -18.65 -27.05 L-11.05 -27.05 M18.05 14.7 Q18.05 15.95 17.15 16.85 16.25 17.75 15.0 17.75 13.75 17.75 12.85 16.85 11.95 15.95 11.95 14.7 11.95 13.45 12.85 12.55 13.75 11.65 15.0 11.65 16.25 11.65 17.15 12.55 18.05 13.45 18.05 14.7" fill="#ffffff" fill-rule="evenodd" stroke="none"/>
    </g>
  </defs>
</svg>
