<?xml version="1.0" encoding="UTF-8" standalone="no"?>
<svg xmlns:xlink="http://www.w3.org/1999/xlink" height="190.0px" width="190.0px" xmlns="http://www.w3.org/2000/svg">
  <g transform="matrix(1.0, 0.0, 0.0, 1.0, 95.0, 94.95)">
    <use height="190.0" transform="matrix(1.0, 0.0, 0.0, 1.0, -95.0, -94.95)" width="190.0" xlink:href="#shape0"/>
  </g>
  <defs>
    <g id="shape0" transform="matrix(1.0, 0.0, 0.0, 1.0, 95.0, 94.95)">
      <path d="M-95.0 -94.95 L95.0 -94.95 95.0 95.05 -95.0 95.05 -95.0 -94.95" fill="#ffffff" fill-opacity="0.0" fill-rule="evenodd" stroke="none"/>
      <path d="M24.1 12.05 Q27.05 14.95 27.05 19.05 27.05 23.15 24.1 26.1 21.15 29.05 17.05 29.05 12.95 29.05 10.05 26.1 7.1 23.15 7.15 19.05 7.1 15.0 10.05 12.05 13.0 9.1 17.05 9.15 21.15 9.1 24.1 12.05 M-9.75 -23.65 Q-6.85 -20.75 -6.85 -16.65 -6.85 -12.55 -9.75 -9.6 -12.7 -6.65 -16.8 -6.65 -20.9 -6.65 -23.85 -9.6 -26.75 -12.55 -26.7 -16.65 -26.75 -20.75 -23.85 -23.65 -20.9 -26.6 -16.8 -26.55 -12.7 -26.6 -9.75 -23.65 M20.15 -42.0 L18.0 -42.05 Q16.9 -42.35 16.05 -43.05 L-0.65 -56.8 -11.0 -45.85 Q-11.85 -45.0 -12.9 -44.6 L-15.15 -44.3 -36.75 -46.6 -37.9 -32.45 Q-38.05 -31.2 -38.7 -30.15 -39.45 -29.1 -40.55 -28.45 L-58.6 -18.9 -50.6 -6.6 Q-49.9 -5.55 -49.8 -4.25 -49.7 -3.0 -50.25 -1.8 L-58.4 16.0 -43.85 22.0 Q-42.75 22.45 -41.95 23.35 -41.2 24.25 -40.9 25.4 L-35.85 45.05 -20.15 42.0 -17.95 42.05 Q-16.85 42.35 -16.0 43.05 L0.7 56.8 11.05 45.85 Q11.85 45.0 12.95 44.6 L15.2 44.35 36.8 46.65 38.0 32.5 Q38.05 31.2 38.8 30.15 39.5 29.1 40.65 28.5 L58.65 18.9 50.65 6.65 Q49.9 5.55 49.8 4.25 49.7 2.95 50.25 1.8 L58.45 -15.95 43.85 -21.95 Q42.75 -22.45 42.0 -23.3 41.2 -24.2 40.9 -25.35 L35.9 -45.05 20.15 -42.0 M15.15 -23.15 Q16.6 -24.65 18.65 -24.65 20.7 -24.65 22.2 -23.15 23.65 -21.7 23.65 -19.65 23.65 -17.6 22.2 -16.1 L-18.3 24.4 Q-19.8 25.85 -21.85 25.85 -23.9 25.85 -25.35 24.4 -26.85 22.9 -26.85 20.85 -26.85 18.8 -25.35 17.35 L15.15 -23.15 M38.65 -55.75 Q40.6 -56.15 42.3 -55.05 43.95 -54.0 44.45 -52.05 L50.0 -30.25 67.05 -23.2 Q68.3 -22.7 69.15 -21.55 70.0 -20.5 70.15 -19.1 70.25 -17.75 69.7 -16.5 L60.5 3.5 70.0 18.0 Q70.75 19.2 70.8 20.65 70.85 22.05 70.1 23.3 69.35 24.5 68.15 25.2 L47.7 36.05 46.35 52.6 Q46.2 53.9 45.45 55.05 44.65 56.15 43.4 56.7 L40.8 57.15 16.6 54.55 4.75 67.1 Q3.35 68.55 1.4 68.65 -0.55 68.75 -2.1 67.5 L-20.55 52.25 -38.6 55.75 Q-40.55 56.15 -42.2 55.1 -43.9 54.0 -44.4 52.1 L-49.95 30.3 -67.0 23.25 Q-68.25 22.7 -69.1 21.6 -69.95 20.5 -70.05 19.15 -70.2 17.8 -69.65 16.55 L-60.5 -3.45 -70.0 -18.0 Q-70.75 -19.2 -70.8 -20.6 -70.85 -22.05 -70.1 -23.25 -69.4 -24.5 -68.15 -25.15 L-47.65 -36.05 -46.25 -52.55 Q-46.15 -53.9 -45.35 -55.0 -44.6 -56.15 -43.35 -56.7 L-40.75 -57.1 -16.55 -54.5 -4.65 -67.05 Q-3.3 -68.5 -1.35 -68.65 0.6 -68.75 2.15 -67.5 L20.6 -52.25 38.65 -55.75" fill="#ffffff" fill-rule="evenodd" stroke="none"/>
    </g>
  </defs>
</svg>
