<?xml version="1.0" encoding="UTF-8" standalone="no"?>
<svg xmlns:xlink="http://www.w3.org/1999/xlink" height="56.0px" width="56.0px" xmlns="http://www.w3.org/2000/svg">
  <g transform="matrix(1.0, 0.0, 0.0, 1.0, 28.0, 28.0)">
    <use height="56.0" transform="matrix(1.0, 0.0, 0.0, 1.0, -28.0, -28.0)" width="56.0" xlink:href="#shape0"/>
  </g>
  <defs>
    <g id="shape0" transform="matrix(1.0, 0.0, 0.0, 1.0, 28.0, 28.0)">
      <path d="M-28.0 -28.0 L28.0 -28.0 28.0 28.0 -28.0 28.0 -28.0 -28.0" fill="#ffffff" fill-opacity="0.0" fill-rule="evenodd" stroke="none"/>
      <path d="M-11.7 17.5 Q-13.25 17.5 -14.35 18.5 L-14.3 18.5 Q-15.4 19.5 -15.4 20.9 -15.4 22.35 -14.3 23.35 L-14.35 23.35 Q-13.25 24.35 -11.7 24.35 L10.4 24.35 Q11.95 24.35 13.05 23.35 14.1 22.35 14.1 20.9 14.1 19.5 13.05 18.5 12.0 17.55 10.5 17.5 L-11.7 17.5 M13.6 16.0 Q15.15 16.0 16.25 14.95 17.3 13.95 17.3 12.55 17.3 11.15 16.25 10.15 15.15 9.1 13.6 9.1 L-8.6 9.1 Q-10.1 9.15 -11.1 10.15 L-11.15 10.15 Q-12.2 11.15 -12.2 12.55 -12.2 13.95 -11.15 14.95 L-11.1 14.95 Q-10.1 15.95 -8.6 16.0 L13.6 16.0 M11.7 0.75 L-10.5 0.75 Q-12.0 0.8 -13.05 1.75 L-13.0 1.75 Q-14.1 2.75 -14.1 4.15 -14.1 5.6 -13.0 6.6 L-13.05 6.6 Q-11.95 7.6 -10.4 7.6 L11.85 7.6 Q13.3 7.55 14.35 6.6 15.4 5.6 15.4 4.15 15.4 2.75 14.35 1.75 13.25 0.75 11.7 0.75 M11.15 -6.6 Q10.1 -7.6 8.65 -7.65 L-13.6 -7.65 Q-15.15 -7.65 -16.2 -6.6 L-16.25 -6.6 Q-17.3 -5.6 -17.3 -4.2 -17.3 -2.8 -16.25 -1.8 L-16.2 -1.8 Q-15.15 -0.75 -13.6 -0.75 L8.6 -0.75 Q10.1 -0.8 11.15 -1.8 12.2 -2.8 12.2 -4.2 12.2 -5.6 11.15 -6.6 M13.6 -16.0 L-8.6 -16.0 Q-10.1 -15.95 -11.15 -15.0 L-11.1 -15.0 Q-12.2 -14.0 -12.2 -12.55 -12.2 -11.15 -11.1 -10.15 L-11.15 -10.15 Q-10.1 -9.2 -8.6 -9.15 L13.6 -9.15 Q15.15 -9.15 16.25 -10.15 17.3 -11.15 17.3 -12.55 17.3 -14.0 16.25 -15.0 15.15 -16.0 13.6 -16.0 M-11.7 -17.5 L10.5 -17.5 Q12.0 -17.55 13.05 -18.55 14.1 -19.55 14.1 -20.95 14.1 -22.35 13.05 -23.35 11.95 -24.4 10.4 -24.4 L-11.7 -24.4 Q-13.25 -24.4 -14.3 -23.35 L-14.35 -23.35 Q-15.4 -22.35 -15.4 -20.95 -15.4 -19.55 -14.35 -18.55 L-14.3 -18.55 Q-13.25 -17.5 -11.7 -17.5 M-15.35 -17.45 Q-16.9 -18.85 -16.9 -20.95 -16.9 -23.05 -15.35 -24.45 -13.85 -25.9 -11.7 -25.9 L10.4 -25.9 Q12.55 -25.9 14.1 -24.45 L14.05 -24.45 Q15.6 -23.05 15.6 -20.95 15.6 -18.9 14.1 -17.45 15.9 -17.35 17.25 -16.1 L17.3 -16.1 Q18.8 -14.6 18.8 -12.55 18.8 -10.55 17.3 -9.05 L17.25 -9.05 Q15.75 -7.65 13.6 -7.65 L12.2 -7.65 Q13.7 -6.25 13.7 -4.2 13.7 -2.15 12.2 -0.7 14.0 -0.6 15.35 0.65 L15.4 0.65 Q16.9 2.15 16.9 4.15 16.9 6.2 15.4 7.7 L15.35 7.7 15.2 7.85 Q16.35 8.15 17.3 9.05 L17.25 9.05 Q18.8 10.45 18.8 12.55 18.8 14.65 17.25 16.05 L17.3 16.05 Q15.95 17.3 14.15 17.5 15.6 18.95 15.6 20.9 15.6 22.95 14.1 24.45 L14.05 24.45 Q12.55 25.85 10.4 25.85 L-11.7 25.85 Q-13.85 25.85 -15.35 24.45 -16.9 22.95 -16.9 20.9 -16.9 18.9 -15.35 17.4 -14.0 16.15 -12.15 16.05 -13.7 14.6 -13.7 12.55 -13.7 10.45 -12.15 9.05 L-12.0 8.9 Q-13.15 8.55 -14.05 7.7 -15.6 6.2 -15.6 4.15 -15.6 2.2 -14.15 0.75 -15.95 0.55 -17.25 -0.7 -18.8 -2.1 -18.8 -4.2 -18.8 -6.3 -17.25 -7.7 -15.75 -9.15 -13.6 -9.15 L-12.25 -9.15 Q-13.7 -10.6 -13.7 -12.55 -13.7 -14.55 -12.25 -16.0 -14.05 -16.2 -15.35 -17.45" fill="#333333" fill-rule="evenodd" stroke="none"/>
    </g>
  </defs>
</svg>
