<?xml version="1.0" encoding="UTF-8" standalone="no"?>
<svg xmlns:xlink="http://www.w3.org/1999/xlink" height="51.7px" width="51.7px" xmlns="http://www.w3.org/2000/svg">
  <g transform="matrix(1.0, 0.0, 0.0, 1.0, 25.85, 25.85)">
    <use height="51.7" transform="matrix(1.0, 0.0, 0.0, 1.0, -25.85, -25.85)" width="51.7" xlink:href="#shape0"/>
  </g>
  <defs>
    <g id="shape0" transform="matrix(1.0, 0.0, 0.0, 1.0, 25.85, 25.85)">
      <path d="M25.85 0.0 Q25.85 10.7 18.25 18.25 10.7 25.85 0.0 25.85 -10.7 25.85 -18.3 18.25 -25.85 10.7 -25.85 0.0 -25.85 -10.7 -18.3 -18.3 -10.7 -25.85 0.0 -25.85 10.7 -25.85 18.25 -18.3 25.85 -10.7 25.85 0.0" fill="#fafafb" fill-rule="evenodd" stroke="none"/>
      <path d="M-9.05 -9.75 Q-9.8 -9.75 -9.8 -9.0 L-9.8 -4.65 Q-9.8 -3.9 -9.05 -3.9 L-4.7 -3.9 Q-3.95 -3.9 -3.95 -4.65 L-3.95 -9.0 Q-3.95 -9.75 -4.7 -9.75 L-9.05 -9.75 M-4.7 -12.25 Q-1.45 -12.25 -1.45 -9.0 L-1.45 -4.65 Q-1.45 -1.4 -4.7 -1.4 L-9.05 -1.4 Q-12.3 -1.4 -12.3 -4.65 L-12.3 -9.0 Q-12.3 -12.25 -9.05 -12.25 L-4.7 -12.25 M9.1 -12.25 Q12.35 -12.25 12.35 -9.0 L12.35 -4.65 Q12.35 -1.4 9.1 -1.4 L4.75 -1.4 Q1.5 -1.4 1.5 -4.65 L1.5 -9.0 Q1.5 -12.25 4.75 -12.25 L9.1 -12.25 M4.75 -9.75 Q4.0 -9.75 4.0 -9.0 L4.0 -4.65 Q4.0 -3.9 4.75 -3.9 L9.1 -3.9 Q9.85 -3.9 9.85 -4.65 L9.85 -9.0 Q9.85 -9.75 9.1 -9.75 L4.75 -9.75 M-5.7 -6.9 Q-5.7 -6.4 -6.05 -6.05 -6.4 -5.7 -6.9 -5.7 -7.4 -5.7 -7.75 -6.05 -8.1 -6.4 -8.1 -6.9 -8.1 -7.4 -7.75 -7.75 -7.4 -8.1 -6.9 -8.1 -6.4 -8.1 -6.05 -7.75 -5.7 -7.4 -5.7 -6.9 M9.1 1.55 Q12.35 1.55 12.35 4.8 L12.35 9.15 Q12.35 12.4 9.1 12.4 L4.75 12.4 Q1.5 12.4 1.5 9.15 L1.5 4.8 Q1.5 1.55 4.75 1.55 L9.1 1.55 M-4.7 1.55 Q-1.45 1.55 -1.45 4.8 L-1.45 9.15 Q-1.45 12.4 -4.7 12.4 L-9.05 12.4 Q-12.3 12.4 -12.3 9.15 L-12.3 4.8 Q-12.3 1.55 -9.05 1.55 L-4.7 1.55 M-9.05 4.05 Q-9.8 4.05 -9.8 4.8 L-9.8 9.15 Q-9.8 9.9 -9.05 9.9 L-4.7 9.9 Q-3.95 9.9 -3.95 9.15 L-3.95 4.8 Q-3.95 4.05 -4.7 4.05 L-9.05 4.05 M8.1 6.95 Q8.1 7.45 7.75 7.8 7.4 8.15 6.9 8.15 6.4 8.15 6.05 7.8 5.7 7.45 5.7 6.95 5.7 6.45 6.05 6.1 6.4 5.75 6.9 5.75 7.4 5.75 7.75 6.1 8.1 6.45 8.1 6.95 M4.75 4.05 Q4.0 4.05 4.0 4.8 L4.0 9.15 Q4.0 9.9 4.75 9.9 L9.1 9.9 Q9.85 9.9 9.85 9.15 L9.85 4.8 Q9.85 4.05 9.1 4.05 L4.75 4.05" fill="#742284" fill-rule="evenodd" stroke="none"/>
    </g>
  </defs>
</svg>
