<?xml version="1.0" encoding="UTF-8" standalone="no"?>
<svg xmlns:xlink="http://www.w3.org/1999/xlink" height="28.2px" width="43.15px" xmlns="http://www.w3.org/2000/svg">
  <g transform="matrix(1.0, 0.0, 0.0, 1.0, 21.55, 14.1)">
    <use height="28.2" transform="matrix(1.0, 0.0, 0.0, 1.0, -21.55, -14.1)" width="43.15" xlink:href="#shape0"/>
  </g>
  <defs>
    <g id="shape0" transform="matrix(1.0, 0.0, 0.0, 1.0, 21.55, 14.1)">
      <path d="M-8.95 -13.45 Q-8.3 -14.1 -7.4 -14.1 -6.45 -14.1 -5.8 -13.4 -5.15 -12.75 -5.15 -11.85 -5.15 -10.9 -5.8 -10.25 L-13.85 -2.25 19.35 -2.25 Q20.3 -2.25 20.95 -1.6 21.6 -0.95 21.6 0.0 21.6 0.95 20.95 1.6 20.3 2.25 19.35 2.25 L-13.85 2.25 -5.8 10.25 Q-5.15 10.9 -5.15 11.85 -5.15 12.75 -5.8 13.45 -6.45 14.1 -7.4 14.1 -8.3 14.1 -8.95 13.45 L-20.65 1.8 -20.9 1.6 -21.35 0.95 -21.55 0.15 -21.55 0.0 -21.5 -0.45 Q-21.4 -1.1 -20.9 -1.6 L-20.65 -1.8 -8.95 -13.45" fill="#000000" fill-rule="evenodd" stroke="none"/>
    </g>
  </defs>
</svg>
