<?xml version="1.0" encoding="UTF-8" standalone="no"?>
<svg xmlns:xlink="http://www.w3.org/1999/xlink" height="50.0px" width="50.0px" xmlns="http://www.w3.org/2000/svg">
  <g transform="matrix(1.0, 0.0, 0.0, 1.0, 25.0, 25.0)">
    <use height="50.0" transform="matrix(1.0, 0.0, 0.0, 1.0, -25.0, -25.0)" width="50.0" xlink:href="#shape0"/>
  </g>
  <defs>
    <g id="shape0" transform="matrix(1.0, 0.0, 0.0, 1.0, 25.0, 25.0)">
      <path d="M-25.0 -25.0 L25.0 -25.0 25.0 25.0 -25.0 25.0 -25.0 -25.0" fill="#ffffff" fill-opacity="0.0" fill-rule="evenodd" stroke="none"/>
      <path d="M-19.75 -1.45 Q-19.75 -10.0 -13.95 -16.0 L-13.95 -16.15 Q-8.15 -22.15 0.2 -22.15 8.6 -22.15 14.4 -16.15 20.25 -10.0 20.25 -1.45 L20.15 0.8 20.75 1.4 Q23.05 3.85 23.05 7.35 23.05 10.95 20.85 13.25 L20.75 13.35 Q19.25 14.9 17.65 15.45 L17.65 20.7 17.05 22.1 Q16.35 22.65 15.65 22.65 L-0.2 22.65 Q-0.95 22.65 -1.6 22.1 L-2.2 20.7 Q-2.2 20.0 -1.6 19.25 -1.05 18.7 -0.2 18.7 L13.6 18.7 13.6 16.05 Q9.5 15.65 9.7 12.1 L9.8 2.55 Q9.8 -1.45 14.75 -1.25 L16.25 -1.1 16.25 -1.45 Q16.25 -8.4 11.55 -13.25 6.9 -18.15 0.2 -18.15 -6.45 -18.15 -11.1 -13.25 -15.75 -8.45 -15.75 -1.45 L-15.75 -1.1 -14.1 -1.25 Q-9.2 -1.45 -9.2 2.55 L-9.1 12.1 Q-8.9 16.2 -14.0 16.05 L-14.1 16.05 Q-18.0 15.7 -20.15 13.35 L-20.15 13.25 Q-22.45 10.95 -22.45 7.35 -22.45 3.7 -20.1 1.4 L-19.65 0.9 -19.75 -1.45" fill="#000000" fill-rule="evenodd" stroke="none"/>
    </g>
  </defs>
</svg>
