<?xml version="1.0" encoding="UTF-8" standalone="no"?>
<svg xmlns:xlink="http://www.w3.org/1999/xlink" height="51.1px" width="51.1px" xmlns="http://www.w3.org/2000/svg">
  <g transform="matrix(1.0, 0.0, 0.0, 1.0, 25.55, 25.55)">
    <use height="51.1" transform="matrix(1.0, 0.0, 0.0, 1.0, -25.55, -25.55)" width="51.1" xlink:href="#shape0"/>
  </g>
  <defs>
    <g id="shape0" transform="matrix(1.0, 0.0, 0.0, 1.0, 25.55, 25.55)">
      <path d="M-25.55 -25.55 L25.55 -25.55 25.55 25.55 -25.55 25.55 -25.55 -25.55" fill="#ffffff" fill-opacity="0.0" fill-rule="evenodd" stroke="none"/>
      <path d="M8.4 24.45 Q7.95 25.25 7.05 25.5 L5.35 25.25 Q4.5 24.8 4.3 23.9 4.05 23.0 4.5 22.2 6.85 18.15 8.15 13.0 8.35 12.1 9.15 11.65 9.95 11.15 10.85 11.4 11.75 11.6 12.25 12.4 12.7 13.2 12.5 14.1 11.05 19.85 8.4 24.45 M-20.3 -4.55 Q-20.15 -9.85 -17.85 -13.95 L-17.85 -14.0 -17.15 -15.2 Q-16.65 -16.05 -15.75 -16.25 L-14.05 -16.05 Q-13.25 -15.6 -13.0 -14.65 -12.8 -13.8 -13.25 -12.95 L-13.9 -11.8 -13.95 -11.75 Q-15.65 -8.55 -15.8 -4.45 -16.15 7.75 -20.8 11.65 -21.5 12.25 -22.4 12.2 -23.35 12.15 -23.95 11.45 -24.6 10.75 -24.55 9.85 -24.5 8.9 -23.8 8.3 -20.55 5.05 -20.3 -4.55 M-4.1 24.3 Q-4.85 24.9 -5.8 24.8 -6.7 24.7 -7.3 23.95 -7.9 23.2 -7.75 22.3 -7.7 21.4 -6.95 20.8 0.2 14.7 -0.55 -2.75 -0.6 -3.7 0.05 -4.35 0.7 -5.05 1.6 -5.1 2.55 -5.15 3.25 -4.5 3.9 -3.85 3.95 -2.95 4.8 17.4 -4.1 24.3 M-10.65 2.25 Q-10.75 -7.9 -5.2 -12.7 0.65 -18.15 9.0 -13.5 17.25 -9.3 14.2 5.3 14.0 6.15 13.25 6.7 12.45 7.2 11.55 7.0 10.65 6.8 10.15 6.05 9.6 5.25 9.8 4.35 12.05 -6.3 6.8 -9.55 1.55 -12.55 -2.2 -9.35 -6.25 -5.6 -6.15 2.2 -6.1 12.05 -12.7 18.95 -13.35 19.65 -14.3 19.65 -15.25 19.65 -15.9 19.05 -16.6 18.4 -16.6 17.45 -16.6 16.5 -15.95 15.85 -10.6 10.25 -10.65 2.25 M-6.9 -18.6 Q-7.7 -18.1 -8.6 -18.3 -9.5 -18.5 -10.0 -19.3 -10.5 -20.1 -10.3 -21.0 -10.1 -21.9 -9.3 -22.4 L-8.3 -22.95 Q3.25 -29.1 16.0 -20.7 29.0 -12.75 22.45 15.9 22.25 16.8 21.45 17.3 L19.75 17.6 Q18.85 17.4 18.35 16.6 17.85 15.8 18.05 14.9 23.7 -9.9 13.55 -16.95 3.15 -23.8 -6.2 -18.95 L-6.3 -18.9 -6.9 -18.6" fill="#9f5ba5" fill-rule="evenodd" stroke="none"/>
    </g>
  </defs>
</svg>
