<?xml version="1.0" encoding="UTF-8" standalone="no"?>
<svg xmlns:xlink="http://www.w3.org/1999/xlink" height="51.1px" width="51.1px" xmlns="http://www.w3.org/2000/svg">
  <g transform="matrix(1.0, 0.0, 0.0, 1.0, 25.55, 25.55)">
    <use height="51.1" transform="matrix(1.0, 0.0, 0.0, 1.0, -25.55, -25.55)" width="51.1" xlink:href="#shape0"/>
  </g>
  <defs>
    <g id="shape0" transform="matrix(1.0, 0.0, 0.0, 1.0, 25.55, 25.55)">
      <path d="M-25.55 -25.55 L25.55 -25.55 25.55 25.55 -25.55 25.55 -25.55 -25.55" fill="#ffffff" fill-opacity="0.0" fill-rule="evenodd" stroke="none"/>
      <path d="M-0.3 0.25 Q-0.95 -0.4 -0.95 -1.35 -0.95 -2.3 -0.3 -2.95 0.35 -3.6 1.3 -3.6 2.25 -3.6 2.9 -2.95 L6.15 0.3 11.35 -4.9 Q12.0 -5.6 12.95 -5.6 13.85 -5.6 14.55 -4.95 15.2 -4.3 15.2 -3.35 15.2 -2.45 14.55 -1.75 L7.7 5.1 Q7.05 5.75 6.1 5.75 5.15 5.75 4.5 5.1 L-0.3 0.25 M6.85 -12.3 Q1.95 -12.15 -1.5 -8.7 -5.1 -5.1 -5.1 0.0 -5.1 5.1 -1.5 8.7 1.95 12.15 6.85 12.3 L7.6 12.3 Q12.5 12.2 16.0 8.7 19.6 5.1 19.6 0.0 19.6 -5.1 16.0 -8.7 12.5 -12.2 7.65 -12.3 L6.85 -12.3 M-7.25 16.8 Q-14.25 16.8 -19.15 11.9 -24.05 7.0 -24.05 0.0 -24.05 -7.0 -19.15 -11.9 -14.25 -16.8 -7.25 -16.8 L7.7 -16.8 Q14.4 -16.7 19.2 -11.9 24.1 -7.0 24.1 0.0 24.1 7.0 19.2 11.9 14.4 16.7 7.7 16.8 L-7.25 16.8 M-7.25 12.3 L-4.25 12.3 -4.7 11.9 Q-9.6 7.0 -9.6 0.0 -9.6 -7.0 -4.7 -11.9 L-4.25 -12.3 -7.25 -12.3 Q-12.35 -12.3 -15.95 -8.7 -19.55 -5.1 -19.55 0.0 -19.55 5.1 -15.95 8.7 -12.35 12.3 -7.25 12.3" fill="#9f5ba5" fill-rule="evenodd" stroke="none"/>
    </g>
  </defs>
</svg>
