<?xml version="1.0" encoding="UTF-8" standalone="no"?>
<svg xmlns:xlink="http://www.w3.org/1999/xlink" height="51.1px" width="51.1px" xmlns="http://www.w3.org/2000/svg">
  <g transform="matrix(1.0, 0.0, 0.0, 1.0, 25.55, 25.55)">
    <use height="51.1" transform="matrix(1.0, 0.0, 0.0, 1.0, -25.55, -25.55)" width="51.1" xlink:href="#shape0"/>
  </g>
  <defs>
    <g id="shape0" transform="matrix(1.0, 0.0, 0.0, 1.0, 25.55, 25.55)">
      <path d="M-25.55 -25.55 L25.55 -25.55 25.55 25.55 -25.55 25.55 -25.55 -25.55" fill="#ffffff" fill-opacity="0.0" fill-rule="evenodd" stroke="none"/>
      <path d="M10.15 4.2 Q11.1 4.2 11.75 4.85 12.4 5.5 12.4 6.45 12.4 7.4 11.75 8.05 11.1 8.7 10.15 8.7 L5.35 8.7 Q4.4 8.7 3.75 8.05 3.1 7.4 3.1 6.45 3.1 5.5 3.75 4.85 4.4 4.2 5.35 4.2 L10.15 4.2 M17.2 -19.9 Q24.45 -19.9 24.45 -12.65 L24.45 11.2 Q24.45 18.45 17.2 18.45 L-16.35 18.45 Q-23.6 18.45 -23.6 11.2 L-23.6 -12.65 Q-23.6 -19.9 -16.35 -19.9 L17.2 -19.9 M-16.35 -15.4 Q-19.1 -15.4 -19.1 -12.65 L-19.1 11.2 Q-19.1 13.95 -16.35 13.95 L17.2 13.95 Q19.95 13.95 19.95 11.2 L19.95 -12.65 Q19.95 -15.4 17.2 -15.4 L-16.35 -15.4 M12.05 -3.1 Q13.0 -3.1 13.65 -2.45 14.3 -1.8 14.3 -0.85 14.3 0.1 13.65 0.75 13.0 1.4 12.05 1.4 L5.35 1.4 Q4.4 1.4 3.75 0.75 3.1 0.1 3.1 -0.85 3.1 -1.8 3.75 -2.45 4.4 -3.1 5.35 -3.1 L12.05 -3.1 M-15.55 3.35 L-15.55 3.3 -15.5 3.3 Q-13.85 1.65 -11.6 1.65 L-5.4 1.65 Q-3.15 1.65 -1.5 3.3 L-1.45 3.3 -1.45 3.35 Q-0.25 4.65 0.05 6.35 -0.95 8.4 -4.8 8.55 L-12.2 8.55 Q-16.1 8.4 -17.05 6.35 -16.75 4.65 -15.55 3.35 M-8.35 -10.45 Q-6.95 -10.45 -6.0 -9.55 -4.9 -8.55 -4.9 -7.15 L-4.9 -4.3 Q-4.9 -2.9 -5.9 -1.95 -6.9 -1.0 -8.35 -1.0 L-8.4 -1.0 Q-9.8 -1.0 -10.8 -1.9 L-10.8 -1.95 -10.85 -1.95 Q-11.8 -2.9 -11.8 -4.3 L-11.8 -7.15 Q-11.8 -8.5 -10.9 -9.45 L-10.85 -9.55 -10.75 -9.6 Q-9.75 -10.45 -8.4 -10.45 L-8.35 -10.45 M12.05 -10.35 Q13.0 -10.35 13.65 -9.7 14.3 -9.05 14.3 -8.1 14.3 -7.15 13.65 -6.5 13.0 -5.85 12.05 -5.85 L5.35 -5.85 Q4.4 -5.85 3.75 -6.5 3.1 -7.15 3.1 -8.1 3.1 -9.05 3.75 -9.7 4.4 -10.35 5.35 -10.35 L12.05 -10.35" fill="#9f5ba5" fill-rule="evenodd" stroke="none"/>
    </g>
  </defs>
</svg>
