<?xml version="1.0" encoding="UTF-8" standalone="no"?>
<svg xmlns:xlink="http://www.w3.org/1999/xlink" height="51.1px" width="51.1px" xmlns="http://www.w3.org/2000/svg">
  <g transform="matrix(1.0, 0.0, 0.0, 1.0, 25.55, 25.55)">
    <use height="51.1" transform="matrix(1.0, 0.0, 0.0, 1.0, -25.55, -25.55)" width="51.1" xlink:href="#shape0"/>
  </g>
  <defs>
    <g id="shape0" transform="matrix(1.0, 0.0, 0.0, 1.0, 25.55, 25.55)">
      <path d="M-25.55 -25.55 L25.55 -25.55 25.55 25.55 -25.55 25.55 -25.55 -25.55" fill="#ffffff" fill-opacity="0.0" fill-rule="evenodd" stroke="none"/>
      <path d="M6.7 2.2 Q3.85 5.05 -0.2 5.05 -4.25 5.05 -7.1 2.2 -9.95 -0.65 -9.95 -4.7 -9.95 -8.75 -7.1 -11.6 -4.25 -14.45 -0.2 -14.45 3.85 -14.45 6.7 -11.6 9.55 -8.75 9.55 -4.7 9.55 -0.65 6.7 2.2 M5.05 -4.7 Q5.05 -6.85 3.5 -8.4 1.95 -9.95 -0.2 -9.95 -2.35 -9.95 -3.9 -8.4 -5.45 -6.85 -5.45 -4.7 -5.45 -2.55 -3.9 -1.0 -2.35 0.55 -0.2 0.55 1.95 0.55 3.5 -1.0 5.05 -2.55 5.05 -4.7 M14.15 -4.75 Q14.4 -10.85 10.15 -15.15 5.85 -19.45 -0.3 -19.45 -6.4 -19.45 -10.7 -15.15 -15.0 -10.85 -14.8 -5.05 -14.6 0.9 -11.75 5.1 L-4.6 15.1 Q-1.7 19.15 -0.1 19.4 1.6 19.0 4.35 15.3 L11.05 5.85 Q13.85 1.65 14.15 -4.75 M14.8 8.35 L14.75 8.4 8.0 17.95 Q3.6 23.9 0.25 23.9 -3.35 24.55 -8.25 17.7 L-8.25 17.75 -15.45 7.65 Q-19.0 2.5 -19.3 -4.9 -19.6 -12.65 -13.9 -18.35 -8.3 -23.95 -0.3 -23.95 7.75 -23.95 13.35 -18.35 L13.35 -18.3 Q19.0 -12.65 18.65 -4.55 18.25 3.25 14.8 8.35" fill="#9f5ba5" fill-rule="evenodd" stroke="none"/>
    </g>
  </defs>
</svg>
