<?xml version="1.0" encoding="UTF-8" standalone="no"?>
<svg xmlns:xlink="http://www.w3.org/1999/xlink" height="51.1px" width="51.1px" xmlns="http://www.w3.org/2000/svg">
  <g transform="matrix(1.0, 0.0, 0.0, 1.0, 25.25, 25.55)">
    <use height="51.1" transform="matrix(1.0, 0.0, 0.0, 1.0, -25.25, -25.55)" width="51.1" xlink:href="#shape0"/>
  </g>
  <defs>
    <g id="shape0" transform="matrix(1.0, 0.0, 0.0, 1.0, 25.25, 25.55)">
      <path d="M-13.9 4.05 Q-10.0 8.5 -2.4 14.65 L1.85 1.65 -4.05 1.65 Q-4.8 1.65 -5.35 1.2 -6.0 0.75 -6.2 0.1 L-6.15 -1.35 -2.1 -12.95 -3.2 -14.35 -3.25 -14.4 Q-5.95 -17.35 -9.75 -17.35 -13.55 -17.35 -16.25 -14.4 L-16.3 -14.35 Q-19.15 -11.25 -19.2 -6.7 L-19.2 -6.65 Q-19.2 -2.05 -13.9 4.05 M-2.65 20.25 L-2.65 20.2 Q-12.6 12.4 -17.3 7.0 -24.0 -0.75 -23.7 -6.8 -23.55 -13.05 -19.6 -17.4 -15.5 -21.85 -9.75 -21.85 -4.0 -21.85 0.1 -17.4 L0.15 -17.35 0.35 -17.15 0.5 -17.35 0.55 -17.4 Q4.65 -21.85 10.4 -21.85 16.15 -21.85 20.25 -17.4 L20.3 -17.4 Q24.2 -13.05 24.35 -6.8 24.65 -0.75 17.95 7.0 11.95 13.95 1.5 21.45 0.9 21.85 0.15 21.85 -0.6 21.85 -1.2 21.35 L-2.6 20.25 -2.65 20.25 M14.55 4.05 Q19.85 -2.05 19.85 -6.65 L19.85 -6.7 Q19.8 -11.25 16.95 -14.35 L16.95 -14.4 Q14.2 -17.35 10.4 -17.35 6.6 -17.35 3.9 -14.4 L3.85 -14.35 2.45 -12.4 2.4 -12.3 -0.85 -2.85 4.95 -2.85 6.3 -2.4 7.1 -1.3 Q7.35 -0.6 7.1 0.1 L2.15 15.4 Q9.8 9.55 14.55 4.05" fill="#9f5ba5" fill-rule="evenodd" stroke="none"/>
      <path d="M-25.25 -25.55 L25.85 -25.55 25.85 25.55 -25.25 25.55 -25.25 -25.55" fill="#ffffff" fill-opacity="0.0" fill-rule="evenodd" stroke="none"/>
    </g>
  </defs>
</svg>
