<?xml version="1.0" encoding="UTF-8" standalone="no"?>
<svg xmlns:xlink="http://www.w3.org/1999/xlink" height="51.1px" width="51.1px" xmlns="http://www.w3.org/2000/svg">
  <g transform="matrix(1.0, 0.0, 0.0, 1.0, 25.55, 25.55)">
    <use height="51.1" transform="matrix(1.0, 0.0, 0.0, 1.0, -25.55, -25.55)" width="51.1" xlink:href="#shape0"/>
  </g>
  <defs>
    <g id="shape0" transform="matrix(1.0, 0.0, 0.0, 1.0, 25.55, 25.55)">
      <path d="M-25.55 -25.55 L25.55 -25.55 25.55 25.55 -25.55 25.55 -25.55 -25.55" fill="#ffffff" fill-opacity="0.0" fill-rule="evenodd" stroke="none"/>
      <path d="M16.9 16.9 Q9.9 23.9 0.0 23.9 -9.9 23.9 -16.9 16.9 -23.9 9.9 -23.9 0.0 -23.9 -9.9 -16.9 -16.9 -9.9 -23.9 0.0 -23.9 9.9 -23.9 16.9 -16.9 23.9 -9.9 23.9 0.0 23.9 9.9 16.9 16.9 M2.4 9.5 Q2.4 10.45 1.75 11.1 1.1 11.75 0.15 11.75 -0.8 11.75 -1.45 11.1 -2.1 10.45 -2.1 9.5 L-2.1 -2.45 Q-2.1 -3.4 -1.45 -4.05 -0.8 -4.7 0.15 -4.7 1.1 -4.7 1.75 -4.05 2.4 -3.4 2.4 -2.45 L2.4 9.5 M19.4 0.0 Q19.4 -8.0 13.7 -13.7 8.0 -19.4 0.0 -19.4 -8.0 -19.4 -13.7 -13.7 -19.4 -8.0 -19.4 0.0 -19.4 8.0 -13.7 13.7 -8.0 19.4 0.0 19.4 8.0 19.4 13.7 13.7 19.4 8.0 19.4 0.0 M2.4 -9.35 Q2.4 -8.4 1.75 -7.75 1.1 -7.1 0.15 -7.1 -0.8 -7.1 -1.45 -7.75 -2.1 -8.4 -2.1 -9.35 L-2.1 -9.95 Q-2.1 -10.9 -1.45 -11.55 -0.8 -12.2 0.15 -12.2 1.1 -12.2 1.75 -11.55 2.4 -10.9 2.4 -9.95 L2.4 -9.35" fill="#9f5ba5" fill-rule="evenodd" stroke="none"/>
    </g>
  </defs>
</svg>
