<?xml version="1.0" encoding="UTF-8" standalone="no"?>
<svg xmlns:xlink="http://www.w3.org/1999/xlink" height="51.1px" width="51.1px" xmlns="http://www.w3.org/2000/svg">
  <g transform="matrix(1.0, 0.0, 0.0, 1.0, 25.55, 25.55)">
    <use height="51.1" transform="matrix(1.0, 0.0, 0.0, 1.0, -25.55, -25.55)" width="51.1" xlink:href="#shape0"/>
  </g>
  <defs>
    <g id="shape0" transform="matrix(1.0, 0.0, 0.0, 1.0, 25.55, 25.55)">
      <path d="M-25.55 -25.55 L25.55 -25.55 25.55 25.55 -25.55 25.55 -25.55 -25.55" fill="#ffffff" fill-opacity="0.0" fill-rule="evenodd" stroke="none"/>
      <path d="M-7.35 12.05 Q-7.35 13.0 -8.0 13.65 -8.65 14.3 -9.6 14.3 -10.55 14.3 -11.2 13.65 -11.85 13.0 -11.85 12.05 L-11.85 7.3 Q-11.85 6.35 -11.2 5.7 -10.55 5.05 -9.6 5.05 -8.65 5.05 -8.0 5.7 -7.35 6.35 -7.35 7.3 L-7.35 12.05 M2.45 12.05 Q2.45 13.0 1.8 13.65 1.15 14.3 0.2 14.3 -0.75 14.3 -1.4 13.65 -2.05 13.0 -2.05 12.05 L-2.05 -2.25 Q-2.05 -3.2 -1.4 -3.85 -0.75 -4.5 0.2 -4.5 1.15 -4.5 1.8 -3.85 2.45 -3.2 2.45 -2.25 L2.45 12.05 M-13.75 -19.5 Q-19.5 -19.5 -19.5 -13.75 L-19.5 13.8 Q-19.5 19.55 -13.75 19.55 L13.8 19.55 Q19.55 19.55 19.55 13.8 L19.55 -13.75 Q19.55 -19.5 13.8 -19.5 L-13.75 -19.5 M12.05 12.05 Q12.05 13.0 11.4 13.65 10.75 14.3 9.8 14.3 8.85 14.3 8.2 13.65 7.55 13.0 7.55 12.05 L7.55 -12.4 Q7.55 -13.35 8.2 -14.0 8.85 -14.65 9.8 -14.65 10.75 -14.65 11.4 -14.0 12.05 -13.35 12.05 -12.4 L12.05 12.05 M13.8 -24.0 Q24.05 -24.0 24.05 -13.75 L24.05 13.8 Q24.05 24.05 13.8 24.05 L-13.75 24.05 Q-24.0 24.05 -24.0 13.8 L-24.0 -13.75 Q-24.0 -24.0 -13.75 -24.0 L13.8 -24.0" fill="#9f5ba5" fill-rule="evenodd" stroke="none"/>
    </g>
  </defs>
</svg>
