<?xml version="1.0" encoding="UTF-8" standalone="no"?>
<svg xmlns:xlink="http://www.w3.org/1999/xlink" height="51.1px" width="51.1px" xmlns="http://www.w3.org/2000/svg">
  <g transform="matrix(1.0, 0.0, 0.0, 1.0, 25.55, 25.55)">
    <use height="51.1" transform="matrix(1.0, 0.0, 0.0, 1.0, -25.55, -25.55)" width="51.1" xlink:href="#shape0"/>
  </g>
  <defs>
    <g id="shape0" transform="matrix(1.0, 0.0, 0.0, 1.0, 25.55, 25.55)">
      <path d="M-25.55 -25.55 L25.55 -25.55 25.55 25.55 -25.55 25.55 -25.55 -25.55" fill="#ffffff" fill-opacity="0.0" fill-rule="evenodd" stroke="none"/>
      <path d="M0.15 24.05 Q-2.75 24.05 -4.8 22.0 -5.95 20.85 -6.35 19.45 L-7.4 16.5 7.9 16.5 6.65 19.6 Q6.15 20.9 5.05 22.0 L5.1 21.95 Q3.05 24.05 0.15 24.05 M0.0 -19.55 Q-5.05 -19.55 -8.65 -16.0 -12.2 -12.4 -12.2 -7.35 L-12.2 -7.3 Q-12.3 -1.3 -16.7 6.35 L-17.25 7.25 -15.95 7.4 16.0 7.4 17.35 7.25 16.8 6.35 16.75 6.35 Q12.35 -1.3 12.25 -7.3 L12.25 -7.35 12.25 -7.5 12.25 -7.7 12.25 -7.85 12.25 -7.95 12.25 -8.45 Q11.95 -11.7 10.15 -14.25 L8.7 -16.0 7.6 -16.95 6.35 -17.85 4.55 -18.7 4.5 -18.75 2.45 -19.35 2.5 -19.35 0.05 -19.55 0.0 -19.55 M0.05 -24.05 L3.3 -23.75 3.35 -23.75 6.1 -22.95 6.15 -22.95 8.65 -21.7 8.8 -21.6 10.2 -20.6 10.25 -20.6 11.9 -19.2 13.85 -16.8 13.85 -16.85 Q16.4 -13.2 16.75 -8.55 L16.75 -8.2 16.75 -7.85 16.75 -7.7 16.75 -7.5 16.75 -7.4 16.75 -7.35 Q16.95 -2.35 20.65 4.1 L20.65 4.05 Q22.7 7.55 21.25 9.5 20.35 11.6 16.3 11.9 L16.15 11.9 -16.1 11.9 -16.25 11.9 Q-20.3 11.6 -21.2 9.5 -22.65 7.55 -20.55 4.05 L-20.6 4.1 Q-16.9 -2.4 -16.7 -7.4 -16.7 -14.3 -11.85 -19.15 L-11.8 -19.2 Q-6.9 -24.05 0.0 -24.05 L0.05 -24.05" fill="#9f5ba5" fill-rule="evenodd" stroke="none"/>
    </g>
  </defs>
</svg>
