<?xml version="1.0" encoding="UTF-8" standalone="no"?>
<svg xmlns:xlink="http://www.w3.org/1999/xlink" height="51.1px" width="51.1px" xmlns="http://www.w3.org/2000/svg">
  <g transform="matrix(1.0, 0.0, 0.0, 1.0, 25.55, 25.55)">
    <use height="51.1" transform="matrix(1.0, 0.0, 0.0, 1.0, -25.55, -25.55)" width="51.1" xlink:href="#shape0"/>
  </g>
  <defs>
    <g id="shape0" transform="matrix(1.0, 0.0, 0.0, 1.0, 25.55, 25.55)">
      <path d="M-25.55 -25.55 L25.55 -25.55 25.55 25.55 -25.55 25.55 -25.55 -25.55" fill="#ffffff" fill-opacity="0.0" fill-rule="evenodd" stroke="none"/>
      <path d="M-9.9 -22.1 Q-2.65 -22.1 -2.65 -14.85 L-2.65 -9.85 Q-2.65 -2.6 -9.9 -2.6 L-15.2 -2.6 Q-22.45 -2.6 -22.45 -9.85 L-22.45 -14.85 Q-22.45 -22.1 -15.2 -22.1 L-9.9 -22.1 M-10.4 -12.2 Q-10.4 -11.25 -11.1 -10.6 -11.75 -9.9 -12.7 -9.9 -13.65 -9.9 -14.35 -10.6 -15.0 -11.25 -15.0 -12.2 -15.0 -13.15 -14.35 -13.85 -13.65 -14.5 -12.7 -14.5 -11.75 -14.5 -11.1 -13.85 -10.4 -13.15 -10.4 -12.2 M2.0 9.6 Q2.0 2.35 9.25 2.35 L14.25 2.35 Q21.5 2.35 21.5 9.6 L21.5 14.9 Q21.5 22.15 14.25 22.15 L9.25 22.15 Q2.0 22.15 2.0 14.9 L2.0 9.6 M14.55 -22.1 Q21.8 -22.1 21.8 -14.85 L21.8 -9.85 Q21.8 -2.6 14.55 -2.6 L9.25 -2.6 Q2.0 -2.6 2.0 -9.85 L2.0 -14.85 Q2.0 -22.1 9.25 -22.1 L14.55 -22.1 M9.25 -17.6 Q6.5 -17.6 6.5 -14.85 L6.5 -9.85 Q6.5 -7.1 9.25 -7.1 L14.55 -7.1 Q17.3 -7.1 17.3 -9.85 L17.3 -14.85 Q17.3 -17.6 14.55 -17.6 L9.25 -17.6 M-22.15 9.6 Q-22.15 2.35 -14.9 2.35 L-9.9 2.35 Q-2.65 2.35 -2.65 9.6 L-2.65 14.9 Q-2.65 22.15 -9.9 22.15 L-14.9 22.15 Q-22.15 22.15 -22.15 14.9 L-22.15 9.6 M-15.2 -17.6 Q-17.95 -17.6 -17.95 -14.85 L-17.95 -9.85 Q-17.95 -7.1 -15.2 -7.1 L-9.9 -7.1 Q-7.15 -7.1 -7.15 -9.85 L-7.15 -14.85 Q-7.15 -17.6 -9.9 -17.6 L-15.2 -17.6 M14.1 12.3 Q14.1 13.25 13.4 13.9 12.75 14.6 11.8 14.6 10.85 14.6 10.15 13.9 9.5 13.25 9.5 12.3 9.5 11.35 10.15 10.65 10.85 10.0 11.8 10.0 12.75 10.0 13.4 10.65 14.1 11.35 14.1 12.3 M-17.65 14.9 Q-17.65 17.65 -14.9 17.65 L-9.9 17.65 Q-7.15 17.65 -7.15 14.9 L-7.15 9.6 Q-7.15 6.85 -9.9 6.85 L-14.9 6.85 Q-17.65 6.85 -17.65 9.6 L-17.65 14.9 M6.5 14.9 Q6.5 17.65 9.25 17.65 L14.25 17.65 Q17.0 17.65 17.0 14.9 L17.0 9.6 Q17.0 6.85 14.25 6.85 L9.25 6.85 Q6.5 6.85 6.5 9.6 L6.5 14.9" fill="#9f5ba5" fill-rule="evenodd" stroke="none"/>
    </g>
  </defs>
</svg>
