<?xml version="1.0" encoding="UTF-8" standalone="no"?>
    <svg xmlns:xlink="http://www.w3.org/1999/xlink" height="90.0px" width="90.0px" xmlns="http://www.w3.org/2000/svg">
      <g transform="matrix(1.0, 0.0, 0.0, 1.0, 45.05, 45.05)">
        <use height="90.0" transform="matrix(1.0, 0.0, 0.0, 1.0, -45.05, -45.05)" width="90.0" xlink:href="#shape0"/>
      </g>
      <defs>
        <g id="shape0" transform="matrix(1.0, 0.0, 0.0, 1.0, 45.05, 45.05)">
          <path d="M40.75 -2.15 Q40.75 15.6 28.15 28.15 15.6 40.7 -2.15 40.7 -19.9 40.7 -32.5 28.15 -45.05 15.6 -45.05 -2.15 -45.05 -19.95 -32.5 -32.5 -19.9 -45.05 -2.15 -45.05 15.6 -45.05 28.15 -32.5 40.75 -19.95 40.75 -2.15" fill="#bd78c6" fill-rule="evenodd" stroke="none"/>
          <path d="M-20.35 -5.35 Q-12.55 -12.8 -1.5 -12.8 9.55 -12.8 17.35 -5.35 19.4 -3.35 20.9 -1.15 L15.95 3.75 14.15 1.4 Q7.65 -6.05 -1.5 -6.05 -10.65 -6.05 -17.15 1.4 L-19.45 4.45 -24.35 -0.5 Q-22.75 -3.05 -20.35 -5.35 M-25.35 -18.55 Q-15.5 -26.05 -1.5 -26.05 12.5 -26.05 22.4 -18.55 27.4 -14.75 29.85 -10.15 L25.3 -5.55 Q23.2 -8.7 20.0 -11.4 11.1 -18.85 -1.5 -18.85 -14.1 -18.85 -23.05 -11.4 -26.6 -8.35 -28.75 -4.85 L-33.25 -9.35 Q-30.8 -14.45 -25.35 -18.55 M-15.55 8.2 Q-9.75 0.7 -1.5 0.7 6.4 0.7 12.1 7.6 L7.35 12.4 Q3.45 7.75 -1.5 7.75 -6.8 7.75 -10.9 13.0 L-15.6 8.3 -15.55 8.2 M2.3 17.15 L2.05 18.65 1.15 19.95 Q0.0 21.1 -1.6 21.1 -3.2 21.1 -4.35 19.95 L-5.25 18.65 -5.5 17.15 Q-5.5 15.55 -4.35 14.4 -3.2 13.3 -1.6 13.3 0.0 13.3 1.15 14.4 2.3 15.55 2.3 17.15" fill="#8d4198" fill-rule="evenodd" stroke="none"/>
          <path d="M44.95 26.0 Q44.95 33.85 39.4 39.4 33.9 44.95 26.05 44.95 18.2 44.95 12.65 39.4 7.15 33.85 7.15 26.0 7.15 18.2 12.65 12.65 18.2 7.1 26.05 7.1 33.9 7.1 39.4 12.65 44.95 18.2 44.95 26.0" fill="#06dbbd" fill-rule="evenodd" stroke="none"/>
          <path d="M33.3 19.05 L26.25 26.15 33.3 33.2 M26.25 26.15 L19.15 33.2 M19.15 19.05 L26.25 26.15" fill="none" stroke="#ffffff" stroke-linecap="round" stroke-linejoin="round" stroke-width="2.8000000000000003"/>
        </g>
      </defs>
    </svg>