<?xml version="1.0" encoding="UTF-8" standalone="no"?>
<svg xmlns:xlink="http://www.w3.org/1999/xlink" height="66.7px" width="66.7px" xmlns="http://www.w3.org/2000/svg">
  <g transform="matrix(1.0, 0.0, 0.0, 1.0, 33.35, 33.35)">
    <use height="66.7" transform="matrix(1.0, 0.0, 0.0, 1.0, -33.35, -33.35)" width="66.7" xlink:href="#shape0"/>
  </g>
  <defs>
    <g id="shape0" transform="matrix(1.0, 0.0, 0.0, 1.0, 33.35, 33.35)">
      <path d="M-33.35 -33.35 L33.35 -33.35 33.35 33.35 -33.35 33.35 -33.35 -33.35" fill="#ffffff" fill-opacity="0.0" fill-rule="evenodd" stroke="none"/>
      <path d="M-30.8 -25.9 Q-31.85 -25.9 -32.55 -26.6 -33.3 -27.35 -33.3 -28.4 -33.3 -29.45 -32.55 -30.15 -31.85 -30.9 -30.8 -30.9 L-27.15 -30.9 Q-26.1 -30.9 -25.35 -30.15 -24.65 -29.45 -24.65 -28.4 -24.65 -27.35 -25.35 -26.6 -26.1 -25.9 -27.15 -25.9 L-30.8 -25.9 M-4.5 6.45 Q-2.45 6.45 -1.0 5.45 L-1.0 5.4 Q-0.1 4.75 0.0 3.9 0.0 3.0 -0.75 2.45 L-1.05 2.25 -6.3 0.25 Q-8.05 -0.15 -9.95 -1.85 L-10.0 -1.9 Q-12.35 -4.0 -12.35 -7.2 -12.45 -10.5 -9.25 -12.8 L-9.25 -12.85 Q-6.6 -14.75 -2.85 -14.75 0.85 -14.75 3.5 -12.85 4.35 -12.25 4.55 -11.2 4.7 -10.2 4.1 -9.35 3.5 -8.5 2.5 -8.3 1.45 -8.15 0.6 -8.75 -0.85 -9.75 -2.85 -9.75 -4.9 -9.75 -6.35 -8.75 -7.25 -8.1 -7.35 -7.2 -7.35 -6.25 -6.7 -5.65 L-6.65 -5.6 Q-5.75 -4.8 -5.0 -4.55 L-4.65 -4.45 1.0 -2.3 1.5 -2.05 2.2 -1.55 2.3 -1.5 Q5.0 0.6 5.0 3.9 5.1 7.2 1.95 9.5 L1.9 9.5 Q-0.75 11.45 -4.5 11.45 -7.95 11.5 -11.7 9.55 -12.6 9.05 -12.9 8.05 -13.25 7.05 -12.75 6.15 -12.3 5.25 -11.3 4.95 L-9.4 5.1 Q-6.85 6.4 -4.5 6.45 M12.1 10.8 L11.1 12.1 Q10.4 12.55 9.7 12.55 8.95 12.4 8.65 11.8 8.35 11.15 8.65 10.4 L16.2 -11.15 Q16.5 -11.95 17.2 -12.4 17.85 -12.95 18.6 -12.8 19.3 -12.7 19.6 -12.1 19.9 -11.5 19.65 -10.65 L12.1 10.8 M-27.65 -13.5 Q-28.7 -13.5 -29.4 -14.2 -30.15 -14.95 -30.15 -16.0 -30.15 -17.05 -29.4 -17.75 -28.7 -18.5 -27.65 -18.5 L-20.85 -18.5 -17.7 -22.15 Q-15.55 -24.3 -13.2 -25.9 L-17.95 -25.9 Q-19.0 -25.9 -19.7 -26.6 -20.45 -27.35 -20.45 -28.4 -20.45 -29.45 -19.7 -30.15 -19.0 -30.9 -17.95 -30.9 L2.7 -30.9 2.8 -30.9 2.85 -30.9 3.45 -30.9 Q15.85 -30.9 24.6 -22.15 33.35 -13.4 33.35 -1.0 33.35 11.35 24.6 20.1 L24.55 20.15 Q15.8 28.9 3.45 28.9 -2.6 28.9 -7.75 26.85 L-14.6 29.95 -16.7 30.85 Q-17.85 31.1 -18.0 29.8 L-18.15 27.65 -18.15 19.7 Q-24.65 13.0 -26.0 4.15 L-30.3 4.15 Q-31.35 4.15 -32.05 3.45 -32.8 2.7 -32.8 1.65 -32.8 0.6 -32.05 -0.1 -31.35 -0.85 -30.3 -0.85 L-26.45 -0.85 -26.45 -1.0 Q-26.45 -7.8 -23.8 -13.5 L-27.65 -13.5 M-21.45 -1.0 L-21.35 1.1 -21.3 1.45 Q-20.55 10.2 -14.15 16.6 L-13.85 16.9 Q-13.15 17.6 -13.15 18.65 L-13.15 23.8 -8.8 21.85 -7.8 21.6 -6.75 21.85 Q-2.1 23.9 3.45 23.9 13.75 23.9 21.05 16.6 28.35 9.3 28.35 -1.0 28.35 -11.3 21.05 -18.6 13.75 -25.9 3.45 -25.9 L2.85 -25.9 2.75 -25.9 Q-7.15 -25.65 -14.2 -18.6 L-14.15 -18.6 Q-16.05 -16.75 -17.4 -14.7 L-17.45 -14.6 -17.7 -14.3 Q-21.45 -8.4 -21.45 -1.0" fill="#74228c" fill-rule="evenodd" stroke="none"/>
    </g>
  </defs>
</svg>
