<?xml version="1.0" encoding="UTF-8" standalone="no"?>
<svg xmlns:xlink="http://www.w3.org/1999/xlink" height="61.2px" width="61.2px" xmlns="http://www.w3.org/2000/svg">
  <g transform="matrix(1.0, 0.0, 0.0, 1.0, 30.6, 30.55)">
    <use height="61.2" transform="matrix(1.0, 0.0, 0.0, 1.0, -30.6, -30.55)" width="61.2" xlink:href="#shape0"/>
  </g>
  <defs>
    <g id="shape0" transform="matrix(1.0, 0.0, 0.0, 1.0, 30.6, 30.55)">
      <path d="M-30.6 -30.55 L30.6 -30.55 30.6 30.65 -30.6 30.65 -30.6 -30.55" fill="#ffffff" fill-opacity="0.0" fill-rule="evenodd" stroke="none"/>
      <path d="M-30.55 0.25 Q-30.55 -6.95 -20.9 -13.65 -12.35 -19.65 0.0 -19.5 L11.45 -17.85 15.45 -21.4 Q16.35 -22.4 17.65 -22.3 19.0 -22.4 20.0 -21.4 20.9 -20.75 20.9 -19.3 20.9 -18.3 20.0 -17.2 L-21.65 21.7 Q-22.65 22.35 -24.1 22.35 -25.35 22.35 -26.35 21.7 -27.45 20.6 -27.45 19.45 L-26.35 17.35 -21.9 13.25 Q-30.55 7.05 -30.55 0.25 M-12.2 0.05 L-11.65 3.7 3.9 -10.65 0.0 -11.3 Q-5.35 -11.3 -8.65 -8.1 -12.35 -4.65 -12.2 0.05 M30.55 -0.2 Q30.9 6.45 21.45 13.25 12.45 19.45 0.2 19.6 L-11.0 18.35 -3.2 11.0 0.0 11.35 Q5.0 11.35 8.45 8.0 12.1 4.7 12.1 0.05 12.1 -1.55 11.75 -2.85 L22.1 -12.5 Q30.2 -6.55 30.55 -0.2" fill="#732080" fill-rule="evenodd" stroke="none"/>
    </g>
  </defs>
</svg>
