<?xml version="1.0" encoding="UTF-8" standalone="no"?>
<svg xmlns:xlink="http://www.w3.org/1999/xlink" height="57.75px" width="57.75px" xmlns="http://www.w3.org/2000/svg">
  <g transform="matrix(1.0, 0.0, 0.0, 1.0, 28.85, 28.9)">
    <use height="57.75" transform="matrix(1.0, 0.0, 0.0, 1.0, -28.85, -28.9)" width="57.75" xlink:href="#shape0"/>
  </g>
  <defs>
    <g id="shape0" transform="matrix(1.0, 0.0, 0.0, 1.0, 28.85, 28.9)">
      <path d="M-28.85 -28.9 L28.9 -28.9 28.9 28.85 -28.85 28.85 -28.85 -28.9" fill="#ffffff" fill-opacity="0.0" fill-rule="evenodd" stroke="none"/>
      <path d="M19.95 -25.45 Q25.45 -25.45 25.45 -19.95 L25.45 -12.45 Q25.45 -11.85 25.0 -11.4 24.55 -10.95 23.95 -10.95 23.35 -10.95 22.9 -11.4 22.45 -11.85 22.45 -12.45 L22.45 -19.95 Q22.45 -22.45 19.95 -22.45 L12.5 -22.45 Q11.9 -22.45 11.45 -22.9 11.0 -23.35 11.0 -23.95 11.0 -24.55 11.45 -25.0 11.9 -25.45 12.5 -25.45 L19.95 -25.45 M-13.9 4.75 L-19.8 4.75 -20.85 4.3 Q-21.3 3.85 -21.3 3.25 -21.3 2.65 -20.85 2.2 -20.4 1.75 -19.8 1.75 L20.2 1.75 Q20.8 1.75 21.25 2.2 21.7 2.65 21.7 3.25 L21.25 4.3 Q20.8 4.75 20.2 4.75 L14.0 4.75 11.0 4.75 -10.9 4.75 -13.9 4.75 M25.45 19.9 Q25.45 25.4 19.95 25.4 L12.5 25.4 Q11.9 25.4 11.45 24.95 11.0 24.5 11.0 23.9 11.0 23.3 11.45 22.85 11.9 22.4 12.5 22.4 L19.95 22.4 Q22.45 22.4 22.45 19.9 L22.45 12.45 Q22.45 11.85 22.9 11.4 23.35 10.95 23.95 10.95 24.55 10.95 25.0 11.4 25.45 11.85 25.45 12.45 L25.45 19.9 M-19.9 25.4 Q-25.4 25.4 -25.4 19.9 L-25.4 12.45 Q-25.4 11.85 -24.95 11.4 -24.5 10.95 -23.9 10.95 -23.3 10.95 -22.85 11.4 -22.4 11.85 -22.4 12.45 L-22.4 19.9 Q-22.4 22.4 -19.9 22.4 L-12.4 22.4 Q-11.8 22.4 -11.35 22.85 -10.9 23.3 -10.9 23.9 -10.9 24.5 -11.35 24.95 -11.8 25.4 -12.4 25.4 L-19.9 25.4 M-25.4 -19.95 Q-25.4 -25.45 -19.9 -25.45 L-12.4 -25.45 Q-11.8 -25.45 -11.35 -25.0 -10.9 -24.55 -10.9 -23.95 -10.9 -23.35 -11.35 -22.9 -11.8 -22.45 -12.4 -22.45 L-19.9 -22.45 Q-22.4 -22.45 -22.4 -19.95 L-22.4 -12.45 Q-22.4 -11.85 -22.85 -11.4 -23.3 -10.95 -23.9 -10.95 -24.5 -10.95 -24.95 -11.4 -25.4 -11.85 -25.4 -12.45 L-25.4 -19.95" fill="#333333" fill-rule="evenodd" stroke="none"/>
      <path d="M-13.9 -12.45 L-13.45 -13.5 Q-13.0 -13.95 -12.4 -13.95 L12.5 -13.95 Q13.1 -13.95 13.55 -13.5 L14.0 -12.45 14.0 -6.25 Q14.0 -5.65 13.55 -5.2 13.1 -4.75 12.5 -4.75 11.9 -4.75 11.45 -5.2 11.0 -5.65 11.0 -6.25 L11.0 -10.95 -10.9 -10.95 -10.9 -6.25 Q-10.9 -5.65 -11.35 -5.2 -11.8 -4.75 -12.4 -4.75 -13.0 -4.75 -13.45 -5.2 -13.9 -5.65 -13.9 -6.25 L-13.9 -12.45 M-13.9 4.75 L-10.9 4.75 -10.9 10.95 11.0 10.95 11.0 4.75 14.0 4.75 14.0 12.45 13.55 13.5 Q13.1 13.95 12.5 13.95 L-12.4 13.95 Q-13.0 13.95 -13.45 13.5 L-13.9 12.45 -13.9 4.75" fill="#666666" fill-rule="evenodd" stroke="none"/>
    </g>
  </defs>
</svg>
