<?xml version="1.0" encoding="UTF-8" standalone="no"?>
<svg xmlns:xlink="http://www.w3.org/1999/xlink" height="729.6px" width="804.5px" xmlns="http://www.w3.org/2000/svg">
  <g transform="matrix(1.0, 0.0, 0.0, 1.0, 395.65, 355.55)">
    <use height="729.6" transform="matrix(1.0, 0.0, 0.0, 1.0, -395.65, -355.55)" width="804.5" xlink:href="#shape0"/>
  </g>
  <defs>
    <g id="shape0" transform="matrix(1.0, 0.0, 0.0, 1.0, 395.65, 355.55)">
      <path d="M-149.5 322.85 Q86.9 271.4 289.7 307.65 492.45 343.85 350.2 357.4 207.95 370.95 85.55 373.65 -36.9 376.35 -27.6 361.8 -318.1 372.55 -149.5 322.85" fill="#e4e4e4" fill-rule="evenodd" stroke="none"/>
      <path d="M-48.85 -259.25 Q-61.35 -293.6 -54.0 -311.9 -46.55 -330.6 -17.5 -335.1 L119.65 -354.25 Q171.5 -363.1 188.4 -310.75 201.5 -270.05 211.9 -230.95 269.25 -231.75 320.5 -219.65 408.5 -187.95 393.5 -125.3 373.7 -42.55 276.0 -1.4 276.7 37.3 251.3 33.55 L251.35 44.75 Q252.1 115.3 203.0 110.85 L200.7 111.1 Q232.55 182.85 241.35 280.45 259.1 283.9 273.25 292.8 296.25 307.3 296.25 327.8 L295.9 332.7 Q257.2 333.25 213.5 311.5 208.3 208.55 171.3 114.1 L75.65 123.95 17.25 310.75 Q15.55 315.15 13.55 322.85 9.85 336.75 6.35 346.15 2.4 349.3 -1.05 351.15 -9.25 355.6 -20.9 355.6 -32.55 355.6 -40.05 351.1 -47.55 346.6 -47.4 342.9 -47.25 339.2 -44.6 333.2 -42.0 327.15 -36.6 324.15 -35.2 323.4 -29.1 321.3 -22.15 318.95 -10.65 297.75 L45.5 115.85 -81.35 97.95 Q-82.0 215.5 -194.15 269.65 -306.3 323.75 -395.65 258.35 L-395.65 -19.2 Q-337.75 -55.05 -274.25 -90.45 -285.6 -92.45 -296.35 -102.4 -307.1 -112.35 -312.8 -134.3 -318.5 -156.25 -305.5 -174.25 -292.5 -192.25 -266.45 -191.2 -240.4 -190.1 -221.55 -176.05 -202.7 -162.0 -193.15 -147.1 -183.6 -132.2 -184.45 -128.3 -110.85 -160.65 -26.3 -191.65 -36.15 -224.35 -48.85 -259.25 M363.8 -136.4 Q373.9 -186.2 220.15 -198.35 241.55 -109.35 248.3 -29.15 351.8 -77.25 363.8 -136.4 M-1.2 -86.9 Q-7.75 -125.15 -19.3 -167.3 L-180.35 -57.65 -185.75 -32.9 7.05 -1.25 Q6.75 -40.55 -1.2 -86.9" fill="#f12648" fill-rule="evenodd" stroke="none"/>
      <path d="M-305.5 -174.25 Q-292.5 -192.25 -266.45 -191.2 -240.4 -190.1 -221.55 -176.05 -202.7 -162.0 -193.15 -147.1 -183.6 -132.2 -184.45 -128.3 -269.4 -202.8 -313.75 -155.65 -311.9 -165.4 -305.5 -174.25 M-185.75 -32.9 L7.05 -1.25 -186.95 -14.35 -185.75 -32.9 M-19.3 -167.3 L-180.35 -57.65 Q-172.25 -105.65 -19.3 -167.3 M-81.35 97.95 Q-82.0 215.5 -194.15 269.65 L-206.05 275.05 -187.7 212.2 Q-128.9 187.0 -139.2 91.45 L-81.35 97.95 M171.3 114.1 L200.7 111.1 200.75 111.1 Q215.05 143.35 224.7 180.85 185.8 98.6 188.8 165.15 181.15 139.3 171.3 114.1 M75.65 123.95 L62.35 166.55 Q43.4 134.0 28.05 172.5 L45.5 115.85 Q55.3 122.0 75.65 123.95" fill="#b72957" fill-rule="evenodd" stroke="none"/>
      <path d="M-7.9 -298.6 L133.9 -315.2 Q161.45 -315.8 175.45 -276.35 224.35 -138.8 226.85 19.35 227.85 52.6 208.4 53.3 L134.9 59.45 Q145.45 16.05 97.15 10.5 L24.15 1.8 Q16.55 -147.8 -28.55 -255.5 -43.45 -296.2 -7.9 -298.6" fill="#602a76" fill-rule="evenodd" stroke="none"/>
      <path d="M131.35 -138.8 Q132.15 -140.35 130.5 -141.05 128.95 -141.9 128.2 -140.05 L120.4 -121.3 Q119.85 -119.65 121.45 -119.15 122.85 -118.65 123.6 -120.05 L131.35 -138.8 M112.55 -156.05 Q123.2 -157.15 131.4 -150.55 139.55 -143.85 140.6 -133.4 141.75 -122.8 135.15 -114.9 128.5 -106.75 117.85 -105.65 L108.4 -106.2 101.1 -100.1 Q100.65 -99.6 99.95 -99.7 99.3 -100.1 99.2 -100.85 L98.7 -111.55 Q91.0 -118.25 89.95 -128.1 88.9 -138.55 95.5 -146.75 102.05 -154.95 112.55 -156.05 M118.15 -120.8 Q119.05 -122.75 118.85 -124.7 118.7 -126.25 117.65 -127.95 116.45 -129.65 114.6 -130.1 L110.45 -131.0 Q107.6 -131.4 107.0 -131.8 106.45 -132.2 106.3 -133.6 106.15 -134.8 106.95 -135.55 107.8 -136.55 109.65 -136.7 111.05 -136.85 112.5 -136.1 113.3 -135.55 114.05 -133.45 L114.3 -132.6 Q114.85 -131.85 116.0 -132.2 116.85 -132.35 117.1 -132.95 L117.2 -134.0 Q117.0 -136.1 115.85 -137.7 114.3 -139.35 113.05 -139.7 111.4 -140.5 108.95 -140.25 106.1 -139.95 104.35 -137.8 102.5 -135.75 102.8 -132.95 103.0 -131.15 103.7 -130.2 104.6 -128.95 106.15 -128.4 L113.65 -126.2 Q114.65 -125.95 115.1 -125.35 L115.55 -123.9 Q115.55 -122.65 114.75 -121.65 113.5 -120.6 111.8 -120.4 L109.3 -120.7 Q107.8 -121.2 107.25 -121.95 106.65 -122.65 106.5 -124.45 L106.0 -125.2 104.55 -125.45 Q102.75 -125.3 103.05 -123.7 103.9 -120.05 105.9 -118.45 108.3 -116.5 111.95 -116.9 114.25 -117.15 115.55 -118.0 117.55 -119.4 118.15 -120.8" fill="#00d0b4" fill-rule="evenodd" stroke="none"/>
      <path d="M130.05 -55.9 L161.7 -62.45 Q163.65 -63.2 165.1 -60.75 166.8 -57.4 163.5 -56.4 L135.65 -49.55 129.65 -48.15 129.35 -45.55 Q129.05 -43.95 128.4 -42.8 127.7 -41.7 126.05 -41.7 124.4 -41.65 123.9 -43.45 123.45 -45.2 123.5 -46.55 109.35 -43.25 92.1 -36.95 L91.6 -35.1 Q89.1 -22.55 84.5 -15.15 81.2 -9.45 77.6 -7.1 72.15 -3.7 67.7 -6.55 62.85 -9.5 63.5 -15.5 64.8 -27.7 74.8 -36.3 L85.5 -43.9 88.1 -56.2 Q86.55 -53.9 84.5 -52.3 80.9 -49.35 77.15 -51.0 73.65 -52.55 73.85 -57.25 73.95 -59.8 75.35 -68.6 75.85 -71.5 76.7 -74.4 77.25 -76.1 77.0 -78.35 76.95 -81.9 78.95 -81.9 81.0 -82.1 82.4 -81.05 83.85 -79.8 83.5 -78.05 L81.7 -67.95 Q80.9 -63.55 80.95 -62.0 81.0 -60.55 82.4 -59.75 84.2 -59.05 85.8 -60.75 87.45 -62.5 87.95 -64.95 L92.5 -82.55 Q93.3 -87.3 97.7 -88.7 101.2 -89.85 100.75 -86.0 L93.95 -46.3 100.95 -48.15 119.6 -53.15 124.3 -54.5 124.9 -60.95 Q122.6 -59.1 119.9 -58.9 117.25 -58.65 115.6 -62.15 115.0 -60.1 113.75 -58.4 111.25 -55.1 106.85 -56.05 103.35 -56.55 101.7 -60.65 99.65 -67.7 101.7 -77.05 103.35 -83.45 106.55 -88.05 110.7 -93.6 116.75 -90.7 117.8 -92.95 118.45 -93.2 119.1 -93.8 121.0 -93.5 123.35 -93.1 123.35 -90.7 L121.65 -69.5 Q121.65 -67.6 122.5 -67.55 123.65 -67.45 124.6 -68.7 125.55 -69.9 125.7 -71.15 L127.5 -93.05 Q127.85 -94.9 129.65 -95.9 131.4 -96.55 132.9 -95.25 133.45 -94.8 133.6 -93.5 L135.55 -95.9 Q138.15 -98.8 141.5 -98.2 144.9 -97.7 146.2 -94.1 149.0 -87.35 146.8 -76.1 145.65 -70.2 142.75 -66.35 138.55 -60.25 131.8 -64.1 L130.5 -64.8 130.05 -55.9 M116.6 -83.75 Q116.75 -84.85 115.95 -85.5 L113.8 -85.55 Q111.95 -84.75 110.8 -83.35 107.2 -78.75 106.85 -69.65 107.05 -66.85 108.25 -65.5 109.0 -64.6 110.25 -64.65 111.35 -64.5 112.45 -65.25 113.55 -65.95 113.8 -67.45 L116.6 -83.75 M132.1 -70.8 Q131.75 -69.25 133.85 -69.1 137.85 -69.1 139.15 -72.9 141.6 -79.75 141.15 -86.55 141.0 -88.15 140.35 -89.3 139.75 -90.6 139.0 -90.55 137.9 -91.1 136.6 -89.65 134.9 -87.75 134.45 -85.15 133.55 -81.0 132.1 -70.8 M155.65 -78.5 Q156.15 -75.2 157.35 -74.45 159.2 -73.2 161.75 -75.4 164.15 -77.25 166.4 -80.1 168.45 -82.6 169.85 -79.9 171.3 -77.05 169.3 -74.5 165.05 -68.7 160.1 -66.75 156.45 -65.45 153.7 -67.0 150.8 -68.4 149.8 -71.7 149.1 -73.95 149.0 -76.1 148.6 -91.2 156.6 -100.95 158.9 -103.6 162.65 -104.0 165.95 -104.05 167.95 -102.15 169.9 -100.35 169.7 -97.05 169.25 -91.6 166.0 -87.45 162.7 -83.15 157.8 -81.75 L155.85 -81.45 Q155.45 -79.85 155.65 -78.5 M159.7 -95.95 Q157.5 -91.45 156.65 -88.2 156.45 -87.3 157.4 -87.75 162.3 -89.9 163.5 -94.05 164.15 -96.4 162.75 -97.2 160.95 -98.4 159.7 -95.95 M76.65 -16.4 Q80.95 -22.45 83.8 -33.75 75.2 -28.3 72.1 -20.75 71.1 -18.35 70.5 -15.55 70.2 -14.15 71.45 -13.0 72.5 -12.15 73.85 -13.3 L76.65 -16.4" fill="#ffffff" fill-rule="evenodd" stroke="none"/>
      <path d="M53.55 -236.5 Q54.25 -231.65 51.9 -228.25 49.65 -224.8 45.7 -224.8 41.7 -224.8 38.4 -228.25 35.15 -231.65 34.45 -236.5 33.75 -241.35 36.0 -244.8 38.3 -248.2 42.3 -248.2 46.25 -248.2 49.5 -244.8 52.85 -241.35 53.55 -236.5 M136.1 -249.5 Q136.8 -244.65 134.45 -241.25 132.2 -237.8 128.25 -237.8 124.25 -237.8 120.95 -241.25 117.7 -244.65 117.0 -249.5 116.3 -254.35 118.55 -257.8 120.85 -261.2 124.85 -261.2 128.8 -261.2 132.05 -257.8 135.4 -254.35 136.1 -249.5 M95.75 -211.0 L95.7 -211.0 Q97.6 -211.65 98.15 -213.3 98.65 -215.95 97.15 -220.3 96.65 -221.65 97.3 -222.95 97.95 -224.25 99.3 -224.75 L101.95 -224.6 Q103.25 -223.95 103.75 -222.6 106.15 -215.75 104.9 -211.55 103.6 -206.35 98.0 -204.4 L98.0 -204.35 Q87.8 -200.4 81.15 -213.9 80.45 -215.2 80.95 -216.55 81.4 -217.95 82.7 -218.55 L85.4 -218.75 Q86.75 -218.3 87.4 -217.0 90.9 -209.85 95.75 -211.0" fill="#bc357e" fill-rule="evenodd" stroke="none"/>
      <path d="M80.85 -332.45 Q82.7 -332.65 84.15 -331.5 85.6 -330.35 85.85 -328.5 86.0 -326.65 84.85 -325.2 83.7 -323.75 81.85 -323.5 L32.3 -318.05 Q30.45 -317.9 29.0 -319.05 27.55 -320.2 27.35 -322.05 27.15 -323.9 28.3 -325.35 29.45 -326.8 31.3 -327.0 L80.85 -332.45 M155.8 80.4 Q155.8 85.45 152.2 89.05 148.6 92.65 143.55 92.65 138.5 92.65 134.9 89.05 131.3 85.45 131.3 80.4 131.3 75.35 134.9 71.75 138.5 68.15 143.55 68.15 148.6 68.15 152.2 71.75 155.8 75.35 155.8 80.4" fill="#530b40" fill-rule="evenodd" stroke="none"/>
    </g>
  </defs>
</svg>
