<?xml version="1.0" encoding="UTF-8" standalone="no"?>
<svg xmlns:xlink="http://www.w3.org/1999/xlink" height="76.0px" width="76.0px" xmlns="http://www.w3.org/2000/svg">
  <g transform="matrix(1.0, 0.0, 0.0, 1.0, 38.0, 38.0)">
    <use height="76.0" transform="matrix(1.0, 0.0, 0.0, 1.0, -38.0, -38.0)" width="76.0" xlink:href="#shape0"/>
  </g>
  <defs>
    <g id="shape0" transform="matrix(1.0, 0.0, 0.0, 1.0, 38.0, 38.0)">
      <path d="M-38.0 -38.0 L38.0 -38.0 38.0 38.0 -38.0 38.0 -38.0 -38.0" fill="#ffffff" fill-opacity="0.0" fill-rule="evenodd" stroke="none"/>
      <path d="M20.55 -16.75 Q14.9 -16.75 14.9 -22.4 L14.9 -30.15 -3.85 -30.15 Q-4.55 -30.15 -5.0 -30.6 -5.5 -31.1 -5.5 -31.8 -5.5 -32.5 -5.0 -32.95 -4.55 -33.45 -3.85 -33.45 L16.55 -33.45 16.9 -33.4 17.75 -32.95 31.35 -19.75 31.55 -19.55 31.6 -19.5 31.65 -19.4 31.8 -19.15 32.0 -18.75 32.0 18.05 Q32.0 23.7 26.35 23.7 L18.75 23.7 Q18.05 23.7 17.6 23.25 17.1 22.75 17.1 22.05 17.1 21.35 17.6 20.9 18.05 20.4 18.75 20.4 L26.35 20.4 Q28.7 20.4 28.7 18.05 L28.7 -16.75 20.55 -16.75 M20.55 -20.05 L26.3 -20.05 18.2 -27.9 18.2 -22.4 Q18.2 -20.05 20.55 -20.05" fill="#cf7453" fill-rule="evenodd" stroke="none"/>
      <path d="M11.25 27.8 Q11.25 33.45 5.6 33.45 L-26.3 33.45 Q-31.95 33.45 -31.95 27.8 L-31.95 -18.05 Q-31.95 -23.7 -26.3 -23.7 L-4.15 -23.7 -3.85 -23.65 Q-3.4 -23.6 -3.0 -23.2 L-2.85 -23.05 10.6 -10.0 10.8 -9.8 11.25 -9.0 11.25 27.8 M-16.0 18.6 Q-14.05 18.6 -12.6 17.55 -11.5 16.7 -11.45 15.5 -11.5 14.35 -12.6 13.5 L-12.55 13.5 Q-14.05 12.5 -16.0 12.5 L-16.2 12.5 -16.35 12.5 Q-18.95 12.1 -20.95 10.6 -23.2 8.9 -23.15 6.5 -23.2 4.05 -20.95 2.35 L-20.9 2.35 Q-19.4 1.2 -17.55 0.95 L-17.55 -1.0 Q-17.55 -1.55 -17.1 -1.9 -16.75 -2.35 -16.2 -2.35 -15.7 -2.35 -15.25 -1.9 -14.9 -1.55 -14.9 -1.0 L-14.9 0.85 Q-12.7 1.1 -11.0 2.35 -8.7 4.05 -8.75 6.5 L-8.75 7.0 Q-8.75 7.55 -9.15 7.95 -9.55 8.35 -10.1 8.35 -10.65 8.35 -11.0 7.95 -11.45 7.55 -11.45 7.0 L-11.45 6.5 Q-11.5 5.3 -12.6 4.45 L-12.55 4.45 Q-14.05 3.45 -16.0 3.45 L-16.15 3.45 -16.2 3.45 Q-17.95 3.5 -19.35 4.45 L-19.35 4.5 Q-20.45 5.3 -20.5 6.5 -20.45 7.65 -19.35 8.5 -17.95 9.5 -16.2 9.8 L-16.0 9.8 Q-13.05 9.8 -11.0 11.35 -8.7 13.05 -8.75 15.5 -8.7 17.95 -11.0 19.65 -12.65 20.95 -14.9 21.2 L-14.9 22.7 Q-14.9 23.2 -15.25 23.65 L-16.2 24.0 Q-16.75 24.0 -17.1 23.65 L-17.55 22.7 -17.55 21.15 Q-19.4 20.75 -20.95 19.65 -23.2 17.95 -23.15 15.5 L-23.0 14.75 Q-22.85 14.25 -22.35 14.0 L-21.35 13.95 Q-20.85 14.15 -20.55 14.6 -20.35 15.05 -20.5 15.5 -20.45 16.7 -19.35 17.55 -17.95 18.55 -16.2 18.6 L-16.15 18.6 -16.0 18.6 M-0.2 -10.3 L5.55 -10.3 -2.55 -18.15 -2.55 -12.65 Q-2.55 -10.3 -0.2 -10.3 M7.95 27.8 L7.95 -7.0 -0.2 -7.0 Q-5.85 -7.0 -5.85 -12.65 L-5.85 -20.4 -26.3 -20.4 Q-28.65 -20.4 -28.65 -18.05 L-28.65 27.8 Q-28.65 30.15 -26.3 30.15 L5.6 30.15 Q7.95 30.15 7.95 27.8" fill="#069bda" fill-rule="evenodd" stroke="none"/>
    </g>
  </defs>
</svg>
