<?xml version="1.0" encoding="UTF-8" standalone="no"?>
<svg xmlns:xlink="http://www.w3.org/1999/xlink" height="61.0px" width="61.0px" xmlns="http://www.w3.org/2000/svg">
  <g transform="matrix(1.0, 0.0, 0.0, 1.0, 30.5, 30.5)">
    <use height="61.0" transform="matrix(1.0, 0.0, 0.0, 1.0, -30.5, -30.5)" width="61.0" xlink:href="#shape0"/>
  </g>
  <defs>
    <g id="shape0" transform="matrix(1.0, 0.0, 0.0, 1.0, 30.5, 30.5)">
      <path d="M18.4 -19.55 Q19.55 -19.55 19.55 -18.45 L19.55 -14.9 Q19.55 -13.75 18.4 -13.75 L14.9 -13.75 Q13.75 -13.75 13.75 -14.9 L13.75 -18.45 Q13.75 -19.55 14.9 -19.55 L18.4 -19.55 M8.3 -25.5 Q7.8 -25.5 7.8 -25.0 L7.8 -8.3 Q7.8 -7.8 8.3 -7.8 L25.0 -7.8 Q25.5 -7.8 25.5 -8.3 L25.5 -25.0 Q25.5 -25.5 25.0 -25.5 L8.3 -25.5 M25.0 -30.5 Q30.5 -30.5 30.5 -25.0 L30.5 -8.3 Q30.5 -2.8 25.0 -2.8 L8.3 -2.8 Q2.8 -2.8 2.8 -8.3 L2.8 -25.0 Q2.8 -30.5 8.3 -30.5 L25.0 -30.5 M-14.9 13.75 Q-13.75 13.75 -13.75 14.85 L-13.75 18.4 Q-13.75 19.55 -14.9 19.55 L-18.4 19.55 Q-19.55 19.55 -19.55 18.4 L-19.55 14.85 Q-19.55 13.75 -18.4 13.75 L-14.9 13.75 M-25.0 7.8 Q-25.5 7.8 -25.5 8.3 L-25.5 25.0 Q-25.5 25.5 -25.0 25.5 L-8.3 25.5 Q-7.8 25.5 -7.8 25.0 L-7.8 8.3 Q-7.8 7.8 -8.3 7.8 L-25.0 7.8 M-8.3 2.8 Q-2.8 2.8 -2.8 8.3 L-2.8 25.0 Q-2.8 30.5 -8.3 30.5 L-25.0 30.5 Q-30.5 30.5 -30.5 25.0 L-30.5 8.3 Q-30.5 2.8 -25.0 2.8 L-8.3 2.8 M-14.9 -19.55 Q-13.75 -19.55 -13.75 -18.45 L-13.75 -14.9 Q-13.75 -13.75 -14.9 -13.75 L-18.4 -13.75 Q-19.55 -13.75 -19.55 -14.9 L-19.55 -18.45 Q-19.55 -19.55 -18.4 -19.55 L-14.9 -19.55 M-8.3 -30.5 Q-2.8 -30.5 -2.8 -25.0 L-2.8 -8.3 Q-2.8 -2.8 -8.3 -2.8 L-25.0 -2.8 Q-30.5 -2.8 -30.5 -8.3 L-30.5 -25.0 Q-30.5 -30.5 -25.0 -30.5 L-8.3 -30.5 M-25.0 -25.5 Q-25.5 -25.5 -25.5 -25.0 L-25.5 -8.3 Q-25.5 -7.8 -25.0 -7.8 L-8.3 -7.8 Q-7.8 -7.8 -7.8 -8.3 L-7.8 -25.0 Q-7.8 -25.5 -8.3 -25.5 L-25.0 -25.5" fill="#159add" fill-rule="evenodd" stroke="none"/>
      <path d="M4.85 28.4 Q3.35 28.4 3.35 26.9 L3.35 21.7 Q3.35 20.2 4.85 20.2 L10.05 20.2 Q11.55 20.2 11.55 21.7 L11.55 26.9 Q11.55 28.4 10.05 28.4 L4.85 28.4 M10.05 3.0 Q11.55 3.0 11.55 4.5 L11.55 9.7 Q11.55 11.2 10.05 11.2 L4.85 11.2 Q3.35 11.2 3.35 9.7 L3.35 4.5 Q3.35 3.0 4.85 3.0 L10.05 3.0 M18.15 11.6 Q19.65 11.6 19.65 13.1 L19.65 18.3 Q19.65 19.8 18.15 19.8 L12.95 19.8 Q11.45 19.8 11.45 18.3 L11.45 13.1 Q11.45 11.6 12.95 11.6 L18.15 11.6 M21.05 28.4 Q19.55 28.4 19.55 26.9 L19.55 21.7 Q19.55 20.2 21.05 20.2 L26.25 20.2 Q27.75 20.2 27.75 21.7 L27.75 26.9 Q27.75 28.4 26.25 28.4 L21.05 28.4 M26.25 3.0 Q27.75 3.0 27.75 4.5 L27.75 9.7 Q27.75 11.2 26.25 11.2 L21.05 11.2 Q19.55 11.2 19.55 9.7 L19.55 4.5 Q19.55 3.0 21.05 3.0 L26.25 3.0" fill="#f773cc" fill-rule="evenodd" stroke="none"/>
    </g>
  </defs>
</svg>
