<?xml version="1.0" encoding="UTF-8" standalone="no"?>
<svg xmlns:xlink="http://www.w3.org/1999/xlink" height="52.4px" width="52.4px" xmlns="http://www.w3.org/2000/svg">
  <g transform="matrix(1.0, 0.0, 0.0, 1.0, 26.2, 26.2)">
    <use height="52.4" transform="matrix(1.0, 0.0, 0.0, 1.0, -26.2, -26.2)" width="52.4" xlink:href="#shape0"/>
  </g>
  <defs>
    <g id="shape0" transform="matrix(1.0, 0.0, 0.0, 1.0, 26.2, 26.2)">
      <path d="M-26.2 -26.2 L26.2 -26.2 26.2 26.2 -26.2 26.2 -26.2 -26.2" fill="#ffffff" fill-opacity="0.0" fill-rule="evenodd" stroke="none"/>
      <path d="M4.15 -5.75 L3.1 -5.35 Q2.5 -5.35 2.1 -5.75 1.6 -6.2 1.6 -6.85 1.6 -7.5 2.1 -7.9 L3.1 -8.35 4.15 -7.9 4.6 -6.85 4.15 -5.75 M4.45 4.8 L4.05 5.85 3.0 6.2 2.1 5.85 Q1.65 5.4 1.65 4.8 L1.65 -3.4 Q1.65 -3.95 2.1 -4.4 L3.0 -4.75 4.05 -4.4 4.45 -3.4 4.45 4.8 M12.7 -5.05 Q14.3 -5.05 15.5 -3.6 16.45 -2.25 16.45 -0.3 L16.45 4.8 16.05 5.85 15.05 6.2 14.15 5.85 Q13.7 5.4 13.7 4.8 L13.7 -0.7 13.25 -1.85 Q12.7 -2.45 11.9 -2.45 11.1 -2.45 10.45 -1.8 9.9 -1.2 9.75 -0.05 L9.75 4.8 9.4 5.85 8.35 6.2 Q7.75 6.2 7.45 5.85 7.0 5.4 7.0 4.8 L7.0 -4.55 7.45 -4.8 8.5 -4.9 9.4 -4.6 12.7 -5.05 M22.8 0.05 Q22.8 -9.35 16.1 -16.05 9.45 -22.75 0.0 -22.75 -9.45 -22.75 -16.1 -16.05 -22.75 -9.45 -22.75 0.05 L-22.45 3.9 -21.6 7.35 Q-20.85 9.65 -20.8 11.35 -20.8 13.45 -21.25 14.55 -22.15 16.55 -22.1 18.05 -22.15 19.6 -20.95 20.75 L-20.85 20.75 Q-19.8 21.9 -18.2 21.9 L-18.15 21.9 -14.85 21.3 -14.75 21.25 -11.9 20.85 -11.8 20.85 -7.65 21.5 -7.55 21.5 -3.8 22.55 0.0 22.8 Q9.45 22.95 16.1 16.2 22.8 9.5 22.8 0.05 M18.15 18.2 Q10.65 25.7 0.0 25.7 L-4.4 25.35 -4.45 25.35 -11.9 23.75 -13.8 23.95 Q-15.9 24.9 -18.2 24.75 -21.0 24.75 -22.95 22.8 L-22.95 22.75 Q-25.0 20.85 -25.0 18.05 -25.0 15.7 -23.8 13.3 L-23.7 11.5 Q-23.75 10.0 -24.35 8.3 L-24.35 8.2 -25.25 4.4 -25.6 0.05 Q-25.6 -10.6 -18.15 -18.05 -10.6 -25.6 0.0 -25.6 10.6 -25.6 18.15 -18.05 25.7 -10.5 25.7 0.05 25.7 10.65 18.15 18.2 M-7.0 4.6 Q-8.5 6.5 -10.55 6.35 L-12.6 6.1 Q-13.2 5.9 -13.2 6.5 L-13.2 8.85 Q-13.2 9.45 -13.7 9.8 -14.15 10.2 -14.65 10.2 L-15.65 9.8 -16.0 8.85 -16.0 -4.3 -15.7 -4.75 -15.15 -4.8 -13.75 -4.75 -13.4 -4.55 -13.0 -4.4 Q-12.5 -5.0 -10.55 -5.05 -8.5 -5.05 -7.0 -3.3 -5.65 -1.5 -5.65 0.65 -5.65 2.9 -7.0 4.6 M-0.45 4.8 Q-0.45 5.4 -0.85 5.85 L-1.8 6.2 -2.8 5.85 -3.15 4.8 -3.15 -8.05 -2.8 -9.0 -1.8 -9.45 Q-1.3 -9.45 -0.85 -9.0 -0.45 -8.55 -0.45 -8.05 L-0.45 4.8 M-8.45 0.65 Q-8.45 -0.65 -9.3 -1.65 -9.95 -2.5 -11.45 -2.4 -12.95 -2.3 -13.2 0.15 L-13.2 1.15 Q-13.2 2.45 -12.6 3.0 -11.95 3.9 -10.9 3.8 -9.9 3.8 -9.3 3.0 -8.45 2.1 -8.45 0.65" fill="#ED0722" fill-rule="evenodd" stroke="none"/>
    </g>
  </defs>
</svg>
