<?xml version="1.0" encoding="UTF-8" standalone="no"?>
<svg xmlns:xlink="http://www.w3.org/1999/xlink" height="82.95px" width="82.75px" xmlns="http://www.w3.org/2000/svg">
  <g transform="matrix(1.0, 0.0, 0.0, 1.0, 41.35, 41.45)">
    <use height="82.95" transform="matrix(1.0, 0.0, 0.0, 1.0, -41.35, -41.45)" width="82.75" xlink:href="#shape0"/>
  </g>
  <defs>
    <g id="shape0" transform="matrix(1.0, 0.0, 0.0, 1.0, 41.35, 41.45)">
      <path d="M-31.0 -23.3 Q-31.5 -25.7 -30.55 -27.4 -29.6 -29.65 -27.6 -30.5 L-23.4 -30.9 -11.75 -28.25 -5.4 -38.3 Q-4.05 -40.3 -2.15 -40.95 0.1 -41.9 2.1 -40.95 4.2 -40.3 5.35 -38.3 L11.7 -28.25 23.2 -30.9 Q25.05 -31.3 27.45 -30.5 29.35 -29.75 30.5 -27.5 31.35 -25.7 31.05 -23.3 L28.4 -11.65 38.45 -5.35 Q40.15 -4.25 41.1 -2.05 41.7 -0.05 41.1 2.2 40.15 4.2 38.45 5.45 L28.2 11.8 31.05 23.4 Q31.35 25.65 30.5 27.55 29.35 29.55 27.45 30.4 L23.2 30.9 11.7 28.3 5.25 38.55 Q4.0 40.45 2.0 41.2 -0.25 41.8 -2.25 41.2 -4.25 40.2 -5.5 38.55 L-11.75 28.3 -23.4 30.9 -27.6 30.4 Q-29.6 29.35 -30.55 27.55 -31.5 25.55 -31.0 23.4 L-28.35 11.7 -38.4 5.45 Q-40.3 4.2 -41.05 2.2 -41.65 -0.05 -41.05 -2.05 -40.3 -4.25 -38.4 -5.35 L-28.35 -11.55 -31.0 -23.3" fill="url(#gradient0)" fill-rule="evenodd" stroke="none"/>
      <path d="M6.7 -13.1 Q7.8 -14.35 9.6 -14.35 11.35 -14.35 12.5 -13.1 13.8 -12.15 13.8 -10.25 13.8 -8.45 12.6 -7.25 L-6.45 12.35 Q-7.75 13.6 -9.35 13.6 -10.95 13.6 -12.35 12.35 -13.7 11.05 -13.7 9.55 -13.7 7.75 -12.35 6.5 L6.7 -13.1 M-5.3 -9.45 Q-5.3 -7.55 -6.7 -6.3 -8.05 -4.9 -9.85 -4.9 -11.55 -4.9 -13.25 -6.3 -14.3 -7.35 -14.5 -9.45 -14.3 -11.7 -13.25 -12.75 -11.45 -14.1 -9.85 -14.0 -8.05 -14.1 -6.7 -12.75 -5.3 -11.45 -5.3 -9.45 M14.3 9.55 Q14.3 11.55 13.05 12.8 11.9 14.0 9.75 14.2 8.0 14.1 6.5 12.8 5.1 11.45 5.1 9.55 5.1 7.85 6.5 6.25 8.1 5.0 9.75 5.0 11.8 5.0 13.05 6.25 14.3 7.75 14.3 9.55" fill="#834024" fill-rule="evenodd" stroke="none"/>
    </g>
    <linearGradient gradientTransform="matrix(0.0357, 0.0357, -0.0358, 0.0358, -0.05, 0.0)" gradientUnits="userSpaceOnUse" id="gradient0" spreadMethod="pad" x1="-819.2" x2="819.2">
      <stop offset="0.24313725490196078" stop-color="#f7c01c"/>
      <stop offset="1.0" stop-color="#f69a33"/>
    </linearGradient>
  </defs>
</svg>
