<?xml version="1.0" encoding="UTF-8" standalone="no"?>
<svg xmlns:xlink="http://www.w3.org/1999/xlink" height="39.8px" width="39.8px" xmlns="http://www.w3.org/2000/svg">
  <g transform="matrix(1.0, 0.0, 0.0, 1.0, 19.9, 19.9)">
    <use height="39.8" transform="matrix(1.0, 0.0, 0.0, 1.0, -19.9, -19.9)" width="39.8" xlink:href="#shape0"/>
  </g>
  <defs>
    <g id="shape0" transform="matrix(1.0, 0.0, 0.0, 1.0, 19.9, 19.9)">
      <path d="M-19.9 -19.9 L19.9 -19.9 19.9 19.9 -19.9 19.9 -19.9 -19.9" fill="#00ff00" fill-opacity="0.0" fill-rule="evenodd" stroke="none"/>
      <path d="M-14.95 -11.05 Q-15.2 -12.1 -14.75 -13.0 -14.3 -14.0 -13.35 -14.45 L-11.4 -14.65 -5.85 -13.4 -2.85 -18.15 Q-2.3 -19.05 -1.3 -19.4 -0.3 -19.8 0.7 -19.4 1.7 -19.05 2.25 -18.15 L5.25 -13.4 10.7 -14.65 12.7 -14.45 Q13.65 -14.0 14.1 -13.05 14.55 -12.1 14.35 -11.05 L13.1 -5.55 17.85 -2.55 Q18.7 -2.0 19.1 -1.0 19.45 0.0 19.1 1.0 18.7 2.0 17.85 2.55 L13.05 5.55 14.35 11.05 Q14.55 12.05 14.1 13.0 13.65 13.95 12.7 14.4 L10.7 14.65 5.25 13.4 2.2 18.2 Q1.6 19.1 0.65 19.45 -0.4 19.8 -1.35 19.45 -2.35 19.05 -2.9 18.2 L-5.85 13.35 -11.4 14.65 -13.35 14.4 Q-14.3 13.95 -14.75 13.0 -15.2 12.05 -14.95 11.05 L-13.7 5.5 -18.45 2.55 Q-19.35 2.0 -19.7 1.0 -20.1 0.0 -19.7 -1.0 -19.35 -2.0 -18.45 -2.55 L-13.7 -5.5 -14.95 -11.05" fill="#791e99" fill-rule="evenodd" stroke="none"/>
      <path d="M19.9 -10.35 Q19.9 -7.2 17.7 -5.0 15.5 -2.8 12.35 -2.8 9.2 -2.8 7.0 -5.0 4.8 -7.2 4.8 -10.35 4.8 -13.5 7.0 -15.7 9.2 -17.9 12.35 -17.9 15.5 -17.9 17.7 -15.7 19.9 -13.5 19.9 -10.35" fill="#0bd0aa" fill-rule="evenodd" stroke="none"/>
      <path d="M3.05 -5.7 Q3.55 -6.25 4.35 -6.25 5.1 -6.25 5.65 -5.7 6.25 -5.2 6.25 -4.4 6.25 -3.65 5.7 -3.05 L-2.9 5.8 Q-3.45 6.35 -4.2 6.35 -5.0 6.35 -5.55 5.8 -6.15 5.25 -6.15 4.5 -6.15 3.7 -5.55 3.15 L3.05 -5.7 M6.25 4.25 Q6.25 5.2 5.65 5.8 5.0 6.45 4.1 6.45 3.25 6.45 2.55 5.8 1.9 5.2 1.9 4.25 1.9 3.4 2.55 2.7 3.25 2.1 4.1 2.1 5.0 2.1 5.65 2.7 6.25 3.4 6.25 4.25 M-1.85 -4.15 Q-1.85 -3.25 -2.5 -2.65 -3.1 -2.0 -4.0 -2.0 -4.9 -2.0 -5.6 -2.65 -6.2 -3.25 -6.2 -4.15 -6.2 -5.05 -5.6 -5.7 -4.9 -6.3 -4.0 -6.3 -3.1 -6.3 -2.5 -5.7 -1.85 -5.05 -1.85 -4.15" fill="#f8cef8" fill-rule="evenodd" stroke="none"/>
    </g>
  </defs>
</svg>
