<svg xmlns:xlink="http://www.w3.org/1999/xlink" xmlns="http://www.w3.org/2000/svg" height="33.4px" width="33.4px">
  <g transform="matrix(1.0, 0.0, 0.0, 1.0, 16.7, 16.7)">
    <use height="33.4" transform="matrix(1.0, 0.0, 0.0, 1.0, -16.7, -16.7)" width="33.4" xlink:href="#shape0"/>
  </g>
  <defs>
    <g id="shape0" transform="matrix(1.0, 0.0, 0.0, 1.0, 16.7, 16.7)">
      <path d="M-15.7 -16.7 L15.75 -16.7 Q16.7 -16.7 16.7 -15.75 L16.7 15.75 Q16.7 16.7 15.75 16.7 L-15.7 16.7 Q-16.7 16.7 -16.7 15.75 L-16.7 -15.75 Q-16.7 -16.7 -15.7 -16.7" fill="#ffffff" fill-opacity="0.0" fill-rule="evenodd" stroke="none"/>
      <path d="M5.2 16.55 L-5.25 16.55 Q-11.85 16.55 -11.85 9.95 L-11.85 -10.0 Q-11.85 -16.6 -5.25 -16.6 L5.2 -16.6 Q11.85 -16.6 11.85 -10.0 L11.85 9.95 Q11.85 16.55 5.2 16.55 M-5.45 13.65 L5.4 13.65 Q8.7 13.65 8.7 10.3 L8.7 -10.4 Q8.8 -13.3 7.05 -13.35 L4.75 -13.05 Q4.2 -12.7 4.2 -12.0 L4.15 -12.0 3.8 -11.35 Q3.35 -10.85 2.8 -10.85 L-2.85 -10.85 Q-3.4 -10.85 -3.85 -11.35 L-4.25 -12.0 -4.3 -12.0 Q-4.3 -12.7 -4.8 -13.05 L-7.1 -13.35 Q-8.9 -13.3 -8.8 -10.4 L-8.8 10.3 Q-8.8 13.65 -5.45 13.65 M1.75 10.15 Q1.75 10.9 1.2 11.4 0.7 11.95 -0.05 11.95 -0.75 11.95 -1.3 11.4 -1.8 10.9 -1.8 10.15 -1.8 9.45 -1.3 8.9 -0.75 8.35 -0.05 8.35 0.7 8.35 1.2 8.9 1.75 9.45 1.75 10.15" fill="#fff" fill-rule="evenodd" stroke="none"/>
    </g>
  </defs>
</svg>