<?xml version="1.0" encoding="UTF-8" standalone="no"?>
<svg xmlns:xlink="http://www.w3.org/1999/xlink" height="191.8px" width="215.0px" xmlns="http://www.w3.org/2000/svg">
  <g transform="matrix(1.0, 0.0, 0.0, 1.0, 107.5, 95.9)">
    <use height="191.8" transform="matrix(1.0, 0.0, 0.0, 1.0, -107.5, -95.9)" width="215.0" xlink:href="#shape0"/>
  </g>
  <defs>
    <g id="shape0" transform="matrix(1.0, 0.0, 0.0, 1.0, 107.5, 95.9)">
      <path d="M84.3 0.0 Q84.3 39.7 56.2 67.8 28.1 95.9 -11.6 95.9 -51.3 95.9 -79.4 67.8 -107.5 39.7 -107.5 0.0 -107.5 -39.7 -79.4 -67.8 -51.3 -95.9 -11.6 -95.9 28.1 -95.9 56.2 -67.8 84.3 -39.7 84.3 0.0" fill="#b0fff4" fill-rule="evenodd" stroke="none"/>
      <path d="M86.4 -20.25 Q83.0 -1.4 58.35 11.9 44.95 19.1 29.65 22.45 L26.6 19.25 Q41.55 16.2 54.45 9.25 77.05 -2.95 80.2 -20.25 80.75 -23.2 80.65 -25.95 L86.95 -25.95 Q86.95 -23.15 86.4 -20.25 M106.85 -20.2 Q102.5 3.75 71.2 20.6 54.25 29.75 34.8 34.0 L30.95 29.95 Q49.9 26.1 66.25 17.25 94.95 1.8 98.95 -20.2 99.85 -25.1 99.4 -29.65 L107.4 -29.65 Q107.75 -25.05 106.85 -20.2 M-86.15 -20.2 Q-81.75 -44.1 -50.45 -61.1 -31.2 -71.45 -8.65 -75.45 L-8.65 -70.6 Q-28.45 -66.9 -45.45 -57.75 -74.2 -42.15 -78.25 -20.2 -79.05 -15.9 -78.75 -11.85 L-86.75 -11.85 Q-86.95 -15.9 -86.15 -20.2 M-65.65 -20.25 Q-62.2 -39.1 -37.55 -52.5 -24.8 -59.35 -10.2 -62.65 L-10.2 -58.75 Q-22.65 -55.75 -33.6 -49.85 -56.25 -37.55 -59.45 -20.25 -60.05 -16.9 -59.85 -13.7 L-66.15 -13.7 Q-66.3 -16.9 -65.65 -20.25" fill="#1cd7bf" fill-rule="evenodd" stroke="none"/>
      <path d="M-24.55 45.4 Q-41.35 62.95 -66.3 78.95 -73.15 74.05 -79.4 67.8 -98.75 48.45 -104.75 23.65 L-104.45 23.45 -85.6 13.1 -83.95 9.65 -83.8 9.3 -72.1 -15.45 Q-71.6 -16.6 -70.65 -17.4 L-54.9 -31.4 Q-53.2 -32.9 -50.95 -32.9 L-32.6 -32.9 -46.55 25.65 -40.85 26.95 -58.65 25.6 -65.15 32.9 Q-41.9 42.05 -24.55 45.4" fill="#f8c99b" fill-rule="evenodd" stroke="none"/>
      <path d="M-24.55 45.4 Q-41.9 42.05 -65.15 32.9 L-58.65 25.6 -40.85 26.95 -46.55 25.65 Q-32.35 27.75 -20.7 39.75 L-19.7 40.1 -24.5 45.4 -24.55 45.4" fill="#e0a882" fill-rule="evenodd" stroke="none"/>
      <path d="M-72.25 10.85 L-72.55 8.35 Q-72.7 7.3 -72.35 6.3 -72.0 5.3 -71.2 4.6 L12.3 -76.45 12.3 -76.5 Q21.9 -86.1 37.95 -81.0 L37.95 -80.95 90.55 -61.35 91.85 -56.85 2.45 32.1 Q-3.8 38.3 -16.95 32.65 L-72.25 10.85 M-25.8 22.5 L-46.1 14.95 -47.25 15.0 Q-47.85 15.25 -48.05 15.85 L-48.0 17.0 -47.15 17.75 -26.85 25.3 -25.7 25.25 Q-25.15 25.0 -24.95 24.45 -24.75 23.85 -25.0 23.3 -25.25 22.7 -25.8 22.5" fill="#ca7cd5" fill-rule="evenodd" stroke="none"/>
      <path d="M-72.25 10.85 L-16.95 32.65 Q-3.8 38.3 2.45 32.1 L91.85 -56.85 93.7 -50.3 Q94.0 -49.1 93.7 -47.9 93.35 -46.7 92.5 -45.85 L7.7 36.65 Q-2.45 46.5 -20.7 39.75 L-68.4 22.0 -70.35 20.55 Q-71.15 19.55 -71.3 18.3 L-72.25 10.85 M-25.8 22.5 Q-25.25 22.7 -25.0 23.3 -24.75 23.85 -24.95 24.45 -25.15 25.0 -25.7 25.25 L-26.85 25.3 -47.15 17.75 -48.0 17.0 -48.05 15.85 Q-47.85 15.25 -47.25 15.0 L-46.1 14.95 -25.8 22.5" fill="#671d76" fill-rule="evenodd" stroke="none"/>
      <path d="M-11.95 -29.2 L43.1 -47.6 21.4 -32.3 38.0 -29.8 -22.45 -6.55 3.0 -25.15 -11.95 -29.2" fill="#671d76" fill-rule="evenodd" stroke="none"/>
      <path d="M10.55 -68.35 Q20.55 -78.1 37.3 -70.85 L83.55 -52.65 9.45 21.2 Q2.7 27.85 -6.5 24.4 L-53.5 7.9 Q-64.5 3.95 -56.5 -3.1 L10.55 -68.35 M-11.95 -29.2 L3.0 -25.15 -22.45 -6.55 38.0 -29.8 21.4 -32.3 43.1 -47.6 -11.95 -29.2" fill="#f8cef8" fill-rule="evenodd" stroke="none"/>
      <path d="M-11.95 -29.2 L43.1 -47.6 21.4 -32.3 38.0 -29.8 -22.45 -6.55 3.0 -25.15 -11.95 -29.2 Z" fill="none" stroke="#671d76" stroke-linecap="round" stroke-linejoin="round" stroke-width="3.0"/>
      <path d="M48.55 2.6 Q40.5 6.35 40.15 -0.05 L38.8 -22.55 40.9 -23.0 Q43.4 -23.2 45.4 -21.45 47.3 -19.75 47.4 -17.15 L48.6 1.3 48.55 2.6 M35.45 14.55 Q26.4 18.75 26.0 11.55 L24.5 -17.15 26.85 -17.65 Q29.7 -17.85 31.9 -15.9 34.05 -13.95 34.2 -11.05 L35.5 13.1 35.45 14.55 M61.2 -11.35 Q53.15 -7.6 52.8 -14.0 L51.45 -36.5 53.55 -36.95 Q56.05 -37.15 58.05 -35.4 59.95 -33.7 60.05 -31.1 L61.25 -12.65 61.2 -11.35 M-24.7 -32.9 Q-22.2 -32.9 -20.45 -31.15 -18.7 -29.4 -18.7 -26.9 -18.7 -24.4 -20.45 -22.65 -22.2 -20.9 -24.7 -20.9 L-41.4 -20.9 Q-45.1 -21.0 -46.4 -19.5 -48.45 -27.35 -32.6 -32.9 L-24.7 -32.9" fill="#f8c99b" fill-rule="evenodd" stroke="none"/>
      <path d="M38.8 -22.55 L40.15 -0.05 Q40.5 6.35 48.55 2.6 48.25 4.4 47.0 5.8 45.25 7.7 42.7 7.85 L36.85 8.25 Q36.25 4.5 36.15 2.0 L35.0 -16.5 Q34.85 -19.05 36.6 -20.95 37.55 -22.1 38.8 -22.55 M35.45 14.55 Q35.15 16.55 33.55 18.5 31.9 20.45 29.35 20.95 L22.4 22.35 21.5 13.85 20.2 -10.3 Q20.05 -13.2 22.0 -15.35 23.1 -16.6 24.5 -17.15 L26.0 11.55 Q26.4 18.75 35.45 14.55 M61.2 -11.35 Q60.9 -9.55 59.4 -7.9 57.9 -6.25 55.85 -5.45 L49.35 -3.85 48.8 -11.95 47.65 -30.45 Q47.5 -33.0 49.25 -34.9 50.2 -36.05 51.45 -36.5 L52.8 -14.0 Q53.15 -7.6 61.2 -11.35" fill="#e0a882" fill-rule="evenodd" stroke="none"/>
    </g>
  </defs>
</svg>
