<?xml version="1.0" encoding="UTF-8" standalone="no"?>
<svg xmlns:xlink="http://www.w3.org/1999/xlink" height="39.8px" width="39.8px" xmlns="http://www.w3.org/2000/svg">
  <g transform="matrix(1.0, 0.0, 0.0, 1.0, 19.9, 19.9)">
    <use height="39.8" transform="matrix(1.0, 0.0, 0.0, 1.0, -19.9, -19.9)" width="39.8" xlink:href="#shape0"/>
  </g>
  <defs>
    <g id="shape0" transform="matrix(1.0, 0.0, 0.0, 1.0, 19.9, 19.9)">
      <path d="M-19.9 -19.9 L19.9 -19.9 19.9 19.9 -19.9 19.9 -19.9 -19.9" fill="#ffffff" fill-opacity="0.0" fill-rule="evenodd" stroke="none"/>
      <path d="M-11.0 -19.3 L2.75 -19.3 Q7.75 -19.3 7.75 -14.3 L7.75 14.35 Q7.75 19.35 2.75 19.35 L-11.0 19.35 Q-16.0 19.35 -16.0 14.35 L-16.0 -14.3 Q-16.0 -19.3 -11.0 -19.3" fill="#791e99" fill-rule="evenodd" stroke="none"/>
      <path d="M2.05 -18.95 Q2.05 -17.7 1.15 -16.8 0.25 -15.9 -1.0 -15.9 L-7.3 -15.9 Q-8.55 -15.9 -9.45 -16.8 -10.35 -17.7 -10.35 -18.95 L-10.3 -19.3 2.05 -19.3 2.05 -18.95 M-1.65 14.65 Q-1.65 15.75 -2.45 16.5 -3.2 17.3 -4.35 17.3 -5.45 17.3 -6.25 16.5 -7.0 15.75 -7.0 14.65 -7.0 13.5 -6.25 12.7 -5.45 12.0 -4.35 12.0 -3.2 12.0 -2.45 12.7 -1.65 13.5 -1.65 14.65" fill="#f8cef8" fill-rule="evenodd" stroke="none"/>
      <path d="M16.05 -3.85 Q16.05 -0.7 13.85 1.5 11.65 3.7 8.5 3.7 5.35 3.7 3.15 1.5 0.95 -0.7 0.95 -3.85 0.95 -7.0 3.15 -9.2 5.35 -11.4 8.5 -11.4 11.65 -11.4 13.85 -9.2 16.05 -7.0 16.05 -3.85" fill="#0bd0aa" fill-rule="evenodd" stroke="none"/>
    </g>
  </defs>
</svg>
