<?xml version="1.0" encoding="UTF-8" standalone="no"?>
<svg xmlns:xlink="http://www.w3.org/1999/xlink" height="76.0px" width="76.0px" xmlns="http://www.w3.org/2000/svg">
  <g transform="matrix(1.0, 0.0, 0.0, 1.0, 38.0, 38.0)">
    <use height="76.0" transform="matrix(1.0, 0.0, 0.0, 1.0, -38.0, -38.0)" width="76.0" xlink:href="#shape0"/>
  </g>
  <defs>
    <g id="shape0" transform="matrix(1.0, 0.0, 0.0, 1.0, 38.0, 38.0)">
      <path d="M-38.0 -38.0 L38.0 -38.0 38.0 38.0 -38.0 38.0 -38.0 -38.0" fill="#ffffff" fill-opacity="0.0" fill-rule="evenodd" stroke="none"/>
      <path d="M-19.8 -2.75 L-30.85 -2.75 Q-36.5 -2.75 -36.5 -8.4 L-36.5 -27.95 Q-36.5 -33.6 -30.85 -33.6 L30.9 -33.6 Q36.55 -33.6 36.55 -27.95 L36.55 -8.4 Q36.55 -2.75 30.9 -2.75 L19.85 -2.75 19.85 -6.05 30.9 -6.05 Q33.25 -6.05 33.25 -8.4 L33.25 -18.05 19.85 -18.05 16.55 -18.05 -16.5 -18.05 -19.8 -18.05 -33.2 -18.05 -33.2 -8.4 Q-33.2 -6.05 -30.85 -6.05 L-19.8 -6.05 -19.8 -2.75 M-33.2 -27.95 L-33.2 -21.35 33.25 -21.35 33.25 -27.95 Q33.25 -30.3 30.9 -30.3 L-30.85 -30.3 Q-33.2 -30.3 -33.2 -27.95" fill="#ec131b" fill-rule="evenodd" stroke="none"/>
      <path d="M-19.8 -2.75 L-19.8 -6.05 -19.8 -18.05 -16.5 -18.05 -16.5 27.95 Q-16.5 30.3 -14.15 30.3 L14.2 30.3 Q16.55 30.3 16.55 27.95 L16.55 -18.05 19.85 -18.05 19.85 -6.05 19.85 -2.75 19.85 27.95 Q19.85 33.6 14.2 33.6 L-14.15 33.6 Q-19.8 33.6 -19.8 27.95 L-19.8 -2.75 M6.55 0.25 L6.4 -1.1 5.6 -2.7 Q4.9 -3.65 3.85 -3.7 2.85 -3.65 2.1 -2.7 L2.1 -2.75 Q1.6 -2.0 1.4 -1.1 L1.25 0.25 1.25 0.4 1.25 0.55 Q0.9 2.8 -0.4 4.5 -1.85 6.45 -3.95 6.4 -6.05 6.45 -7.5 4.5 L-7.5 4.45 Q-8.55 3.15 -8.7 1.55 L-10.45 1.55 -11.2 1.2 Q-11.55 0.9 -11.55 0.4 L-11.2 -0.4 -10.45 -0.7 -8.8 -0.7 -8.75 -1.1 Q-8.5 -2.75 -7.5 -4.1 -6.05 -6.05 -3.95 -6.05 L-3.5 -6.05 Q-3.0 -6.05 -2.7 -5.7 -2.35 -5.35 -2.35 -4.85 -2.35 -4.4 -2.7 -4.1 -3.0 -3.7 -3.5 -3.7 L-3.95 -3.7 Q-5.0 -3.65 -5.7 -2.7 L-5.7 -2.75 -6.4 -1.1 -6.55 0.25 -6.55 0.35 -6.55 0.4 Q-6.55 1.9 -5.7 3.15 -5.0 4.1 -3.95 4.1 -2.95 4.1 -2.2 3.15 -1.35 1.9 -1.1 0.4 L-1.1 0.25 -1.0 -1.1 Q-0.75 -2.8 0.25 -4.1 1.75 -6.05 3.85 -6.05 5.95 -6.05 7.45 -4.1 8.45 -2.8 8.7 -1.1 L8.75 -0.7 10.05 -0.7 10.9 -0.4 11.2 0.4 10.9 1.2 10.05 1.55 8.7 1.55 Q8.4 3.15 7.45 4.5 5.95 6.45 3.85 6.4 L3.2 6.3 2.55 5.75 Q2.35 5.35 2.5 4.85 L3.05 4.15 3.85 4.1 Q4.9 4.1 5.6 3.15 6.5 1.9 6.55 0.4 L6.55 0.35 6.55 0.25" fill="#1b7c5e" fill-rule="evenodd" stroke="none"/>
    </g>
  </defs>
</svg>
