<?xml version="1.0" encoding="UTF-8" standalone="no"?>
<svg xmlns:xlink="http://www.w3.org/1999/xlink" height="56.0px" width="56.0px" xmlns="http://www.w3.org/2000/svg">
  <g transform="matrix(1.0, 0.0, 0.0, 1.0, 28.0, 28.0)">
    <use height="56.0" transform="matrix(1.0, 0.0, 0.0, 1.0, -28.0, -28.0)" width="56.0" xlink:href="#shape0"/>
  </g>
  <defs>
    <g id="shape0" transform="matrix(1.0, 0.0, 0.0, 1.0, 28.0, 28.0)">
      <path d="M-28.0 -28.0 L28.0 -28.0 28.0 28.0 -28.0 28.0 -28.0 -28.0" fill="#ffffff" fill-opacity="0.0" fill-rule="evenodd" stroke="none"/>
      <path d="M7.5 7.2 Q7.5 4.0 5.2 1.7 2.9 -0.6 -0.3 -0.6 -3.5 -0.6 -5.8 1.7 -8.1 4.0 -8.1 7.2 -8.1 10.4 -5.8 12.7 -3.5 15.0 -0.3 15.0 2.9 15.0 5.2 12.7 7.5 10.4 7.5 7.2 M19.8 -19.65 L20.35 -19.4 20.55 -18.9 20.35 -18.35 19.8 -18.15 -19.8 -18.15 Q-20.1 -18.15 -20.3 -18.35 L-20.55 -18.9 -20.3 -19.4 -19.8 -19.65 19.8 -19.65 M23.05 -15.45 L23.6 -15.2 23.8 -14.7 23.6 -14.15 23.05 -13.95 -23.05 -13.95 -23.55 -14.15 -23.8 -14.7 -23.55 -15.2 -23.05 -15.45 23.05 -15.45 M26.25 -10.55 Q28.0 -10.55 28.0 -8.8 L28.0 22.1 Q28.0 23.85 26.25 23.85 L-26.25 23.85 Q-28.0 23.85 -28.0 22.1 L-28.0 -8.8 Q-28.0 -10.55 -26.25 -10.55 L26.25 -10.55 M16.9 -23.85 L17.45 -23.6 17.65 -23.1 17.45 -22.55 16.9 -22.35 -16.9 -22.35 Q-17.2 -22.35 -17.4 -22.55 L-17.65 -23.1 -17.4 -23.6 -16.9 -23.85 16.9 -23.85" fill="#333333" fill-rule="evenodd" stroke="none"/>
    </g>
  </defs>
</svg>
