<?xml version="1.0" encoding="UTF-8" standalone="no"?>
<svg xmlns:xlink="http://www.w3.org/1999/xlink" height="60.4px" width="429.25px" xmlns="http://www.w3.org/2000/svg">
  <g transform="matrix(1.0, 0.0, 0.0, 1.0, 214.6, 30.2)">
    <use height="60.4" transform="matrix(1.0, 0.0, 0.0, 1.0, -214.6, -30.2)" width="429.25" xlink:href="#shape0"/>
  </g>
  <defs>
    <g id="shape0" transform="matrix(1.0, 0.0, 0.0, 1.0, 214.6, 30.2)">
      <path d="M13.35 -28.0 L25.4 -28.0 25.4 -7.35 Q31.35 -11.75 38.1 -11.75 46.05 -11.75 51.5 -6.0 56.8 -0.2 56.8 8.45 56.8 18.8 51.3 24.85 46.05 30.15 38.1 30.15 31.05 30.15 25.15 25.1 L25.15 29.35 13.35 29.35 13.35 -28.0 M106.3 -11.2 L106.3 29.35 93.4 29.35 93.15 25.25 92.85 25.25 Q87.25 30.1 79.95 30.1 72.65 30.1 67.5 24.25 62.15 18.4 62.15 9.25 62.15 0.05 67.4 -5.5 72.6 -11.05 80.35 -11.6 88.05 -12.2 92.65 -7.35 L92.85 -7.35 93.15 -11.2 106.3 -11.2 M158.3 29.35 L158.3 -27.75 171.7 -27.75 171.7 5.4 183.15 -11.2 197.7 -11.2 183.5 9.05 198.15 29.35 183.35 29.35 171.7 13.75 171.7 29.35 158.3 29.35 M111.85 29.35 L112.1 -10.95 123.8 -10.95 123.8 -6.6 124.25 -6.6 Q129.15 -11.95 136.2 -11.95 144.0 -11.95 148.4 -6.85 152.3 -2.25 152.3 4.85 L152.3 29.35 139.35 29.35 139.35 8.45 Q139.35 0.0 132.05 0.0 129.15 0.0 127.2 2.3 125.05 4.85 125.05 8.45 L125.05 29.35 111.85 29.35 M206.9 22.6 L207.95 22.6 208.7 22.35 209.0 21.65 208.75 20.95 Q208.5 20.65 207.95 20.65 L206.9 20.65 206.9 22.6 M207.95 19.6 Q209.1 19.6 209.7 20.1 210.3 20.6 210.3 21.55 L210.05 22.65 209.15 23.3 210.55 25.95 210.55 26.0 209.15 26.0 207.95 23.65 206.9 23.65 206.9 26.0 205.55 26.0 205.55 19.6 207.95 19.6 M93.5 9.3 Q93.5 5.35 90.7 2.55 87.9 -0.25 83.95 -0.25 80.0 -0.25 77.2 2.55 74.4 5.35 74.4 9.3 74.4 13.25 77.2 16.05 80.0 18.85 83.95 18.85 87.9 18.85 90.7 16.05 93.5 13.25 93.5 9.3 M212.7 27.3 Q210.8 29.25 208.05 29.25 205.3 29.25 203.35 27.3 201.45 25.4 201.45 22.65 201.45 19.9 203.35 17.95 205.3 16.05 208.05 16.05 210.8 16.05 212.7 17.95 214.65 19.9 214.65 22.65 214.65 25.4 212.7 27.3 M213.65 22.65 Q213.65 20.3 212.0 18.65 210.4 17.05 208.05 17.05 205.7 17.05 204.05 18.65 202.45 20.3 202.45 22.65 202.45 25.0 204.05 26.6 205.7 28.25 208.05 28.25 210.4 28.25 212.0 26.6 213.65 25.0 213.65 22.65 M43.85 9.2 Q43.85 4.85 41.2 2.1 38.75 -0.95 34.45 -0.95 30.5 -0.95 27.95 1.85 25.1 4.6 25.1 9.2 25.1 19.55 34.45 19.55 38.75 19.3 41.2 16.75 43.85 13.75 43.85 9.2 M6.2 -11.2 L6.2 29.35 -6.7 29.35 -6.95 25.25 -7.25 25.25 Q-12.85 30.1 -20.15 30.1 -27.45 30.1 -32.6 24.25 -37.95 18.4 -37.95 9.25 -37.95 0.05 -32.7 -5.5 -27.5 -11.05 -19.75 -11.6 -12.05 -12.2 -7.45 -7.35 L-7.25 -7.35 -6.95 -11.2 6.2 -11.2 M-214.6 24.75 L-208.1 13.25 Q-202.05 17.9 -195.2 17.75 -188.4 17.6 -187.7 12.8 -187.0 7.95 -201.1 3.4 -213.15 -1.75 -213.15 -12.7 -213.15 -21.5 -206.0 -26.1 -199.8 -30.2 -190.3 -30.2 -183.65 -30.5 -177.45 -25.8 L-182.0 -14.45 Q-184.3 -16.75 -190.5 -18.15 -198.05 -17.95 -199.05 -13.15 -200.05 -8.4 -186.9 -4.15 -173.8 0.1 -173.8 11.3 -173.8 21.2 -180.95 26.1 -187.05 30.2 -196.9 30.2 -204.0 30.2 -214.6 24.75 M-147.75 30.1 Q-157.4 30.1 -163.5 24.5 -169.55 18.65 -169.55 8.95 -169.55 -0.5 -163.25 -6.35 -157.15 -12.2 -147.75 -12.2 -138.4 -12.2 -132.3 -6.35 L-131.05 -5.05 -139.85 3.9 -141.1 2.45 Q-143.7 -0.1 -147.75 -0.1 -151.75 -0.1 -154.4 2.45 -157.05 4.95 -157.05 9.0 -157.05 13.15 -154.45 15.65 -151.85 18.05 -147.75 18.05 -143.7 18.05 -141.1 15.55 L-140.7 15.15 -132.05 24.05 -132.3 24.25 Q-138.4 30.1 -147.75 30.1 M-110.25 30.1 Q-119.9 30.1 -126.0 24.5 -132.05 18.65 -132.05 8.95 -132.05 -0.5 -125.75 -6.35 -119.65 -12.2 -110.25 -12.2 -100.9 -12.2 -94.8 -6.35 -88.45 -0.25 -88.45 8.95 -88.45 18.4 -94.8 24.25 -100.9 30.1 -110.25 30.1 M-68.3 -23.4 L-68.3 -10.4 -62.75 -10.4 -62.75 0.05 -68.3 0.05 -68.3 30.1 -80.55 30.15 -80.55 0.05 -86.1 0.05 -86.1 -10.4 -80.55 -10.4 -80.55 -23.4 -68.3 -23.4 M-49.7 -29.85 Q-46.85 -29.85 -44.85 -27.9 -42.85 -25.9 -42.85 -23.05 -42.85 -19.9 -44.85 -18.2 -46.65 -16.2 -49.7 -16.2 -52.55 -16.2 -54.55 -18.2 -56.55 -19.9 -56.55 -23.05 -56.55 -25.9 -54.55 -27.9 -52.55 -29.85 -49.7 -29.85 M-55.9 -10.45 L-43.5 -10.45 -43.5 29.4 -55.9 29.4 -55.9 -10.45 M-110.25 18.05 Q-106.2 18.05 -103.6 15.55 -100.9 13.05 -100.9 9.0 -100.9 5.05 -103.6 2.45 -106.2 -0.1 -110.25 -0.1 -114.25 -0.1 -116.9 2.45 -119.55 4.95 -119.55 9.0 -119.55 13.15 -116.95 15.65 -114.35 18.05 -110.25 18.05 M-6.6 9.3 Q-6.6 5.35 -9.4 2.55 -12.2 -0.25 -16.15 -0.25 -20.1 -0.25 -22.9 2.55 -25.7 5.35 -25.7 9.3 -25.7 13.25 -22.9 16.05 -20.1 18.85 -16.15 18.85 -12.2 18.85 -9.4 16.05 -6.6 13.25 -6.6 9.3" fill="#ed0722" fill-rule="evenodd" stroke="none"/>
    </g>
  </defs>
</svg>
