<?xml version="1.0" encoding="UTF-8" standalone="no"?>
<svg xmlns:xlink="http://www.w3.org/1999/xlink" height="70.7px" width="59.35px" xmlns="http://www.w3.org/2000/svg">
  <g transform="matrix(1.0, 0.0, 0.0, 1.0, 29.65, 35.35)">
    <use height="70.7" transform="matrix(1.0, 0.0, 0.0, 1.0, -29.65, -35.35)" width="59.35" xlink:href="#shape0"/>
  </g>
  <defs>
    <g id="shape0" transform="matrix(1.0, 0.0, 0.0, 1.0, 29.65, 35.35)">
      <path d="M26.3 -24.55 Q27.4 -24.05 28.15 -23.1 28.9 -22.1 29.05 -20.9 33.95 22.7 1.65 35.05 0.0 35.7 -1.65 35.05 -31.75 23.55 -29.5 -15.05 L-29.0 -20.9 Q-28.9 -22.1 -28.15 -23.1 -27.4 -24.05 -26.3 -24.55 L-1.75 -34.95 Q0.0 -35.7 1.75 -34.95 L26.3 -24.55" fill="#7b1f92" fill-rule="evenodd" stroke="none"/>
      <path d="M-0.75 8.4 Q-1.75 9.3 -3.1 9.3 -4.45 9.3 -5.45 8.4 L-12.4 2.1 Q-13.45 1.15 -13.55 -0.3 -13.6 -1.75 -12.65 -2.8 -11.7 -3.9 -10.25 -4.0 -8.8 -4.05 -7.7 -3.1 L-3.1 1.05 9.05 -10.05 Q10.1 -11.0 11.55 -10.95 13.0 -10.9 14.0 -9.8 14.95 -8.75 14.9 -7.3 14.85 -5.85 13.75 -4.85 L-0.75 8.4" fill="#fff" fill-rule="evenodd" stroke="none"/>
    </g>
  </defs>
</svg>
