<?xml version="1.0" encoding="UTF-8" standalone="no"?>
<svg xmlns:xlink="http://www.w3.org/1999/xlink" height="51.7px" width="51.7px" xmlns="http://www.w3.org/2000/svg">
  <g transform="matrix(1.0, 0.0, 0.0, 1.0, 25.85, 25.85)">
    <use height="51.7" transform="matrix(1.0, 0.0, 0.0, 1.0, -25.85, -25.85)" width="51.7" xlink:href="#shape0"/>
  </g>
  <defs>
    <g id="shape0" transform="matrix(1.0, 0.0, 0.0, 1.0, 25.85, 25.85)">
      <path d="M25.85 0.0 Q25.85 10.7 18.25 18.25 10.7 25.85 0.0 25.85 -10.7 25.85 -18.3 18.25 -25.85 10.7 -25.85 0.0 -25.85 -10.7 -18.3 -18.3 -10.7 -25.85 0.0 -25.85 10.7 -25.85 18.25 -18.3 25.85 -10.7 25.85 0.0" fill="#fafafb" fill-rule="evenodd" stroke="none"/>
      <path d="M-8.4 9.65 L-2.5 9.65 -4.1 8.05 -4.3 7.85 -4.4 7.75 -5.75 6.4 -8.95 9.65 -8.4 9.65 M-3.8 -1.15 Q-4.5 -0.45 -5.5 -0.45 -6.5 -0.45 -7.25 -1.2 -8.0 -1.95 -8.0 -2.95 -8.0 -3.9 -7.35 -4.65 L-7.2 -4.8 Q-6.45 -5.45 -5.5 -5.45 -4.5 -5.45 -3.75 -4.7 -3.0 -3.95 -3.0 -2.95 -3.0 -1.95 -3.7 -1.25 L-3.8 -1.15 M8.4 9.65 L9.5 9.55 2.95 3.0 -1.6 7.05 -0.15 8.5 Q0.2 8.85 0.2 9.35 L0.2 9.65 8.4 9.65 M-13.65 6.9 L-13.65 -4.45 Q-13.65 -9.7 -8.4 -9.7 L-1.05 -9.7 Q-0.55 -9.7 -0.15 -9.3 L0.2 -8.45 Q0.2 -7.95 -0.15 -7.55 -0.55 -7.2 -1.05 -7.2 L-8.4 -7.2 Q-11.15 -7.2 -11.15 -4.45 L-11.15 6.9 -10.95 8.2 -6.6 3.8 Q-6.25 3.4 -5.75 3.4 -5.25 3.4 -4.85 3.8 L-3.35 5.3 2.1 0.35 Q2.45 0.0 3.0 0.0 3.45 0.0 3.85 0.4 L11.1 7.65 11.15 6.9 11.15 0.6 Q11.15 0.1 11.55 -0.25 11.9 -0.65 12.4 -0.65 12.9 -0.65 13.3 -0.25 13.65 0.1 13.65 0.6 L13.65 6.9 Q13.65 9.2 12.55 10.5 L12.45 10.65 Q11.15 12.15 8.4 12.15 L-8.4 12.15 Q-10.7 12.15 -11.9 11.1 L-11.95 11.05 Q-13.65 9.75 -13.65 6.9 M6.95 -10.75 Q6.95 -11.25 7.35 -11.6 7.7 -12.0 8.2 -12.0 8.7 -12.0 9.1 -11.6 L9.45 -10.75 9.45 -8.1 12.1 -8.1 13.0 -7.7 Q13.35 -7.35 13.35 -6.85 13.35 -6.35 13.0 -5.95 12.6 -5.6 12.1 -5.6 L9.45 -5.6 9.45 -2.95 Q9.45 -2.45 9.1 -2.05 8.7 -1.7 8.2 -1.7 7.7 -1.7 7.35 -2.05 6.95 -2.45 6.95 -2.95 L6.95 -5.6 4.3 -5.6 Q3.8 -5.6 3.45 -5.95 3.05 -6.35 3.05 -6.85 3.05 -7.35 3.45 -7.7 3.8 -8.1 4.3 -8.1 L6.95 -8.1 6.95 -10.75" fill="#742284" fill-rule="evenodd" stroke="none"/>
    </g>
  </defs>
</svg>
