<?xml version="1.0" encoding="UTF-8" standalone="no"?>
<svg xmlns:xlink="http://www.w3.org/1999/xlink" height="57.6px" width="44.65px" xmlns="http://www.w3.org/2000/svg">
  <g transform="matrix(1.0, 0.0, 0.0, 1.0, 22.3, 28.8)">
    <use height="57.6" transform="matrix(1.0, 0.0, 0.0, 1.0, -22.3, -28.8)" width="44.65" xlink:href="#shape0"/>
  </g>
  <defs>
    <g id="shape0" transform="matrix(1.0, 0.0, 0.0, 1.0, 22.3, 28.8)">
      <path d="M-2.1 13.1 Q-1.25 13.1 -0.65 13.7 -0.1 14.25 -0.1 15.1 -0.1 15.95 -0.65 16.55 -1.25 17.1 -2.1 17.1 L-9.1 17.1 Q-9.95 17.1 -10.5 16.55 -11.1 15.95 -11.1 15.1 -11.1 14.25 -10.5 13.7 -9.95 13.1 -9.1 13.1 L-2.1 13.1 M8.25 1.5 Q9.1 1.5 9.7 2.1 10.25 2.65 10.25 3.5 10.25 4.35 9.7 4.95 9.1 5.5 8.25 5.5 L-9.1 5.5 Q-9.95 5.5 -10.5 4.95 -11.1 4.35 -11.1 3.5 -11.1 2.65 -10.5 2.1 -9.95 1.5 -9.1 1.5 L8.25 1.5 M-7.7 -16.5 L-7.7 -23.75 -17.65 -13.45 -10.7 -13.5 Q-7.7 -13.5 -7.7 -16.5 M-18.3 21.8 Q-18.3 24.8 -15.3 24.8 L15.35 24.8 Q18.35 24.8 18.35 21.8 L18.35 -21.8 Q18.35 -24.8 15.35 -24.8 L-3.7 -24.8 -3.7 -16.5 Q-3.7 -9.5 -10.7 -9.5 L-18.3 -9.45 -18.3 21.8 M15.35 -28.8 Q22.35 -28.8 22.35 -21.8 L22.35 21.8 Q22.35 28.8 15.35 28.8 L-15.3 28.8 Q-22.3 28.8 -22.3 21.8 L-22.3 -13.6 Q-22.3 -14.4 -21.7 -15.0 L-8.95 -28.2 Q-8.4 -28.8 -7.55 -28.8 L15.35 -28.8" fill="#736a7c" fill-rule="evenodd" stroke="none"/>
    </g>
  </defs>
</svg>
