<?xml version="1.0" encoding="UTF-8" standalone="no"?>
<svg xmlns:xlink="http://www.w3.org/1999/xlink" height="39.8px" width="39.8px" xmlns="http://www.w3.org/2000/svg">
  <g transform="matrix(1.0, 0.0, 0.0, 1.0, 19.9, 19.9)">
    <use height="39.8" transform="matrix(1.0, 0.0, 0.0, 1.0, -19.9, -19.9)" width="39.8" xlink:href="#shape0"/>
  </g>
  <defs>
    <g id="shape0" transform="matrix(1.0, 0.0, 0.0, 1.0, 19.9, 19.9)">
      <path d="M-19.9 -19.9 L19.9 -19.9 19.9 19.9 -19.9 19.9 -19.9 -19.9" fill="#ffffff" fill-opacity="0.0" fill-rule="evenodd" stroke="none"/>
      <path d="M-8.6 -14.35 L8.65 -14.35 Q16.65 -14.35 16.65 -6.35 L16.65 11.35 Q16.65 19.35 8.65 19.35 L-8.6 19.35 Q-16.6 19.35 -16.6 11.35 L-16.6 -6.35 Q-16.6 -14.35 -8.6 -14.35" fill="#791e99" fill-rule="evenodd" stroke="none"/>
      <path d="M-0.15 6.15 Q1.7 6.15 3.0 7.45 4.3 8.75 4.3 10.6 L4.3 19.35 -4.6 19.35 -4.6 10.6 Q-4.6 8.75 -3.3 7.45 -2.0 6.15 -0.15 6.15" fill="#0bd0aa" fill-rule="evenodd" stroke="none"/>
      <path d="M-8.05 -8.0 Q-10.0 -6.05 -12.75 -6.05 -15.5 -6.05 -17.45 -8.0 -19.4 -9.95 -19.4 -12.7 -19.4 -15.45 -17.45 -17.4 -15.5 -19.35 -12.75 -19.35 L-11.95 -19.3 -11.95 -19.35 12.05 -19.35 12.05 -19.3 12.75 -19.35 Q15.5 -19.35 17.45 -17.4 19.4 -15.45 19.4 -12.7 19.4 -9.95 17.45 -8.0 15.5 -6.05 12.75 -6.05 10.0 -6.05 8.05 -8.0 6.85 -9.2 6.4 -10.65 5.95 -9.2 4.75 -8.0 2.8 -6.05 0.05 -6.05 -2.7 -6.05 -4.65 -8.0 -5.9 -9.25 -6.35 -10.8 -6.8 -9.25 -8.05 -8.0" fill="#f8cef8" fill-rule="evenodd" stroke="none"/>
    </g>
  </defs>
</svg>
