<?xml version="1.0" encoding="UTF-8" standalone="no"?>
<svg xmlns:xlink="http://www.w3.org/1999/xlink" height="76.0px" width="76.0px" xmlns="http://www.w3.org/2000/svg">
  <g transform="matrix(1.0, 0.0, 0.0, 1.0, 38.0, 38.0)">
    <use height="76.0" transform="matrix(1.0, 0.0, 0.0, 1.0, -38.0, -38.0)" width="76.0" xlink:href="#shape0"/>
  </g>
  <defs>
    <g id="shape0" transform="matrix(1.0, 0.0, 0.0, 1.0, 38.0, 38.0)">
      <path d="M-38.0 -38.0 L38.0 -38.0 38.0 38.0 -38.0 38.0 -38.0 -38.0" fill="#ffffff" fill-opacity="0.0" fill-rule="evenodd" stroke="none"/>
      <path d="M-9.25 10.5 Q-6.6 10.5 -4.6 9.05 -3.1 7.9 -3.05 6.25 -3.1 4.65 -4.6 3.5 L-4.55 3.5 Q-6.6 2.15 -9.25 2.15 L-9.55 2.15 -9.75 2.15 Q-13.3 1.6 -16.0 -0.45 -19.1 -2.75 -19.0 -6.05 -19.1 -9.4 -16.0 -11.7 L-15.95 -11.7 Q-13.9 -13.3 -11.35 -13.6 L-11.35 -16.3 Q-11.35 -17.05 -10.75 -17.5 -10.3 -18.1 -9.55 -18.1 -8.85 -18.1 -8.25 -17.5 -7.75 -17.05 -7.75 -16.3 L-7.75 -13.75 Q-4.75 -13.4 -2.45 -11.7 0.7 -9.4 0.65 -6.05 L0.65 -5.35 Q0.65 -4.6 0.1 -4.05 -0.45 -3.5 -1.2 -3.5 -1.95 -3.5 -2.45 -4.05 -3.05 -4.6 -3.05 -5.35 L-3.05 -6.05 Q-3.1 -7.7 -4.6 -8.85 L-4.55 -8.85 Q-6.6 -10.2 -9.25 -10.2 L-9.45 -10.2 -9.55 -10.2 Q-11.9 -10.15 -13.85 -8.85 -15.35 -7.7 -15.4 -6.05 -15.35 -4.45 -13.85 -3.3 -11.9 -1.95 -9.55 -1.55 L-9.25 -1.55 Q-5.25 -1.55 -2.45 0.6 0.7 2.9 0.65 6.25 0.7 9.6 -2.45 11.9 -4.7 13.7 -7.75 14.0 L-7.75 16.05 Q-7.75 16.75 -8.25 17.35 -8.85 17.85 -9.55 17.85 -10.3 17.85 -10.75 17.35 -11.35 16.75 -11.35 16.05 L-11.35 13.95 Q-13.9 13.4 -16.0 11.9 -19.1 9.6 -19.0 6.25 L-18.8 5.2 Q-18.6 4.55 -17.95 4.2 L-16.55 4.15 Q-15.9 4.4 -15.45 5.0 -15.2 5.65 -15.4 6.25 -15.35 7.9 -13.85 9.05 -11.9 10.4 -9.55 10.5 L-9.45 10.5 -9.25 10.5 M9.55 19.1 Q1.65 27.0 -9.55 27.0 -20.75 27.0 -28.65 19.1 -36.55 11.2 -36.55 0.0 -36.55 -11.2 -28.65 -19.1 -20.75 -27.0 -9.55 -27.0 1.65 -27.0 9.55 -19.1 17.45 -11.2 17.45 0.0 17.45 11.2 9.55 19.1 M14.15 0.0 Q14.15 -9.8 7.2 -16.75 0.25 -23.7 -9.55 -23.7 -19.35 -23.7 -26.3 -16.75 -33.25 -9.8 -33.25 0.0 -33.25 9.8 -26.3 16.75 -19.35 23.7 -9.55 23.7 0.25 23.7 7.2 16.75 14.15 9.8 14.15 0.0" fill="#1b7c5e" fill-rule="evenodd" stroke="none"/>
      <path d="M30.4 -3.9 Q29.9 -3.45 29.25 -3.45 28.55 -3.45 28.1 -3.95 27.6 -4.45 27.6 -5.1 27.6 -5.8 28.1 -6.25 L30.95 -9.1 21.4 -9.1 Q20.7 -9.1 20.25 -9.55 19.75 -10.05 19.75 -10.75 19.75 -11.45 20.25 -11.9 20.7 -12.4 21.4 -12.4 L30.9 -12.4 28.1 -15.2 Q27.6 -15.7 27.6 -16.4 27.6 -17.1 28.1 -17.55 28.55 -18.05 29.25 -18.05 29.95 -18.05 30.45 -17.55 L36.1 -11.9 36.55 -11.05 36.55 -10.4 36.4 -10.0 36.2 -9.7 36.15 -9.65 36.1 -9.55 35.9 -9.4 30.4 -3.9 M25.9 4.05 Q26.35 3.55 27.05 3.55 27.7 3.55 28.2 4.05 28.7 4.5 28.7 5.2 28.7 5.85 28.25 6.35 L25.4 9.2 34.9 9.2 Q35.6 9.2 36.1 9.7 36.55 10.15 36.55 10.85 36.55 11.55 36.1 12.05 35.6 12.5 34.9 12.5 L25.4 12.5 28.25 15.35 Q28.7 15.8 28.7 16.5 28.7 17.2 28.25 17.7 27.75 18.15 27.05 18.15 26.35 18.15 25.9 17.7 L20.25 12.05 19.85 11.35 19.75 10.9 19.75 10.85 19.8 10.6 19.8 10.5 19.95 10.1 20.25 9.7 20.4 9.55 25.9 4.05" fill="#6d51a5" fill-rule="evenodd" stroke="none"/>
    </g>
  </defs>
</svg>
