<?xml version="1.0" encoding="UTF-8" standalone="no"?>
<svg xmlns:xlink="http://www.w3.org/1999/xlink" height="61.0px" width="61.0px" xmlns="http://www.w3.org/2000/svg">
  <g transform="matrix(1.0, 0.0, 0.0, 1.0, 30.5, 30.9)">
    <use height="61.0" transform="matrix(1.0, 0.0, 0.0, 1.0, -30.5, -30.9)" width="61.0" xlink:href="#shape0"/>
  </g>
  <defs>
    <g id="shape0" transform="matrix(1.0, 0.0, 0.0, 1.0, 30.5, 30.9)">
      <path d="M-30.5 -30.9 L30.5 -30.9 30.5 30.1 -30.5 30.1 -30.5 -30.9" fill="#ffffff" fill-opacity="0.0" fill-rule="evenodd" stroke="none"/>
      <path d="M16.15 10.3 Q10.4 19.2 1.15 28.2 0.6 28.7 -0.1 28.7 -0.85 28.7 -1.35 28.2 -13.3 16.15 -17.45 8.75 L-17.45 8.8 Q-21.85 1.1 -22.05 -7.8 -22.25 -17.05 -15.8 -23.55 L-15.75 -23.6 Q-9.25 -30.05 -0.1 -30.05 9.1 -30.05 15.55 -23.55 22.05 -17.05 22.05 -7.9 22.1 1.0 16.15 10.3 M18.55 -7.9 Q18.55 -15.6 13.1 -21.1 7.65 -26.55 -0.1 -26.55 -7.8 -26.55 -13.3 -21.1 -18.75 -15.65 -18.55 -7.9 -18.35 0.1 -14.4 7.05 -10.6 13.75 -0.05 24.5 8.0 16.4 13.2 8.4 18.5 0.1 18.55 -7.9 M6.25 -1.95 Q3.65 0.65 -0.1 0.65 -3.8 0.65 -6.4 -1.95 -9.1 -4.65 -9.1 -8.3 -9.1 -12.0 -6.4 -14.65 -3.8 -17.3 -0.1 -17.3 3.65 -17.3 6.25 -14.65 8.85 -12.0 8.85 -8.3 8.85 -4.65 6.25 -1.95 M5.35 -8.3 Q5.35 -10.55 3.8 -12.2 L3.75 -12.2 Q2.15 -13.8 -0.1 -13.8 -2.35 -13.8 -3.95 -12.2 -5.6 -10.55 -5.6 -8.3 -5.6 -6.05 -3.95 -4.4 -2.35 -2.85 -0.1 -2.85 2.2 -2.85 3.8 -4.4 L3.75 -4.4 Q5.35 -6.05 5.35 -8.3" fill="#787878" fill-rule="evenodd" stroke="none"/>
    </g>
  </defs>
</svg>
