<?xml version="1.0" encoding="UTF-8" standalone="no"?>
<svg xmlns:xlink="http://www.w3.org/1999/xlink" height="57.75px" width="57.75px" xmlns="http://www.w3.org/2000/svg">
  <g transform="matrix(1.0, 0.0, 0.0, 1.0, 28.85, 28.9)">
    <use height="57.75" transform="matrix(1.0, 0.0, 0.0, 1.0, -28.85, -28.9)" width="57.75" xlink:href="#shape0"/>
  </g>
  <defs>
    <g id="shape0" transform="matrix(1.0, 0.0, 0.0, 1.0, 28.85, 28.9)">
      <path d="M-28.85 -28.9 L28.9 -28.9 28.9 28.85 -28.85 28.85 -28.85 -28.9" fill="#ffffff" fill-opacity="0.0" fill-rule="evenodd" stroke="none"/>
      <path d="M-11.7 10.7 Q-10.75 10.7 -10.75 11.6 L-10.75 14.35 Q-10.75 15.3 -11.7 15.3 L-14.4 15.3 Q-15.35 15.3 -15.35 14.35 L-15.35 11.6 Q-15.35 10.7 -14.4 10.7 L-11.7 10.7 M-19.6 6.05 Q-20.0 6.05 -20.0 6.45 L-20.0 19.55 Q-20.0 19.95 -19.6 19.95 L-6.55 19.95 Q-6.1 19.95 -6.1 19.55 L-6.1 6.45 Q-6.1 6.05 -6.55 6.05 L-19.6 6.05 M-6.55 2.15 Q-2.2 2.15 -2.2 6.45 L-2.2 19.55 Q-2.2 23.9 -6.55 23.9 L-19.6 23.9 Q-23.95 23.9 -23.95 19.55 L-23.95 6.45 Q-23.95 2.15 -19.6 2.15 L-6.55 2.15 M-11.7 -15.4 Q-10.75 -15.4 -10.75 -14.55 L-10.75 -11.8 Q-10.75 -10.85 -11.7 -10.85 L-14.4 -10.85 Q-15.35 -10.85 -15.35 -11.8 L-15.35 -14.55 Q-15.35 -15.4 -14.4 -15.4 L-11.7 -15.4 M-19.6 -20.1 Q-20.0 -20.1 -20.0 -19.65 L-20.0 -6.6 Q-20.0 -6.2 -19.6 -6.2 L-6.55 -6.2 Q-6.1 -6.2 -6.1 -6.6 L-6.1 -19.65 Q-6.1 -20.1 -6.55 -20.1 L-19.6 -20.1 M-6.55 -24.0 Q-2.2 -24.0 -2.2 -19.65 L-2.2 -6.6 Q-2.2 -2.25 -6.55 -2.25 L-19.6 -2.25 Q-23.95 -2.25 -23.95 -6.6 L-23.95 -19.65 Q-23.95 -24.0 -19.6 -24.0 L-6.55 -24.0 M3.85 22.25 Q2.6 22.25 2.6 21.05 L2.6 17.0 Q2.6 15.8 3.85 15.8 L7.9 15.8 Q9.05 15.8 9.05 17.0 L9.05 21.05 Q9.05 22.25 7.9 22.25 L3.85 22.25 M7.9 2.25 Q9.05 2.25 9.05 3.5 L9.05 7.55 Q9.05 8.7 7.9 8.7 L3.85 8.7 Q2.6 8.7 2.6 7.55 L2.6 3.5 Q2.6 2.25 3.85 2.25 L7.9 2.25 M14.25 9.05 Q15.45 9.05 15.45 10.2 L15.45 14.3 Q15.45 15.5 14.25 15.5 L10.2 15.5 Q9.0 15.5 9.0 14.3 L9.0 10.2 Q9.0 9.05 10.2 9.05 L14.25 9.05 M16.55 22.25 Q15.35 22.25 15.35 21.05 L15.35 17.0 Q15.35 15.8 16.55 15.8 L20.65 15.8 Q21.8 15.8 21.8 17.0 L21.8 21.05 Q21.8 22.25 20.65 22.25 L16.55 22.25 M20.65 2.25 Q21.8 2.25 21.8 3.5 L21.8 7.55 Q21.8 8.7 20.65 8.7 L16.55 8.7 Q15.35 8.7 15.35 7.55 L15.35 3.5 Q15.35 2.25 16.55 2.25 L20.65 2.25 M19.6 -24.0 Q23.95 -24.0 23.95 -19.65 L23.95 -6.6 Q23.95 -2.25 19.6 -2.25 L6.55 -2.25 Q2.2 -2.25 2.2 -6.6 L2.2 -19.65 Q2.2 -24.0 6.55 -24.0 L19.6 -24.0 M6.55 -20.1 Q6.15 -20.1 6.15 -19.65 L6.15 -6.6 Q6.15 -6.2 6.55 -6.2 L19.6 -6.2 Q20.05 -6.2 20.05 -6.6 L20.05 -19.65 19.6 -20.1 6.55 -20.1 M14.45 -15.4 Q15.35 -15.4 15.35 -14.55 L15.35 -11.8 Q15.35 -10.85 14.45 -10.85 L11.75 -10.85 Q10.8 -10.85 10.8 -11.8 L10.8 -14.55 Q10.8 -15.4 11.75 -15.4 L14.45 -15.4" fill="#333333" fill-rule="evenodd" stroke="none"/>
    </g>
  </defs>
</svg>
