<?xml version="1.0" encoding="UTF-8" standalone="no"?>
<svg xmlns:xlink="http://www.w3.org/1999/xlink" height="39.8px" width="39.8px" xmlns="http://www.w3.org/2000/svg">
  <g transform="matrix(1.0, 0.0, 0.0, 1.0, 19.9, 19.9)">
    <use height="39.8" transform="matrix(1.0, 0.0, 0.0, 1.0, -19.9, -19.9)" width="39.8" xlink:href="#shape0"/>
  </g>
  <defs>
    <g id="shape0" transform="matrix(1.0, 0.0, 0.0, 1.0, 19.9, 19.9)">
      <path d="M-19.9 -19.9 L19.9 -19.9 19.9 19.9 -19.9 19.9 -19.9 -19.9" fill="#ffffff" fill-opacity="0.0" fill-rule="evenodd" stroke="none"/>
      <path d="M2.25 14.6 Q2.25 15.55 1.6 16.2 0.95 16.85 0.0 16.85 -0.95 16.85 -1.6 16.2 -2.25 15.55 -2.25 14.6 L-2.25 2.25 -14.55 2.25 Q-15.5 2.25 -16.15 1.6 -16.8 0.95 -16.8 0.0 -16.8 -0.95 -16.15 -1.6 -15.5 -2.25 -14.55 -2.25 L-2.25 -2.25 -2.25 -14.55 Q-2.25 -15.5 -1.6 -16.15 -0.95 -16.8 0.0 -16.8 0.95 -16.8 1.6 -16.15 2.25 -15.5 2.25 -14.55 L2.25 -2.25 14.6 -2.25 Q15.55 -2.25 16.2 -1.6 16.85 -0.95 16.85 0.0 16.85 0.95 16.2 1.6 15.55 2.25 14.6 2.25 L2.25 2.25 2.25 14.6" fill="#fff" fill-rule="evenodd" stroke="none"/>
    </g>
  </defs>
</svg>
