<?xml version="1.0" encoding="UTF-8" standalone="no"?>
<svg xmlns:xlink="http://www.w3.org/1999/xlink" height="39.8px" width="39.8px" xmlns="http://www.w3.org/2000/svg">
  <g transform="matrix(1.0, 0.0, 0.0, 1.0, 19.9, 19.9)">
    <use height="39.8" transform="matrix(1.0, 0.0, 0.0, 1.0, -19.9, -19.9)" width="39.8" xlink:href="#shape0"/>
  </g>
  <defs>
    <g id="shape0" transform="matrix(1.0, 0.0, 0.0, 1.0, 19.9, 19.9)">
      <path d="M-19.9 -19.9 L19.9 -19.9 19.9 19.9 -19.9 19.9 -19.9 -19.9" fill="#ffffff" fill-opacity="0.0" fill-rule="evenodd" stroke="none"/>
      <path d="M13.0 -17.1 Q11.5 -17.05 10.45 -16.0 9.35 -14.9 9.35 -13.35 L9.35 -5.35 9.35 13.6 Q9.35 15.0 8.4 16.05 7.4 17.05 6.05 17.1 4.65 17.15 3.6 16.25 L-3.7 10.0 -11.05 16.3 Q-12.1 17.15 -13.5 17.1 -14.9 17.0 -15.85 16.0 -16.8 15.0 -16.8 13.6 L-16.8 -9.1 Q-16.8 -12.4 -14.45 -14.75 -12.1 -17.1 -8.8 -17.1 L13.0 -17.1" fill="#791e99" fill-rule="evenodd" stroke="none"/>
      <path d="M9.35 -5.35 L9.35 -13.35 Q9.35 -14.9 10.45 -16.0 11.5 -17.05 13.0 -17.1 L13.1 -17.1 Q14.65 -17.1 15.75 -16.0 16.85 -14.9 16.85 -13.35 L16.85 -5.45 Q16.85 -3.9 15.75 -2.8 14.65 -1.7 13.1 -1.7 11.55 -1.7 10.45 -2.8 9.4 -3.85 9.35 -5.35" fill="#0bd0aa" fill-rule="evenodd" stroke="none"/>
      <path d="M4.05 -9.15 Q4.9 -9.15 5.5 -8.55 6.05 -8.0 6.05 -7.15 6.05 -6.3 5.5 -5.7 4.9 -5.15 4.05 -5.15 L-3.5 -5.15 Q-4.35 -5.15 -4.9 -5.7 -5.5 -6.3 -5.5 -7.15 -5.5 -8.0 -4.9 -8.55 -4.35 -9.15 -3.5 -9.15 L4.05 -9.15 M4.05 -0.65 Q4.9 -0.65 5.5 -0.05 6.05 0.5 6.05 1.35 6.05 2.2 5.5 2.8 4.9 3.35 4.05 3.35 L-3.5 3.35 Q-4.35 3.35 -4.9 2.8 -5.5 2.2 -5.5 1.35 -5.5 0.5 -4.9 -0.05 -4.35 -0.65 -3.5 -0.65 L4.05 -0.65 M-9.15 1.35 Q-9.15 2.2 -9.75 2.75 -10.3 3.35 -11.15 3.35 -12.0 3.35 -12.6 2.75 -13.15 2.2 -13.15 1.35 -13.15 0.5 -12.6 -0.1 -12.0 -0.65 -11.15 -0.65 -10.3 -0.65 -9.75 -0.1 -9.15 0.5 -9.15 1.35 M-9.15 -7.15 Q-9.15 -6.3 -9.75 -5.75 -10.3 -5.15 -11.15 -5.15 -12.0 -5.15 -12.6 -5.75 -13.15 -6.3 -13.15 -7.15 -13.15 -8.0 -12.6 -8.6 -12.0 -9.15 -11.15 -9.15 -10.3 -9.15 -9.75 -8.6 -9.15 -8.0 -9.15 -7.15" fill="#f8cef8" fill-rule="evenodd" stroke="none"/>
    </g>
  </defs>
</svg>
