<?xml version="1.0" encoding="UTF-8" standalone="no"?>
<svg xmlns:xlink="http://www.w3.org/1999/xlink" height="178.6px" width="178.6px" xmlns="http://www.w3.org/2000/svg">
  <g transform="matrix(1.0, 0.0, 0.0, 1.0, 89.3, 89.3)">
    <use height="178.6" transform="matrix(1.0, 0.0, 0.0, 1.0, -89.3, -89.3)" width="178.6" xlink:href="#shape0"/>
  </g>
  <defs>
    <g id="shape0" transform="matrix(1.0, 0.0, 0.0, 1.0, 89.3, 89.3)">
      <path d="M89.3 0.0 Q89.3 37.0 63.15 63.15 37.0 89.3 0.0 89.3 -37.0 89.3 -63.15 63.15 -89.3 37.0 -89.3 0.0 -89.3 -37.0 -63.15 -63.15 -37.0 -89.3 0.0 -89.3 37.0 -89.3 63.15 -63.15 89.3 -37.0 89.3 0.0" fill="#c1fff6" fill-rule="evenodd" stroke="none"/>
      <path d="M45.4 -24.95 Q45.4 -5.9 31.9 7.55 25.35 14.15 17.0 38.2 L-19.15 38.2 Q-26.55 14.15 -33.15 7.55 -46.6 -5.9 -46.6 -24.95 -46.6 -44.05 -33.15 -57.5 -19.65 -70.95 -0.6 -70.95 18.45 -70.95 31.9 -57.5 45.4 -44.05 45.4 -24.95" fill="#f5cf72" fill-rule="evenodd" stroke="none"/>
      <path d="M17.0 50.55 Q17.0 58.3 11.55 63.75 6.1 69.2 -1.65 69.2 -9.4 69.2 -14.85 63.75 -20.3 58.3 -20.3 50.55 L-20.3 49.9 Q-19.9 47.15 -22.9 46.85 L-22.9 41.65 Q-19.8 40.85 -17.2 39.15 L-14.85 37.35 Q-12.2 34.7 -9.05 33.35 -5.65 31.9 -1.65 31.9 6.1 31.9 11.55 37.35 L14.35 39.4 Q17.55 40.75 21.15 41.65 L21.15 46.85 Q18.15 47.65 17.05 49.9 L17.0 50.55" fill="#7c768b" fill-rule="evenodd" stroke="none"/>
      <path d="M-18.75 -8.85 Q-17.35 -2.6 -11.55 -1.7 L-11.55 -7.95 Q-11.65 -13.25 -13.05 -15.65 -14.0 -17.05 -15.75 -16.7 -20.25 -15.55 -18.75 -8.85 M5.05 31.65 L5.05 3.45 -6.55 3.45 -6.55 31.65 5.05 31.65 M-24.2 56.85 Q-26.25 56.85 -27.7 55.4 -29.2 53.9 -29.2 51.85 -29.2 49.8 -27.7 48.35 -26.25 46.85 -24.2 46.85 L22.9 46.85 Q24.95 46.85 26.45 48.35 27.9 49.8 27.9 51.85 27.9 53.9 26.45 55.4 24.95 56.85 22.9 56.85 L-24.2 56.85 M-24.2 41.65 Q-26.25 41.65 -27.7 40.2 -29.2 38.7 -29.2 36.65 -29.2 34.6 -27.7 33.15 -26.25 31.65 -24.2 31.65 L-11.55 31.65 -11.55 3.35 Q-21.4 2.4 -23.65 -7.75 -26.35 -20.1 -16.7 -21.6 -11.5 -22.6 -8.85 -18.35 -6.65 -15.2 -6.55 -8.0 L-6.55 -1.55 5.05 -1.55 5.05 -8.0 Q5.15 -15.2 7.35 -18.35 10.0 -22.6 15.25 -21.6 24.85 -20.1 22.15 -7.75 19.9 2.4 10.05 3.35 L10.05 31.65 22.9 31.65 Q24.95 31.65 26.45 33.15 27.9 34.6 27.9 36.65 27.9 38.7 26.45 40.2 24.95 41.65 22.9 41.65 L-24.2 41.65 M17.25 -8.85 Q18.75 -15.55 14.3 -16.7 12.5 -17.05 11.55 -15.65 10.15 -13.25 10.05 -7.95 L10.05 -1.7 Q15.85 -2.6 17.25 -8.85" fill="#534c68" fill-rule="evenodd" stroke="none"/>
    </g>
  </defs>
</svg>
